<?xml version="1.0" encoding="UTF-8"?><svg id="a" xmlns="http://www.w3.org/2000/svg" viewBox="0 0 250 250"><path d="M68.77,203.16c4.45-5.09,8.91-10.19,13.74-15.72,20.94,18.16,44.72,26.42,72.16,21.6,18.81-3.3,34.79-12.08,47.75-26.16,26.27-28.54,29.84-71.84,8.68-104.58-21.02-32.51-62-46.62-99.19-34.13-36.97,12.41-60.22,47.89-57.35,88.68,5.24-5.87,10.01-11.2,15.11-16.9,5.33,4.66,10.51,9.19,15.98,13.97-11.98,13.7-23.69,27.08-35.77,40.88-15.31-9.35-30.45-18.59-46.07-28.12,3.67-6.02,7.18-11.79,11.08-18.18,5.83,3.52,11.44,6.91,18.02,10.88-1.78-39.64,11.42-72.16,42.88-96.03,19.36-14.69,41.59-21.46,65.85-21.01,48.6,.91,90.33,34.39,101.54,81.18,11.3,47.19-9.98,95.97-51.87,118.9-40.92,22.4-89.64,15.83-122.54-15.26Z"/></svg>