<svg id="Layer_1" data-name="Layer 1" xmlns="http://www.w3.org/2000/svg" xmlns:xlink="http://www.w3.org/1999/xlink" width="1920" height="1080" viewBox="0 0 1920 1080"><defs><style>.cls-1{fill:#ffb611;}.cls-2{fill:#724f08;}.cls-3{fill:#603813;}.cls-4{fill:#006837;}.cls-5{fill:#de3832;}.cls-6{fill:none;stroke:#000;stroke-linecap:round;stroke-miterlimit:10;stroke-width:12px;}</style></defs><title>Artboard 14</title><image width="1993" height="1153" transform="translate(-36 -36)" xlink:href="Artboard%20141.png"/><g id="_Vsække_" data-name="&lt;Vsække&gt;"><g id="sæk"><path class="cls-1" d="M830.44,392c-36.71-1-68.65,59.19-88.92,99.38-7.08,14-15.88,37.95-33.48,85.79-11.38,30.94-14.27,40.79-14.65,54.39-1,36.14,16.69,63.66,23,73.23,31,47,81.82,61.38,108.79,69,73.77,21,135.16.56,154.83-6.28,31-10.77,66.15-23,92.06-58.58,30.12-41.38,28.09-87.36,27.2-102.52-1.78-30.34-15.83-57.19-43.94-110.89-8.38-16-26.51-38.58-62.77-83.69-5.15-6.42-16.38-20-29.29-18.83-6.71.62-14.33,1.66-26.15,7.32,0,0-20.92,12.55-58.58,4.19C839.21,395.76,834.67,392.07,830.44,392Z"/><path class="cls-2" d="M956,362.66c18.07-8.75,31.49-7.19,43.35-23,10.24-13.65,17.21-22.94,20.93-37.66,5-19.94,2.23-42.42-4.19-43.94-3.16-.75-4.88,4.13-12.55,8.37-9.37,5.18-18.88,4.58-25.11,4.18-25.57-1.62-37.91-21.38-71.13-31.38-14.79-4.45-33.85-10.19-52.31-2.09-19.15,8.39-20.39,24.1-37.66,27.2-19.28,3.45-29.5-14-39.75-8.37-12.42,6.83,2.09,34.63,9,54.39,8.69,25.06,26.12,35.73,33.47,41.85,12.21,10.15,27.64,13.06,31.39,14.65,12.77,5.39,7.48,17,22.43,18.83,13.62,1.62,27.9-8.92,50.8-12.56C937.12,371.13,945.58,367.69,956,362.66Z"/><path class="cls-1" d="M832.53,377.31c-18.08-8.76-27.89-21.84-39.75-37.66C782.54,326,775.57,316.71,771.85,302c-5-19.94-2.23-42.42,4.19-43.94,3.16-.75,4.88,4.13,12.55,8.37,9.37,5.18,18.87,4.58,25.11,4.18,25.56-1.62,37.91-21.38,71.13-31.38,14.79-4.45,33.85-10.19,52.31-2.09,19.14,8.39,20.39,24.1,37.66,27.2,19.28,3.45,29.5-14,39.75-8.37,12.42,6.83,9,38.81,2.1,58.58-8.7,25.06-26.13,39.91-33.48,46A110.19,110.19,0,0,1,956,377.31c-12.77,5.39-22.71,6.58-37.66,8.37-13.62,1.62-31.5,3.63-54.4,0C851.38,383.68,842.92,382.34,832.53,377.31Z"/><path class="cls-3" d="M956,377.31c2.43-.13,7,1.76,8.37,4.18,1.85,3.25-1.1,9.27-2.09,10.46-6.88,8.21-20,13-35.57,14.65-13.73,1.49-17.2.73-54.4,0-13.65-.27-28.22-2.56-37.66-10.46-2-1.7-6.2-5.3-6.28-10.46,0-2.94,1.24-6.69,4.19-8.37s6.36-.64,8.37,0c11.31,3.57,20.54,8.37,23,8.37,6.28,0,13.74,2.51,27.2,2.09a168.53,168.53,0,0,0,31.38-4.19A130,130,0,0,1,956,377.31Z"/><path class="cls-4" d="M934.36,487.91l1.57,15.55.69-.07a271.14,271.14,0,0,1,38.08-.79q28.15,1.15,28.79,7.32.81,8.08-14.53,9.64-6.91.71-24.44.47a233.82,233.82,0,0,0-26.84.81l3.79,37.43q38.29-2,61,7.31,20.75,8.68,22.27,23.77,1.86,18.48-20.88,33-20.13,12.81-53.94,19.67l2.47,24.46q.36,3.59-3.8,6.38a23.66,23.66,0,0,1-10.89,3.47q-15.18,1.53-16-6.56l-2.37-23.46q-84.24,7.88-86.52-14.76-.84-8.28,13.48-9.72a36.88,36.88,0,0,1,15.86,1.83,123.18,123.18,0,0,0,17.4,4.93q14.17,2.29,38,.43l-5.27-52.15-1.38.14q-26.79,2.15-46.93-2.32-24.94-5.46-26.37-19.54-1.27-12.6,19.68-26,19.3-12.36,48.16-20l-1.79-17.65c-.24-2.4,1.08-4.54,4-6.44a24.13,24.13,0,0,1,11.05-3.54Q933.57,480.09,934.36,487.91Zm-23.74,72-3.34-33q-33.63,10.38-32.16,24.81Q876,560.62,910.62,559.91Zm32.66,16.3L948.11,624q18-5.16,29.55-12.84,12.87-8.73,12-17.28Q988.07,577.92,943.28,576.21Z"/></g><g id="sæk-2" data-name="sæk"><path class="cls-1" d="M683.39,593.41c-17.13,3.82-24.89,35.46-29.59,56.45-1.64,7.33-2.92,19.45-5.49,43.67-1.65,15.67-1.84,20.58-.42,26.92,3.76,16.87,15.17,27.55,19.22,31.25,19.88,18.13,45.1,18.88,58.5,19.28,36.63,1.09,62.7-15.54,71-21,13.1-8.61,28-18.39,35.82-37.91,9.12-22.7,2.8-43.77.62-50.69-4.37-13.85-14-24.66-33.33-46.26-5.76-6.44-16.8-14.78-38.87-31.44-3.14-2.37-9.93-7.37-15.78-5.31a33.24,33.24,0,0,0-11.26,6.46s-8.23,8.26-26.66,8.78C687.9,594.15,685.37,593,683.39,593.41Z"/><path class="cls-2" d="M738.14,565.16c7.36-6.17,13.75-7,17.4-15.73,3.15-7.52,5.29-12.65,5.3-19.9,0-9.83-3.93-19.92-7.08-19.88-1.55,0-1.78,2.49-4.84,5.35-3.74,3.5-8.21,4.33-11.14,4.87-12,2.24-20.08-5.47-36.64-6.22-7.37-.34-16.88-.77-24.49,5.14-7.89,6.13-6.63,13.56-14.27,17-8.53,3.86-15.31-3-19.4.77-5,4.62,5,15.8,10.51,24.16,7,10.6,16.28,13.51,20.4,15.48,6.85,3.28,14.34,2.83,16.26,3.12,6.55,1,5.46,7,12.6,6.1,6.5-.83,11.88-7.39,22.07-11.75A49.34,49.34,0,0,0,738.14,565.16Z"/><path class="cls-1" d="M682.65,586.38c-9.4-1.94-15.48-6.86-22.83-12.81-6.34-5.12-10.65-8.62-14.1-15-4.66-8.65-6-19.4-3.2-20.85,1.38-.72,2.75,1.34,6.8,2.41,4.95,1.3,9.28-.09,12.13-1,11.65-3.74,15.07-14.34,29.29-22.86,6.33-3.79,14.5-8.68,24-7.09,9.85,1.66,12.27,8.79,20.63,8.21,9.34-.66,12-9.95,17.45-8.53,6.55,1.72,8.68,16.94,7.82,26.91-1.11,12.63-7.44,21.55-10.14,25.24A52.57,52.57,0,0,1,739.85,572c-5.28,4-9.75,5.7-16.47,8.28a88.36,88.36,0,0,1-25.21,6.36C692.13,587.13,688.05,587.5,682.65,586.38Z"/><path class="cls-3" d="M739.85,572a5.29,5.29,0,0,1,4.37,1c1.24,1.29.58,4.42.26,5.09-2.23,4.61-7.75,8.34-14.78,11-6.18,2.29-7.88,2.35-25.21,6.36-6.36,1.47-13.38,2.11-18.67-.45-1.14-.55-3.5-1.73-4.13-4.11a4.58,4.58,0,0,1,1-4.37,5,5,0,0,1,3.88-1c5.66.34,10.49,1.48,11.64,1.19,2.91-.73,6.66-.44,12.85-2.21a80.06,80.06,0,0,0,14.05-5.61A62.07,62.07,0,0,1,739.85,572Z"/><path class="cls-4" d="M742.85,625.78l2.55,7,.31-.11a130.45,130.45,0,0,1,17.55-4.82q13.2-2.76,14.2,0c.88,2.43-1,4.49-5.61,6.17q-3.11,1.13-11.26,3.07a113.89,113.89,0,0,0-12.35,3.51l6.13,16.91q17.52-5.41,29.14-3.75,10.62,1.61,13.1,8.41,3,8.35-5.82,17.76-7.83,8.29-22.7,15.42l4,11.05c.39,1.08,0,2.21-1,3.4a11.25,11.25,0,0,1-4.64,2.88q-6.86,2.49-8.18-1.17L754.43,701q-38.13,13.49-41.83,3.27-1.35-3.74,5.11-6.08a17.7,17.7,0,0,1,7.57-1,58.69,58.69,0,0,0,8.64.25q6.84-.58,17.67-4.24l-8.54-23.56-.62.23a76.22,76.22,0,0,1-22,4.41q-12.2.39-14.5-6-2.07-5.68,6.08-14.33,7.5-8,20-14.91l-2.89-8q-.58-1.62,1.08-3.45a11.62,11.62,0,0,1,4.71-2.93Q741.58,622.25,742.85,625.78Zm-2.58,36.14L734.86,647q-14.37,8.73-12,15.25Q724.32,666.3,740.27,661.92Zm17,3.74,7.83,21.6a51.27,51.27,0,0,0,12.19-9.4q4.95-5.57,3.55-9.42Q778.26,661.21,757.31,665.66Z"/></g><g id="sæk-3" data-name="sæk"><path class="cls-1" d="M1133.5,589.48c-15.92-7.36-41.3,13.07-57.78,26.91-5.75,4.83-14.12,13.68-30.86,31.37-10.83,11.45-13.95,15.23-16.68,21.14-7.25,15.68-4.67,31.1-3.69,36.5,4.79,26.48,24.38,42.38,34.79,50.82,28.45,23.1,59.26,25.71,69.19,26.41,15.64,1.11,33.39,2.36,51.47-8.39,21-12.5,28.8-33.08,31.26-39.91,4.94-13.66,3.82-28.1,1.59-57-.66-8.62-4.38-21.94-11.8-48.59-1.06-3.79-3.43-11.88-9.32-13.79a33.18,33.18,0,0,0-12.87-1.71s-11.56,1.57-26.52-9.2C1136.64,592.81,1135.34,590.33,1133.5,589.48Z"/><path class="cls-2" d="M1194.17,600.27c9.58-.45,15.18,2.77,23.37-1.95,7.07-4.06,11.88-6.83,16.29-12.6,6-7.81,9-18.21,6.44-20.09-1.25-.92-2.92.9-7.09,1.31-5.1.52-9.16-1.54-11.82-2.89-10.92-5.53-12.63-16.53-25.33-27.18-5.66-4.74-13-10.86-22.59-10.78-10,.09-13.49,6.75-21.66,4.86-9.12-2.12-10.32-11.72-15.89-11.17-6.74.67-5.6,15.61-6.31,25.58-.9,12.65,4.74,20.62,6.82,24.69,3.45,6.76,9.68,11,11,12.35,4.6,4.77.08,8.89,6.31,12.49,5.67,3.28,13.93,1.34,24.68,4.06A49.51,49.51,0,0,0,1194.17,600.27Z"/><path class="cls-1" d="M1137.18,583.44c-6.29-7.25-8.13-14.84-10.37-24-1.92-7.92-3.23-13.31-2.09-20.48,1.54-9.71,7-19,10.11-18.51,1.53.26,1.37,2.73,3.94,6,3.14,4,7.43,5.56,10.24,6.57,11.54,4.1,20.68-2.25,37.16-.39,7.33.83,16.79,1.9,23.37,8.94,6.83,7.29,4.42,14.42,11.42,19,7.82,5.15,15.6-.6,19,3.81,4.17,5.34-3.38,18.74-10.12,26.13-8.54,9.37-19,12.61-23.37,13.91a52.83,52.83,0,0,1-15.1,2.23c-6.63,0-11.22-1.39-18.12-3.42-6.29-1.85-14.53-4.34-23.9-10.25C1144.26,589.8,1140.8,587.61,1137.18,583.44Z"/><path class="cls-3" d="M1191.41,606.7a5.31,5.31,0,0,1,2.88,3.41c.21,1.78-2.22,3.87-2.89,4.2-4.56,2.32-11.21,1.93-18.38-.26-6.31-1.93-7.69-2.92-23.89-10.25-6-2.69-11.92-6.44-14.58-11.69-.56-1.12-1.72-3.5-.78-5.78a4.62,4.62,0,0,1,3.41-2.89,5,5,0,0,1,3.68,1.58c4.29,3.7,7.45,7.55,8.53,8,2.76,1.19,5.56,3.69,11.55,6.05a80.61,80.61,0,0,0,14.58,4.07A62.13,62.13,0,0,1,1191.41,606.7Z"/><path class="cls-4" d="M1161,651.24l-2.23,7.13.31.1A128.2,128.2,0,0,1,1176,665.3q12.16,5.81,11.27,8.63-1.15,3.72-8.2,1.5-3.15-1-10.82-4.39a109.17,109.17,0,0,0-11.94-4.7l-5.39,17.15q17.2,6.33,25.43,14.71,7.47,7.72,5.3,14.63-2.65,8.48-15.39,10.59-11.26,1.83-27.4-1.53l-3.53,11.22c-.34,1.09-1.3,1.79-2.87,2.08a11.25,11.25,0,0,1-5.43-.52q-7-2.19-5.79-5.9l3.37-10.75q-38.47-12.4-35.22-22.78,1.2-3.79,7.75-1.73a17.59,17.59,0,0,1,6.63,3.79,58.22,58.22,0,0,0,6.71,5.44q5.79,3.68,16.62,7.36l7.51-23.9-.63-.2a76.2,76.2,0,0,1-20.18-9.86q-9.93-7.11-7.9-13.55,1.82-5.77,13.54-7.7,10.8-1.78,24.92.28l2.54-8.09c.35-1.1,1.33-1.79,3-2.09a11.58,11.58,0,0,1,5.52.54Q1162.15,647.66,1161,651.24Zm-24,27.16,4.76-15.14q-16.72-1.77-18.8,4.84Q1121.7,672.2,1137,678.4Zm11.28,13.31-6.89,21.92a51.11,51.11,0,0,0,15.4-.07q7.29-1.41,8.53-5.33Q1167.66,700.9,1148.31,691.71Z"/></g></g><path d="M460.83,893.48c-1,0-2.45-.08-4.45-.24s-3.44-.2-4.45-.19h-1.39c0,1.8.21,4.71.53,8.75.28,3.76.43,6.69.43,8.77,0,.45,0,1.14.13,2.07s.14,1.62.14,2.09a5.46,5.46,0,0,1-.43,2.28,1.8,1.8,0,0,1-1.7,1.29,2.07,2.07,0,0,1-1.4-.54,1.8,1.8,0,0,1-.63-1.41,5.29,5.29,0,0,1,.1-.88,6.67,6.67,0,0,0,.1-.88c0-.64-.05-1.59-.13-2.87s-.13-2.24-.13-2.89q0-2.79-.45-7.85c-.31-3.65-.49-6.26-.52-7.85l-1.78,0a28.16,28.16,0,0,1-6.72-.63,1.85,1.85,0,0,1-1.58-1.93,2.15,2.15,0,0,1,.5-1.41,1.77,1.77,0,0,1,1.51-.62c.45,0,1.5.14,3.12.35a29.28,29.28,0,0,0,3.17.23c.78,0,2,0,3.55,0s2.78-.05,3.56-.05c1,0,2.49.08,4.46.22s3.46.21,4.46.21a1.92,1.92,0,0,1,1.41.58,2,2,0,0,1,.57,1.44,1.92,1.92,0,0,1-.57,1.41A1.89,1.89,0,0,1,460.83,893.48Z"/><path d="M468.74,909.28c0,.78,0,2,.07,3.51s.07,2.72.07,3.5a2,2,0,0,1-.53,1.41,1.84,1.84,0,0,1-1.38.54,1.87,1.87,0,0,1-1.38-.54,1.94,1.94,0,0,1-.54-1.41c0-.78,0-1.95-.07-3.5s-.06-2.73-.06-3.51c0-1.22.06-2.75.19-4.58s.2-3.36.2-4.58a2,2,0,0,1,.53-1.43,2,2,0,0,1,2.76,0,2,2,0,0,1,.53,1.43c0,1.22-.06,2.75-.19,4.58S468.74,908.06,468.74,909.28Zm-.88-15.86a2.27,2.27,0,0,1-1.62-.66,2.23,2.23,0,0,1,0-3.21,2.27,2.27,0,0,1,1.62-.66,2.27,2.27,0,1,1,0,4.53Z"/><path d="M480.31,902.79l-.3,9.71q0,1.54-.15,4.53c-.13,1.3-.77,2-1.92,2s-1.91-.67-1.91-2q0-2.36.21-7.1t.22-7.1c0-2,0-4.41.1-7.06s.09-5,.09-7.06a1.93,1.93,0,1,1,3.85,0q0,3.09-.1,7.06C480.34,898.38,480.31,900.74,480.31,902.79Z"/><path d="M491.26,902.79,491,912.5c0,1-.05,2.54-.16,4.53-.13,1.3-.77,2-1.91,2s-1.91-.67-1.91-2q0-2.36.21-7.1c.14-3.15.22-5.52.22-7.1,0-2,0-4.41.09-7.06s.1-5,.1-7.06a1.93,1.93,0,1,1,3.85,0q0,3.09-.1,7.06C491.29,898.38,491.26,900.74,491.26,902.79Z"/><path d="M514.29,900.72l-6.76,14.61q-2.49,5.34-3.83,8.93l-1.28,3.79a1.82,1.82,0,0,1-1.76,1.41,2,2,0,0,1-1.42-.54,1.73,1.73,0,0,1-.59-1.34q0-2,4.21-11.31l-7-13.46-.88-1.42a3.15,3.15,0,0,1-.52-1.51,1.9,1.9,0,0,1,.61-1.4,1.94,1.94,0,0,1,1.38-.61,1.58,1.58,0,0,1,1.38.69A76,76,0,0,1,505,911.68l2.89-6.74q1.58-3.5,3-6a1.87,1.87,0,0,1,1.64-1.1,2,2,0,0,1,1.42.57,1.78,1.78,0,0,1,.61,1.35A2.32,2.32,0,0,1,514.29,900.72Z"/><path d="M534.35,919a1.81,1.81,0,0,1-1.66-1.14,33,33,0,0,0-3.07-4.66l-3.45-4.71q-1.14.9-3.52,2.52c-.14,2-.22,4-.22,5.9a1.92,1.92,0,0,1-.53,1.42,1.84,1.84,0,0,1-1.38.55c-1.31,0-2-.89-2-2.66,0-1.08.07-2.69.22-4.85s.23-3.77.23-4.85q0-3,.08-6.79t.09-6.75q0-.87-.09-2.07c-.05-.79-.08-1.48-.08-2.07a2,2,0,0,1,.53-1.42,2,2,0,0,1,2.76,0,1.93,1.93,0,0,1,.54,1.42c0,.6,0,1.31.09,2.12s.1,1.52.1,2.12l-.14,6.29q-.09,3.39,0,6.8a54.55,54.55,0,0,0,5.11-4.46l4.3-4.43a1.81,1.81,0,0,1,2.76-.06,1.91,1.91,0,0,1,.62,1.41,1.94,1.94,0,0,1-.57,1.3,68.57,68.57,0,0,1-5.92,6l4.26,5.8q3,4.08,3,5.31a1.79,1.79,0,0,1-.62,1.35A2,2,0,0,1,534.35,919Z"/><path d="M556,919a1.81,1.81,0,0,1-1.66-1.14,33,33,0,0,0-3.07-4.66l-3.45-4.71q-1.14.9-3.52,2.52c-.14,2-.21,4-.21,5.9a1.93,1.93,0,0,1-.54,1.42,1.84,1.84,0,0,1-1.38.55c-1.31,0-2-.89-2-2.66,0-1.08.07-2.69.22-4.85s.23-3.77.23-4.85q0-3,.09-6.79c.06-2.55.08-4.8.08-6.75,0-.58,0-1.27-.08-2.07s-.09-1.48-.09-2.07a1.93,1.93,0,0,1,.54-1.42,1.8,1.8,0,0,1,1.37-.55,1.84,1.84,0,0,1,1.38.55,1.93,1.93,0,0,1,.54,1.42c0,.6,0,1.31.09,2.12s.1,1.52.1,2.12l-.13,6.29q-.11,3.39-.06,6.8a54.55,54.55,0,0,0,5.11-4.46l4.3-4.43a1.81,1.81,0,0,1,2.76-.06,1.91,1.91,0,0,1,.62,1.41,1.94,1.94,0,0,1-.57,1.3,69.78,69.78,0,0,1-5.91,6l4.25,5.8c2,2.72,3,4.49,3,5.31a1.78,1.78,0,0,1-.61,1.35A2,2,0,0,1,556,919Z"/><path d="M570.4,919a11.06,11.06,0,0,1-7.15-2.2,8.35,8.35,0,0,1-3-6.84,14.25,14.25,0,0,1,2.46-8.51,8.35,8.35,0,0,1,7.15-3.75,11.2,11.2,0,0,1,5.29,1.09,4.41,4.41,0,0,1,2.52,4.14,4.49,4.49,0,0,1-2.21,3.56,32.48,32.48,0,0,1-4.14,2.18l-7.46,3.54a7.2,7.2,0,0,0,2.72,2.44,8.34,8.34,0,0,0,3.8.82,12,12,0,0,0,3.17-.51,5.06,5.06,0,0,0,3-1.69c.44-.69.91-1,1.42-1a1.69,1.69,0,0,1,1.22.52,1.6,1.6,0,0,1,.54,1.2q0,2.16-3.5,3.73A14.34,14.34,0,0,1,570.4,919Zm-.52-17.79a5,5,0,0,0-4,1.85,12.48,12.48,0,0,0-2.36,5.55l6-2.85a25.11,25.11,0,0,0,5-3A6.65,6.65,0,0,0,569.88,901.25Z"/><path d="M613.14,900.9c-.16,1.91-.24,3.83-.24,5.74a59.5,59.5,0,0,0,.61,9.83,2.74,2.74,0,0,1,0,.45,1.67,1.67,0,0,1-.55,1.29,1.83,1.83,0,0,1-1.27.5c-.81,0-1.4-.58-1.78-1.75a10.88,10.88,0,0,1-2.92,1.56,9.51,9.51,0,0,1-3.15.52,9,9,0,0,1-6.7-2.69,9.62,9.62,0,0,1-2.73-7.07,12.22,12.22,0,0,1,2.76-8.36,9.1,9.1,0,0,1,7.18-3.14,7.09,7.09,0,0,1,3.49.7l1.84,1.35c.18-5.49.4-9.18.64-11.08.17-1.16.77-1.74,1.78-1.74,1.19,0,1.78.64,1.78,1.9Q613.92,891.63,613.14,900.9Zm-8.67.51a6.12,6.12,0,0,0-4.93,1.94q-1.63,1.95-1.64,5.85a6,6,0,0,0,1.79,4.34,5.69,5.69,0,0,0,4.19,1.81,5.85,5.85,0,0,0,2.77-.6,15.35,15.35,0,0,0,2.17-1.62,3.73,3.73,0,0,0,.57-.61l-.06-3.38,0-2.26,0-2.31a5.57,5.57,0,0,0-2-2.37A5.35,5.35,0,0,0,604.47,901.41Z"/><path d="M634.58,906.74c0,.94,0,2.34,0,4.22s0,3.28,0,4.22c0,.28,0,.72.07,1.31s.07,1,.07,1.3a1.82,1.82,0,0,1-.57,1.38,1.93,1.93,0,0,1-1.38.54c-1,0-1.64-.62-1.92-1.86a12,12,0,0,1-5.62,1.27A7.38,7.38,0,0,1,621,918a5.07,5.07,0,0,1-2.21-3.65,63.8,63.8,0,0,1-.76-9.22,35.39,35.39,0,0,1,.59-6.09,1.74,1.74,0,0,1,1.85-1.7,2,2,0,0,1,1.41.53,1.81,1.81,0,0,1,.56,1.38,22.27,22.27,0,0,1-.28,2.87,22.71,22.71,0,0,0-.28,3c0,2.17.07,4,.21,5.59a19.63,19.63,0,0,0,.65,3.73A6.48,6.48,0,0,0,624,915a4,4,0,0,0,1.23.19,19.92,19.92,0,0,0,5.52-.84l0-4,0-3.79a62.09,62.09,0,0,1,.37-7.32,1.76,1.76,0,0,1,1.89-1.8,2,2,0,0,1,1.41.55,1.67,1.67,0,0,1,.52,1.37Z"/><path d="M667.75,919.36a1.79,1.79,0,0,1-1.82-1.49,33.17,33.17,0,0,1-.82-4.55,40.18,40.18,0,0,1-.35-4.65c0-.34,0-.85,0-1.54s.05-1.2.05-1.54c0-2.45-.62-3.67-1.84-3.67a5.79,5.79,0,0,0-4.43,2.24,26.94,26.94,0,0,0-2.74,4.4c0,5-.21,7.89-.62,8.81a1.8,1.8,0,0,1-1.7,1.21,2.07,2.07,0,0,1-1.41-.55,1.73,1.73,0,0,1-.6-1.33,3.68,3.68,0,0,1,.17-.86,14.61,14.61,0,0,0,.22-2.85l.06-2.89,0-14.36c.1-1.61.14-2.7.14-3.26a9.45,9.45,0,0,0-.18-1.88,8.67,8.67,0,0,1-.19-1.85,1.8,1.8,0,0,1,.57-1.36,2,2,0,0,1,1.38-.53,1.76,1.76,0,0,1,1.88,1.72,20.92,20.92,0,0,1,.31,3.41c0,1.37,0,2.8-.14,4.28s-.11,2.85-.09,4.28l0,1.72a11.67,11.67,0,0,1,3.42-3.22A7.58,7.58,0,0,1,663,898c2.16,0,3.65.7,4.45,2.11a11.31,11.31,0,0,1,1,5l.16,3.73.39,4.06a39.92,39.92,0,0,0,.66,4,2.67,2.67,0,0,1,.08.56,1.74,1.74,0,0,1-.59,1.34A2,2,0,0,1,667.75,919.36Z"/><path d="M689.76,919.44c-.25,0-.7-.29-1.35-.86a9.35,9.35,0,0,1-1.31-1.43,24.05,24.05,0,0,1-3.3,1.53,7.13,7.13,0,0,1-2.38.52q-4.57,0-6.66-2.58c-1.32-1.61-2-4.09-2-7.42a11.17,11.17,0,0,1,3.25-8.08,10.42,10.42,0,0,1,7.76-3.36,10.15,10.15,0,0,1,3.81.87c1.77.73,2.66,1.61,2.66,2.64a1.33,1.33,0,0,1-.39.94,13.89,13.89,0,0,0-.31,2.44c-.07,1.13-.11,2.59-.12,4.36a15.24,15.24,0,0,0,.33,3.82,29,29,0,0,0,1.23,3.44c.09.24.24.58.45,1l.12.33a1.71,1.71,0,0,1-.55,1.29A1.82,1.82,0,0,1,689.76,919.44Zm-4.06-13.58a17,17,0,0,1,.1-1.82c.08-.66.18-1.36.33-2.1a10.47,10.47,0,0,0-1.24-.55,2.76,2.76,0,0,0-.83-.18,6.81,6.81,0,0,0-5.23,2.47,9.32,9.32,0,0,0-1.06,10.5,3.87,3.87,0,0,0,3.4,1.6,6.73,6.73,0,0,0,3.18-.68,12,12,0,0,0,2-1.48A69.91,69.91,0,0,1,685.7,905.86Z"/><path d="M710.17,903.71c-.09,1.63-.74,2.44-1.95,2.44s-1.68-.64-1.68-1.93c0-.25,0-.7-.06-1.37l-.06-1.64a10.28,10.28,0,0,0-4.94,1.74,9.36,9.36,0,0,0-2.89,3.83l0,10.7a1.73,1.73,0,0,1-1.94,2c-1.14,0-1.72-.66-1.72-2V903.77c0-.43,0-1.07,0-1.93s.05-1.51.05-1.94c0-1.31.57-2,1.72-2s1.92,1.08,1.93,3.24a11.74,11.74,0,0,1,8.32-3.61,2.65,2.65,0,0,1,2.37,1.19,6.66,6.66,0,0,1,.78,3.6C710.19,903,710.18,903.48,710.17,903.71Z"/><path d="M734.45,918.83a17,17,0,0,1-4.3-.62l0,9.33a1.94,1.94,0,0,1-.54,1.41,1.85,1.85,0,0,1-1.37.54,1.87,1.87,0,0,1-1.38-.54,1.94,1.94,0,0,1-.54-1.41l.06-7.81v-7.79c0-2.86-.14-5.45-.29-7.8l-.3-4a5,5,0,0,1,.51-2.35,1.85,1.85,0,0,1,1.7-1.15,1.69,1.69,0,0,1,1.28.54,1.82,1.82,0,0,1,.52,1.32,6.15,6.15,0,0,1-.06.64c-.07.4-.11.78-.14,1.11a14.89,14.89,0,0,1,3.25-1.72,8.46,8.46,0,0,1,3-.58,6.16,6.16,0,0,1,5.86,3.55,16.15,16.15,0,0,1,1.47,7.45,10.53,10.53,0,0,1-2.27,7A7.88,7.88,0,0,1,734.45,918.83Zm1.34-16.93a6.54,6.54,0,0,0-3.24.8,13.75,13.75,0,0,0-2.62,2.07c.17,3,.26,6.06.26,9.31a11.71,11.71,0,0,0,4.26.82,4.3,4.3,0,0,0,3.73-1.81,7,7,0,0,0,1.11-4.1,12.59,12.59,0,0,0-.87-5.33A2.8,2.8,0,0,0,735.79,901.9Z"/><path d="M752.49,902.79l-.29,9.71c0,1-.05,2.54-.16,4.53-.13,1.3-.76,2-1.91,2s-1.91-.67-1.91-2q0-2.36.21-7.1c.14-3.15.22-5.52.22-7.1,0-2,0-4.41.09-7.06s.1-5,.1-7.06a1.93,1.93,0,1,1,3.85,0q0,3.09-.1,7.06C752.53,898.38,752.49,900.74,752.49,902.79Z"/><path d="M775.52,900.72l-6.76,14.61q-2.49,5.34-3.83,8.93l-1.28,3.79a1.82,1.82,0,0,1-1.76,1.41,2,2,0,0,1-1.42-.54,1.73,1.73,0,0,1-.59-1.34q0-2,4.21-11.31l-7-13.46-.88-1.42a3.15,3.15,0,0,1-.52-1.51,1.9,1.9,0,0,1,.61-1.4,1.94,1.94,0,0,1,1.38-.61,1.61,1.61,0,0,1,1.39.69,76.1,76.1,0,0,1,7.12,13.12l2.89-6.74q1.57-3.5,3-6a1.87,1.87,0,0,1,1.64-1.1,2,2,0,0,1,1.42.57,1.78,1.78,0,0,1,.61,1.35A2.32,2.32,0,0,1,775.52,900.72Z"/><path d="M794.29,919.53q-1.68,0-1.89-1.83l-.55-4.28a36.55,36.55,0,0,1-.27-4.28c0-.36,0-1,.06-1.85s.07-1.49.07-1.86c0-2.81-.52-4.22-1.56-4.22q-2.19,0-4.18,2.6a17.57,17.57,0,0,0-2.81,6c0,.5-.09,1.14-.18,1.91a15.51,15.51,0,0,0-.12,1.9c0,.39,0,1,.12,1.75s.12,1.37.12,1.76a2,2,0,0,1-.54,1.43,1.87,1.87,0,0,1-1.38.54,1.84,1.84,0,0,1-1.38-.54,2,2,0,0,1-.53-1.43,16.54,16.54,0,0,0-.13-1.76c-.08-.78-.12-1.36-.12-1.75,0-1.35.09-3.2.28-5.58s.28-4.24.28-5.58c0-.41,0-1-.07-1.85s-.06-1.44-.06-1.86a1.8,1.8,0,0,1,.55-1.37,1.9,1.9,0,0,1,1.38-.54c1.2,0,1.86.85,2,2.54l.06,2.28c2.19-2.91,4.43-4.37,6.74-4.37A4.39,4.39,0,0,1,794.5,900a14.35,14.35,0,0,1,.92,5.43v2l0,1.82a27.06,27.06,0,0,0,.42,4.19,27,27,0,0,1,.42,4.17,1.87,1.87,0,0,1-.55,1.4A2,2,0,0,1,794.29,919.53Z"/><path d="M818.24,900.9c-.16,1.91-.24,3.83-.24,5.74a58.41,58.41,0,0,0,.61,9.83c0,.18,0,.33,0,.45a1.71,1.71,0,0,1-.55,1.29,1.85,1.85,0,0,1-1.27.5c-.81,0-1.4-.58-1.78-1.75a11,11,0,0,1-2.92,1.56A9.55,9.55,0,0,1,809,919a9,9,0,0,1-6.7-2.69,9.63,9.63,0,0,1-2.74-7.07,12.17,12.17,0,0,1,2.77-8.36,9.08,9.08,0,0,1,7.18-3.14,7.09,7.09,0,0,1,3.49.7l1.84,1.35q.27-8.24.64-11.08c.17-1.16.76-1.74,1.78-1.74,1.18,0,1.78.64,1.78,1.9Q819,891.63,818.24,900.9Zm-8.68.51a6.11,6.11,0,0,0-4.92,1.94Q803,905.3,803,909.2a6,6,0,0,0,1.79,4.34,5.69,5.69,0,0,0,4.19,1.81,5.85,5.85,0,0,0,2.77-.6,16,16,0,0,0,2.17-1.62,4.86,4.86,0,0,0,.57-.61l-.06-3.38,0-2.26,0-2.31a5.59,5.59,0,0,0-2-2.37A5.31,5.31,0,0,0,809.56,901.41Z"/><path d="M838.94,903.71c-.09,1.63-.74,2.44-2,2.44s-1.68-.64-1.68-1.93c0-.25,0-.7-.06-1.37l-.06-1.64a10.28,10.28,0,0,0-4.94,1.74,9.28,9.28,0,0,0-2.89,3.83l0,10.7a1.73,1.73,0,0,1-1.94,2c-1.14,0-1.72-.66-1.72-2V903.77c0-.43,0-1.07,0-1.93s.05-1.51.05-1.94c0-1.31.57-2,1.72-2s1.92,1.08,1.93,3.24a11.74,11.74,0,0,1,8.32-3.61,2.65,2.65,0,0,1,2.37,1.19,6.66,6.66,0,0,1,.78,3.6C839,903,839,903.48,838.94,903.71Z"/><path d="M852.08,919a11.06,11.06,0,0,1-7.15-2.2,8.35,8.35,0,0,1-3-6.84,14.25,14.25,0,0,1,2.46-8.51,8.35,8.35,0,0,1,7.15-3.75,11.2,11.2,0,0,1,5.29,1.09,4.41,4.41,0,0,1,2.52,4.14,4.49,4.49,0,0,1-2.21,3.56,32.48,32.48,0,0,1-4.14,2.18l-7.46,3.54a7.2,7.2,0,0,0,2.72,2.44,8.34,8.34,0,0,0,3.8.82,12,12,0,0,0,3.17-.51,5.06,5.06,0,0,0,3-1.69c.44-.69.91-1,1.42-1a1.69,1.69,0,0,1,1.22.52,1.6,1.6,0,0,1,.54,1.2q0,2.16-3.5,3.73A14.34,14.34,0,0,1,852.08,919Zm-.52-17.79a5,5,0,0,0-4,1.85,12.48,12.48,0,0,0-2.36,5.55l6-2.85a25.11,25.11,0,0,0,5-3A6.65,6.65,0,0,0,851.56,901.25Z"/><path d="M877.94,901.51c-.27,0-.59,0-1,0s-.7,0-1,0-1.19.1-2.66.29l.37,11.54,0,.86,0,1q.07,4.27-2,4.28a2,2,0,0,1-1.36-.51,1.63,1.63,0,0,1-.57-1.27c0-.5,0-1.24.06-2.23s.06-1.73.06-2.22l-.4-11.41c-1,0-2.39-.15-4.33-.33a1.78,1.78,0,0,1-1.74-1.94,2,2,0,0,1,.53-1.42,1.75,1.75,0,0,1,1.35-.57l4.1.33c0-.66,0-1.55-.09-2.66s-.09-1.92-.09-2.41a1.79,1.79,0,0,1,.57-1.36,1.93,1.93,0,0,1,1.38-.54c1.18,0,1.86,1,2.06,2.87,0,.48,0,1.06,0,1.74l0,1.13v1.21c1.61-.2,2.53-.31,2.77-.31a11.15,11.15,0,0,1,2.66.2,1.71,1.71,0,0,1,1.19,1.83,2,2,0,0,1-.54,1.42A1.85,1.85,0,0,1,877.94,901.51Z"/><path d="M903,919.3a7.61,7.61,0,0,1-5.64-2.42,10.38,10.38,0,0,1-2.78-7.25,12.64,12.64,0,0,1,2.23-7.77,8.73,8.73,0,0,1,7.62-4,6.41,6.41,0,0,1,5.91,3.58,13.66,13.66,0,0,1,1.55,6.95,12.64,12.64,0,0,1-2.27,7.4A7.76,7.76,0,0,1,903,919.3Zm1.17-17.44a4.91,4.91,0,0,0-4.47,2.73,9.88,9.88,0,0,0-1.27,5A6.07,6.07,0,0,0,900,914a4.09,4.09,0,0,0,3,1.31,4.74,4.74,0,0,0,3.5-1.48,6.27,6.27,0,0,0,1.75-4.43Q908.54,901.88,904.17,901.86Z"/><path d="M932.79,909.73l-.45,6.56a28.28,28.28,0,0,1-.8,6.39,8.66,8.66,0,0,1-2.82,4.67q-2.34,1.81-6.77,1.81a23,23,0,0,1-4.36-.35c-1.64-.32-2.46-1-2.46-2a1.52,1.52,0,0,1,1.7-1.74,13.92,13.92,0,0,1,2.34.34,16.58,16.58,0,0,0,3.64.31,5.26,5.26,0,0,0,5.17-3.64,21.9,21.9,0,0,0,1-7.32,8.08,8.08,0,0,1-2.51,2.93,5.84,5.84,0,0,1-3.33,1,7.42,7.42,0,0,1-5.75-2.41,8.88,8.88,0,0,1-2.22-6.26,11.9,11.9,0,0,1,3-8.49,11.1,11.1,0,0,1,8.51-3.32,8.47,8.47,0,0,1,3,.47,3.86,3.86,0,0,1,1.87,1.4c1.4,0,2.09.81,2.09,2.33a21.86,21.86,0,0,1-.41,3.71C933,907.85,932.84,909.08,932.79,909.73Zm-6.27-8.46a6.91,6.91,0,0,0-5.75,2.56,9.19,9.19,0,0,0-1.81,5.86A7.07,7.07,0,0,0,920,914a3.78,3.78,0,0,0,3.22,1.42,5.12,5.12,0,0,0,3.83-2.22,8,8,0,0,0,1.92-4.07q.4-2.1.88-6.62a6,6,0,0,0-1.63-.9A5.28,5.28,0,0,0,926.52,901.27Z"/><path d="M958.9,917.13a1.61,1.61,0,0,1-1.78,1.8,2.19,2.19,0,0,1-2.07-1.68l-3-7.93-3.47-9a2.54,2.54,0,0,1-.2-.89,1.79,1.79,0,0,1,.61-1.37,2,2,0,0,1,1.4-.57,1.74,1.74,0,0,1,1.68,1.19l5,13.66q1.47-3.14,3.7-9.07.53-1.56,1.66-4.41a1.87,1.87,0,0,1,1.71-1.25,2,2,0,0,1,1.41.57,1.77,1.77,0,0,1,.61,1.34c0,.5-1.08,3.28-3.23,8.36Z"/><path d="M976.67,919.3a7.62,7.62,0,0,1-5.64-2.42,10.43,10.43,0,0,1-2.78-7.25,12.7,12.7,0,0,1,2.23-7.77,8.73,8.73,0,0,1,7.62-4,6.42,6.42,0,0,1,5.92,3.58,13.76,13.76,0,0,1,1.54,6.95,12.57,12.57,0,0,1-2.27,7.4A7.76,7.76,0,0,1,976.67,919.3Zm1.17-17.44a4.91,4.91,0,0,0-4.47,2.73,10,10,0,0,0-1.27,5,6,6,0,0,0,1.55,4.41,4.05,4.05,0,0,0,3,1.31,4.74,4.74,0,0,0,3.5-1.48,6.27,6.27,0,0,0,1.76-4.43Q982.2,901.88,977.84,901.86Z"/><path d="M995.34,902.79l-.29,9.71q0,1.54-.15,4.53c-.13,1.3-.77,2-1.92,2s-1.91-.67-1.91-2q0-2.36.21-7.1t.22-7.1c0-2,0-4.41.09-7.06s.1-5,.1-7.06a1.93,1.93,0,1,1,3.85,0q0,3.09-.1,7.06C995.38,898.38,995.34,900.74,995.34,902.79Z"/><path d="M1019.33,900.9c-.16,1.91-.24,3.83-.24,5.74a59.5,59.5,0,0,0,.61,9.83,2.74,2.74,0,0,1,0,.45,1.67,1.67,0,0,1-.55,1.29,1.83,1.83,0,0,1-1.27.5c-.8,0-1.4-.58-1.77-1.75a11.19,11.19,0,0,1-2.92,1.56,9.56,9.56,0,0,1-3.16.52,9,9,0,0,1-6.7-2.69,9.62,9.62,0,0,1-2.73-7.07,12.22,12.22,0,0,1,2.76-8.36,9.1,9.1,0,0,1,7.18-3.14,7.16,7.16,0,0,1,3.5.7l1.83,1.35q.27-8.24.65-11.08c.16-1.16.76-1.74,1.77-1.74,1.19,0,1.78.64,1.78,1.9Q1020.11,891.63,1019.33,900.9Zm-8.67.51a6.08,6.08,0,0,0-4.92,1.94q-1.65,1.95-1.65,5.85a6,6,0,0,0,1.79,4.34,5.69,5.69,0,0,0,4.19,1.81,5.82,5.82,0,0,0,2.77-.6,15.35,15.35,0,0,0,2.17-1.62,3.73,3.73,0,0,0,.57-.61l-.06-3.38,0-2.26,0-2.31a5.57,5.57,0,0,0-2-2.37A5.33,5.33,0,0,0,1010.66,901.41Z"/><path d="M1037.9,901.51c-.27,0-.59,0-1,0s-.7,0-1,0-1.18.1-2.66.29l.37,11.54,0,.86,0,1c.06,2.85-.63,4.28-2,4.28a2,2,0,0,1-1.35-.51,1.61,1.61,0,0,1-.58-1.27c0-.5,0-1.24.06-2.23s.06-1.73.06-2.22l-.39-11.41c-1,0-2.4-.15-4.34-.33a1.78,1.78,0,0,1-1.74-1.94,2,2,0,0,1,.53-1.42,1.75,1.75,0,0,1,1.35-.57l4.1.33c0-.66,0-1.55-.09-2.66s-.09-1.92-.09-2.41a1.79,1.79,0,0,1,.57-1.36,1.94,1.94,0,0,1,1.39-.54c1.17,0,1.85,1,2,2.87,0,.48,0,1.06,0,1.74l0,1.13,0,1.21c1.61-.2,2.54-.31,2.77-.31a11.15,11.15,0,0,1,2.66.2,1.71,1.71,0,0,1,1.19,1.83,2,2,0,0,1-.54,1.42A1.85,1.85,0,0,1,1037.9,901.51Z"/><path d="M1058.94,919.44c-.25,0-.7-.29-1.35-.86a8.86,8.86,0,0,1-1.31-1.43,24.05,24.05,0,0,1-3.3,1.53,7.13,7.13,0,0,1-2.38.52q-4.57,0-6.66-2.58c-1.32-1.61-2-4.09-2-7.42a11.17,11.17,0,0,1,3.25-8.08,10.42,10.42,0,0,1,7.76-3.36,10.15,10.15,0,0,1,3.81.87c1.77.73,2.66,1.61,2.66,2.64a1.33,1.33,0,0,1-.39.94,13.89,13.89,0,0,0-.31,2.44c-.07,1.13-.11,2.59-.12,4.36a15.24,15.24,0,0,0,.33,3.82,29,29,0,0,0,1.23,3.44c.09.24.24.58.45,1l.11.33a1.7,1.7,0,0,1-.54,1.29A1.82,1.82,0,0,1,1058.94,919.44Zm-4.06-13.58a17,17,0,0,1,.1-1.82q.11-1,.33-2.1a10.47,10.47,0,0,0-1.24-.55,2.76,2.76,0,0,0-.83-.18,6.81,6.81,0,0,0-5.23,2.47,9.32,9.32,0,0,0-1.06,10.5,3.86,3.86,0,0,0,3.39,1.6,6.78,6.78,0,0,0,3.19-.68,12,12,0,0,0,2-1.48A69.91,69.91,0,0,1,1054.88,905.86Z"/><path d="M1080.23,909.73l-.45,6.56a28.28,28.28,0,0,1-.8,6.39,8.71,8.71,0,0,1-2.81,4.67q-2.36,1.81-6.78,1.81a23.12,23.12,0,0,1-4.36-.35c-1.64-.32-2.46-1-2.46-2a1.52,1.52,0,0,1,1.7-1.74,13.92,13.92,0,0,1,2.34.34,16.58,16.58,0,0,0,3.64.31,5.26,5.26,0,0,0,5.17-3.64,21.9,21.9,0,0,0,1-7.32,8,8,0,0,1-2.51,2.93,5.84,5.84,0,0,1-3.33,1,7.42,7.42,0,0,1-5.75-2.41,8.88,8.88,0,0,1-2.22-6.26,11.9,11.9,0,0,1,3-8.49,11.1,11.1,0,0,1,8.51-3.32,8.47,8.47,0,0,1,3,.47,3.89,3.89,0,0,1,1.88,1.4c1.39,0,2.09.81,2.09,2.33a22.06,22.06,0,0,1-.42,3.71C1080.46,907.85,1080.28,909.08,1080.23,909.73Zm-6.27-8.46a6.88,6.88,0,0,0-5.74,2.56,9.13,9.13,0,0,0-1.82,5.86,7.07,7.07,0,0,0,1.07,4.26,3.79,3.79,0,0,0,3.23,1.42,5.12,5.12,0,0,0,3.82-2.22,8,8,0,0,0,1.92-4.07q.4-2.1.88-6.62a5.93,5.93,0,0,0-1.62-.9A5.38,5.38,0,0,0,1074,901.27Z"/><path d="M1094.5,919a11,11,0,0,1-7.14-2.2,8.32,8.32,0,0,1-3-6.84,14.25,14.25,0,0,1,2.46-8.51,8.36,8.36,0,0,1,7.15-3.75,11.2,11.2,0,0,1,5.29,1.09,4.41,4.41,0,0,1,2.52,4.14,4.49,4.49,0,0,1-2.21,3.56,32.48,32.48,0,0,1-4.14,2.18l-7.46,3.54a7.15,7.15,0,0,0,2.73,2.44,8.27,8.27,0,0,0,3.79.82,12,12,0,0,0,3.17-.51,5,5,0,0,0,3-1.69c.44-.69.92-1,1.42-1a1.67,1.67,0,0,1,1.22.52,1.6,1.6,0,0,1,.54,1.2q0,2.16-3.49,3.73A14.42,14.42,0,0,1,1094.5,919Zm-.52-17.79a5,5,0,0,0-4,1.85,12.48,12.48,0,0,0-2.36,5.55l6-2.85a25.27,25.27,0,0,0,5-3A6.63,6.63,0,0,0,1094,901.25Z"/><path d="M1120.36,901.51c-.27,0-.59,0-1,0s-.7,0-1,0-1.18.1-2.66.29l.38,11.54,0,.86v1c.06,2.85-.63,4.28-2,4.28a2,2,0,0,1-1.35-.51,1.61,1.61,0,0,1-.58-1.27c0-.5,0-1.24.06-2.23s.06-1.73.06-2.22l-.39-11.41c-1,0-2.4-.15-4.34-.33a1.78,1.78,0,0,1-1.74-1.94,2,2,0,0,1,.53-1.42,1.75,1.75,0,0,1,1.35-.57l4.1.33c0-.66,0-1.55-.09-2.66s-.09-1.92-.09-2.41a1.79,1.79,0,0,1,.57-1.36,1.94,1.94,0,0,1,1.39-.54c1.17,0,1.85,1,2.05,2.87q.06.72.06,1.74l0,1.13,0,1.21c1.61-.2,2.54-.31,2.77-.31a11.09,11.09,0,0,1,2.66.2,1.71,1.71,0,0,1,1.19,1.83,2,2,0,0,1-.54,1.42A1.85,1.85,0,0,1,1120.36,901.51Z"/><path d="M1156.09,900.9c-.16,1.91-.24,3.83-.24,5.74a58.41,58.41,0,0,0,.61,9.83c0,.18,0,.33,0,.45a1.71,1.71,0,0,1-.55,1.29,1.83,1.83,0,0,1-1.27.5c-.81,0-1.4-.58-1.78-1.75a10.88,10.88,0,0,1-2.92,1.56,9.55,9.55,0,0,1-3.15.52,9,9,0,0,1-6.7-2.69,9.62,9.62,0,0,1-2.73-7.07,12.22,12.22,0,0,1,2.76-8.36,9.08,9.08,0,0,1,7.18-3.14,7.09,7.09,0,0,1,3.49.7l1.84,1.35c.18-5.49.4-9.18.64-11.08.17-1.16.77-1.74,1.78-1.74,1.19,0,1.78.64,1.78,1.9Q1156.87,891.63,1156.09,900.9Zm-8.67.51a6.12,6.12,0,0,0-4.93,1.94q-1.63,1.95-1.64,5.85a6,6,0,0,0,1.79,4.34,5.69,5.69,0,0,0,4.19,1.81,5.85,5.85,0,0,0,2.77-.6,16,16,0,0,0,2.17-1.62,4.22,4.22,0,0,0,.57-.61l-.06-3.38,0-2.26,0-2.31a5.59,5.59,0,0,0-2-2.37A5.3,5.3,0,0,0,1147.42,901.41Z"/><path d="M1170.72,919a11,11,0,0,1-7.15-2.2,8.35,8.35,0,0,1-3-6.84,14.25,14.25,0,0,1,2.46-8.51,8.36,8.36,0,0,1,7.15-3.75,11.2,11.2,0,0,1,5.29,1.09A4.41,4.41,0,0,1,1178,903a4.46,4.46,0,0,1-2.21,3.56,32.48,32.48,0,0,1-4.14,2.18l-7.46,3.54a7.15,7.15,0,0,0,2.73,2.44,8.28,8.28,0,0,0,3.8.82,12,12,0,0,0,3.16-.51,5,5,0,0,0,3-1.69c.44-.69.92-1,1.42-1a1.71,1.71,0,0,1,1.23.52,1.62,1.62,0,0,1,.53,1.2q0,2.16-3.49,3.73A14.41,14.41,0,0,1,1170.72,919Zm-.53-17.79a5,5,0,0,0-4,1.85,12.48,12.48,0,0,0-2.36,5.55l6-2.85a25.71,25.71,0,0,0,5-3A6.66,6.66,0,0,0,1170.19,901.25Z"/><path d="M1198.49,919.53c-1.12,0-1.75-.61-1.9-1.83l-.54-4.28a36.66,36.66,0,0,1-.28-4.28c0-.36,0-1,.07-1.85s.07-1.49.07-1.86c0-2.81-.52-4.22-1.56-4.22q-2.19,0-4.18,2.6a17.57,17.57,0,0,0-2.81,6c0,.5-.09,1.14-.18,1.91a15.51,15.51,0,0,0-.12,1.9c0,.39,0,1,.12,1.75s.12,1.37.12,1.76a2,2,0,0,1-.54,1.43,1.87,1.87,0,0,1-1.38.54,1.84,1.84,0,0,1-1.38-.54,2,2,0,0,1-.53-1.43,16.54,16.54,0,0,0-.13-1.76c-.08-.78-.12-1.36-.12-1.75,0-1.35.09-3.2.28-5.58s.28-4.24.28-5.58c0-.41,0-1-.07-1.85s-.06-1.44-.06-1.86a1.8,1.8,0,0,1,.55-1.37,1.9,1.9,0,0,1,1.38-.54c1.2,0,1.85.85,2,2.54l.06,2.28c2.19-2.91,4.43-4.37,6.74-4.37a4.39,4.39,0,0,1,4.35,2.75,14.35,14.35,0,0,1,.92,5.43v2l0,1.82a27.06,27.06,0,0,0,.42,4.19,27,27,0,0,1,.42,4.17,1.87,1.87,0,0,1-.55,1.4A2,2,0,0,1,1198.49,919.53Z"/><path d="M1234.39,900.9c-.16,1.91-.24,3.83-.24,5.74a59.5,59.5,0,0,0,.61,9.83,2.74,2.74,0,0,1,0,.45,1.67,1.67,0,0,1-.55,1.29,1.83,1.83,0,0,1-1.27.5c-.81,0-1.4-.58-1.78-1.75a10.88,10.88,0,0,1-2.92,1.56,9.51,9.51,0,0,1-3.15.52,9,9,0,0,1-6.7-2.69,9.62,9.62,0,0,1-2.73-7.07,12.22,12.22,0,0,1,2.76-8.36,9.1,9.1,0,0,1,7.18-3.14,7.09,7.09,0,0,1,3.49.7l1.84,1.35c.18-5.49.4-9.18.64-11.08.17-1.16.77-1.74,1.78-1.74,1.19,0,1.78.64,1.78,1.9Q1235.17,891.63,1234.39,900.9Zm-8.67.51a6.12,6.12,0,0,0-4.93,1.94q-1.63,1.95-1.64,5.85a6,6,0,0,0,1.79,4.34,5.69,5.69,0,0,0,4.19,1.81,5.85,5.85,0,0,0,2.77-.6,15.35,15.35,0,0,0,2.17-1.62,3.73,3.73,0,0,0,.57-.61l-.06-3.38,0-2.26,0-2.31a5.57,5.57,0,0,0-2-2.37A5.35,5.35,0,0,0,1225.72,901.41Z"/><path d="M1255.15,919.44c-.25,0-.7-.29-1.35-.86a9.35,9.35,0,0,1-1.31-1.43,24.05,24.05,0,0,1-3.3,1.53,7.13,7.13,0,0,1-2.38.52q-4.57,0-6.66-2.58c-1.32-1.61-2-4.09-2-7.42a11.17,11.17,0,0,1,3.25-8.08,10.42,10.42,0,0,1,7.76-3.36,10.11,10.11,0,0,1,3.81.87c1.77.73,2.66,1.61,2.66,2.64a1.33,1.33,0,0,1-.39.94,14.94,14.94,0,0,0-.31,2.44c-.07,1.13-.11,2.59-.12,4.36a15.24,15.24,0,0,0,.33,3.82,29,29,0,0,0,1.23,3.44c.09.24.24.58.45,1l.12.33a1.71,1.71,0,0,1-.55,1.29A1.82,1.82,0,0,1,1255.15,919.44Zm-4.06-13.58a17,17,0,0,1,.1-1.82c.08-.66.18-1.36.33-2.1a9.79,9.79,0,0,0-1.24-.55,2.76,2.76,0,0,0-.83-.18,6.81,6.81,0,0,0-5.23,2.47,9.32,9.32,0,0,0-1.06,10.5,3.87,3.87,0,0,0,3.4,1.6,6.73,6.73,0,0,0,3.18-.68,11.59,11.59,0,0,0,2-1.48A69.91,69.91,0,0,1,1251.09,905.86Z"/><path d="M1275.34,919.53q-1.68,0-1.89-1.83l-.55-4.28a36.55,36.55,0,0,1-.27-4.28c0-.36,0-1,.07-1.85s.07-1.49.07-1.86c0-2.81-.52-4.22-1.57-4.22-1.45,0-2.85.87-4.18,2.6a18,18,0,0,0-2.81,6c0,.5-.08,1.14-.17,1.91a15.51,15.51,0,0,0-.12,1.9c0,.39,0,1,.12,1.75s.11,1.37.11,1.76a2,2,0,0,1-.53,1.43,2,2,0,0,1-2.77,0,2,2,0,0,1-.52-1.43c0-.39,0-1-.13-1.76a16.4,16.4,0,0,1-.13-1.75c0-1.35.1-3.2.28-5.58s.29-4.24.29-5.58c0-.41,0-1-.07-1.85s-.07-1.44-.07-1.86a1.81,1.81,0,0,1,.56-1.37,1.89,1.89,0,0,1,1.37-.54c1.2,0,1.86.85,2,2.54l.06,2.28c2.18-2.91,4.43-4.37,6.73-4.37a4.4,4.4,0,0,1,4.36,2.75,14.35,14.35,0,0,1,.92,5.43v2l0,1.82a27.06,27.06,0,0,0,.42,4.19,27,27,0,0,1,.42,4.17,1.88,1.88,0,0,1-.56,1.4A2,2,0,0,1,1275.34,919.53Z"/><path d="M1294.49,903.11a1.6,1.6,0,0,1-1.51-.73,7,7,0,0,1-.51-2.1c-1,.24-2.48.7-4.51,1.36-2.09.84-3.15,1.86-3.16,3.09a6.35,6.35,0,0,0,1.15.31,18.89,18.89,0,0,1,6.68,2.21,6.64,6.64,0,0,1,3.18,5.94,5.22,5.22,0,0,1-2.75,4.8,11.32,11.32,0,0,1-5.78,1.33,14,14,0,0,1-4.88-.86q-3-1.1-3-3.05A1.85,1.85,0,0,1,1280,914a2,2,0,0,1,1.4-.58,2.62,2.62,0,0,1,1.56.94,4.54,4.54,0,0,0,2.11.74,13.47,13.47,0,0,0,2.21.23,9.72,9.72,0,0,0,2.89-.39c1.21-.38,1.82-1,1.82-1.79q0-2.66-3.72-3.6l-2-.45a10.88,10.88,0,0,1-3.69-1.33,3.74,3.74,0,0,1-1.58-3.3,6,6,0,0,1,3.85-5.82,30.35,30.35,0,0,1,3.75-1.26,27.19,27.19,0,0,0,3.69-1.24,4.33,4.33,0,0,1,1.74-.35,1.8,1.8,0,0,1,1.37.55,1.93,1.93,0,0,1,.54,1.42,7.81,7.81,0,0,0,.25,1.66,8.55,8.55,0,0,1,.24,1.66,1.94,1.94,0,0,1-.54,1.43A1.87,1.87,0,0,1,1294.49,903.11Z"/><path d="M1317,919a1.82,1.82,0,0,1-1.66-1.14,32.76,32.76,0,0,0-3.06-4.66l-3.46-4.71c-.75.6-1.93,1.44-3.52,2.52-.14,2-.21,4-.21,5.9a1.93,1.93,0,0,1-.54,1.42,1.82,1.82,0,0,1-1.37.55c-1.32,0-2-.89-2-2.66,0-1.08.08-2.69.23-4.85s.22-3.77.22-4.85q0-3,.09-6.79t.09-6.75q0-.87-.09-2.07t-.09-2.07a1.93,1.93,0,0,1,.54-1.42,1.84,1.84,0,0,1,1.38-.55,1.82,1.82,0,0,1,1.37.55,1.93,1.93,0,0,1,.54,1.42c0,.6,0,1.31.1,2.12s.1,1.52.1,2.12l-.14,6.29q-.11,3.39-.06,6.8a54.66,54.66,0,0,0,5.12-4.46l4.29-4.43a1.82,1.82,0,0,1,2.77-.06,1.9,1.9,0,0,1,.61,1.41,2,2,0,0,1-.56,1.3,70,70,0,0,1-5.92,6l4.26,5.8q3,4.08,3,5.31a1.79,1.79,0,0,1-.62,1.35A2,2,0,0,1,1317,919Z"/><path d="M1331.5,919a11,11,0,0,1-7.15-2.2,8.35,8.35,0,0,1-3-6.84,14.25,14.25,0,0,1,2.46-8.51,8.37,8.37,0,0,1,7.15-3.75,11.18,11.18,0,0,1,5.29,1.09,4.41,4.41,0,0,1,2.52,4.14,4.47,4.47,0,0,1-2.2,3.56,33.62,33.62,0,0,1-4.15,2.18l-7.46,3.54a7.15,7.15,0,0,0,2.73,2.44,8.31,8.31,0,0,0,3.8.82,11.9,11.9,0,0,0,3.16-.51,5,5,0,0,0,3-1.69c.44-.69.92-1,1.43-1a1.71,1.71,0,0,1,1.22.52,1.62,1.62,0,0,1,.53,1.2q0,2.16-3.49,3.73A14.37,14.37,0,0,1,1331.5,919Zm-.53-17.79a5,5,0,0,0-4,1.85,12.48,12.48,0,0,0-2.36,5.55l6-2.85a25.71,25.71,0,0,0,5-3A6.66,6.66,0,0,0,1331,901.25Z"/><path d="M1369.43,903.11a1.6,1.6,0,0,1-1.51-.73,6.76,6.76,0,0,1-.5-2.1c-1,.24-2.49.7-4.52,1.36-2.09.84-3.15,1.86-3.16,3.09a6.35,6.35,0,0,0,1.15.31,18.89,18.89,0,0,1,6.68,2.21,6.64,6.64,0,0,1,3.18,5.94A5.22,5.22,0,0,1,1368,918a11.32,11.32,0,0,1-5.78,1.33,14,14,0,0,1-4.88-.86q-3-1.1-3-3.05a1.85,1.85,0,0,1,.61-1.37,2,2,0,0,1,1.4-.58,2.59,2.59,0,0,1,1.56.94,4.59,4.59,0,0,0,2.11.74,13.47,13.47,0,0,0,2.21.23,9.72,9.72,0,0,0,2.89-.39c1.21-.38,1.82-1,1.82-1.79q0-2.66-3.71-3.6l-2-.45a10.88,10.88,0,0,1-3.69-1.33,3.74,3.74,0,0,1-1.58-3.3,6,6,0,0,1,3.85-5.82,30.35,30.35,0,0,1,3.75-1.26,27.19,27.19,0,0,0,3.69-1.24,4.33,4.33,0,0,1,1.74-.35,1.84,1.84,0,0,1,1.38.55,2,2,0,0,1,.53,1.42,7.81,7.81,0,0,0,.25,1.66,8.55,8.55,0,0,1,.24,1.66,1.94,1.94,0,0,1-.54,1.43A1.84,1.84,0,0,1,1369.43,903.11Z"/><path d="M1388.78,901.51c-.27,0-.59,0-1,0s-.7,0-1,0-1.19.1-2.66.29l.37,11.54,0,.86,0,1q.08,4.27-2,4.28a2,2,0,0,1-1.36-.51,1.63,1.63,0,0,1-.57-1.27c0-.5,0-1.24.06-2.23s.06-1.73.06-2.22l-.4-11.41c-.95,0-2.39-.15-4.33-.33a1.78,1.78,0,0,1-1.74-1.94,2,2,0,0,1,.53-1.42,1.75,1.75,0,0,1,1.35-.57l4.1.33c0-.66,0-1.55-.09-2.66s-.09-1.92-.09-2.41a1.79,1.79,0,0,1,.57-1.36,1.93,1.93,0,0,1,1.38-.54c1.18,0,1.86,1,2.06,2.87,0,.48.05,1.06.05,1.74l0,1.13v1.21c1.61-.2,2.53-.31,2.77-.31a11,11,0,0,1,2.65.2,1.71,1.71,0,0,1,1.2,1.83,2,2,0,0,1-.54,1.42A1.85,1.85,0,0,1,1388.78,901.51Z"/><path d="M1409.82,919.44c-.25,0-.7-.29-1.35-.86a8.86,8.86,0,0,1-1.31-1.43,24.05,24.05,0,0,1-3.3,1.53,7.13,7.13,0,0,1-2.38.52q-4.57,0-6.66-2.58c-1.32-1.61-2-4.09-2-7.42a11.18,11.18,0,0,1,3.26-8.08,10.41,10.41,0,0,1,7.76-3.36,10.15,10.15,0,0,1,3.81.87c1.77.73,2.66,1.61,2.66,2.64a1.3,1.3,0,0,1-.4.94,14.13,14.13,0,0,0-.3,2.44c-.07,1.13-.11,2.59-.13,4.36a15.65,15.65,0,0,0,.34,3.82,29,29,0,0,0,1.23,3.44c.09.24.24.58.45,1l.11.33a1.7,1.7,0,0,1-.54,1.29A1.82,1.82,0,0,1,1409.82,919.44Zm-4.07-13.58a17.18,17.18,0,0,1,.11-1.82c.07-.66.18-1.36.32-2.1a9.2,9.2,0,0,0-1.24-.55,2.65,2.65,0,0,0-.83-.18,6.79,6.79,0,0,0-5.22,2.47,9.32,9.32,0,0,0-1.06,10.5,3.86,3.86,0,0,0,3.39,1.6,6.78,6.78,0,0,0,3.19-.68,12,12,0,0,0,2-1.48A70.49,70.49,0,0,1,1405.75,905.86Z"/><path d="M1428.1,901.51c-.27,0-.6,0-1,0s-.69,0-1,0-1.19.1-2.66.29l.37,11.54,0,.86,0,1q.07,4.27-2.05,4.28a2,2,0,0,1-1.36-.51,1.64,1.64,0,0,1-.58-1.27c0-.5,0-1.24.06-2.23s.06-1.73.06-2.22l-.39-11.41c-1,0-2.39-.15-4.33-.33a1.78,1.78,0,0,1-1.74-1.94,2,2,0,0,1,.52-1.42,1.78,1.78,0,0,1,1.35-.57l4.1.33c0-.66,0-1.55-.08-2.66s-.09-1.92-.09-2.41a1.82,1.82,0,0,1,.56-1.36,1.94,1.94,0,0,1,1.39-.54c1.17,0,1.86,1,2.05,2.87q.06.72.06,1.74l0,1.13,0,1.21c1.62-.2,2.54-.31,2.78-.31a11,11,0,0,1,2.65.2,1.7,1.7,0,0,1,1.19,1.83,2,2,0,0,1-.53,1.42A1.85,1.85,0,0,1,1428.1,901.51Z"/><path d="M1436.38,920a2.39,2.39,0,0,1-2.42-2.42,2.43,2.43,0,1,1,2.42,2.42Z"/><path d="M778.67,96a15.16,15.16,0,0,0-.58,4.81c0,.78,0,1.94.08,3.47s.07,2.7.07,3.48q0,3.9-.68,11.64T776.88,131q0,3,.43,8.91c.28,4,.43,6.94.43,8.94a3.7,3.7,0,0,1-1.08,2.7,3.8,3.8,0,0,1-5.33,0,3.66,3.66,0,0,1-1.09-2.7c0-2-.15-5-.43-8.94s-.43-6.93-.43-8.91.06-3.83.19-5.78a100.64,100.64,0,0,0-16.52,2l-16.41,3.2a98.57,98.57,0,0,1-.7,10,98.71,98.71,0,0,0-.7,10,3.76,3.76,0,0,1-1.08,2.72,3.78,3.78,0,0,1-5.35,0,3.75,3.75,0,0,1-1.07-2.72q0-4.14.68-12.36t.68-12.36c0-1.43-.05-3.6-.15-6.49s-.16-5.06-.16-6.52q0-3.09.39-9.28c.26-4.12.39-7.22.39-9.27a3.74,3.74,0,0,1,1.08-2.74,3.57,3.57,0,0,1,2.67-1.09A3.6,3.6,0,0,1,736,91.41a3.77,3.77,0,0,1,1.07,2.74c0,2.08-.13,5.2-.41,9.35s-.41,7.27-.41,9.36l.24,9.88,16.75-3.16a101.08,101.08,0,0,1,16.92-2q.42-5.58.43-16.83a19.67,19.67,0,0,1,1-6q1.29-4.18,3.64-4.18a3.8,3.8,0,0,1,2.65,1.08A3.52,3.52,0,0,1,779,94.38,5.17,5.17,0,0,1,778.67,96Z"/><path d="M814.1,152.58q-12.15,0-18.12-7-4.85-5.62-6.1-16.64-.58-5-.58-19.8,0-5.48.23-8.83a22.15,22.15,0,0,1,.71-5c.65-1.9,1.82-2.86,3.51-2.86,2.4,0,3.6,2.21,3.6,6.61V122q0,23.67,16.56,23.67,15.58,0,15.58-39.85V102c0-1.57,0-2.61,0-3.13a10,10,0,0,1,.85-4.26,3.49,3.49,0,0,1,3.25-2.34q3.9,0,3.9,5.35c0,1.07,0,2.68,0,4.84v4.85Q837.5,152.57,814.1,152.58Z"/><path d="M886.17,151.45a3.94,3.94,0,0,1-2.77-1.25Q870.47,137.42,854.65,133l.31,7.66.2,7.69a4,4,0,0,1-1.12,2.88,4,4,0,0,1-5.58,0,4,4,0,0,1-1.11-2.88c0-2.05-.1-5.12-.3-9.19s-.29-7.15-.29-9.2a107.29,107.29,0,0,1,.78-10.71q.78-7.11.78-10.66,0-2-.37-5.9t-.37-5.9a6.38,6.38,0,0,1,1.25-3.9,4.34,4.34,0,0,1,4.1-1.88l9.42.74a26.22,26.22,0,0,1,9,2.62q15.82,8.4,15.82,20.51,0,5.94-5.39,10.51A29.4,29.4,0,0,1,871,131q12.15,6.53,18.16,13.75a4.15,4.15,0,0,1,1,2.66,4,4,0,0,1-1.19,2.85A3.8,3.8,0,0,1,886.17,151.45ZM861.29,99.81l-5.78-.47.39,4.73c.18,1.93.27,3.5.27,4.72a75.88,75.88,0,0,1-.5,7.78l-.82,7.77c.36,0,.93,0,1.69,0s1.35,0,1.74,0q10,0,14.93-2.66a17.14,17.14,0,0,0,4.06-3.16c1.38-1.46,2.07-2.7,2.07-3.71q0-5.43-6.17-10.12A23.71,23.71,0,0,0,861.29,99.81Z"/><path d="M936.45,151.45a4,4,0,0,1-2.78-1.25Q920.74,137.42,904.92,133l.32,7.66.19,7.69a4,4,0,0,1-1.11,2.88,4,4,0,0,1-5.59,0,4,4,0,0,1-1.11-2.88c0-2.05-.1-5.12-.29-9.19S897,132,897,130a107.29,107.29,0,0,1,.78-10.71c.52-4.74.79-8.29.79-10.66q0-2-.38-5.9c-.24-2.6-.37-4.57-.37-5.9a6.38,6.38,0,0,1,1.25-3.9A4.35,4.35,0,0,1,903.21,91l9.41.74a26.15,26.15,0,0,1,9,2.62q15.83,8.4,15.82,20.51,0,5.94-5.39,10.51A29.4,29.4,0,0,1,921.25,131q12.15,6.53,18.17,13.75a4.2,4.2,0,0,1,1,2.66,4,4,0,0,1-1.19,2.85A3.78,3.78,0,0,1,936.45,151.45ZM911.56,99.81l-5.78-.47.39,4.73c.19,1.93.28,3.5.28,4.72a73.49,73.49,0,0,1-.51,7.78l-.82,7.77c.36,0,.93,0,1.7,0s1.35,0,1.74,0q10,0,14.92-2.66a16.94,16.94,0,0,0,4.06-3.16c1.38-1.46,2.07-2.7,2.07-3.71q0-5.43-6.17-10.12A23.67,23.67,0,0,0,911.56,99.81Z"/><path d="M991.56,152.19q-3.59,0-6.25-9.22-1-3.51-2.53-12.3-4,.54-10.43,2L962,134.77q-2,5.11-6.68,15a3.81,3.81,0,0,1-3.4,2.19,4,4,0,0,1-2.8-1.13,3.69,3.69,0,0,1-1.23-2.82q0-1.87,5.9-14.25a4.22,4.22,0,0,1-.66-2.35c0-2.11,1.27-3.46,3.83-4.06q4.44-8.36,11.25-19.22,9.26-14.81,11.52-14.8c2.06,0,3.46,1.43,4.22,4.29l2.46,13.13,5.82,27.15,2.23,6.17a16.4,16.4,0,0,1,1.13,4.22,3.72,3.72,0,0,1-1.21,2.81A4,4,0,0,1,991.56,152.19Zm-13.78-44.65-11.18,18q4.73-1.2,14.34-2.93Z"/><path d="M1050.08,152.19q-3.6,0-6.25-9.22-1-3.51-2.54-12.3-4,.54-10.43,2l-10.39,2.15q-2,5.11-6.68,15a3.79,3.79,0,0,1-3.4,2.19,4,4,0,0,1-2.79-1.13,3.69,3.69,0,0,1-1.23-2.82q0-1.87,5.9-14.25a4.15,4.15,0,0,1-.67-2.35q0-3.17,3.83-4.06,4.46-8.36,11.25-19.22,9.25-14.81,11.53-14.8c2,0,3.46,1.43,4.21,4.29l2.46,13.13,5.83,27.15,2.22,6.17a16,16,0,0,1,1.13,4.22,3.69,3.69,0,0,1-1.21,2.81A4,4,0,0,1,1050.08,152.19Zm-13.79-44.65-11.17,18q4.73-1.2,14.34-2.93Z"/><path d="M1072.74,150.12a3.2,3.2,0,0,1-1.12,2.44,3.6,3.6,0,0,1-2.52,1c-1,0-2.08-.68-3.12-2a5.83,5.83,0,0,1-1.52-3.52,3.17,3.17,0,0,1,1.11-2.42,3.67,3.67,0,0,1,2.56-1q1.51,0,3.12,2A5.88,5.88,0,0,1,1072.74,150.12Zm0-58.32v43.48c0,2.32-1.16,3.47-3.48,3.47s-3.48-1.15-3.48-3.47c0-1.07,0-2.66-.09-4.79s-.1-3.7-.1-4.74q0-5.67.1-17t.09-17c0-2.32,1.16-3.47,3.48-3.47S1072.7,89.48,1072.7,91.8Z"/><g id="_RS_knap" data-name=" RS knap"><circle class="cls-5" cx="1837" cy="80" r="67"/><path class="cls-6" d="M1837.81,125.07a45.23,45.23,0,0,1-15.43-2.84c-19.21-7.19-26.33-25.15-26.8-26.39-6.06-16-.71-30.07.81-33.71,2.06-4.88,8.59-18.06,24-24.36,19.86-8.14,37.54,2.13,39.39,3.25,13.74,8.3,18.28,21.47,19.49,25.17a47.21,47.21,0,0,1,.41,28,45.65,45.65,0,0,1-11.78,19.09"/><polygon points="1870.32 82.55 1869.89 111.33 1898.66 111.75 1886.27 123.78 1857.5 123.35 1857.93 94.59 1870.32 82.55"/></g></svg>