<svg id="Layer_1" data-name="Layer 1" xmlns="http://www.w3.org/2000/svg" width="429" height="519" viewBox="0 0 429 519"><defs><style>.cls-1{fill:#ffb611;}.cls-2{fill:#b3b3b3;}.cls-3{fill:#e6e6e6;}.cls-4{fill:#f2f2f2;}.cls-5{fill:#007a4d;}.cls-6{fill:#7ac943;opacity:0.6;}</style></defs><title>Artboard 19</title><g id="domP"><path class="cls-1" d="M28.27,84.14C38.14,92.56,39.07,98,46.62,100.8c8,3,16.25.24,21.78-2.38L87.9,77c2.89-12.91.53-19.84-2.29-23.81,0,0-1.8-2.53-14.91-11.9-4-21.75-6.88-23.81-6.88-23.81C55,11.2,35.34,26.78,30.56,30.56c-2.85,2.26-30.35,24-25.23,38.1C7.77,75.36,14.79,72.65,28.27,84.14Z"/><ellipse class="cls-2" cx="67.83" cy="156.16" rx="30.39" ry="31.55"/><ellipse class="cls-2" cx="35.15" cy="178.19" rx="21.79" ry="22.62"/><ellipse class="cls-2" cx="100.52" cy="200.81" rx="21.79" ry="22.62"/><ellipse class="cls-2" cx="87.9" cy="178.19" rx="21.79" ry="22.62"/><ellipse class="cls-2" cx="66.11" cy="200.81" rx="21.79" ry="22.62"/><ellipse class="cls-2" cx="56.36" cy="243.07" rx="28.1" ry="29.17"/><ellipse class="cls-2" cx="67.83" cy="233.54" rx="28.1" ry="29.17"/><ellipse class="cls-2" cx="78.73" cy="272.24" rx="24.08" ry="25"/><ellipse class="cls-2" cx="57.51" cy="296.64" rx="16.63" ry="17.26"/><ellipse class="cls-2" cx="46.62" cy="204.38" rx="21.79" ry="22.62"/><ellipse class="cls-3" cx="68.4" cy="155.57" rx="13.76" ry="14.29"/><ellipse class="cls-3" cx="74.14" cy="193.66" rx="13.76" ry="14.29"/><ellipse class="cls-3" cx="47.76" cy="178.19" rx="13.76" ry="14.29"/><ellipse class="cls-3" cx="61.52" cy="179.38" rx="13.76" ry="14.29"/><ellipse class="cls-3" cx="83.31" cy="172.23" rx="13.76" ry="14.29"/><ellipse class="cls-3" cx="56.94" cy="200.81" rx="13.76" ry="14.29"/><ellipse class="cls-3" cx="65.54" cy="220.45" rx="18.92" ry="19.64"/><ellipse class="cls-4" cx="69.55" cy="150.8" rx="13.76" ry="14.29"/><ellipse class="cls-4" cx="68.4" cy="204.38" rx="13.76" ry="14.29"/><ellipse class="cls-4" cx="59.23" cy="185.33" rx="13.76" ry="14.29"/><ellipse class="cls-4" cx="75.29" cy="174.61" rx="13.76" ry="14.29"/><path class="cls-5" d="M298.91,452h14.91c63.1-50.61,105.19-94,109-111.91a41.13,41.13,0,0,0,0-16.66c-3.31-13.24-14.17-20.79-18.35-23.81C371.56,275.81,374,257.59,323,221c-13-9.3-24.72-17.7-42.44-26.19-40.28-19.28-59.85-14.25-94-34.52-10.66-6.32-4-4-37.85-38.1-.66-.66-2.54-2.56-2.29-4.76.19-1.7,1.52-2.41,2.29-3.57,2.46-3.7-.65-12.21-5.73-16.67s-12.62-5.28-19.5-2.38L81,137.71c-.79,1.65-3.8,8.44-1.15,15.48,3.76,10,15.65,11.89,19.5,11.9a26.07,26.07,0,0,0,8.48-1.57c.92-.84,1.48-1,1.84-.81,1.12.46.94,3.71.57,6.55A158,158,0,0,1,147,210.92a195.59,195.59,0,0,1,10.32,20.24c18.32,40.06,18.93,58.91,34.41,92.86a358.51,358.51,0,0,0,17.2,32.15C222.74,379.25,249.28,416,298.91,452Z"/><path class="cls-6" d="M360.84,384.14c1.26-1.41,4.92-5.8,6.88-14.28,7-30.17-4.59-61.91-4.59-61.91a136.86,136.86,0,0,0-67.66-73.81,3.12,3.12,0,0,0-1.14,1.19c-1.1,2.08.69,5.09,1.14,5.95,3,5.6,1.37,17.52-3.44,25a24.74,24.74,0,0,1-11.47,9.53c-9.88,3.76-20.6-.86-21.79,2.38a2.28,2.28,0,0,0,0,1.19,52.71,52.71,0,0,1,0,13.09,30.86,30.86,0,0,1-10.32,19c-1.44,1.25-8.66,7.23-18.35,7.14-7-.06-12.4-3.27-13.76-1.19-.79,1.21.37,3.32,1.15,4.77,7.31,13.57,4.41,12,9.17,19,12.84,18.93,33.26,33.34,33.26,33.34,10.06,7.09,20.61,14.53,36.7,19.05,0,0,29.31,8.21,53.9-2.39A28.41,28.41,0,0,0,360.84,384.14Z"/><polygon points="325.03 350.49 332.17 344.86 329.49 353.86 336.76 359.14 327.79 359.3 325.29 367.48 322.28 359.3 312.68 359.14 320.57 353.86 317.26 344.86 325.03 350.49"/><path class="cls-1" d="M151.21,208.49l-44.3-42.1,43-42.53q20.15,20.85,40.31,41.69,4.37,26.14,8.74,52.31Z"/></g></svg>
