<svg id="Layer_1" data-name="Layer 1" xmlns="http://www.w3.org/2000/svg" width="233" height="274" viewBox="0 0 233 274"><defs><style>.cls-1,.cls-2{fill:#e4b64e;}.cls-2,.cls-3{stroke:#603813;stroke-miterlimit:10;stroke-width:0.25px;}.cls-3{fill:#efc88f;}</style></defs><title>spilskærm</title><g id="Liv_hånd" data-name="Liv hånd"><path class="cls-1" d="M212.41,173c-.09-.91-.21-1.83-.37-2.77A2.18,2.18,0,0,1,212,170a2.48,2.48,0,0,1-.09-.65C209.58,157.69,201.72,143.76,189,137a49.3,49.3,0,0,0-11-4c-9.21-2.5-15-2.12-31-2-23.73.18-24.84-.56-31,1-9.2,2.33-17.93,3.37-20,9-2.59,7.05,7.39,14.06,4,20-2,3.42-7.27,4.62-11,4-4-.67-6.06-3.43-8-5-8-6.47-26.57-2.71-36,6-18.17,16.79-3.26,52.79-1,58a76.6,76.6,0,0,0,22,29c21.88,17.33,52.33,20.63,77,12,23.2-8.12,35.06-24.62,49-44,11.55-16.07,21.53-29.95,20.53-46.48A2.08,2.08,0,0,1,212.41,173Z"/><path class="cls-2" d="M187,91.85A47.77,47.77,0,0,1,185.35,74c0-.34,0-.67,0-1a17.52,17.52,0,0,1,.31-2.62l.15-1.33c.06-1.61.15-3.22.29-4.86,2.14-25.4,8.16-40.8-2.15-52.91-1-1.23-8.16-9.59-15.06-8.14A7.78,7.78,0,0,0,166,4.45c-.65,1.33-2.12,2.44-3.28,3.52a31.07,31.07,0,0,0-2.42,4.36c-.47,1-.88,2-1.25,3-.41,1.38-.85,2.76-1.33,4.12a43.67,43.67,0,0,0-1.33,8,16.74,16.74,0,0,1-.15,3.45c0,.18,0,.35,0,.53-.11,7.55.87,15.83.86,26.69a138.27,138.27,0,0,1-2.15,27.47c-.56,2.9-1.2,5.56-1.88,8a2.68,2.68,0,0,1-.43,1.51,105.76,105.76,0,0,1-5.5,14.55c-.1.37-.18.74-.26,1.1a.41.41,0,0,1-.42.35c-3.51,7.55-5.92,11.89-3.34,16.18,5.36,8.91,38.2,30.83,49.47,21.37C201.44,141.22,190.79,120.25,187,91.85Z"/><path class="cls-2" d="M145.86,110.64a3.48,3.48,0,0,1,.32-1.71c.08-1.26.15-2.57.23-4,.3-5.18.54-9.55.58-13.22a31.21,31.21,0,0,1-.05-4.1,23.87,23.87,0,0,0-1.1-6.91,17,17,0,0,1-1.26-2.41A6.81,6.81,0,0,0,143,76.85c-6.54-4.4-18.84-.26-26,5.21C101.5,93.91,97.79,121.38,111.36,131c7.91,5.6,22,5.41,29.4-1,3.69-3.24,4.61-8.83,5.29-18.95A.53.53,0,0,1,145.86,110.64Z"/><path class="cls-2" d="M72.94,113.19c0-1-.1-2.08-.19-3.12a68.53,68.53,0,0,1-.84-7.62c0-.2,0-.4,0-.6-.82-6.33-1.94-10.14-5-11.85-5.9-3.25-17.81,1.77-23.31,10.09-5.87,8.91.22,14.59,1.17,41.51.57,16.19-1.33,22.59,3.5,25.79,5.27,3.5,15.24,1,19.81-4.48.91-1.1,2.06-2.84,3.49-17.95.84-8.8,1.1-15.09,1.17-16.82.24-6,.4-10.08.32-13.69A2.69,2.69,0,0,1,72.94,113.19Z"/><path class="cls-2" d="M110.88,81.83c-7.6-6.91-24.92-6.27-32.38,1.06-1.17,1.15-3.18,3.53-4.62,10.6A39,39,0,0,0,73,103c.18,1.35.25,2.74.36,4.12s.37,2.45.6,3.71a.37.37,0,0,1,.07.26v.08c.06.34.12.67.19,1a.49.49,0,0,1,.18.37c0,.13,0,.26,0,.39a111.09,111.09,0,0,1,1.8,12.41c1.4,17.05-3,21.78,2.31,32.87,1.71,3.57,4.61,9.41,10.41,10.61,6.24,1.28,12-3.61,12.72-4.25,7.66-6.69,5.91-17.22,5.78-29.69C107.06,100.2,119.67,89.81,110.88,81.83Z"/><path class="cls-3" d="M45,161a147.69,147.69,0,0,0,0,41c2.25,15.91,3.74,26.44,12,35,2,2.07,7.92,10.65,33,17,24.58,6.22,35.87,5.33,46,3,15.52-3.58,24.82-13.58,41-31,10.49-11.29,18.66-20.29,23-35,2.32-7.85,6.15-20.84,0-34a45.75,45.75,0,0,0-25-23c-8.37-3.12-20.36-1.79-40-1-30.74,1.23-33.83,4.79-35,7-3.49,6.57,1.28,17.44,5,23,4.15,6.2,8.76,8.41,8,10-1.24,2.57-14.4-.94-23-4-10.48-3.73-12-6-19-8C65.23,159.37,56.65,158.22,45,161Z"/></g></svg>
