<?xml version="1.0" standalone="no"?>
<!DOCTYPE svg PUBLIC "-//W3C//DTD SVG 20010904//EN"
 "http://www.w3.org/TR/2001/REC-SVG-20010904/DTD/svg10.dtd">
<svg version="1.0" xmlns="http://www.w3.org/2000/svg"
 width="190.000000pt" height="134.000000pt" viewBox="0 0 190.000000 134.000000"
 preserveAspectRatio="xMidYMid meet">

<g transform="translate(0.000000,134.000000) scale(0.100000,-0.100000)"
fill="#000000" stroke="none">
<path d="M1195 1310 c-11 -5 -35 -9 -52 -9 -18 -1 -33 -5 -33 -11 0 -5 -18
-10 -40 -10 -22 0 -40 -4 -40 -10 0 -5 -18 -10 -40 -10 -22 0 -40 -4 -40 -10
0 -5 -13 -10 -29 -10 -17 0 -33 -5 -36 -10 -4 -6 -11 -8 -16 -5 -5 4 -12 0
-15 -8 -3 -8 -24 -20 -47 -27 -23 -7 -49 -15 -57 -18 -8 -3 -19 -6 -23 -6 -4
-1 -12 -7 -16 -15 -5 -7 -13 -11 -18 -8 -6 4 -20 -4 -33 -18 -12 -13 -36 -29
-53 -36 -18 -7 -34 -16 -37 -19 -8 -11 -159 -111 -163 -108 -1 2 -20 -14 -42
-34 -22 -20 -58 -50 -80 -66 -48 -36 -223 -212 -211 -212 5 0 1 -9 -9 -20 -10
-11 -14 -20 -10 -20 5 0 4 -5 -3 -12 -7 -7 -12 -27 -12 -44 0 -18 -4 -36 -10
-39 -13 -8 -13 -65 0 -65 6 0 10 -9 10 -20 0 -44 79 -148 133 -175 38 -19 119
-19 172 -1 27 9 46 11 57 5 21 -11 23 -50 6 -79 -10 -15 -9 -25 2 -47 58 -114
110 -130 310 -93 30 6 91 15 135 20 73 9 121 16 245 40 241 46 392 123 542
277 117 120 213 287 189 331 -21 39 -66 71 -106 74 -37 3 -40 5 -40 32 0 26 8
35 61 65 77 44 101 66 120 107 13 28 14 38 3 68 -7 20 -17 36 -21 36 -4 0 -8
5 -8 11 0 12 -110 119 -122 119 -5 0 -8 4 -8 8 0 5 -19 17 -42 26 -24 10 -56
24 -73 31 -16 7 -45 18 -64 24 -40 13 -307 14 -336 1z m409 -431 c31 -24 46
-51 57 -96 9 -42 5 -45 -211 -151 -284 -139 -629 -274 -898 -352 -110 -33
-113 -33 -127 -14 -13 17 -12 21 11 40 53 44 219 115 446 193 272 93 378 139
484 212 69 48 184 161 184 181 0 15 27 8 54 -13z m-679 -15 c11 -11 14 -25 10
-44 -5 -25 -4 -26 25 -22 34 5 41 -12 10 -28 -17 -9 -19 -14 -9 -33 7 -12 17
-25 23 -29 19 -13 54 -9 60 8 10 26 7 54 -6 52 -19 -4 -21 31 -4 57 20 30 37
31 62 4 18 -20 18 -22 1 -34 -11 -8 -17 -26 -17 -54 0 -42 -26 -81 -54 -81 -7
0 -16 -10 -19 -22 -5 -18 -8 -19 -22 -8 -13 11 -19 10 -38 -9 -28 -25 -48 -26
-90 -5 -21 12 -32 13 -35 5 -2 -6 -10 -11 -18 -11 -13 0 -15 10 -18 67 -1 24
73 38 81 16 3 -8 0 -19 -7 -23 -9 -6 -4 -13 18 -24 30 -15 31 -15 51 10 19 24
19 28 5 56 -13 24 -18 27 -30 17 -24 -20 -42 5 -21 29 22 24 21 30 -5 34 -29
4 -36 43 -12 69 21 23 37 24 59 3z m730 -315 c9 -14 -24 -49 -122 -125 -218
-171 -490 -284 -753 -312 -99 -11 -110 -9 -110 12 0 9 23 16 73 20 298 29 621
170 837 365 59 54 65 57 75 40z"/>
<path d="M885 830 c-3 -5 -1 -10 4 -10 6 0 11 5 11 10 0 6 -2 10 -4 10 -3 0
-8 -4 -11 -10z"/>
</g>
</svg>
