<?xml version="1.0" encoding="UTF-8"?><svg id="a" xmlns="http://www.w3.org/2000/svg" viewBox="0 0 500 500"><defs><style>.b{fill:#fff;}.c{fill:#539ccd;}.d{fill:#559ac8;}.e{fill:#579bc9;}.f{fill:#575656;}.g{fill:#7ab5e3;}</style></defs><g><path class="f" d="M420.88,435.7c1.85,.59,3.54,1.37,5.04,2.36,.34-.13,.66-.28,1.01-.41,.45-.84,1-1.61,1.56-2.38,.14-.5,.24-1.01,.42-1.49,.09-.43,.18-.85,.26-1.28l-.18,.04c-1.71-9.13-2.95-16.83-4.61-24.43-7.32-33.45-18.47-65.11-46.53-87.27-25.38-20.04-44.77-45-62.35-71.7-8.88-13.49-18.32-26.62-29.33-38.47-15.7-16.89-33.8-29.74-57.14-34.09-31.85-5.94-53.49,11.57-53.59,43.93-.03,9.69,.97,19.44,.13,29.04-1.66,19.04-7.82,34.82-26.54,45.19-29.65,16.41-54.97,38.69-76.5,65.06-1.54,1.88-2.69,4.32-5.11,5.57-.58,1.14-1.23,2.29-2.06,3.45-1.66,2.31-3.1,4.71-4.53,7.1-.26,1.32-.95,2.53-1.63,3.82-3.43,6.42-6.47,12.98-8.81,19.81-2.71,8.81-4.44,17.96-5.41,27.32,1.69-2.32,3.69-4.32,6.13-5.9,2.83-3.26,5.84-6.42,9.12-9.41,16.4-14.9,34.64-27.45,54.74-37.03,11.93-5.68,24.42-7.98,37.58-5.62,2.49,.45,4.8,1.21,7.04,2.12,1.09,.32,2.18,.64,3.21,1.18,1.65,.54,3.13,1.35,4.52,2.32,1.96,1,3.76,2.18,5.22,3.68,.87,.56,1.71,1.15,2.47,1.83,.32,.08,.64,.14,.96,.22,2.1,.21,4.2,.39,6.3,.56,1.47-.09,2.91-.42,4.35-.76,1.03-1.16,2.21-2.19,3.51-3.11,3.25-3.21,8.36-5.69,15.94-7.91,5.25-1.54,10.88-2.42,16.34-2.49,19.38-.27,38.77-.3,58.15,.05,17.25,.31,32.49,6.3,45.21,18.12,11.83,11,23.68,21.93,34.71,33.79,5.86,6.3,10.73,12.92,14.91,19.74,1.06,1.1,1.97,2.31,2.78,3.59,1.06,.6,2.06,1.25,2.96,2,.7,.05,1.41,.04,2.08,.19h0c.86-1.04,1.84-1.97,2.91-2.83,3.36-6.6,9.8-11.51,19.46-11.51,6.64,0,11.66,2.4,15.31,5.99Zm-38.5-1.35c-14.19-21.38-33.43-36-48.99-54.11h.02c-1.01-.86-2.01-1.73-3.02-2.59-19.75-15.86-43.03-19.61-67.36-19.32-17.41,.21-34.83-1.38-52.23,1.87-9.32,1.74-17.8,4.43-24.76,10.9-3.35,3.11-6.23,5.06-10.59,1.37-19.9-16.82-41.45-14.05-63.39-4.89-5.49,2.3-10.84,4.96-16.25,7.45h0c-11.1,10.09-24.91,16.42-37.53,28.58,1.4-14.17,8.39-22.71,14.96-31.46,19.88-29.65,47.2-51.33,77.03-69.73,21.74-13.41,45.02-24.07,70.4-29.24,3.47-.71,9.71-.92,4.62-7.47h0c-16.68,1.13-31.55,8.96-48.73,13.45,2.68-9.41,5.1-17.95,7.53-26.49-.52-7.34-.63-14.74-1.64-22.01-4.83-34.58,18.55-55.02,52.19-45.34,21.19,6.1,37.3,19.57,51.15,36.1,16.3,19.45,29.26,41.35,44.55,61.55,9.21,12.17,19.08,23.56,31.04,33.21,26.12,21.08,45.96,46.39,51.93,80.55h0c3.44,10.39,6.37,20.88,6.73,33.02-13.64-6.93-26.26-8.98-37.68,4.6Z"/><path class="g" d="M333.41,380.24c6.25,.28,11.11,4.09,16.35,6.73,13.26,6.68,27.58,9.51,41.91,12.41,7.48,1.51,14.37-2.21,21.64-2.65-5.97-34.17-25.81-59.47-51.93-80.55-11.95-9.65-21.83-21.04-31.04-33.21-15.29-20.2-28.25-42.1-44.55-61.55-13.85-16.53-29.96-30-51.15-36.1-33.64-9.68-57.01,10.76-52.19,45.34,1.02,7.27,1.12,14.67,1.64,22.01,6.79,7.31,15.21,9.27,24.94,8.55,5.68-.42,12.25-2.01,16.26,4.48h0c5.08,6.55-1.15,6.76-4.62,7.47-25.39,5.18-48.67,15.84-70.4,29.24-29.83,18.4-57.15,40.08-77.03,69.73,7,5.05,15.15,1.09,22.57,2.88h0c5.41-2.49,10.75-5.15,16.25-7.45,21.94-9.17,43.49-11.94,63.39,4.89,4.37,3.69,7.25,1.75,10.59-1.37,6.96-6.47,15.43-9.16,24.76-10.9,17.39-3.25,34.82-1.66,52.23-1.87,24.33-.29,47.61,3.46,67.36,19.32,1.52,.27,2.53,1.14,3.03,2.6Z"/><path class="c" d="M333.42,380.26l-.02-.02h-.02l.04,.02h0Z"/><path class="c" d="M420.05,429.75c-.36-12.13-3.29-22.63-6.73-33.02h0c-6.88,7.21-15.64,7-24.4,5.73-20.26-2.94-39.32-9.07-55.54-22.22,15.56,18.11,34.8,32.73,48.99,54.11,11.42-13.58,24.04-11.53,37.68-4.6Z"/><path class="c" d="M413.32,396.73h0c-7.27,.44-14.17,4.17-21.64,2.65-14.33-2.9-28.66-5.73-41.91-12.41-5.24-2.64-10.11-6.44-16.35-6.73,0,0,0,.01,.01,.02h0l-.04-.02c16.22,13.15,35.28,19.28,55.54,22.22,8.76,1.27,17.51,1.48,24.4-5.73Z"/><path class="e" d="M206.4,264.56c-9.76,.5-18.38-1.32-22.29-11.89-2.43,8.54-4.85,17.07-7.53,26.49,17.18-4.5,32.05-12.33,48.73-13.45h0c-6.14-3.04-12.55-1.48-18.91-1.15Z"/><path class="e" d="M209.04,261.23c-9.72,.72-18.14-1.25-24.94-8.55,3.91,10.56,12.53,12.39,22.29,11.89,6.36-.33,12.76-1.88,18.91,1.15-4.01-6.49-10.58-4.9-16.26-4.48Z"/><path class="d" d="M73.24,372.15c-6.56,8.75-13.56,17.29-14.96,31.46,12.61-12.16,26.43-18.49,37.53-28.58-7.84,1.55-16.36,8.36-22.57-2.88Z"/><path class="d" d="M73.24,372.15c6.21,11.24,14.73,4.43,22.57,2.88h0c-7.42-1.79-15.57,2.17-22.57-2.88Z"/><path class="c" d="M330.39,377.65c1.01,.86,2.01,1.73,3.02,2.59h0c-.8-1.1-1.79-1.99-3.02-2.59Z"/><path class="c" d="M333.41,380.24h0c-.5-1.45-1.5-2.33-3.03-2.59,1.23,.6,2.22,1.49,3.02,2.59Z"/><path class="c" d="M333.41,380.24h0l.02,.02s-.01-.01-.02-.02Z"/><path class="c" d="M333.42,380.26h0s0,0-.01-.02h0s.01,0,.02,.02Z"/></g><g><path class="b" d="M461,68.18c-2.39-10.04-10.42-16.14-21.17-16.15-40.76,0-81.51,0-122.27,0-1.38,0-2.79,0-4.15,.23-10.6,1.82-17.62,10.17-17.63,21.01-.03,24.28,0,48.57,0,72.85,0,1.5-.03,3.01,.04,4.51,.42,9.82,7.79,18.21,17.54,19.42,4.62,.57,9.34,.29,14.02,.37,3.11,.05,4.29,1.46,3.69,4.53-.6,3.06-1.24,6.11-1.85,9.17-.87,4.34-1.72,8.69-2.64,13.31,.83-.42,1.39-.69,1.94-.99,15.73-8.28,31.45-16.6,47.23-24.81,1.41-.74,3.17-1.15,4.76-1.16,19.89-.08,39.77-.04,59.66-.06,12.35-.01,21.39-8.99,21.4-21.3,.03-25.27,.02-50.53-.02-75.8,0-1.72-.16-3.48-.55-5.15Zm-140.41,12.92h116.15c1.66,0,3,1.34,3,3s-1.34,3-3,3h-116.15c-1.66,0-3-1.34-3-3s1.34-3,3-3Zm116.16,57.96h-116.15c-1.66,0-3-1.34-3-3s1.34-3,3-3h116.15c1.66,0,3,1.34,3,3s-1.34,3-3,3Zm0-25.98h-116.15c-1.66,0-3-1.34-3-3s1.34-3,3-3h116.15c1.66,0,3,1.34,3,3s-1.34,3-3,3Z"/><path class="f" d="M440.12,46.12c-40.99-.04-81.98-.03-122.98,.01-2.18,0-4.41,.18-6.52,.68-12.56,2.98-20.73,13.41-20.75,26.43-.03,25.33,0,50.66,0,75.98,0,.69,0,1.39,.06,2.08,.74,8.93,4.82,15.92,12.3,20.84,4.46,2.93,9.44,4.24,14.78,4.2,2.51-.02,5.03,0,7.72,0-.73,3.67-1.4,7.06-2.07,10.45-1.01,5.1-2.02,10.2-3.04,15.29-.27,1.31-.08,2.65,1.11,3.18,.97,.43,2.26,.22,3.4,.14,.47-.03,.92-.44,1.38-.69,17.42-9.17,34.84-18.35,52.29-27.48,1.02-.53,2.28-.86,3.43-.86,19.72-.05,39.43,0,59.15-.05,13.19-.03,23.78-8.56,26.55-21.28,.17-.77,.37-1.54,.56-2.31V69.82c-.18-.78-.37-1.55-.53-2.33-2.72-12.82-13.33-21.36-26.82-21.37Zm.04,124.32c-19.89,.02-39.77-.02-59.66,.06-1.6,0-3.35,.42-4.76,1.16-15.77,8.21-31.49,16.53-47.23,24.81-.55,.29-1.11,.57-1.94,.99,.92-4.62,1.77-8.97,2.64-13.31,.61-3.06,1.26-6.11,1.85-9.17,.6-3.07-.58-4.48-3.69-4.53-4.68-.08-9.4,.2-14.02-.37-9.76-1.21-17.12-9.6-17.54-19.42-.06-1.5-.04-3.01-.04-4.51,0-24.28-.02-48.57,0-72.85,.01-10.84,7.04-19.19,17.63-21.01,1.36-.23,2.76-.23,4.15-.23,40.76-.01,81.51-.02,122.27,0,10.75,0,18.78,6.11,21.17,16.15,.4,1.67,.55,3.43,.55,5.15,.03,25.27,.04,50.53,.02,75.8-.01,12.32-9.05,21.29-21.4,21.3Z"/><path class="f" d="M320.59,87.1h116.15c1.66,0,3-1.34,3-3s-1.34-3-3-3h-116.15c-1.66,0-3,1.34-3,3s1.34,3,3,3Z"/><path class="f" d="M436.75,107.08h-116.15c-1.66,0-3,1.34-3,3s1.34,3,3,3h116.15c1.66,0,3-1.34,3-3s-1.34-3-3-3Z"/><path class="f" d="M436.75,133.07h-116.15c-1.66,0-3,1.34-3,3s1.34,3,3,3h116.15c1.66,0,3-1.34,3-3s-1.34-3-3-3Z"/></g></svg>