<svg id="Layer_1" data-name="Layer 1" xmlns="http://www.w3.org/2000/svg" width="100" height="100" viewBox="0 0 100 100"><defs><style>.cls-1{fill:#fff;}</style></defs><title>Artboard 1</title><circle cx="50" cy="56" r="50"/><circle class="cls-1" cx="50" cy="50" r="50"/><path d="M55.46,60.85q0,2.48.24,7.41c.16,3.29.24,5.77.24,7.42a3.43,3.43,0,0,1-1.85,3,9.12,9.12,0,0,1-4.87,1.16,9.15,9.15,0,0,1-4.84-1.16,3.4,3.4,0,0,1-1.88-3c0-1.65-.08-4.13-.24-7.42S42,62.5,42,60.85a84.38,84.38,0,0,1,.68-9.69,84.7,84.7,0,0,0,.69-9.69,3.44,3.44,0,0,1,1.88-3,9.15,9.15,0,0,1,4.84-1.16A9.15,9.15,0,0,1,55,38.46a3.44,3.44,0,0,1,1.88,3,86.72,86.72,0,0,1-.68,9.69A84.7,84.7,0,0,0,55.46,60.85ZM52.38,27.31a11.05,11.05,0,0,1-5.7-1.41c-1.6-.94-2.4-2.06-2.4-3.39s.8-2.45,2.4-3.38a11.05,11.05,0,0,1,5.7-1.41A10.82,10.82,0,0,1,58,19.13c1.58.93,2.37,2.06,2.37,3.38S59.61,25,58,25.9A10.82,10.82,0,0,1,52.38,27.31Z"/></svg>
