<svg id="Layer_1" data-name="Layer 1" xmlns="http://www.w3.org/2000/svg" viewBox="0 0 363.87 621.64"><defs><style>.cls-1{fill:#575656;}.cls-2{fill:#a4a4a4;}.cls-3{fill:#edebe2;}.cls-4{fill:#335fa3;}.cls-5{fill:#ead5c7;}.cls-6{fill:#d8d5c3;}.cls-7{fill:#214a7d;}.cls-8{fill:#dadada;}.cls-9{fill:#e9d439;}.cls-10{fill:#d7d4c3;}.cls-11{fill:#345fa3;}.cls-12{fill:#345fa2;}.cls-13{fill:#e9d43a;}.cls-14{fill:#dbc0b1;}.cls-15{fill:#224a7d;}.cls-16{fill:#bbb59e;}.cls-17{fill:#dac0b1;}.cls-18{fill:#365fa1;}.cls-19{fill:#3660a1;}.cls-20{fill:#e5d13c;}.cls-21{fill:#3660a0;}.cls-22{fill:#e4d03d;}.cls-23{fill:#e3cf3d;}.cls-24{fill:#e6d1c3;}.cls-25{fill:#d3baad;}.cls-26{fill:#d6bcae;}.cls-27{fill:#d0bbaf;}.cls-28{fill:#d5bdaf;}.cls-29{fill:#2a4e7c;}.cls-30{fill:#3f6199;}.cls-31{fill:#d5bcaf;}.cls-32{fill:#c5b0a5;}.cls-33{fill:#605f5f;}.cls-34{fill:#5c5c5c;}.cls-35{fill:#616060;}.cls-36{fill:#626161;}.cls-37{fill:#595959;}.cls-38{fill:#5b5b5a;}.cls-39{fill:#59595a;}.cls-40{fill:#5d5c5c;}.cls-41{fill:#5e5d5d;}.cls-42{fill:#585757;}.cls-43{fill:#dbc0b2;}.cls-44{fill:#595858;}.cls-45{fill:#5a5959;}.cls-46{fill:#5b5a59;}.cls-47{fill:#5f5d5c;}.cls-48{fill:#5e5c5c;}.cls-49{fill:#d8bfb0;}.cls-50{fill:#d9c0b1;}.cls-51{fill:#d7beb0;}.cls-52{fill:#605e5d;}.cls-53{fill:#636160;}.cls-54{fill:#d9bfb1;}.cls-55{fill:#d4bcae;}.cls-56{fill:#625f5f;}.cls-57{fill:#666362;}.cls-58{fill:#ead539;}.cls-59{fill:#d6d6d6;}.cls-60{fill:#224b7d;}.cls-61{fill:#546481;}.cls-62{fill:#e6d13b;}.cls-63{fill:#e6d23b;}.cls-64{fill:#e7d23b;}.cls-65{fill:#d9d9d9;}.cls-66{fill:#d781a3;}.cls-67{fill:#eee;}.cls-68{fill:#ececec;}.cls-69{fill:#f5f5f5;}.cls-70{fill:#e2e2e2;}.cls-71{fill:#bcbbbb;}.cls-72{fill:#c5c5c5;}.cls-73{fill:#d7d7d6;}.cls-74{fill:#d4d4d4;}.cls-75{fill:#e4d13d;}.cls-76{fill:#788988;}</style></defs><path class="cls-1" d="M362.1,144.21c-.94-1-1.89-2-2.83-3.06a4.44,4.44,0,0,1-.65-.92v.18c-4.26-8.83-8.89-17.28-13.21-25.88-2.54-5-3.36-5.35-8.62-3.47-.5.17-1,.46-1.46.62-1.08.37-2.24,1.54-3.26.09-.79-1.12-1.59-2.31-.63-3.85,4-6.33,3-13.28,1.79-20-1.73-9.67-3.83-19.25-4-29.15A21.74,21.74,0,0,0,326,48.3a8.3,8.3,0,0,0-3.71-3.63c-2.68-1.17-4.94-.19-5.65,2.69-1.17,4.77-2.09,9.59-3.11,14.39-.14.66,0,1.4-.93,2-2.2-1-3-3-3.79-5.18-1.78-5-2.43-10.24-3.82-15.31-.7-2.55-1.21-5.16-2.73-7.38-2-3-5.63-4.64-8.08-3.83-2.91,1-4.67,4.18-3.85,8.32,1.19,6,2.79,12,4.29,17.92.39,1.53,1.08,3,.45,4.61a2.86,2.86,0,0,1-1.74,1.86c-1.08.33-1.57-.52-2.05-1.23-2-2.92-3.14-6.26-4.36-9.56-2-5.27-3.31-10.77-6.06-15.73a31.21,31.21,0,0,0-3.36-5.34c-3.67-4.29-9.29-3.1-11.11,2.25a11.41,11.41,0,0,0,0,6.24c1.39,6.48,3.69,12.72,4.83,19.56-2.18-2.27-4.35-4.54-6.54-6.8a12.38,12.38,0,0,0-8.46-3.81c-4.17-.24-5.91,1.8-5.08,5.85a17.05,17.05,0,0,0,1.31,3.43,73,73,0,0,0,6.77,11.3,65.34,65.34,0,0,1,8.3,17c1.05,3.3,2.32,6.54,3.53,9.92a13.33,13.33,0,0,1-7.53-.15c-3.11-.75-6.26-1.05-9.25.59-2.18,1.19-3.63,2.88-3.2,5.51.4,2.46,2.49,2.7,4.42,2.92,5.53.62,9.42,4,12.42,8.16,3.44,4.81,8.07,6.47,13.6,6.62a9.37,9.37,0,0,1,1.06,0c3.06.4,6.42-1.14,9.18,1.12A41.68,41.68,0,0,1,301.53,135a3.19,3.19,0,0,1-.35,3.49c-.59.87-1.16,1.76-1.68,2.68-2.33,4.14-2.94,7.75-.28,12.58,12.18,22.07,21.48,45.42,29,69.49a15.39,15.39,0,0,0,.44,1.51c.9,2.09.54,3.25-2,3.56-4.18.52-8.3,1.43-12.47,2-6.45.81-12.9,1.56-19.12,3.53-1.25.39-2.51.74-3.51-.11-4.14-3.53-9.05-2.68-13.62-2-10.92,1.63-21.76,3.78-32.63,5.7-1.34.24-2.71.75-4.34-.29,2-4,4-8.12,5.91-12,1-.9,1.83-.19,2.62,0a9.83,9.83,0,0,0,11.29-4.49,38.3,38.3,0,0,0,5.1-13.21,56.29,56.29,0,0,1,7.25-18.55c2-3.31,3.7-6.8,3.48-10.88-.05-.95-.18-2.59,1.37-2.17,2.9.77,2.83-.94,2.86-2.83a21.59,21.59,0,0,0-.91-7.33c2-1.31,3.8-.51,5.64-.05a2.74,2.74,0,0,0,2.94-.62c1-1.2.23-2.36-.38-3.39a17.77,17.77,0,0,0-5.63-5.45c-2.43-1.64-5.22-2.83-7.72-5.67,2.68-.16,4.84-.26,7-.41,1.25-.09,2.53-.3,2.91-1.76.32-1.24-.64-2-1.44-2.6a35.38,35.38,0,0,0-14.6-7c-5.87-1.33-11.83-2-17.52.87-1.67.83-2.57,0-3.63-1a88.85,88.85,0,0,0-30.84-18.87c-15.39-5.69-31.19-7.89-47.61-5.65a92,92,0,0,0-30,9.26,50.86,50.86,0,0,0-16.21,12.45A7.86,7.86,0,0,1,118,138.5c-6.89,1.32-13.76,2.74-20.63,4.12-3.28.65-6.56,1.3-9.51,3s-2.85,2,0,4.23c.37.3.69.65,1.28,1.21-3.89,2-7.78,3.68-9.92,7.63a21.1,21.1,0,0,0-1.68,3.84c-.26.8,0,1.74.63,1.76,3.92.16,2.11,2.16,1.37,3.9a21.11,21.11,0,0,0-1,3c-.65,2.56,0,3.5,2.48,2.88a30.28,30.28,0,0,1,8.37-.72c2,.05,3.23.48,3.5,2.88.61,5.48,2.77,10.5,5.29,15.36a93.25,93.25,0,0,1,7.3,18c1.7,6.15,3.32,7.24,10,7.72,1.14.08,1.56.48,1.77,1.4,1.84,8,7.26,12.94,13.84,17.16a21.35,21.35,0,0,1,7.83,8.68c-2.08,1-3.64-.27-5.2-.54a90,90,0,0,0-17.34-1.09,127.29,127.29,0,0,1-24.11-1.85c-1.72-.3-3.69-.72-5.24-.2-3.94,1.35-7.15-.33-10.44-1.86a82.3,82.3,0,0,0-34.08-8,106,106,0,0,1-17.82-1.29,5.59,5.59,0,0,1-5-4.49c-2.27-7.7-5.47-15.11-10.7-21.17l0,0a3.34,3.34,0,0,1-.9-.76A25.17,25.17,0,0,0,5.63,202l-.14-.09a6.43,6.43,0,0,0-3.91.67c.44,13.92.66,27.86.15,41.78C1.2,258.69-.34,273,.07,287.33c.46.63.9,1.29,1.3,2Q4,290,6.61,290.73a13.11,13.11,0,0,1,3.91,1.06c5.32,1.89,10.56,3.94,15.76,6.11a60,60,0,0,1,7.3,2.85c2.76,1.33,5.49,2.71,8.22,4.11q6.9,3.33,13.64,7c1.73.88,3.45,1.75,5.19,2.6,4.47,2.17,8.92,4.48,13.29,7a69.71,69.71,0,0,1,9.44,5.74l.41.3a126.93,126.93,0,0,1,16.78,13.15,36.35,36.35,0,0,1,7.18,8.8,11.59,11.59,0,0,1,2.45,7.27.51.51,0,0,1,0,.13c.79,5.87-.91,11.34-3.16,16.63A172.47,172.47,0,0,1,98.14,398C93.24,410.26,87.57,422.2,82,434.16c-2.78,5.94-5.53,11.89-8.12,17.91-1.66,4.16-3.27,8.34-4.79,12.56A29.54,29.54,0,0,0,67.68,469a3.79,3.79,0,0,0,1.39,2.51,21.83,21.83,0,0,0,2.09,1.56c.44.22.91.44,1.45.69,1.91.89,3.83,1.8,5.79,2.56.69.18,1.38.33,2.06.44,2.89.44,3.43,3.11,2.44,5.2,0,.12-.05.24-.07.37-.22,1.21-.51,2.4-.77,3.6q-.8,4.56-1.61,9.13c-.21,1.65-.45,3.29-.82,4.92-.08.34-.16.68-.23,1-1.59,8.93-3.17,17.87-4.68,26.81-1.8,10.7-3.54,21.41-5,32.15-1.07,7.8-1.61,15.68-2.43,23.52-1.06,10.11-2.26,20.22-2.11,30.41a3.47,3.47,0,0,1-.45,2c0,.23-.07.46-.11.69l4.64,3c26.6.65,53.2,1.78,79.8,2.07,1-.7,1.92-1.46,2.84-2.24.09-.86.17-1.71.24-2.57-.4-.72-.37-2-.25-4.22s.32-4.55.57-6.82c.12-2.59.33-5.16.68-7.69.78-5.6,2.4-11.16,3.43-16.73a3.8,3.8,0,0,1,.55-1.42q1.13-4.79,2.42-9.53c0-.37.07-.72.11-1.07a2.74,2.74,0,0,1,.38-1,3.71,3.71,0,0,1,.11-1.1,16.66,16.66,0,0,1,1.13-2.89c.65-2.17,1.33-4.32,2-6.47a64.21,64.21,0,0,1,3.34-12.08,5.29,5.29,0,0,1,1.47-2,11.37,11.37,0,0,1,2-4.13c1.31-3.06,1.59-3.07,5.36-2.62.86.11,1.68.54,2.57.24,4.6-1.54,7.13.81,10.18,4.13,11.59,12.6,18.08,27.89,24.28,43.35,4.45,10.34,8.65,20.75,13.33,31l.59,1.2s0,0,0,0a4.12,4.12,0,0,1,.25.47l1,2.27c2,.43,3.94,1,5.88,1.54q11.42-.32,22.83-.74c11.09-.42,22.29-1.26,33.39-.93,7.18.22,15,1.2,20.93-2.9a14.24,14.24,0,0,1-1.24-5,73.5,73.5,0,0,0-3-16.15c-1-3.23-1.7-6.53-2.69-9.75-1.06-3.46-3-6.1-4.73-9.19-.34-.5-.73-1.11-1.15-1.82a10.31,10.31,0,0,1-.87-2.06c-.18-.56-.35-1.13-.53-1.69-.86-2.31-1.55-4.65-2.2-7q-2.05-6.59-4.12-13.17c-1.8-4.9-3.74-9.75-5.21-14.8-2.06-7.09-4.52-14-6.83-21s-3.82-14.07-6.1-21-4.84-13.63-6.34-20.74c0-.06,0-.12,0-.17l-.21-.62c-.74-2,.17-2.8,1.83-3.35a4.5,4.5,0,0,1,1.82-.76,4,4,0,0,1,1.33-.67c3.15-.93,6.82-1.71,9.45-3.8A5.81,5.81,0,0,0,282,460.8a11.11,11.11,0,0,0,.27-2.62,25.68,25.68,0,0,0-1.27-5.94,33.74,33.74,0,0,0-6.38-11.93,33.13,33.13,0,0,1-5.16-8.24,66.22,66.22,0,0,1-5.91-8.76,4.38,4.38,0,0,1-.42-.95,3,3,0,0,1-.88-1,65.84,65.84,0,0,1-6.44-19.92c-.1-.48-.2-.95-.29-1.43a124.35,124.35,0,0,1-2.4-24.6c0-.59,0-1.17,0-1.75,0-1.09-.06-2.17-.08-3.25a3.82,3.82,0,0,1-.1-2.36c.66-2.62,1-5.27,1.86-7.82.28-1.16.59-2.32.93-3.47,0-.06,0-.12,0-.18a37.25,37.25,0,0,1,5.11-11.71l2.54-4.89a34.79,34.79,0,0,1,9-15.45c.48-.68,1-1.34,1.49-2a.08.08,0,0,1,0,0c4.11-9,14-15.26,23.42-19.91l1.17-.72,2.38-1.39a11.72,11.72,0,0,1,5.19-2.91l.47-.24a3.19,3.19,0,0,1,1.28-1.16,49.89,49.89,0,0,1,7.53-3.18c1.26-.57,2.52-1.13,3.79-1.66a42.76,42.76,0,0,1,7.28-2.93c4.4-1.3,8.8-3.35,13.28-4.26A34.66,34.66,0,0,1,350,284c1,0,1.94,0,2.92,0a10.52,10.52,0,0,1,2.83.29,11.73,11.73,0,0,0,5.67-5.95c.12-13.67.25-27.3-.18-41-.5-15.65,0-31.1.55-46.74.3-7.91.28-15.83,1-23.72.52-5.86,1.16-11.71,1.16-17.58C363.35,147.63,362.77,145.91,362.1,144.21ZM298.47,125a10.58,10.58,0,0,1-3.57-4.17l5.45-1.55c1.65-.45,1.57-1.62,1.23-2.9-7,1.49-14.09,2.57-21.34,2.14-3.68-.22-7-1.18-9.21-4.25-4.25-6-9.69-10-17.5-10.71,1.42-3.45,4.14-4.17,6.61-3.59,6.5,1.54,12.75.69,19.2-.4,4.59-.78,9.43-.07,14.16-.2,3.21-.09,5.21,2.74,8.18,3.1.74-3.73-2.13-4.48-4.6-5.06a53.09,53.09,0,0,0-18.68-.83c-3.93.5-3.92.63-5.9-3.59-3.36-11.43-9.28-21.55-15.8-31.4a23.1,23.1,0,0,1-2.53-5.77c-.62-2,.35-3,2.42-2.75a12.2,12.2,0,0,1,5.63,2.73c4.42,3.31,7.44,7.93,11.19,11.87,3.5,3.67,6.9,7.56,12.36,8.37.69-2.46-1.4-2.84-2.8-3.75-3-1.91-6.1-3.68-6.29-7.82-3.3-7.22-5.22-14.91-7.35-22.51a11.62,11.62,0,0,1-.11-5.77c.71-3,3.16-3.76,5.64-2A10.3,10.3,0,0,1,277.6,38c2.68,5,4.35,10.37,6.27,15.66a86.15,86.15,0,0,0,4.76,11.14c1.19,2.25,2.91,3.59,5.57,2.85s3.46-2.74,3.47-5.25a19.64,19.64,0,0,0-.56-5.23c-1.11-4.24-2.1-8.53-3.19-12.78a21.37,21.37,0,0,1-.72-6.26c.05-1.29.41-2.51,1.74-3a3.58,3.58,0,0,1,3.9.83c1.73,1.65,2.41,3.84,3,6.07,1.47,5.6,2.25,11.37,4.2,16.86A15.59,15.59,0,0,0,310.39,66c3.13,2.64,4.59,2.15,5.52-1.89,1-4.45,2-8.92,2.92-13.38.26-1.19.28-2.47,1.46-3.48,2.5.52,3.38,2.71,4.37,4.69a19.9,19.9,0,0,1,2,8.69c.06,10.64,2.76,20.88,4.33,31.29a25.22,25.22,0,0,1-.5,11.49c-1.72,5.48-5.19,7.58-10.85,6.18-1.63-.41-2.73-.79-2.95,1.35,4.49,2.89,5.72,2.95,11.77.6,1.8,1.9,1.76,3.37-.6,5-4.94,3.33-9.76,6.85-14.56,10.39-2.95,2.18-5.77,4.55-8.69,6.85-1.43-.87-2-2.34-2.54-3.81C300.86,128.28,299.66,126.63,298.47,125Zm4.06,26.31c-.09.1-.3.09-.64.18-2.1-2-2.4-4.2-1-7,3.35-6.63,8.59-11.45,14.45-15.7,5.52-4,11.14-7.89,16.71-11.83.29-.2.56-.42.86-.61,7.17-4.72,10.91-3.17,12.82,5.26.33,1.46-.47,1.72-1.6,2.06-3,.89-6,1.82-9,2.91-12.84,4.73-23,13.13-31.61,23.52C303.21,150.49,302.89,150.9,302.53,151.28Zm4.56,10c-4.2-5.78-4.17-5.78.18-11.05,9.92-12,22.51-19.77,37.5-23.86,2.35-.65,3.53-.23,4.54,1.93,1.43,3.07,1.5,3.41-1.47,4.77A132,132,0,0,0,309.21,160C308.62,160.56,308.11,161.37,307.09,161.3Zm2.57,6.49c-1.12-1.69-.92-3,.57-4.59a117.89,117.89,0,0,1,26.24-20.85c4.94-2.89,9.72-6.26,15.51-7.43,5.32,8.35,5.25,8.17-3.79,11.54-10.74,4-20.72,9.39-29.11,17.41-2.37,2.26-5.27,4-6.91,6.78C310.43,170.19,310.31,168.78,309.66,167.79Zm8.23.94a85.25,85.25,0,0,1,36.41-21.26c3.06-.88,4.19,0,4.52,3,.22,2-.86,2.86-2.53,3.37a58.47,58.47,0,0,0-8.8,3.42c-9.1,4.46-16.71,10.88-23.86,17.91-2.23,2.19-4.43,4.41-7.06,7C312.28,173.88,311.2,175.25,317.89,168.73Zm-32.55,65c2.15.23,3.64,1.45,3.71,3.7.14,4.54.11,9.09.12,13.63a3.15,3.15,0,0,1-1.29,2.74c-1.22.85-2.51,1-2.69-.82-.63-6.29-2.82-12.15-4.95-18C281.84,233.57,283.62,233.59,285.34,233.77Zm-10.85,1c1.52-.34,2.46.09,3.22,1.74,2.44,5.28,3.61,10.89,4.79,16.51.3,1.45-.05,2.38-1.64,2.64-1.19.19-2.37.46-3.82.74L270.6,236C272.19,235.5,273.32,235,274.49,234.76Zm-5.61,5.51a107.84,107.84,0,0,1,4.39,13.94c.33,1.33.6,2.82-1.33,3.4s-2.86-.4-3.47-2.11c-2.11-5.88-4.28-11.74-6.58-18C267.25,236.23,267.27,236.22,268.88,240.27ZM257,237.87a2.64,2.64,0,0,1,2.45,1.72,170,170,0,0,1,6.24,16.79c.6,1.81-.69,2.5-2.07,3.07s-2.45.4-3.07-1c-.5-1.12-.89-2.29-1.31-3.44-1.62-4.46-3.28-8.9-4.83-13.38C253.62,239.31,254.78,237.76,257,237.87Zm-4.69,6.1c1.95,5.42,3.87,10.85,5.82,16.34-2,.86-3.85,1.7-4.8-.57-2.66-6.41-5.53-12.74-8.62-19.07C250.56,239.13,250.58,239.13,252.31,244Zm-9.86-1.23c2.24,4.34,4.2,8.83,6.23,13.28.72,1.58,1.31,3.22,2,4.84a1.66,1.66,0,0,1-1,1.75,1.71,1.71,0,0,1-2.37-.25,27.74,27.74,0,0,1-2-3.66c-2.18-4.39-4.37-8.74-8-12.23-1.72-1.67-1.5-3.09.37-4.69A2.9,2.9,0,0,1,242.45,242.74Zm-10.83,46.58c1.12,1.77,2.53,3.36,3.76,5.07,2.87,3.95,2.74,7.26-.61,10.92-4,4.36-9.41,6.69-14.42,9.57-13.25,7.64-24.9,17.08-33.44,29.92-2.59,3.9-4.57,8.2-7.3,13.19-1.29-8.34,2.37-14.42,4.94-20.67,6-14.48,13.29-28.33,20.67-42.12,2.84-5.32,5-10.89,7.64-16.28s4.41-11.07,6.57-16.63c.06-.16,0-.39.09-.51a104.29,104.29,0,0,1,13.39-13.19c1.13-.94,2.58-.22,3.64,1.08,4.28,5.27,6.94,11.36,9.13,17.69.68,2-.31,3.42-1.87,4.5-2.31,1.6-4.61,3.23-7,4.68a18.88,18.88,0,0,0-4.43,3.71C229.58,283.42,229.36,285.77,231.62,289.32Zm-46.2,7.34a108.94,108.94,0,0,0,17.38-3.33c-4.13,8.24-7.56,15.62-11.77,22.61-3.89,9.3-8.59,18.24-12.86,27.62l-5.25-31.88C171.44,306.33,170,301,168.33,295,174.47,295.77,179.88,297.34,185.42,296.66ZM166,287.78c-1-3.7-2.35-7.31-3.55-11-1.63-2.15-2-4.79-3.46-8.17C179,279.29,197.18,275,215.17,264a11.19,11.19,0,0,1-2.06,6.5c-1.89,5.84-4.66,11.3-7.27,16.83-.61,1.3-1.31,2.52-2.79,3-10.5,3.14-21.09,5.14-32,2.18C168.51,291.73,166.7,290.54,166,287.78Zm90.57-147.11c6.84-1,16.81.85,23,6.25-2.45,1.48-4.77.31-7,.19s-3,.93-2,2.9c1.58,3.14,4.5,4.81,7.35,6.57,2.44,1.51,5.15,2.74,7,5.43-2.06.69-3.48-.39-5-.45-1.33-.06-2.67-1.6-3.93-.31s.24,2.56.61,3.81a34.39,34.39,0,0,1,1.08,3.5c.2,1.08,1.12,2.5-.58,3.18-1.29.51-1.88-.65-2.45-1.48a7.93,7.93,0,0,0-6.64-3.63,10.4,10.4,0,0,0-7.15,2.84c-1.85,1.55-3.29,3.61-5.53,4.7-1.59-.83-.91-2.21-1-3.3-.64-5.24-1.5-10.41-4-15.16a22.46,22.46,0,0,1-1.07-2.4C246.31,146.07,248.75,141.78,256.52,140.67ZM88.28,170.52c-1.77-.49-3.79-.08-6.29-.08.42-2.8,1.82-4.62,2.94-6.57,1.61-2.79,1.59-2.8-1.69-3.29a6.91,6.91,0,0,1-1-.19c-.12,0-.19-.22-.39-.45,1.33-2.65,3.73-4,6.37-5.07,1-.4,2-.58,3-1,2.67-1.27,2.89-2.4.94-4.72-.44-.52-1.18-.79-.92-2,9-3,18.6-3.61,28.54-5.94a195.38,195.38,0,0,1-7.26,29.71c-2.11-1.36-2.53-3.61-3.83-5.22-4.77-5.89-11.66-5.36-14.68,1.51C92.7,170.08,91.6,171.46,88.28,170.52ZM131,232.35c-7.84-4.61-11.22-11.68-12-20.45-.48-5.41-1.38-10.78-2.09-16.17a3.91,3.91,0,0,0-2.91.1,1.09,1.09,0,0,1-.12.71,50.46,50.46,0,0,1,2.12,14c.14,4.36-.82,4.85-5.33,2.94a5.55,5.55,0,0,1-2.43-3.84c-1.41-6.83-4.49-13-7.19-19.37a33.55,33.55,0,0,1-5.5-15.17,11.4,11.4,0,0,1,1.63-7.58c2.11-3.21,5.14-3.66,8.07-1.12,2.77,2.41,4,5.72,5,9.13.27.93.11,2.39,1.47,2.49,1.56.11,1.81-1.37,2.25-2.5,3.88-10,6.13-20.53,8.23-31a18.12,18.12,0,0,1,5.11-9.56c8.48-8.54,19-13.35,30.44-16,29.77-6.92,57.24-1.76,82,16.58,1.41,1,2.67,2.3,4.07,3.36,2.32,1.76,3.5,3.53,1.76,6.57-1.52,2.66-.39,5.57.74,8.14,3.18,7.16,5.33,14.49,5.06,22.43-.1,2.78,1.14,3.38,3.66,2.08,2.68-1.39,4.73-3.62,6.94-5.64,3.62-3.29,5.8-3.84,8.39-2.24s4.28,5.76,3.48,9.31a23.62,23.62,0,0,1-1.92,5.44C270,188.51,268,192,266,195.53a72.2,72.2,0,0,1-3.1,10.69,29.53,29.53,0,0,1-3.59,11.36c-1,2-2.31,3.93-4.78,4.5-4.61,1.25-6.22.06-5.2-4,.85-3.35,1.93-6.64,2.91-10,0-.36.05-.72.07-1.08a4.16,4.16,0,0,1,.8-3.44c.08-1,.15-1.93.22-2.9-.35-4.18.72-8.39-.23-12.56-2.81.26-1.94,2.47-2,4a90.31,90.31,0,0,1-5.29,27.28c-7.09,19.31-19,34.71-37,45-11.72,6.7-24.25,9.16-37.55,6a36,36,0,0,1-21.9-15.4c-2.46-3.62-4.69-7.42-7-11.14A33.78,33.78,0,0,0,131,232.35Zm4.88,15.86c-2,1.82-3.75,3.82-6.73,5.5C129.46,245.06,130.84,245.05,135.85,248.21Zm-14.93,1.47c1-4,1-4,6-3-1.14,5.51,0,12.11-7.66,14.47C118.91,257.11,120,253.4,120.92,249.68ZM119,265.86c4.4-3.75,8.84-7.49,13.46-11,2.13-1.6,3.87-3.58,6-5.13,1.81-1.31,3.18-1.71,4.56.82a49.51,49.51,0,0,0,9.39,12.63c2.11,2,3,4.75,4.09,7.32a249.55,249.55,0,0,1,15.61,53.38c1.42,8.1,2.41,16.26,3.82,24.36.38,2.2.05,4.52.05,7.36-4.14-2.38-5.9-6-8.53-8.74A276.11,276.11,0,0,0,133,316c-6.55-4.9-7-11.35-2.78-16.33a20.21,20.21,0,0,0,4.21-7.26c1.22-4.27.92-8.32-2.39-11.77a40.42,40.42,0,0,0-7.65-6.41c-1.79-1.12-3.61-2.2-5.29-3.47C116.62,268.91,116.56,268,119,265.86Zm-7.36-17.67c.43-2.48,1.94-3.09,4.11-3,1.8.1,3,.54,2.49,2.86a136.17,136.17,0,0,0-2.42,15.46c-.3,2.42-2.62,3.59-3.87,5.44-.49.7-1.72.37-2.09-.61a8.08,8.08,0,0,1-.34-2.56C109.42,259.83,110.65,254,111.67,248.19Zm-10.26,7.52c.44-2.94,1-5.87,1.75-8.75.64-2.52,2.78-1.66,4.38-1.49,1.8.19,1.41,1.63,1,2.84-.71,5.73-1.44,11.46-2.13,17.2-.17,1.39,0,2.86-2.16,2.87-2.41,0-3.93-1-3.86-3.27A80.28,80.28,0,0,1,101.41,255.71Zm-9.77,7.78c.07-1.05,0-2.11,0-3-.23-5,1.3-9.52,2.25-14.13.34-1.62,1.41-2.34,3.14-1.74,1.46.52,3.29.66,3,2.91-.24,1.72-.8,3.41-.93,5.14-.27,3.65-1.5,7.19-1.21,10.93.13,1.61-.23,3.49-2.42,3.2C93.67,266.6,91.45,266.28,91.64,263.49Zm-5.9-18.05a2.15,2.15,0,0,1,2.53-2.09c2.09,0,3.12,1.14,2.62,3.19a78.28,78.28,0,0,0-2.19,16.12c0,1,.19,2.26-1.31,2.42a2.56,2.56,0,0,1-2.82-1.86,3,3,0,0,1-.21-1C84.16,256.56,85.16,251,85.74,245.44ZM77.59,473c-7.38-2.84-7.5-3-4.75-10.47,4-10.87,8.43-21.56,13.23-32.11,7.64-16.76,16.53-33,22.08-50.66,2.42-7.67,4.57-15.43,4.72-23.63a11.6,11.6,0,0,0-3-8.67c-3.74-3.91-7-8.2-11.23-11.77a202.53,202.53,0,0,0-23.78-17.32c-11.39-7.07-23.58-12.51-35.72-18-7.82-3.56-15.85-6.65-23.8-9.92a48.79,48.79,0,0,0-5-1.8c-5.24-1.53-5.27-1.5-5.28-7.11Q5,247.77,4.91,214c0-2.44.33-4.92-.56-7.32-.28-.76-.54-1.79.59-2.22.8-.3,1.34.33,1.69.91,2.46,4,5.79,7.56,6.88,12.34,1.73,3.14,3.41,6.29,3.35,10.2-2.22.34-4.23,1.44-6.52,1.35-.79.4-1.7.89-1.46,1.9A1.61,1.61,0,0,0,11,232.27c6-1.86,11.68.57,17.52,1,3.48.28,7,.3,10.49.24,14.12-.25,27.28,3.44,39.87,9.5a5.3,5.3,0,0,1,1.14,1c1.52.17,2.87.51,2.46,2.53-.83,4.13-.11,8.34-1.1,12.54-1.41,6,.43,8.15,6.59,9.29,9.61,1.76,19.34,3.08,28.82,5.38a21.78,21.78,0,0,1,14.34,10.65c1.63,3,1.2,6.52-.61,9.59-1.06,1.81-2.39,3.46-3.53,5.23-4.51,7-3.62,12.73,3.47,18.41,10.68,8.55,21.19,17.27,30.72,27.1,4.4,4.53,8.63,9.22,12.81,13.94a13.84,13.84,0,0,1,3.39,8.53c1.65,20.81,2.14,41.65,2.08,62.52,0,3.48,1,6.89,1,10.43a20.2,20.2,0,0,1-3.17,11.91,182.07,182.07,0,0,1-20.79,40.09c-2,2.86-4.19,4.37-8.35,3.39A410.3,410.3,0,0,1,101.72,482C93.66,479.05,85.6,476.1,77.59,473Zm198.87,44.17c6,18.76,12.09,37.49,17.94,56.29a23.59,23.59,0,0,0,2.12,5.93,21.7,21.7,0,0,0,2.21,3.29,20,20,0,0,0,1,6.52c.68,2.3,1.37,4.6,2.05,6.9l2.49,7.55c.31,1,.61,2,.9,3.09a95.76,95.76,0,0,1,2.11,9.82c-4.68-.29-9.76-.41-15.19-.24-4.15.12-8.07.4-11.76.77H265.15a5.9,5.9,0,0,1-3.56.68c-9,0-17.93-.11-26.89.06-3.27.06-5.08-1.22-6.54-4.08-6.2-12.06-10.76-24.8-16-37.27-5.79-13.85-12.37-27.19-22.85-38.21-.22-.23-.25-.63-.55-1.47,4.49-1.66,9.46-2.07,13.65-4.55-.08-2.08-1.4-2.33-2.9-1.7-12,5-24.43,4-36.88,2.95a48.69,48.69,0,0,1-5.14-1c-1.5-.29-2.37.28-2.4,1.89,3.83,2,8.14,1.85,12.12,2.54a2.89,2.89,0,0,1-.14,2.7,242.82,242.82,0,0,0-17.63,69.2,7.65,7.65,0,0,1-.73,1.92c-.16,8.12.76,7-7.05,7q-30.84,0-61.67-.13c-3.33,0-6.66-.26-10-.36-1.77,0-2.43-.77-2.32-2.62.91-16.3,2.21-32.57,4.27-48.77,3.24-25.42,7.62-50.65,12.24-75.84a12,12,0,0,1,1.11-4,2.29,2.29,0,0,1,0-.52c.56-6.29.55-6.27,6.48-4.07,19.29,7.16,38.77,13.67,59.08,17.44,3,.55,4.31,0,6.26-2.58,8.88-12,15.26-25.26,21.31-38.76.34-.76.77-1.49,1.78-3.41.36,6.2.77,11.14.91,16.08.23,7.57.22,15.13.41,22.7.09,3.87.68,4.33,3.91,2.69,20.09-10.2,41.87-15.27,63.39-21.15,3.22-.88,6.44-1.77,9.67-2.63,3.52-.94,3.55-.93,4.72,2.67a28.16,28.16,0,0,1,.65,3.06Q270.15,497.36,276.46,517.19Zm81.36-316c.23,19.88-.15,39.77,0,59.66,0,5.83-1.27,11.51-1,17.32.14,3.36-2.45,2.88-4.46,2.79-10.21-.46-19.87,2.18-29.3,5.54A129.45,129.45,0,0,0,298.15,299c-5.36,3.35-10.91,6.44-15.72,10.57A76.63,76.63,0,0,0,264,332.47c-3.09,5.93-6,11.94-9,17.92-5.27,10.64-5.71,21.88-4.36,33.42.88,7.48,1.89,14.91,3.45,22.29a65.81,65.81,0,0,0,12.32,27.06c3.86,5,7.7,10,10.57,15.7a30.54,30.54,0,0,1,2.49,8c.7,3.52-.82,5.65-4.26,6.76-17.2,5.58-34.72,10-52.11,14.87a252.72,252.72,0,0,0-33.26,11.69,2.18,2.18,0,0,1-2.12,1.05h0c-1.06.84-2.09,3.14-3.17,0-1.46-17-.32-34.1-1.29-51.09-.69-12,.18-24-1.05-35.79-1-9.8.24-19.67-1.67-29.39-.47-2.37-.05-4.91,0-7.37a1.9,1.9,0,0,1,.89-2.07c1.27-8.79,5.76-16.05,10.9-23C200.82,331,212.2,323,224.48,316c4.11-2.33,8.42-4.31,11.74-7.86,5.37-5.73,5.65-10.09.87-16.3-.21-.27-.49-.5-.7-.78-4.53-5.88-4.18-8.39,2.15-12.07,3.2-1.86,5.92-4.38,9.13-6.18,1.85-1,2.41-2.17,1.63-4.26s.33-3,2.55-3.42c10.94-2.3,21.84-4.83,32.74-7.29,1.36-.3,2.71-.69,4.05-1.08a4.73,4.73,0,0,0,3.7-5.07c0-3.69,0-7.38,0-11.07,0-2.24.71-3.77,3.22-3.87,4.49-2.19,9.45-2.36,14.24-3.15,7.91-1.3,15.88-2.21,23.83-3.28,1.06-.14,2.26-.26,2.36-1.55.08-1-.9-1.41-1.81-1.54-1.63-.25-2.34-1.31-2.73-2.79-3-11.35-7.41-22.22-11.46-33.21a9.4,9.4,0,0,1-.25-2.08c-1.94-1.9-2.25-3.57-.06-5.75,8.1-8,16-16.25,26.11-21.86a49.94,49.94,0,0,1,9.12-4c3.82-1.22,3.84-1.18,3.95,3.16a7.46,7.46,0,0,1-.1,1C359.63,174.92,357.66,188,357.82,201.22Z"/><path class="cls-1" d="M83.77,327.48l-.41-.31a68.64,68.64,0,0,0-9.44-5.73C77.26,323.34,80.56,325.35,83.77,327.48Z"/><path class="cls-1" d="M110.18,356.69a11.59,11.59,0,0,0-2.45-7.27A21,21,0,0,1,110.18,356.69Z"/><path class="cls-1" d="M72.61,473.76l-1.45-.68a24.52,24.52,0,0,0,7.24,3.24C76.44,475.56,74.52,474.65,72.61,473.76Z"/><path class="cls-1" d="M73.86,452.07q-2.4,5.54-4.57,11.15c-.77,2-1.81,4-1.61,5.78a29.54,29.54,0,0,1,1.39-4.37C70.59,460.41,72.2,456.23,73.86,452.07Z"/><path class="cls-1" d="M105.19,377.58a4,4,0,0,1-.18,1.15c-2,6.54-4.33,13-6.87,19.29a172.47,172.47,0,0,0,8.9-24.57C106.45,374.84,105.82,376.21,105.19,377.58Z"/><path class="cls-1" d="M75.85,518.65C74,531.11,71.87,543.54,70,556c-2.79,18.7-4.7,37.66-6,56.59a4,4,0,0,1,.7,3.22.25.25,0,0,1,0,.08,3.47,3.47,0,0,0,.45-2c-.15-10.19,1-20.3,2.11-30.41.82-7.84,1.36-15.72,2.43-23.52,1.46-10.74,3.2-21.45,5-32.15,1.51-8.94,3.09-17.88,4.68-26.81C78.05,506.85,76.74,512.7,75.85,518.65Z"/><path class="cls-1" d="M82.28,483.31c-1.1,3.82-1.34,7.8-1.83,11.75q.81-4.56,1.61-9.13c.26-1.2.55-2.39.77-3.6,0-.12,0-.24.07-.36a5,5,0,0,1-.53.85A4.63,4.63,0,0,1,82.28,483.31Z"/><path class="cls-1" d="M41.8,304.86c4.55,2.33,9.08,4.7,13.64,7Q48.69,308.2,41.8,304.86Z"/><path class="cls-1" d="M8,291.19a4,4,0,0,1,1.93.54c5.09,2.91,10.77,4.35,16.31,6.17-5.2-2.16-10.44-4.21-15.76-6.11a13.11,13.11,0,0,0-3.91-1.06c.31.09.63.17.94.27A4.14,4.14,0,0,1,8,291.19Z"/><path class="cls-1" d="M90.89,246.54a78.28,78.28,0,0,0-2.19,16.12c0,1,.19,2.26-1.31,2.42a2.56,2.56,0,0,1-2.82-1.86,3,3,0,0,1-.21-1c-.2-5.64.8-11.18,1.38-16.76a2.15,2.15,0,0,1,2.53-2.09C90.36,243.36,91.39,244.49,90.89,246.54Z"/><path class="cls-1" d="M100,247.57c-.24,1.72-.8,3.41-.93,5.14-.27,3.65-1.5,7.19-1.21,10.93.13,1.61-.23,3.49-2.42,3.2-1.79-.24-4-.56-3.82-3.35.07-1.05,0-2.11,0-3-.23-5,1.3-9.52,2.25-14.13.34-1.62,1.41-2.34,3.14-1.74C98.5,245.18,100.33,245.32,100,247.57Z"/><path class="cls-1" d="M108.59,248.31c-.71,5.73-1.44,11.46-2.13,17.2-.17,1.39,0,2.86-2.16,2.87-2.41,0-3.93-1-3.86-3.27a80.28,80.28,0,0,1,1-9.4c.44-2.94,1-5.87,1.75-8.75.64-2.52,2.78-1.66,4.38-1.49C109.34,245.66,109,247.1,108.59,248.31Z"/><path class="cls-1" d="M273.77,179.47a23.62,23.62,0,0,1-1.92,5.44C270,188.51,268,192,266,195.53a72.2,72.2,0,0,1-3.1,10.69,29.53,29.53,0,0,1-3.59,11.36c-1,2-2.31,3.93-4.78,4.5-4.61,1.25-6.22.06-5.2-4,.85-3.35,1.93-6.64,2.91-10,0-.36.05-.72.07-1.08a4.16,4.16,0,0,1,.8-3.44c.08-1,.15-1.93.22-2.9-.35-4.18.72-8.39-.23-12.56-2.81.26-1.94,2.47-2,4a90.31,90.31,0,0,1-5.29,27.28c-7.09,19.31-19,34.71-37,45-11.72,6.7-24.25,9.16-37.55,6a36,36,0,0,1-21.9-15.4c-2.46-3.62-4.69-7.42-7-11.14A33.78,33.78,0,0,0,131,232.35c-7.84-4.61-11.22-11.68-12-20.45-.48-5.41-1.38-10.78-2.09-16.17a3.91,3.91,0,0,0-2.91.1,1.09,1.09,0,0,1-.12.71,50.46,50.46,0,0,1,2.12,14c.14,4.36-.82,4.85-5.33,2.94a5.55,5.55,0,0,1-2.43-3.84c-1.41-6.83-4.49-13-7.19-19.37a33.55,33.55,0,0,1-5.5-15.17,11.4,11.4,0,0,1,1.63-7.58c2.11-3.21,5.14-3.66,8.07-1.12,2.77,2.41,4,5.72,5,9.13.27.93.11,2.39,1.47,2.49,1.56.11,1.81-1.37,2.25-2.5,3.88-10,6.13-20.53,8.23-31a18.12,18.12,0,0,1,5.11-9.56c8.48-8.54,19-13.35,30.44-16,29.77-6.92,57.24-1.76,82,16.58,1.41,1,2.67,2.3,4.07,3.36,2.32,1.76,3.5,3.53,1.76,6.57-1.52,2.66-.39,5.57.74,8.14,3.18,7.16,5.33,14.49,5.06,22.43-.1,2.78,1.14,3.38,3.66,2.08,2.68-1.39,4.73-3.62,6.94-5.64,3.62-3.29,5.8-3.84,8.39-2.24S274.57,175.92,273.77,179.47Z"/><path class="cls-1" d="M119.75,141.19a195.38,195.38,0,0,1-7.26,29.71c-2.11-1.36-2.53-3.61-3.83-5.22-4.77-5.89-11.66-5.36-14.68,1.51-1.28,2.89-2.38,4.27-5.7,3.33-1.77-.49-3.79-.08-6.29-.08.42-2.8,1.82-4.62,2.94-6.57,1.61-2.79,1.59-2.8-1.69-3.29a6.91,6.91,0,0,1-1-.19c-.12,0-.19-.22-.39-.45,1.33-2.65,3.73-4,6.37-5.07,1-.4,2-.58,3-1,2.67-1.27,2.89-2.4.94-4.72-.44-.52-1.18-.79-.92-2C100.19,144.12,109.81,143.52,119.75,141.19Z"/><path class="cls-1" d="M118.27,248.07a136.17,136.17,0,0,0-2.42,15.46c-.3,2.42-2.62,3.59-3.87,5.44-.49.7-1.72.37-2.09-.61a8.08,8.08,0,0,1-.34-2.56c-.13-6,1.1-11.77,2.12-17.61.43-2.48,1.94-3.09,4.11-3C117.58,245.31,118.82,245.75,118.27,248.07Z"/><path class="cls-1" d="M126.89,246.68c-1.14,5.51,0,12.11-7.66,14.47-.32-4,.81-7.75,1.69-11.47C121.88,245.66,122,245.68,126.89,246.68Z"/><path class="cls-1" d="M135.85,248.21c-2,1.82-3.75,3.82-6.73,5.5C129.46,245.06,130.84,245.05,135.85,248.21Z"/><path class="cls-1" d="M176,355.65c-4.14-2.38-5.9-6-8.53-8.74A276.11,276.11,0,0,0,133,316c-6.55-4.9-7-11.35-2.78-16.33a20.21,20.21,0,0,0,4.21-7.26c1.22-4.27.92-8.32-2.39-11.77a40.42,40.42,0,0,0-7.65-6.41c-1.79-1.12-3.61-2.2-5.29-3.47-2.47-1.88-2.53-2.82-.06-4.93,4.4-3.75,8.84-7.49,13.46-11,2.13-1.6,3.87-3.58,6-5.13,1.81-1.31,3.18-1.71,4.56.82a49.51,49.51,0,0,0,9.39,12.63c2.11,2,3,4.75,4.09,7.32a249.55,249.55,0,0,1,15.61,53.38c1.42,8.1,2.41,16.26,3.82,24.36C176.35,350.49,176,352.81,176,355.65Z"/><path class="cls-1" d="M180.43,440.22a20.2,20.2,0,0,1-3.17,11.91,182.07,182.07,0,0,1-20.79,40.09c-2,2.86-4.19,4.37-8.35,3.39A410.3,410.3,0,0,1,101.72,482c-8.06-2.95-16.12-5.9-24.13-9-7.38-2.84-7.5-3-4.75-10.47,4-10.87,8.43-21.56,13.23-32.11,7.64-16.76,16.53-33,22.08-50.66,2.42-7.67,4.57-15.43,4.72-23.63a11.6,11.6,0,0,0-3-8.67c-3.74-3.91-7-8.2-11.23-11.77a202.53,202.53,0,0,0-23.78-17.32c-11.39-7.07-23.58-12.51-35.72-18-7.82-3.56-15.85-6.65-23.8-9.92a48.79,48.79,0,0,0-5-1.8c-5.24-1.53-5.27-1.5-5.28-7.11Q5,247.77,4.91,214c0-2.44.33-4.92-.56-7.32-.28-.76-.54-1.79.59-2.22.8-.3,1.34.33,1.69.91,2.46,4,5.79,7.56,6.88,12.34,1.73,3.14,3.41,6.29,3.35,10.2-2.22.34-4.23,1.44-6.52,1.35-.79.4-1.7.89-1.46,1.9A1.61,1.61,0,0,0,11,232.27c6-1.86,11.68.57,17.52,1,3.48.28,7,.3,10.49.24,14.12-.25,27.28,3.44,39.87,9.5a5.3,5.3,0,0,1,1.14,1c1.52.17,2.87.51,2.46,2.53-.83,4.13-.11,8.34-1.1,12.54-1.41,6,.43,8.15,6.59,9.29,9.61,1.76,19.34,3.08,28.82,5.38a21.78,21.78,0,0,1,14.34,10.65c1.63,3,1.2,6.52-.61,9.59-1.06,1.81-2.39,3.46-3.53,5.23-4.51,7-3.62,12.73,3.47,18.41,10.68,8.55,21.19,17.27,30.72,27.1,4.4,4.53,8.63,9.22,12.81,13.94a13.84,13.84,0,0,1,3.39,8.53c1.65,20.81,2.14,41.65,2.08,62.52C179.41,433.27,180.4,436.68,180.43,440.22Z"/><path class="cls-1" d="M202.8,293.33c-4.13,8.24-7.56,15.62-11.77,22.61-3.89,9.3-8.59,18.24-12.86,27.62l-5.25-31.88C171.44,306.33,170,301,168.33,295c6.14.74,11.55,2.31,17.09,1.63A108.94,108.94,0,0,0,202.8,293.33Z"/><path class="cls-1" d="M215.17,264a11.19,11.19,0,0,1-2.06,6.5c-1.89,5.84-4.66,11.3-7.27,16.83-.61,1.3-1.31,2.52-2.79,3-10.5,3.14-21.09,5.14-32,2.18-2.52-.69-4.33-1.88-5.08-4.64-1-3.7-2.35-7.31-3.55-11-1.63-2.15-2-4.79-3.46-8.17C179,279.29,197.18,275,215.17,264Z"/><path class="cls-1" d="M152.46,605.79c-.25,2.27-.45,4.54-.57,6.82s-.15,3.5.25,4.22c0-.21,0-.42.06-.63a4.15,4.15,0,0,1,.16-.88C152.3,612.18,152.31,609,152.46,605.79Z"/><path class="cls-1" d="M157.38,579.26c.64-2.65,1.38-5.27,2.08-7.9,0-.32,0-.63.07-.94q-1.29,4.74-2.41,9.53l.09-.11c0-.13.09-.26.14-.38S157.36,579.33,157.38,579.26Z"/><path class="cls-1" d="M174.07,537a3.88,3.88,0,0,1,1.84.44h.26c.94,0,1.9,0,2.87-.05a3.82,3.82,0,0,1,2-.54,3.63,3.63,0,0,1,3,1.38c2.74,1.27,4.67,3.92,6.56,6.18,1.34,1.61,2.56,3.26,3.71,4.93a3.46,3.46,0,0,1,1.41,1.67c.26.61.54,1.2.84,1.79,1.12,1.83,2.19,3.7,3.23,5.61a57,57,0,0,1,4.36,7.88c2.37,5.61,5.17,11,7.6,16.6.27.61.53,1.22.79,1.82-6.2-15.45-12.69-30.75-24.28-43.35-3.05-3.32-5.58-5.67-10.18-4.13-.89.3-1.71-.13-2.57-.24-3.77-.45-4.05-.43-5.36,2.63a6,6,0,0,1,.5-.51A3.62,3.62,0,0,1,174.07,537Z"/><path class="cls-1" d="M243.81,271.86c-2.31,1.6-4.61,3.23-7,4.68a18.88,18.88,0,0,0-4.43,3.71c-2.79,3.17-3,5.52-.75,9.07,1.12,1.77,2.53,3.36,3.76,5.07,2.87,3.95,2.74,7.26-.61,10.92-4,4.36-9.41,6.69-14.42,9.57-13.25,7.64-24.9,17.08-33.44,29.92-2.59,3.9-4.57,8.2-7.3,13.19-1.29-8.34,2.37-14.42,4.94-20.67,6-14.48,13.29-28.33,20.67-42.12,2.84-5.32,5-10.89,7.64-16.28s4.41-11.07,6.57-16.63c.06-.16,0-.39.09-.51a104.29,104.29,0,0,1,13.39-13.19c1.13-.94,2.58-.22,3.64,1.08,4.28,5.27,6.94,11.36,9.13,17.69C246.36,269.32,245.37,270.78,243.81,271.86Z"/><path class="cls-1" d="M250.64,260.86a1.66,1.66,0,0,1-1,1.75,1.71,1.71,0,0,1-2.37-.25,27.74,27.74,0,0,1-2-3.66c-2.18-4.39-4.37-8.74-8-12.23-1.72-1.67-1.5-3.09.37-4.69a2.9,2.9,0,0,1,4.78,1c2.24,4.34,4.2,8.83,6.23,13.28C249.4,257.6,250,259.24,250.64,260.86Z"/><path class="cls-1" d="M258.13,260.31c-2,.86-3.85,1.7-4.8-.57-2.66-6.41-5.53-12.74-8.62-19.07,5.85-1.54,5.87-1.54,7.6,3.3C254.26,249.39,256.18,254.82,258.13,260.31Z"/><path class="cls-1" d="M263.62,259.45c-1.32.54-2.45.4-3.07-1-.5-1.12-.89-2.29-1.31-3.44-1.62-4.46-3.28-8.9-4.83-13.38-.79-2.3.37-3.85,2.59-3.74a2.64,2.64,0,0,1,2.45,1.72,170,170,0,0,1,6.24,16.79C266.29,258.19,265,258.88,263.62,259.45Z"/><path class="cls-1" d="M271.94,257.61c-2,.59-2.86-.4-3.47-2.11-2.11-5.88-4.28-11.74-6.58-18,5.36-1.23,5.38-1.24,7,2.81a107.84,107.84,0,0,1,4.39,13.94C273.6,255.54,273.87,257,271.94,257.61Z"/><path class="cls-1" d="M280.86,255.65c-1.19.19-2.37.46-3.82.74L270.6,236c1.59-.53,2.72-1,3.89-1.27,1.52-.34,2.46.09,3.22,1.74,2.44,5.28,3.61,10.89,4.79,16.51C282.8,254.46,282.45,255.39,280.86,255.65Z"/><path class="cls-1" d="M284.87,162c-2.06.69-3.48-.39-5-.45-1.33-.06-2.67-1.6-3.93-.31s.24,2.56.61,3.81a34.39,34.39,0,0,1,1.08,3.5c.2,1.08,1.12,2.5-.58,3.18-1.29.51-1.88-.65-2.45-1.48a7.93,7.93,0,0,0-6.64-3.63,10.4,10.4,0,0,0-7.15,2.84c-1.85,1.55-3.29,3.61-5.53,4.7-1.59-.83-.91-2.21-1-3.3-.64-5.24-1.5-10.41-4-15.16a22.46,22.46,0,0,1-1.07-2.4c-2.85-7.24-.41-11.53,7.36-12.64,6.84-1,16.81.85,23,6.25-2.45,1.48-4.77.31-7,.19s-3,.93-2,2.9c1.58,3.14,4.5,4.81,7.35,6.57C280.35,158.09,283.06,159.32,284.87,162Z"/><path class="cls-1" d="M289.17,251.1a3.15,3.15,0,0,1-1.29,2.74c-1.22.85-2.51,1-2.69-.82-.63-6.29-2.82-12.15-4.95-18,1.6-1.5,3.38-1.48,5.1-1.3,2.15.23,3.64,1.45,3.71,3.7C289.19,242,289.16,246.56,289.17,251.1Z"/><path class="cls-1" d="M316.67,110.93c4.49,2.89,5.72,2.95,11.77.6,1.8,1.9,1.76,3.37-.6,5-4.94,3.33-9.76,6.85-14.56,10.39-2.95,2.18-5.77,4.55-8.69,6.85-1.43-.87-2-2.34-2.54-3.81-1.19-1.65-2.39-3.3-3.58-5a10.58,10.58,0,0,1-3.57-4.17l5.45-1.55c1.65-.45,1.57-1.62,1.23-2.9-7,1.49-14.09,2.57-21.34,2.14-3.68-.22-7-1.18-9.21-4.25-4.25-6-9.69-10-17.5-10.71,1.42-3.45,4.14-4.17,6.61-3.59,6.5,1.54,12.75.69,19.2-.4,4.59-.78,9.43-.07,14.16-.2,3.21-.09,5.21,2.74,8.18,3.1.74-3.73-2.13-4.48-4.6-5.06a53.09,53.09,0,0,0-18.68-.83c-3.93.5-3.92.63-5.9-3.59-3.36-11.43-9.28-21.55-15.8-31.4a23.1,23.1,0,0,1-2.53-5.77c-.62-2,.35-3,2.42-2.75a12.2,12.2,0,0,1,5.63,2.73c4.42,3.31,7.44,7.93,11.19,11.87,3.5,3.67,6.9,7.56,12.36,8.37.69-2.46-1.4-2.84-2.8-3.75-3-1.91-6.1-3.68-6.29-7.82-3.3-7.22-5.22-14.91-7.35-22.51a11.62,11.62,0,0,1-.11-5.77c.71-3,3.16-3.76,5.64-2A10.3,10.3,0,0,1,277.6,38c2.68,5,4.35,10.37,6.27,15.66a86.15,86.15,0,0,0,4.76,11.14c1.19,2.25,2.91,3.59,5.57,2.85s3.46-2.74,3.47-5.25a19.64,19.64,0,0,0-.56-5.23c-1.11-4.24-2.1-8.53-3.19-12.78a21.37,21.37,0,0,1-.72-6.26c.05-1.29.41-2.51,1.74-3a3.58,3.58,0,0,1,3.9.83c1.73,1.65,2.41,3.84,3,6.07,1.47,5.6,2.25,11.37,4.2,16.86A15.59,15.59,0,0,0,310.39,66c3.13,2.64,4.59,2.15,5.52-1.89,1-4.45,2-8.92,2.92-13.38.26-1.19.28-2.47,1.46-3.48,2.5.52,3.38,2.71,4.37,4.69a19.9,19.9,0,0,1,2,8.69c.06,10.64,2.76,20.88,4.33,31.29a25.22,25.22,0,0,1-.5,11.49c-1.72,5.48-5.19,7.58-10.85,6.18C318,109.17,316.89,108.79,316.67,110.93Z"/><path class="cls-1" d="M307.26,616.58c-4.68-.29-9.76-.41-15.19-.24-4.15.12-8.07.4-11.76.77H265.15a5.9,5.9,0,0,1-3.56.68c-9,0-17.93-.11-26.89.06-3.27.06-5.08-1.22-6.54-4.08-6.2-12.06-10.76-24.8-16-37.27-5.79-13.85-12.37-27.19-22.85-38.21-.22-.23-.25-.63-.55-1.47,4.49-1.66,9.46-2.07,13.65-4.55-.08-2.08-1.4-2.33-2.9-1.7-12,5-24.43,4-36.88,2.95a48.69,48.69,0,0,1-5.14-1c-1.5-.29-2.37.28-2.4,1.89,3.83,2,8.14,1.85,12.12,2.54a2.89,2.89,0,0,1-.14,2.7,242.82,242.82,0,0,0-17.63,69.2,7.65,7.65,0,0,1-.73,1.92c-.16,8.12.76,7-7.05,7q-30.84,0-61.67-.13c-3.33,0-6.66-.26-10-.36-1.77,0-2.43-.77-2.32-2.62.91-16.3,2.21-32.57,4.27-48.77,3.24-25.42,7.62-50.65,12.24-75.84a12,12,0,0,1,1.11-4,2.29,2.29,0,0,1,0-.52c.56-6.29.55-6.27,6.48-4.07,19.29,7.16,38.77,13.67,59.08,17.44,3,.55,4.31,0,6.26-2.58,8.88-12,15.26-25.26,21.31-38.76.34-.76.77-1.49,1.78-3.41.36,6.2.77,11.14.91,16.08.23,7.57.22,15.13.41,22.7.09,3.87.68,4.33,3.91,2.69,20.09-10.2,41.87-15.27,63.39-21.15,3.22-.88,6.44-1.77,9.67-2.63,3.52-.94,3.55-.93,4.72,2.67a28.16,28.16,0,0,1,.65,3.06q6.3,19.85,12.61,39.68c6,18.76,12.09,37.49,17.94,56.29a23.59,23.59,0,0,0,2.12,5.93,21.7,21.7,0,0,0,2.21,3.29,20,20,0,0,0,1,6.52c.68,2.3,1.37,4.6,2.05,6.9l2.49,7.55c.31,1,.61,2,.9,3.09A95.76,95.76,0,0,1,307.26,616.58Z"/><path class="cls-1" d="M344.13,123.66c-3,.89-6,1.82-9,2.91-12.84,4.73-23,13.13-31.61,23.52-.33.4-.65.81-1,1.19-.09.1-.3.09-.64.18-2.1-2-2.4-4.2-1-7,3.35-6.63,8.59-11.45,14.45-15.7,5.52-4,11.14-7.89,16.71-11.83.29-.2.56-.42.86-.61,7.17-4.72,10.91-3.17,12.82,5.26C346.06,123.06,345.26,123.32,344.13,123.66Z"/><path class="cls-1" d="M347.84,133.09A132,132,0,0,0,309.21,160c-.59.59-1.1,1.4-2.12,1.33-4.2-5.78-4.17-5.78.18-11.05,9.92-12,22.51-19.77,37.5-23.86,2.35-.65,3.53-.23,4.54,1.93C350.74,131.39,350.81,131.73,347.84,133.09Z"/><path class="cls-1" d="M348.19,146.46c-10.74,4-20.72,9.39-29.11,17.41-2.37,2.26-5.27,4-6.91,6.78-1.74-.46-1.86-1.87-2.51-2.86-1.12-1.69-.92-3,.57-4.59a117.89,117.89,0,0,1,26.24-20.85c4.94-2.89,9.72-6.26,15.51-7.43C357.3,143.27,357.23,143.09,348.19,146.46Z"/><path class="cls-1" d="M267.34,469.11c-1.66.54-2.57,1.34-1.83,3.34l.21.62A3.9,3.9,0,0,1,267.34,469.11Z"/><path class="cls-1" d="M298.94,576.31a37.91,37.91,0,0,1-2.4-5.3c.18.57.35,1.13.53,1.69a10.31,10.31,0,0,0,.87,2.06c.42.72.81,1.33,1.15,1.82Z"/><path class="cls-1" d="M255.24,397.69c-1-7.89-1.8-16-2.09-24,0,.58,0,1.17,0,1.75a124.35,124.35,0,0,0,2.4,24.6c.09.48.19.95.29,1.43Q255.5,399.58,255.24,397.69Z"/><path class="cls-1" d="M255.76,356.76q-.51,1.73-.93,3.48c.13-.37.27-.74.42-1.1s.32-.7.48-1.05A4.27,4.27,0,0,1,255.76,356.76Z"/><path class="cls-1" d="M263.07,341.56c.11-.53.23-1.06.36-1.57l-2.54,4.89C261.59,343.75,262.32,342.65,263.07,341.56Z"/><path class="cls-1" d="M354.25,284.39a3.86,3.86,0,0,1,1.36,0l.09-.05a11,11,0,0,0-2.83-.29c-1,0-1.95,0-2.92,0,1.36.12,2.73.26,4.09.35A1.33,1.33,0,0,0,354.25,284.39Z"/><path class="cls-1" d="M315.9,292.84c.87-.44,1.74-.84,2.63-1.2l.64-.32c-1.27.54-2.53,1.09-3.79,1.66Z"/><path class="cls-1" d="M300.33,301.12c.19-.23.38-.44.58-.65l-2.38,1.39-1.17.72c1-.49,2-.95,2.93-1.4Z"/><path class="cls-1" d="M290.22,550.82q2.07,6.58,4.12,13.17c-.64-2.34-1.27-4.7-2-7.07C291.68,554.87,291,552.84,290.22,550.82Z"/><path class="cls-1" d="M357.85,260.88c0,5.83-1.27,11.51-1,17.32.14,3.36-2.45,2.88-4.46,2.79-10.21-.46-19.87,2.18-29.3,5.54A129.45,129.45,0,0,0,298.15,299c-5.36,3.35-10.91,6.44-15.72,10.57A76.63,76.63,0,0,0,264,332.47c-3.09,5.93-6,11.94-9,17.92-5.27,10.64-5.71,21.88-4.36,33.42.88,7.48,1.89,14.91,3.45,22.29a65.81,65.81,0,0,0,12.32,27.06c3.86,5,7.7,10,10.57,15.7a30.54,30.54,0,0,1,2.49,8c.7,3.52-.82,5.65-4.26,6.76-17.2,5.58-34.72,10-52.11,14.87a252.72,252.72,0,0,0-33.26,11.69,2.18,2.18,0,0,1-2.12,1.05h0c-1.06.84-2.09,3.14-3.17,0-1.46-17-.32-34.1-1.29-51.09-.69-12,.18-24-1.05-35.79-1-9.8.24-19.67-1.67-29.39-.47-2.37-.05-4.91,0-7.37a1.9,1.9,0,0,1,.89-2.07c1.27-8.79,5.76-16.05,10.9-23C200.82,331,212.2,323,224.48,316c4.11-2.33,8.42-4.31,11.74-7.86,5.37-5.73,5.65-10.09.87-16.3-.21-.27-.49-.5-.7-.78-4.53-5.88-4.18-8.39,2.15-12.07,3.2-1.86,5.92-4.38,9.13-6.18,1.85-1,2.41-2.17,1.63-4.26s.33-3,2.55-3.42c10.94-2.3,21.84-4.83,32.74-7.29,1.36-.3,2.71-.69,4.05-1.08a4.73,4.73,0,0,0,3.7-5.07c0-3.69,0-7.38,0-11.07,0-2.24.71-3.77,3.22-3.87,4.49-2.19,9.45-2.36,14.24-3.15,7.91-1.3,15.88-2.21,23.83-3.28,1.06-.14,2.26-.26,2.36-1.55.08-1-.9-1.41-1.81-1.54-1.63-.25-2.34-1.31-2.73-2.79-3-11.35-7.41-22.22-11.46-33.21a9.4,9.4,0,0,1-.25-2.08c-1.94-1.9-2.25-3.57-.06-5.75,8.1-8,16-16.25,26.11-21.86a49.94,49.94,0,0,1,9.12-4c3.82-1.22,3.84-1.18,3.95,3.16a7.46,7.46,0,0,1-.1,1c.89,13.19-1.08,26.3-.92,39.49C358.05,221.1,357.67,241,357.85,260.88Z"/><path class="cls-1" d="M356.29,153.83a58.47,58.47,0,0,0-8.8,3.42c-9.1,4.46-16.71,10.88-23.86,17.91-2.23,2.19-4.43,4.41-7.06,7-4.29-8.3-5.37-6.93,1.32-13.45a85.25,85.25,0,0,1,36.41-21.26c3.06-.88,4.19,0,4.52,3C359,152.47,358,153.32,356.29,153.83Z"/><path class="cls-1" d="M86.85,128a1.36,1.36,0,0,1-1,1.6c-.82.24-1.31-.24-1.55-1A17.77,17.77,0,0,0,73.15,117c-.81-.3-1.58-.94-1.21-2,.26-.74,1-.83,1.73-.72C78.78,115.1,86.58,123.2,86.85,128Z"/><path class="cls-1" d="M91.18,121.9a1.17,1.17,0,0,1-1.81,0c-2.54-2.34-5-4.71-7.54-7.1a1,1,0,0,1-.24-1.39,5.27,5.27,0,0,1,1.08-.89,6.17,6.17,0,0,1,1.1.36,25.82,25.82,0,0,1,7.44,7.1A1.47,1.47,0,0,1,91.18,121.9Z"/><path class="cls-1" d="M200.75,47.38c.6,1.51,1.72.53,2.67.44,7-.66,11.57,4.7,10.14,11.65-1.47,7.1-5.37,13-9.56,18.61-10.74,14.45-24.91,24-42.29,28.85-13.05,3.68-26.48,5.13-39.79,7.28-7.64,1.24-15.23,2.58-23,2.13-6.65-.39-11-3.85-12.88-9.78-.77-2.44-.17-4.5.6-6.63.48-1.33,1.29-2.58.1-3.9-1.35-1.51-2.6-.28-3.79.24A21.14,21.14,0,0,1,58,90.63a23.17,23.17,0,0,1-5-19.72c1.81-10,7.81-17.65,15-24.23a203.15,203.15,0,0,1,37.79-27.63c16.56-9.29,34-15.8,53-18.08a86,86,0,0,1,11.55-1c11.52.27,22.84,1.67,32.9,7.83,5.89,3.61,11.13,8,13.39,15,1.73,5.37.84,10-3.52,13.85A44.76,44.76,0,0,1,205.27,42c-1.23.69-2.48,1.34-3.64,2.13A2.61,2.61,0,0,0,200.75,47.38Z"/><path class="cls-1" d="M221.77,67.47a16.65,16.65,0,0,0-.2,12.32c.25.65.48,1.31.73,2,.34.86.52,1.94-.35,2.35-1.22.58-1.89-.52-2.38-1.46a11.91,11.91,0,0,1-1.28-4c-.21-1.73-.62-3.44-.95-5.14.72-3.47,1.13-7,3.15-10,.41-.61,1-1.09,1.74-.7a1.28,1.28,0,0,1,.76,1.71C222.61,65.54,222.15,66.49,221.77,67.47Z"/><path class="cls-1" d="M230.23,68.78c-3.08,3-2.91,6.42-1.44,10.06a1.5,1.5,0,0,1-.37,1.89c-.92.58-1.64-.08-2.14-.8a7.84,7.84,0,0,1-1.55-5.07c0-3.47,1-6.11,3.63-8a1.5,1.5,0,0,1,1.91.07A1.13,1.13,0,0,1,230.23,68.78Z"/><path class="cls-1" d="M85.87,129.59c-.82.24-1.31-.24-1.55-1A17.77,17.77,0,0,0,73.15,117c-.81-.3-1.58-.94-1.21-2,.26-.74,1-.83,1.73-.72,5.11.8,12.91,8.9,13.18,13.69A1.36,1.36,0,0,1,85.87,129.59Zm5.31-7.69a1.17,1.17,0,0,1-1.81,0c-2.54-2.34-5-4.71-7.54-7.1a1,1,0,0,1-.24-1.39,5.27,5.27,0,0,1,1.08-.89,6.17,6.17,0,0,1,1.1.36,25.82,25.82,0,0,1,7.44,7.1A1.47,1.47,0,0,1,91.18,121.9Zm122-85.2A44.76,44.76,0,0,1,205.27,42c-1.23.69-2.48,1.34-3.64,2.13a2.61,2.61,0,0,0-.88,3.3c.6,1.51,1.72.53,2.67.44,7-.66,11.57,4.7,10.14,11.65-1.47,7.1-5.37,13-9.56,18.61-10.74,14.45-24.91,24-42.29,28.85-13.05,3.68-26.48,5.13-39.79,7.28-7.64,1.24-15.23,2.58-23,2.13-6.65-.39-11-3.85-12.88-9.78-.77-2.44-.17-4.5.6-6.63.48-1.33,1.29-2.58.1-3.9-1.35-1.51-2.6-.28-3.79.24A21.14,21.14,0,0,1,58,90.63a23.17,23.17,0,0,1-5-19.72c1.81-10,7.81-17.65,15-24.23a203.15,203.15,0,0,1,37.79-27.63c16.56-9.29,34-15.8,53-18.08a86,86,0,0,1,11.55-1c11.52.27,22.84,1.67,32.9,7.83,5.89,3.61,11.13,8,13.39,15C218.39,28.22,217.5,32.84,213.14,36.7ZM223,64.56c-.38,1-.84,1.93-1.22,2.91a16.65,16.65,0,0,0-.2,12.32c.25.65.48,1.31.73,2,.34.86.52,1.94-.35,2.35-1.22.58-1.89-.52-2.38-1.46a11.91,11.91,0,0,1-1.28-4c-.21-1.73-.62-3.44-.95-5.14.72-3.47,1.13-7,3.15-10,.41-.61,1-1.09,1.74-.7A1.28,1.28,0,0,1,223,64.56Zm7.24,4.22c-3.08,3-2.91,6.42-1.44,10.06a1.5,1.5,0,0,1-.37,1.89c-.92.58-1.64-.08-2.14-.8a7.84,7.84,0,0,1-1.55-5.07c0-3.47,1-6.11,3.63-8a1.5,1.5,0,0,1,1.91.07A1.13,1.13,0,0,1,230.23,68.78Z"/><path class="cls-2" d="M86.85,128a1.36,1.36,0,0,1-1,1.6c-.82.24-1.31-.24-1.55-1A17.77,17.77,0,0,0,73.15,117c-.81-.3-1.58-.94-1.21-2,.26-.74,1-.83,1.73-.72C78.78,115.1,86.58,123.2,86.85,128Z"/><path class="cls-2" d="M91.18,121.9a1.17,1.17,0,0,1-1.81,0c-2.54-2.34-5-4.71-7.54-7.1a1,1,0,0,1-.24-1.39,5.27,5.27,0,0,1,1.08-.89,6.17,6.17,0,0,1,1.1.36,25.82,25.82,0,0,1,7.44,7.1A1.47,1.47,0,0,1,91.18,121.9Z"/><path class="cls-2" d="M200.75,47.38c.6,1.51,1.72.53,2.67.44,7-.66,11.57,4.7,10.14,11.65-1.47,7.1-5.37,13-9.56,18.61-10.74,14.45-24.91,24-42.29,28.85-13.05,3.68-26.48,5.13-39.79,7.28-7.64,1.24-15.23,2.58-23,2.13-6.65-.39-11-3.85-12.88-9.78-.77-2.44-.17-4.5.6-6.63.48-1.33,1.29-2.58.1-3.9-1.35-1.51-2.6-.28-3.79.24A21.14,21.14,0,0,1,58,90.63a23.17,23.17,0,0,1-5-19.72c1.81-10,7.81-17.65,15-24.23a203.15,203.15,0,0,1,37.79-27.63c16.56-9.29,34-15.8,53-18.08a86,86,0,0,1,11.55-1c11.52.27,22.84,1.67,32.9,7.83,5.89,3.61,11.13,8,13.39,15,1.73,5.37.84,10-3.52,13.85A44.76,44.76,0,0,1,205.27,42c-1.23.69-2.48,1.34-3.64,2.13A2.61,2.61,0,0,0,200.75,47.38Z"/><path class="cls-2" d="M221.77,67.47a16.65,16.65,0,0,0-.2,12.32c.25.65.48,1.31.73,2,.34.86.52,1.94-.35,2.35-1.22.58-1.89-.52-2.38-1.46a11.91,11.91,0,0,1-1.28-4c-.21-1.73-.62-3.44-.95-5.14.72-3.47,1.13-7,3.15-10,.41-.61,1-1.09,1.74-.7a1.28,1.28,0,0,1,.76,1.71C222.61,65.54,222.15,66.49,221.77,67.47Z"/><path class="cls-2" d="M230.23,68.78c-3.08,3-2.91,6.42-1.44,10.06a1.5,1.5,0,0,1-.37,1.89c-.92.58-1.64-.08-2.14-.8a7.84,7.84,0,0,1-1.55-5.07c0-3.47,1-6.11,3.63-8a1.5,1.5,0,0,1,1.91.07A1.13,1.13,0,0,1,230.23,68.78Z"/><path class="cls-3" d="M307.26,616.58c-4.68-.29-9.76-.41-15.19-.24-4.15.12-8.07.4-11.76.77H265.15c-10.18.81-20.39.08-30.57.41-2.8.09-3.69-1.68-4.39-3.7-1.79-5.15-3.84-10.21-5.6-15.37-7-20.64-13.42-41.52-22-61.63-.63-1.49-1.08-3-.2-4.55-.08-2.08-1.4-2.33-2.9-1.7-12,5-24.43,4-36.88,2.95a48.69,48.69,0,0,1-5.14-1c-1.5-.29-2.37.28-2.4,1.89,1.5,2.59,1.31,5.32.9,8.17-2.66,18.72-5.45,37.42-6.52,56.35-.23,3.92-.19,7.92-.76,11.84-.16,8.12.76,7-7.05,7q-30.84,0-61.67-.13c-3.33,0-6.66-.26-10-.36-1.77,0-2.43-.77-2.32-2.62.91-16.3,2.21-32.57,4.27-48.77,3.24-25.42,7.62-50.65,12.24-75.84a12,12,0,0,1,1.11-4c2.24-.87,4.13.4,6.06,1.08a510.87,510.87,0,0,0,57.36,16.33c5.68,1.26,9.48-.25,12.74-4.77,2.88-4,5.59-8.12,8.44-12.13.9-1.28,1.9-3,3.62-2.6s1.69,2.47,1.8,4c.21,2.81-.09,5.64.17,8.44A4.71,4.71,0,0,0,181,500.7a25.85,25.85,0,0,0,4.09-1.37c23.64-8.16,47.41-15.85,71.73-21.73,2.31-.56,4.7-1.89,7.08-.09q6.3,19.85,12.61,39.68c6,18.76,12.09,37.49,17.94,56.29a20.53,20.53,0,0,0,2.12,5.93c1,1.74,1.52,1.81,2.21,3.29,1,2.26.57,3.52,1,6.52a54.25,54.25,0,0,0,2.05,6.9l2.49,7.55c.31,1,.61,2,.9,3.09A95.76,95.76,0,0,1,307.26,616.58Z"/><path class="cls-4" d="M357.85,260.88c0,5.83-1.27,11.51-1,17.32.14,3.36-2.45,2.88-4.46,2.79-10.21-.46-19.87,2.18-29.3,5.54A129.45,129.45,0,0,0,298.15,299c-5.36,3.35-10.91,6.44-15.72,10.57A76.63,76.63,0,0,0,264,332.47c-3.09,5.93-6,11.94-9,17.92-5.27,10.64-5.71,21.88-4.36,33.42.88,7.48,1.89,14.91,3.45,22.29a65.81,65.81,0,0,0,12.32,27.06c3.86,5,7.7,10,10.57,15.7a30.54,30.54,0,0,1,2.49,8c.7,3.52-.82,5.65-4.26,6.76-17.2,5.58-34.72,10-52.11,14.87a252.72,252.72,0,0,0-33.26,11.69c-.55.63-1.54.42-2.11,1v0h0a2.53,2.53,0,0,1-3.17,0c-1.46-17-.32-34.1-1.29-51.09-.69-12,.18-24-1.05-35.79-1-9.8.24-19.67-1.67-29.39-.47-2.37-.05-4.91,0-7.37.52-.6.33-1.5.89-2.07h0c9.58-21.61,26.05-36.72,45.92-48.62,2.57-1.54,5.25-2.91,7.66-4.67,5.17-3.78,8.37-8.48,6.7-15.33a9.52,9.52,0,0,1,1.3-7.08c8.81-15.66,21.2-26.5,39.43-29.62a51,51,0,0,0,5.17-1.08c5.42-1.49,7.18-3.67,7.62-9.29.34-4.36-.57-8.76.33-13.1,4.49-2.19,9.45-2.36,14.24-3.15,7.91-1.3,15.88-2.21,23.83-3.28,1.06-.14,2.26-.26,2.36-1.55.08-1-.9-1.41-1.81-1.54-1.63-.25-2.34-1.31-2.73-2.79-3-11.35-7.41-22.22-11.46-33.21a9.4,9.4,0,0,1-.25-2.08c8.43-13.66,21.13-21.85,35.62-27.73,1.1-.44,2.36-.78,3.4.32.89,13.19-1.08,26.3-.92,39.49C358.05,221.1,357.67,241,357.85,260.88Z"/><path class="cls-4" d="M177.26,452.13a182.07,182.07,0,0,1-20.79,40.09c-2,2.86-4.19,4.37-8.35,3.39A410.3,410.3,0,0,1,101.72,482c-8.06-2.95-16.12-5.9-24.13-9-7.38-2.84-7.5-3-4.75-10.47,4-10.87,8.43-21.56,13.23-32.11,7.64-16.76,16.53-33,22.08-50.66,2.42-7.67,4.57-15.43,4.72-23.63a11.6,11.6,0,0,0-3-8.67c-3.74-3.91-7-8.2-11.23-11.77a202.53,202.53,0,0,0-23.78-17.32c-11.39-7.07-23.58-12.51-35.72-18-7.82-3.56-15.85-6.65-23.8-9.92a48.79,48.79,0,0,0-5-1.8c-5.24-1.53-5.27-1.5-5.28-7.11Q5,247.77,4.91,214c0-2.44.33-4.92-.56-7.32-.28-.76-.54-1.79.59-2.22.8-.3,1.34.33,1.69.91,2.46,4,5.79,7.56,6.88,12.34-.15,4.1,1.54,8.7-3.17,11.55-.79.4-1.7.89-1.46,1.9A1.61,1.61,0,0,0,11,232.27c6-1.86,11.68.57,17.52,1,3.48.28,7,.3,10.49.24,14.12-.25,27.28,3.44,39.87,9.5a5.3,5.3,0,0,1,1.14,1c.82,5.26.29,10.51,0,15.77-.33,7.17.73,8.56,7.67,10.24a212.45,212.45,0,0,1,20.64,6.43,26.58,26.58,0,0,1,14.2,11.19c2.92,4.64,4.22,8.82,1.57,14.23-3.17,6.46,0,11.87,4.47,16.62,5.29,5.67,11.46,10.39,17.19,15.58,9.12,8.27,18.21,16.55,24.5,27.41A37.64,37.64,0,0,1,175.58,380c.53,19.31,1.38,38.61,2,57.92C177.71,442.66,177.56,447.4,177.26,452.13Z"/><path class="cls-5" d="M273.77,179.47a23.62,23.62,0,0,1-1.92,5.44C270,188.51,268,192,266,195.53l-.22-.19a10,10,0,0,1-1.42-12.55c.89-1.27,2.25-2.19,2.88-3.66-.05-.21-.11-.4-.17-.58a3.94,3.94,0,0,0-.33-.71c-1-1.68-2.77-.86-4.37-.09-2.49,1.2-3.83,3.5-4.94,5.92a5.56,5.56,0,0,0-.34,4.43,2.93,2.93,0,0,1-.34,2l-.17.13h0c-.84.57-1.55.12-2.25-.42h0l-.12-.18a3.85,3.85,0,0,0-1.09-1.43c-2.81.26-1.94,2.47-2,4a90.31,90.31,0,0,1-5.29,27.28c-7.09,19.31-19,34.71-37,45-11.72,6.7-24.25,9.16-37.55,6a36,36,0,0,1-21.9-15.4c-2.46-3.62-4.69-7.42-7-11.14A33.78,33.78,0,0,0,131,232.35c-7.84-4.61-11.22-11.68-12-20.45-.48-5.41-1.38-10.78-2.09-16.17-1-1.13-2-1.27-2.91.1a1.09,1.09,0,0,1-.12.71,2,2,0,0,1-2.14-.22,3.19,3.19,0,0,1-.42-.3l-.25-.19a12.38,12.38,0,0,1-4-11.7c.6-3.58.18-7.33-2.7-10.2a3.46,3.46,0,0,0-4.27-.83c-1.94,1-1.42,2.49-.66,4l.48.52.23.26c3.09,3.36,4.36,5,4.28,7h0a7.82,7.82,0,0,1-.73,2.77v0c-.31.75-.71,1.59-1.2,2.57l-.07,0a.42.42,0,0,1-.12.08,1.08,1.08,0,0,1-1.3-.14,33.55,33.55,0,0,1-5.5-15.17,11.4,11.4,0,0,1,1.63-7.58c2.11-3.21,5.14-3.66,8.07-1.12,2.77,2.41,4,5.72,5,9.13.27.93.11,2.39,1.47,2.49,1.56.11,1.81-1.37,2.25-2.5,3.88-10,6.13-20.53,8.23-31a18.12,18.12,0,0,1,5.11-9.56c8.48-8.54,19-13.35,30.44-16,29.77-6.92,57.24-1.76,82,16.58,1.41,1,2.67,2.3,4.07,3.36,2.32,1.76,3.5,3.53,1.76,6.57-1.52,2.66-.39,5.57.74,8.14,3.18,7.16,5.33,14.49,5.06,22.43-.1,2.78,1.14,3.38,3.66,2.08,2.68-1.39,4.73-3.62,6.94-5.64,3.62-3.29,5.8-3.84,8.39-2.24S274.57,175.92,273.77,179.47Z"/><path class="cls-5" d="M330.47,103.4c-1.72,5.48-5.19,7.58-10.85,6.18-1.63-.41-2.73-.79-2.95,1.35,3.3,5.8,3.33,5.88-2,9.55a35,35,0,0,0-7.66,7.11c-1.21,1.52-2.3,3.76-5,2.34-1.19-1.65-2.39-3.3-3.58-5-.54-2.09,1.09-3,2.32-4,1.49-1.32,2.53-2.71.79-4.58-7,1.49-14.09,2.57-21.34,2.14-3.68-.22-7-1.18-9.21-4.25-4.25-6-9.69-10-17.5-10.71,1.42-3.45,4.14-4.17,6.61-3.59,6.5,1.54,12.75.69,19.2-.4,4.59-.78,9.43-.07,14.16-.2,3.21-.09,5.21,2.74,8.18,3.1,2.48-4.76-1.54-5.79-4.38-6.9-5.2-2-10.77-.81-16.18-1.1-2.93-.16-6,.62-8.62-1.48-3.36-11.43-9.28-21.55-15.8-31.4a23.1,23.1,0,0,1-2.53-5.77c-.62-2,.35-3,2.42-2.75a12.2,12.2,0,0,1,5.63,2.73c4.42,3.31,7.44,7.93,11.19,11.87,3.5,3.67,6.9,7.56,12.36,8.37,1.89-3.06-.63-4.37-2.46-5.74-2.37-1.77-4.83-3.42-6.63-5.83-3.3-7.22-5.22-14.91-7.35-22.51a11.62,11.62,0,0,1-.11-5.77c.71-3,3.16-3.76,5.64-2A10.3,10.3,0,0,1,277.6,38c2.68,5,4.35,10.37,6.27,15.66a86.15,86.15,0,0,0,4.76,11.14c1.19,2.25,2.91,3.59,5.57,2.85s3.46-2.74,3.47-5.25a19.64,19.64,0,0,0-.56-5.23c-1.11-4.24-2.1-8.53-3.19-12.78a21.37,21.37,0,0,1-.72-6.26c.05-1.29.41-2.51,1.74-3a3.58,3.58,0,0,1,3.9.83c1.73,1.65,2.41,3.84,3,6.07,1.47,5.6,2.25,11.37,4.2,16.86A15.59,15.59,0,0,0,310.39,66c3.13,2.64,4.59,2.15,5.52-1.89,1-4.45,2-8.92,2.92-13.38.26-1.19.28-2.47,1.46-3.48,2.5.52,3.38,2.71,4.37,4.69a19.9,19.9,0,0,1,2,8.69c.06,10.64,2.76,20.88,4.33,31.29A25.22,25.22,0,0,1,330.47,103.4Z"/><path class="cls-4" d="M176,355.65c-4.14-2.38-5.9-6-8.53-8.74A276.11,276.11,0,0,0,133,316c-6.55-4.9-7-11.35-2.78-16.33a20.21,20.21,0,0,0,4.21-7.26c1.22-4.27.92-8.32-2.39-11.77a40.42,40.42,0,0,0-7.65-6.41c-1.79-1.12-3.61-2.2-5.29-3.47-2.47-1.88-2.53-2.82-.06-4.93,4.4-3.75,8.84-7.49,13.46-11,2.13-1.6,3.87-3.58,6-5.13,1.81-1.31,3.18-1.71,4.56.82a49.51,49.51,0,0,0,9.39,12.63c2.11,2,3,4.75,4.09,7.32a249.55,249.55,0,0,1,15.61,53.38c1.42,8.1,2.41,16.26,3.82,24.36C176.35,350.49,176,352.81,176,355.65Z"/><path class="cls-4" d="M243.81,271.86c-2.31,1.6-4.61,3.23-7,4.68a18.88,18.88,0,0,0-4.43,3.71c-2.79,3.17-3,5.52-.75,9.07,1.12,1.77,2.53,3.36,3.76,5.07,2.87,3.95,2.74,7.26-.61,10.92-4,4.36-9.41,6.69-14.42,9.57-13.25,7.64-24.9,17.08-33.44,29.92-2.59,3.9-4.57,8.2-7.3,13.19-1.29-8.34,2.37-14.42,4.94-20.67,6-14.48,13.29-28.33,20.67-42.12,2.84-5.32,5-10.89,7.64-16.28s4.41-11.07,6.57-16.63c.06-.16,0-.39.09-.51a104.29,104.29,0,0,1,13.39-13.19c1.13-.94,2.58-.22,3.64,1.08,4.28,5.27,6.94,11.36,9.13,17.69C246.36,269.32,245.37,270.78,243.81,271.86Z"/><path class="cls-6" d="M263.85,477.51c-9.35,1.57-18.36,4.53-27.49,6.94-16.81,4.44-33.17,10.29-49.65,15.79-1.66.56-3.27,1.27-4.92,1.89-4.56,1.69-7.65-.31-7.75-5.15-.09-4,0-8.05,0-12.06-2-.41-2.09,1.25-2.71,2.12-3.06,4.29-6,8.65-9.05,12.93-3.87,5.4-6.68,6.36-13,5a473,473,0,0,1-56.65-16c-2.47-.87-4.87-2-7.3-3a2.29,2.29,0,0,1,0-.52c.56-6.29.55-6.27,6.48-4.07,19.29,7.16,38.77,13.67,59.08,17.44,3,.55,4.31,0,6.26-2.58,8.88-12,15.26-25.26,21.31-38.76.34-.76.77-1.49,1.78-3.41.36,6.2.77,11.14.91,16.08.23,7.57.22,15.13.41,22.7.09,3.87.68,4.33,3.91,2.69,20.09-10.2,41.87-15.27,63.39-21.15,3.22-.88,6.44-1.77,9.67-2.63,3.52-.94,3.55-.93,4.72,2.67A28.16,28.16,0,0,1,263.85,477.51Z"/><path class="cls-7" d="M180.43,440.22a20.2,20.2,0,0,1-3.17,11.91,7.41,7.41,0,0,1-1.11-4.53c.72-15.63-1.45-31.2-1.13-46.83.17-8.76-1.3-17.46-1.12-26.26.09-4.47-2.53-8.35-4.76-12.12-6.62-11.18-16.11-19.7-25.67-28.27-6.5-5.81-13.72-10.91-18.84-18.27-3.66-5.23-3.88-10.48-1.19-15.76,1.79-3.52,1-6.26-.59-9.33A26.94,26.94,0,0,0,105.72,277c-6.23-1.78-12.28-4.14-18.63-5.58C80.53,270,79,267.77,79,261.17c0-4.4,0-8.8,0-13.19,0-1.38-.3-2.86,1-3.9,1.52.17,2.87.51,2.46,2.53-.83,4.13-.11,8.34-1.1,12.54-1.41,6,.43,8.15,6.59,9.29,9.61,1.76,19.34,3.08,28.82,5.38a21.78,21.78,0,0,1,14.34,10.65c1.63,3,1.2,6.52-.61,9.59-1.06,1.81-2.39,3.46-3.53,5.23-4.51,7-3.62,12.73,3.47,18.41,10.68,8.55,21.19,17.27,30.72,27.1,4.4,4.53,8.63,9.22,12.81,13.94a13.84,13.84,0,0,1,3.39,8.53c1.65,20.81,2.14,41.65,2.08,62.52C179.41,433.27,180.4,436.68,180.43,440.22Z"/><path class="cls-7" d="M296.07,253.36c-.41,3.52-2.72,5.61-6.08,6.48a67.27,67.27,0,0,1-9.19,2.07c-5.76.63-10.83,3-15.62,5.91-9.5,5.78-16.52,13.94-21.76,23.71a7.74,7.74,0,0,0-.56,5.12c1.31,8.21-1.1,13.25-8.23,17.48-4.22,2.5-8.32,5.2-12.49,7.78a105.77,105.77,0,0,0-38.1,40.5c-.66,1.23-1.15,2.59-2.63,3.12h0c1.27-8.79,5.76-16.05,10.9-23C200.82,331,212.2,323,224.48,316c4.11-2.33,8.42-4.31,11.74-7.86,5.37-5.73,5.65-10.09.87-16.3-.21-.27-.49-.5-.7-.78-4.53-5.88-4.18-8.39,2.15-12.07,3.2-1.86,5.92-4.38,9.13-6.18,1.85-1,2.41-2.17,1.63-4.26s.33-3,2.55-3.42c10.94-2.3,21.84-4.83,32.74-7.29,1.36-.3,2.71-.69,4.05-1.08a4.73,4.73,0,0,0,3.7-5.07c0-3.69,0-7.38,0-11.07,0-2.24.71-3.77,3.22-3.87C297.44,242.22,296.71,247.81,296.07,253.36Z"/><path class="cls-8" d="M284.87,162c-2.06.69-3.48-.39-5-.45-1.33-.06-2.67-1.6-3.93-.31s.24,2.56.61,3.81a34.39,34.39,0,0,1,1.08,3.5c.2,1.08,1.12,2.5-.58,3.18-1.29.51-1.88-.65-2.45-1.48a7.93,7.93,0,0,0-6.64-3.63,10.4,10.4,0,0,0-7.15,2.84c-1.85,1.55-3.29,3.61-5.53,4.7-1.59-.83-.91-2.21-1-3.3-.64-5.24-1.5-10.41-4-15.16a22.46,22.46,0,0,1-1.07-2.4c-2.85-7.24-.41-11.53,7.36-12.64,6.84-1,16.81.85,23,6.25-2.45,1.48-4.77.31-7,.19s-3,.93-2,2.9c1.58,3.14,4.5,4.81,7.35,6.57C280.35,158.09,283.06,159.32,284.87,162Z"/><path class="cls-5" d="M213.11,270.45c-1.89,5.84-4.66,11.3-7.27,16.83-.61,1.3-1.31,2.52-2.79,3-10.5,3.14-21.09,5.14-32,2.18-2.52-.69-4.33-1.88-5.08-4.64-1-3.7-2.35-7.31-3.55-11-.85-3.7,1.84-2.5,3.33-2.15,4.24,1,8.44,2.14,12.71,3.08,6.5,1.43,12.49.23,18.35-2.36,4-1.76,8.08-3.3,11.94-5.38C210.08,269.29,212,267.38,213.11,270.45Z"/><path class="cls-6" d="M265.15,617.11a5.9,5.9,0,0,1-3.56.68c-9,0-17.93-.11-26.89.06-3.27.06-5.08-1.22-6.54-4.08-6.2-12.06-10.76-24.8-16-37.27-5.79-13.85-12.37-27.19-22.85-38.21-.22-.23-.25-.63-.55-1.47,4.49-1.66,9.46-2.07,13.65-4.55,4.59,10.42,8.2,21.2,12,31.91,3.94,11.06,7.47,22.25,11.37,33.32,1.93,5.44,4,10.84,5.73,16.35.8,2.54,2.25,3.08,4.63,3.08C245.84,616.91,255.49,617,265.15,617.11Z"/><path class="cls-8" d="M119.75,141.19a195.38,195.38,0,0,1-7.26,29.71c-2.11-1.36-2.53-3.61-3.83-5.22-4.77-5.89-11.66-5.36-14.68,1.51-1.28,2.89-2.38,4.27-5.7,3.33-1.77-.49-3.79-.08-6.29-.08.42-2.8,1.82-4.62,2.94-6.57,1.61-2.79,1.59-2.8-1.69-3.29a6.91,6.91,0,0,1-1-.19c-.12,0-.19-.22-.39-.45,1.33-2.65,3.73-4,6.37-5.07,1-.4,2-.58,3-1,2.67-1.27,2.89-2.4.94-4.72-.44-.52-1.18-.79-.92-2C100.19,144.12,109.81,143.52,119.75,141.19Z"/><path class="cls-6" d="M202.8,293.33c-4.13,8.24-7.56,15.62-11.77,22.61-.72.76-1.26,1.68-2,2.45-5.11,5.54-11.58,4.44-14.7-2.34-.67-1.44-.39-3.11-1.44-4.37C171.44,306.33,170,301,168.33,295c6.14.74,11.55,2.31,17.09,1.63A108.94,108.94,0,0,0,202.8,293.33Z"/><path class="cls-9" d="M347.84,133.09A132,132,0,0,0,309.21,160c-.59.59-1.1,1.4-2.12,1.33-4.2-5.78-4.17-5.78.18-11.05,9.92-12,22.51-19.77,37.5-23.86,2.35-.65,3.53-.23,4.54,1.93C350.74,131.39,350.81,131.73,347.84,133.09Z"/><path class="cls-10" d="M167.1,539.62a242.82,242.82,0,0,0-17.63,69.2,7.65,7.65,0,0,1-.73,1.92c-1.48-4.29-.25-8.59-.24-12.9,0-14.39,2.25-28.5,4.18-42.68.93-6.9,2.56-13.75,2.44-20.78,3.83,2,8.14,1.85,12.12,2.54A2.89,2.89,0,0,1,167.1,539.62Z"/><path class="cls-11" d="M344.13,123.66c-3,.89-6,1.82-9,2.91-12.84,4.73-23,13.13-31.61,23.52-.33.4-.65.81-1,1.19-.09.1-.3.09-.64.18-2.1-2-2.4-4.2-1-7,3.35-6.63,8.59-11.45,14.45-15.7,5.52-4,11.14-7.89,16.71-11.83.29-.2.56-.42.86-.61,7.17-4.72,10.91-3.17,12.82,5.26C346.06,123.06,345.26,123.32,344.13,123.66Z"/><path class="cls-12" d="M348.19,146.46c-10.74,4-20.72,9.39-29.11,17.41-2.37,2.26-5.27,4-6.91,6.78-1.74-.46-1.86-1.87-2.51-2.86-1.12-1.69-.92-3,.57-4.59a117.89,117.89,0,0,1,26.24-20.85c4.94-2.89,9.72-6.26,15.51-7.43C357.3,143.27,357.23,143.09,348.19,146.46Z"/><path class="cls-13" d="M356.29,153.83a58.47,58.47,0,0,0-8.8,3.42c-9.1,4.46-16.71,10.88-23.86,17.91-2.23,2.19-4.43,4.41-7.06,7-4.29-8.3-5.37-6.93,1.32-13.45a85.25,85.25,0,0,1,36.41-21.26c3.06-.88,4.19,0,4.52,3C359,152.47,358,153.32,356.29,153.83Z"/><path class="cls-14" d="M215.17,264a11.19,11.19,0,0,1-2.06,6.5c-.9-1.19-1.71-.61-2.66,0-5,3.31-10.76,5.11-16.22,7.5-8.33,3.65-16.5,1.31-24.66-.76-1.87-.47-3.69-1.11-5.53-1.71-1.26-.41-1.47.41-1.64,1.32-1.63-2.15-2-4.79-3.46-8.17C179,279.29,197.18,275,215.17,264Z"/><path class="cls-15" d="M358.84,160.68a7.46,7.46,0,0,1-.1,1c-13.66,4.5-25.51,11.67-34.41,23.26a12,12,0,0,1-4.61,4.15c-1.94-1.9-2.25-3.57-.06-5.75,8.1-8,16-16.25,26.11-21.86a49.94,49.94,0,0,1,9.12-4C358.71,156.3,358.73,156.34,358.84,160.68Z"/><path class="cls-16" d="M191,315.94c-3.89,9.3-8.59,18.24-12.86,27.62l-5.25-31.88c1.47,1,1.34,2.77,2.11,4.11,2.87,5,6.81,6.14,11.78,3.19C188.3,318.1,189.63,317,191,315.94Z"/><path class="cls-17" d="M327.84,116.5c-4.94,3.33-9.76,6.85-14.56,10.39-2.95,2.18-5.77,4.55-8.69,6.85-1.43-.87-2-2.34-2.54-3.81a3.92,3.92,0,0,0,3.4-2.14c2.18-3.7,5.37-6.33,8.88-8.66,3.7-2.45,3.66-2.48,2.38-6.64a5.38,5.38,0,0,1,0-1.56c4.49,2.89,5.72,2.95,11.77.6C330.24,113.43,330.2,114.9,327.84,116.5Z"/><path class="cls-17" d="M266.48,182.51c-2.4,1.73-3.3,4-2,6.73.9,1.95-.42,4.41,1.35,6.1l.22.19a72.2,72.2,0,0,1-3.1,10.69c-1.61.73-.94,2.53-1.71,3.65-1.12,1.64-2.32,2.8-4,1.31a.47.47,0,0,1-.1-.1,4.53,4.53,0,0,1-.43-.44c-1-2.94-1.1-6,.42-8.63a14,14,0,0,0,1.57-3.78,14.7,14.7,0,0,0,.3-5.53,22.54,22.54,0,0,0-.65-3.23,12.24,12.24,0,0,1-.29-4.67c.62-5,4-7.56,8.71-7a12.61,12.61,0,0,1,2.21.49C269.24,180.38,267.91,181.48,266.48,182.51Z"/><path class="cls-18" d="M280.86,255.65c-1.19.19-2.37.46-3.82.74L270.6,236c1.59-.53,2.72-1,3.89-1.27,1.52-.34,2.46.09,3.22,1.74,2.44,5.28,3.61,10.89,4.79,16.51C282.8,254.46,282.45,255.39,280.86,255.65Z"/><path class="cls-19" d="M118.27,248.07a136.17,136.17,0,0,0-2.42,15.46c-.3,2.42-2.62,3.59-3.87,5.44-.49.7-1.72.37-2.09-.61a8.08,8.08,0,0,1-.34-2.56c-.13-6,1.1-11.77,2.12-17.61.43-2.48,1.94-3.09,4.11-3C117.58,245.31,118.82,245.75,118.27,248.07Z"/><path class="cls-19" d="M100,247.57c-.24,1.72-.8,3.41-.93,5.14-.27,3.65-1.5,7.19-1.21,10.93.13,1.61-.23,3.49-2.42,3.2-1.79-.24-4-.56-3.82-3.35.07-1.05,0-2.11,0-3-.23-5,1.3-9.52,2.25-14.13.34-1.62,1.41-2.34,3.14-1.74C98.5,245.18,100.33,245.32,100,247.57Z"/><path class="cls-20" d="M108.59,248.31c-.71,5.73-1.44,11.46-2.13,17.2-.17,1.39,0,2.86-2.16,2.87-2.41,0-3.93-1-3.86-3.27a80.28,80.28,0,0,1,1-9.4c.44-2.94,1-5.87,1.75-8.75.64-2.52,2.78-1.66,4.38-1.49C109.34,245.66,109,247.1,108.59,248.31Z"/><path class="cls-21" d="M263.62,259.45c-1.32.54-2.45.4-3.07-1-.5-1.12-.89-2.29-1.31-3.44-1.62-4.46-3.28-8.9-4.83-13.38-.79-2.3.37-3.85,2.59-3.74a2.64,2.64,0,0,1,2.45,1.72,170,170,0,0,1,6.24,16.79C266.29,258.19,265,258.88,263.62,259.45Z"/><path class="cls-22" d="M289.17,251.1a3.15,3.15,0,0,1-1.29,2.74c-1.22.85-2.51,1-2.69-.82-.63-6.29-2.82-12.15-4.95-18,1.6-1.5,3.38-1.48,5.1-1.3,2.15.23,3.64,1.45,3.71,3.7C289.19,242,289.16,246.56,289.17,251.1Z"/><path class="cls-21" d="M250.64,260.86a1.66,1.66,0,0,1-1,1.75,1.71,1.71,0,0,1-2.37-.25,27.74,27.74,0,0,1-2-3.66c-2.18-4.39-4.37-8.74-8-12.23-1.72-1.67-1.5-3.09.37-4.69a2.9,2.9,0,0,1,4.78,1c2.24,4.34,4.2,8.83,6.23,13.28C249.4,257.6,250,259.24,250.64,260.86Z"/><path class="cls-20" d="M271.94,257.61c-2,.59-2.86-.4-3.47-2.11-2.11-5.88-4.28-11.74-6.58-18,5.36-1.23,5.38-1.24,7,2.81a107.84,107.84,0,0,1,4.39,13.94C273.6,255.54,273.87,257,271.94,257.61Z"/><path class="cls-20" d="M258.13,260.31c-2,.86-3.85,1.7-4.8-.57-2.66-6.41-5.53-12.74-8.62-19.07,5.85-1.54,5.87-1.54,7.6,3.3C254.26,249.39,256.18,254.82,258.13,260.31Z"/><path class="cls-17" d="M301.68,102.44c.74-3.73-2.13-4.48-4.6-5.06a53.09,53.09,0,0,0-18.68-.83c-3.93.5-3.92.63-5.9-3.59,6.62,0,13.24,0,19.86,0a12.57,12.57,0,0,1,9.81,4C304.22,99.14,304.11,100.81,301.68,102.44Z"/><path class="cls-23" d="M90.89,246.54a78.28,78.28,0,0,0-2.19,16.12c0,1,.19,2.26-1.31,2.42a2.56,2.56,0,0,1-2.82-1.86,3,3,0,0,1-.21-1c-.2-5.64.8-11.18,1.38-16.76a2.15,2.15,0,0,1,2.53-2.09C90.36,243.36,91.39,244.49,90.89,246.54Z"/><path class="cls-24" d="M114.09,210.34c-.29,1.72-.37,4.23-3.45,3.1a5.55,5.55,0,0,1-2.43-3.84c-1.41-6.83-4.49-13-7.19-19.37l1.17,0,.25.1a6.44,6.44,0,0,1,2,1.32v0c1.81,1.76,2.83,4.37,4.86,5.9h0a5.74,5.74,0,0,0,1.6.87l.23.08.37.17a4.64,4.64,0,0,1,1.71,1.3A23.31,23.31,0,0,1,114.09,210.34Z"/><path class="cls-24" d="M262.91,206.22a29.53,29.53,0,0,1-3.59,11.36c-1,2-2.31,3.93-4.78,4.5-3.82-2.67-3.85-7-.07-11.23a3.54,3.54,0,0,1,1-.22h.39a2.54,2.54,0,0,1,1.28.45l.13.1c2.54.18,3.26-1.33,3.49-3.53C260.86,206.55,261,204.94,262.91,206.22Z"/><path class="cls-20" d="M126.89,246.68c-1.14,5.51,0,12.11-7.66,14.47-.32-4,.81-7.75,1.69-11.47C121.88,245.66,122,245.68,126.89,246.68Z"/><path class="cls-25" d="M110.64,213.44c.48-.19,1.33-.3,1.38-.58.89-4.49,1.88-9-.62-13.36a4,4,0,0,1-.52-1.09,2.54,2.54,0,0,1,.41-2.39,4.36,4.36,0,0,1,.51-.57l2,1.09a50.46,50.46,0,0,1,2.12,14C116.11,214.86,115.15,215.35,110.64,213.44Z"/><path class="cls-26" d="M255.84,210.63a2.7,2.7,0,0,1-.16.48c-3,3-3.34,6.39-1.14,11-4.61,1.25-6.22.06-5.2-4,.85-3.35,1.93-6.64,2.91-10a1.92,1.92,0,0,1,2-.45.47.47,0,0,1,.16,0l.15.11A2.5,2.5,0,0,1,255.84,210.63Z"/><path class="cls-27" d="M258.68,198.23a36.56,36.56,0,0,1-2,3.59,7,7,0,0,0-.85,2.11c-.32,1.34-.21,2.85-1.25,3.92a3.18,3.18,0,0,1-.33.3h-2c0-.36.05-.72.07-1.08.77-1,.18-2.38.8-3.44.08-1,.15-1.93.22-2.9,1.33-3.61-.36-7.5.86-11.13.07-.2.14-.4.23-.6l2.13,1.18,0,0a10.92,10.92,0,0,1,2.39,2.5C259.91,194.22,259.81,195.82,258.68,198.23Z"/><path class="cls-28" d="M285.77,76c.69-2.46-1.4-2.84-2.8-3.75-3-1.91-6.1-3.68-6.29-7.82,3.48,1.22,6.07,3.85,9,5.91C287.69,71.77,288,74.08,285.77,76Z"/><path class="cls-29" d="M10.34,229.25c1.19-2.44,2.47-4.83,2.09-7.71a6,6,0,0,1,1.08-3.84c1.73,3.14,3.41,6.29,3.35,10.2C14.64,228.24,12.63,229.34,10.34,229.25Z"/><path class="cls-30" d="M135.85,248.21c-2,1.82-3.75,3.82-6.73,5.5C129.46,245.06,130.84,245.05,135.85,248.21Z"/><path class="cls-31" d="M301.3,122.22c-1,.87-2.27,1.44-2.83,2.75a10.58,10.58,0,0,1-3.57-4.17l5.45-1.55c1.65-.45,1.57-1.62,1.23-2.9C303.93,118.42,303.31,120.48,301.3,122.22Z"/><path class="cls-32" d="M253.34,200.73c-.35-4.18.72-8.39-.23-12.56l1.32.83c0,.26-.08.53-.1.79C254,193.44,255.33,197.24,253.34,200.73Z"/><path class="cls-4" d="M187.77,491.23l0,0h0c-1.06.84-2.09,3.14-3.17,0l3.18,0h0Z"/><path class="cls-32" d="M252.32,207.07a4.16,4.16,0,0,1,.8-3.44C253.26,204.87,253.53,206.14,252.32,207.07Z"/><path class="cls-25" d="M116.88,195.73a3.91,3.91,0,0,0-2.91.1C114.87,193.83,115.84,193.83,116.88,195.73Z"/><path class="cls-4" d="M189.86,490.2a2.18,2.18,0,0,1-2.12,1.05h0v0h0A2.13,2.13,0,0,1,189.86,490.2Z"/><path class="cls-7" d="M181.41,365.54a2.14,2.14,0,0,1-.9,2.07,1.9,1.9,0,0,1,.89-2.07Z"/><path class="cls-1" d="M200.75,47.38c.6,1.51,1.72.53,2.67.44,7-.66,11.57,4.7,10.14,11.65-1.47,7.1-5.37,13-9.56,18.61-10.74,14.45-24.91,24-42.29,28.85-13.05,3.68-26.48,5.13-39.79,7.28-7.64,1.24-15.23,2.58-23,2.13-6.65-.39-11-3.85-12.88-9.78-.77-2.44-.17-4.5.6-6.63.48-1.33,1.29-2.58.1-3.9-1.35-1.51-2.6-.28-3.79.24A21.14,21.14,0,0,1,58,90.63a23.17,23.17,0,0,1-5-19.72c1.81-10,7.81-17.65,15-24.23a203.15,203.15,0,0,1,37.79-27.63c16.56-9.29,34-15.8,53-18.08a86,86,0,0,1,11.55-1c11.52.27,22.84,1.67,32.9,7.83,5.89,3.61,11.13,8,13.39,15,1.73,5.37.84,10-3.52,13.85A44.76,44.76,0,0,1,205.27,42c-1.23.69-2.48,1.34-3.64,2.13A2.61,2.61,0,0,0,200.75,47.38Z"/><path class="cls-33" d="M221.77,67.47a16.65,16.65,0,0,0-.2,12.32c.25.65.48,1.31.73,2,.34.86.52,1.94-.35,2.35-1.22.58-1.89-.52-2.38-1.46a11.91,11.91,0,0,1-1.28-4c-.21-1.73-.62-3.44-.95-5.14.72-3.47,1.13-7,3.15-10,.41-.61,1-1.09,1.74-.7a1.28,1.28,0,0,1,.76,1.71C222.61,65.54,222.15,66.49,221.77,67.47Z"/><path class="cls-34" d="M86.85,128a1.36,1.36,0,0,1-1,1.6c-.82.24-1.31-.24-1.55-1A17.77,17.77,0,0,0,73.15,117c-.81-.3-1.58-.94-1.21-2,.26-.74,1-.83,1.73-.72C78.78,115.1,86.58,123.2,86.85,128Z"/><path class="cls-35" d="M230.23,68.78c-3.08,3-2.91,6.42-1.44,10.06a1.5,1.5,0,0,1-.37,1.89c-.92.58-1.64-.08-2.14-.8a7.84,7.84,0,0,1-1.55-5.07c0-3.47,1-6.11,3.63-8a1.5,1.5,0,0,1,1.91.07A1.13,1.13,0,0,1,230.23,68.78Z"/><path class="cls-36" d="M91.18,121.9a1.17,1.17,0,0,1-1.81,0c-2.54-2.34-5-4.71-7.54-7.1a1,1,0,0,1-.24-1.39,5.27,5.27,0,0,1,1.08-.89,6.17,6.17,0,0,1,1.1.36,25.82,25.82,0,0,1,7.44,7.1A1.47,1.47,0,0,1,91.18,121.9Z"/><path class="cls-37" d="M189.79,379.78c0-5.21,4.28-10.09,8.7-10,3.83.08,9,5.54,9,9.5,0,4.2-5.42,8.58-10.38,8.39A7.46,7.46,0,0,1,189.79,379.78Z"/><path class="cls-38" d="M204.36,443.78c-5.61,0-7.39-.93-8.09-3.79-.93-3.81.76-8.52,3.64-10.2a4.78,4.78,0,0,1,3.51-.68c2.77.59,7.08,5.21,7.56,8.08.55,3.31-.74,5.44-4,6.3A11.79,11.79,0,0,1,204.36,443.78Z"/><path class="cls-37" d="M145.18,448a11.43,11.43,0,0,1-4.9-.86c-4.9-1.77-6.58-5-5.5-10.09a12.91,12.91,0,0,1,2.84-6.07c3.1-3.53,4.24-3.77,8.58-1.67a36.73,36.73,0,0,1,4.19,2.15,10.22,10.22,0,0,1,4.44,11.41C153.85,446,150.24,448,145.18,448Z"/><path class="cls-39" d="M149.17,363.4c5.41,0,8.9,4.09,8.93,10.47,0,4-3.1,6.51-7.93,6.48-5.16,0-9.89-4.24-10-8.87S143.94,363.39,149.17,363.4Z"/><path class="cls-40" d="M330.81,298.93c1.05.14,2.15-.05,2.19,1.18,0,1.07-1,1.34-1.81,1.59-4,1.27-8.06,2.38-12,3.73-2.14.73-4.16,1.84-6.25,2.74-.83.36-1.83.52-2.28-.44s.35-1.64,1.13-2.08a63.84,63.84,0,0,1,14.16-5.56C327.59,299.63,329.3,299.28,330.81,298.93Z"/><path class="cls-41" d="M332.2,308.34a6.61,6.61,0,0,1,1.74.66,2,2,0,0,1,.58,1.33c0,.5-.2,1.2-.83,1.08-3.66-.7-6.13,2-9.17,3.09-.86.3-1.83.51-2.27-.44s.32-1.69,1.13-2.07C326.19,310.67,328.72,308.64,332.2,308.34Z"/><path class="cls-42" d="M189.87,211.29a9.14,9.14,0,0,1,.86,1.3c1.22,2.68,2.61,3.6,4.53,2.76,2.11-.92,2.14-2.5,1.19-4.35-.19-.38,0-.95,0-2,3.45,1.41,6.87,1.59,10.24,2.07,11,1.54,21.94,12.33,22.18,25.26-1.08,1.39-2.48,1.1-3.77.56-2.64-1.09-5.21-2-8.12-.82-1.22.5-2.46-.22-3.37-1.07-2.43-2.27-4.65-3.35-7.68-.6-1.43,1.3-3.51,0-4.69-1.28-2.64-2.8-3-.13-3.93,1.41-1.92,6.55-6.22,10.49-13,11.48a15.19,15.19,0,0,1-16.57-9.37c-1.46-3.55-3.37-3.84-6.15-1.16-2,1.88-4.32,3.34-6.48,0-1.27-2-2.28-.37-3.44.17-2.6,1.2-5.49,3.53-6.24-1.93-.3-2.23-3.31.6-4-1.61,1.42-8.49,6.93-13.86,14-18a24.82,24.82,0,0,1,5.29-2.29c2.18-.68,4.35-1.11,5.47-3.51.32-.7,1.28-1.15,2-1.63s1.64-.81,2.29.12c.46.64.16,1.31-.42,1.82a11.53,11.53,0,0,0-1.55,1.4c-1.08,1.4-1.48,3.11.17,4.11,1.46.88,3.38,1.28,4.27-1.18a7.92,7.92,0,0,1,1.13-1.69c3.75,0,6.91,4,11.15,1.49C186.51,212.07,188,210.69,189.87,211.29Z"/><path class="cls-43" d="M152.7,157.13c.2,3.2-1.94,4.56-4.51,4.75-7.7.54-12.56,5.44-17.27,10.68a13.87,13.87,0,0,1-1.5,1.47c-2.12,1.72-4.24,1.53-5.87-.6a4.39,4.39,0,0,1-1.08-2.36c-.06-5.91-1.13-11.9.94-17.69,1.53-4.27,4.28-7.22,9.08-7.54a12.55,12.55,0,0,0,4.43-1.53c7.76-3.66,13.85-1.19,17,6.87-3.78.55-7.57,1.29-10.42-2.41-1.26-1.65-2.55-.36-3.65.37-2.41,1.59-4.28,3.87-7.95,2.66-2-.67-3,2.15-3.76,3.8-2.11,4.47-1.31,9.23-1.27,14.72,3-1.93,4.33-4.41,6.38-6.15C138.86,159.38,144.92,155.89,152.7,157.13Z"/><path class="cls-44" d="M210.74,196.77c-7.49.07-10.17-3-9.24-10.47a16.62,16.62,0,0,1,1.63-5c3.06-6.63,7.91-8,14-4a14.9,14.9,0,0,1,4.83,5.46c3.07,5.61,1,10.75-5,13A20,20,0,0,1,210.74,196.77Z"/><path class="cls-44" d="M143.19,180.71A19.88,19.88,0,0,1,145,177.5c4.37-5.48,10.21-5.56,14.62-.17a43.79,43.79,0,0,1,2.84,4.42c.08.15.23.29.25.45,1.08,9.48-2.37,15.15-9.45,15.58-6.76.41-10.49-4.81-10.33-14.49A6.86,6.86,0,0,1,143.19,180.71Z"/><path class="cls-45" d="M213.13,157.41c-.94-1.06-1.41-2.12,0-3.2,4.49-1.17,4.73-4.59,4.4-8.31l-.1.06c3.24-1.31,6.5-.8,9.64.23,2,.67,3.84,1.48,6.06,1.08s3.53,1.08,4.78,2.64c5.11,6.4,6.56,13.77,5.78,21.72-.13,1.34-.24,2.93-2.09,3.18a5.81,5.81,0,0,1-5.63-2.14,35.34,35.34,0,0,0-14-10.78C218.91,160.58,215.61,159.82,213.13,157.41Z"/><path class="cls-46" d="M152.7,157.13c-1.54.34-3.07.75-4.62,1-8.27,1.47-14.47,5.95-19,12.93-.56.85-1.15,2-2.43,1.43a2.25,2.25,0,0,1-1.13-2.23c-.14-4.54-.78-9.1.68-13.58a13.67,13.67,0,0,1,4.24-6.51c.66-.53,1.87-1.45,2.29-.86,2.77,3.92,3.93-.21,5.69-1.05,1.26-.6,2.34-1.59,3.62-2.12,1.72-.7,3.28-.65,2.92,1.92-.26,1.91,1,2,2.24,1.93,2.35-.17,4.48.69,6.7,1.17.55.92,1,1.88-.1,2.7S152.73,155.93,152.7,157.13Z"/><path class="cls-17" d="M213.13,157.41c9.33,2.44,17.87,6.18,23.71,14.36a5.32,5.32,0,0,0,2.41,1.93c2.32,1,3.21.52,3.47-2a28.56,28.56,0,0,0-6.62-22c-1.1-1.32-2.28-3-4.13-.63-1.2,1.52-2.16,0-3.08-.57-3.55-2.19-7.28-3.42-11.49-2.55,3.14-2.48,6.73-.78,10.1-1.05,1.16-.09,2.25.84,3.58.39,3.85-1.31,6.29.7,8.43,3.62,5,6.78,6,14.51,5.18,22.56-.4,4.2-6.34,6.57-9.12,3.49-5.21-5.79-12-9.13-18.52-12.84A9.15,9.15,0,0,1,213.13,157.41Z"/><path class="cls-17" d="M197.28,234.56c-.1-1.69-.2-3.39-.31-5.3,2.78.29,4.14,2.25,5.86,3.59s3.18,1.69,3.76-1c.39-1.78,1.44-1.69,2.71-1.21a14.6,14.6,0,0,1,5.14,3.5c.85.86,1.91,1.94,3.06.6,1.89-2.2,3.69-1,5.6-.16s3.37,2.67,5.74,1.75c-.56,1.54-2.17,2.57-3.22,2-4.08-2.26-8.55,3.75-12.62-1.06-2.36-2.79-2.86-2.36-5.56.3-2.48,2.45-3.37,2.53-6.19.34C199.88,236.87,198.6,235.69,197.28,234.56Z"/><path class="cls-47" d="M254.25,208.15l.18-5c.22-.43.45-.86.68-1.29,2.56-3.62,5-7.27,1.45-11.66-.09-.7-.19-1.4-.29-2.11a5.93,5.93,0,0,1,0-4.21c.91-3.84,2.9-6.82,6.87-7.91,2.41-.65,5-1,5.82,2.38-9.44.91-11.17,3.51-8.63,13.17.89,3.39,1,6.62-1.34,9.49-2.54,3.08-1,6.83-1.74,10.19l-1.57-.07C255.2,210.13,254.73,209.14,254.25,208.15Z"/><path class="cls-48" d="M111.8,195.45c-.13,1.35-.27,2.7-.4,4.05l-1.49.07c-1.15-1.27-1.55-3-2.77-4.24-3.12-3.07-4.52-6.44-2.56-10.74a5.71,5.71,0,0,0-.2-4.1c-.72-2.27-1.13-5.08-4.54-2.38-.45.36-1.34-.12-1.85-.66-1.31-2.27-1.29-4.33,1.11-5.84,1.93-1.23,4.7-.6,6.54,1.48,2.71,3.06,3.32,6.77,3.11,10.71a19.71,19.71,0,0,0,2.59,10.71C111.52,194.81,111.65,195.14,111.8,195.45Z"/><path class="cls-49" d="M141.4,232.17c2.09,1.06,3.38-1.39,5.31-1.33.53,1.88-1.06,3.87.6,5.71,3.13-.42,4.74-3.35,7.36-4.59.29.14.79.21.84.41,1.49,5.25,1.48,5.25,5.68,1.72.4-.34.78-.71,1.19-1,1.24-1,2.51-2.22,4.2-1.57,2,.76,1,2.7,1.21,4.13a4.66,4.66,0,0,1-.06,1c-1.95-1.34-3.69-.57-5.28.64-2.81,2.12-5.57,3.76-8.93.92a3.06,3.06,0,0,0-2.5-.43C145.59,239.62,143.66,235.64,141.4,232.17Z"/><path class="cls-17" d="M193.06,248.29c2.5,1.37,2.68,3.17.69,5-3.3,3.11-6.95,5.15-11.82,3.81-2.34-.65-4.82-.79-7.12-1.66a11,11,0,0,1-5.07-3.63c-1.14-1.52-1.74-3.11.2-4.54C177.36,254.45,185.12,253.45,193.06,248.29Z"/><path class="cls-50" d="M143.19,180.71c.13,3.64-.2,7.3,1.77,10.68,2.33,4,5.84,5.87,10,5a9.78,9.78,0,0,0,7.52-8.39,56.85,56.85,0,0,0,0-6.26c3.53,9-1.14,17.07-10.37,17.89-3.24.29-7.24-1.91-8.43-5.17C142,190,141.41,185.35,143.19,180.71Z"/><path class="cls-51" d="M98,177.45c1.34.2,3,.76,2.71-1.6-.07-.71-.39-1.41.44-1.74a1.88,1.88,0,0,1,2.24.88,12,12,0,0,1,2.54,9.75,10.19,10.19,0,0,1-.72,2.51c-1,2.18-.83,4,1.17,5.51,2.27,1.7,2.73,4.35,3.54,6.81-3.66-2.23-5.34-6.1-7.72-9.38a4.63,4.63,0,0,1,.1-1.55c1.87-4.16,1-7.32-3.16-9.5C98.6,178.86,98.36,178,98,177.45Z"/><path class="cls-52" d="M193.06,248.29c-6.36,8.12-17.28,6.59-22.46.93a5.32,5.32,0,0,1-.66-1.92c1.48-1,2.54-.16,3.69.74,4.76,3.76,9.66,4.25,14.83.67C189.77,247.79,191.35,246.43,193.06,248.29Z"/><path class="cls-53" d="M181.66,197.5c3.32-.09,6,.53,8.28,2.3a1.68,1.68,0,0,1,.5,1.33c-.1.82-.82,1.07-1.55,1a5.37,5.37,0,0,1-1.48-.45,13.47,13.47,0,0,0-11.1.21c-.93.42-2,1.16-2.75-.07-.88-1.54.52-2.16,1.56-2.71A11.52,11.52,0,0,1,181.66,197.5Z"/><path class="cls-54" d="M189.87,211.29a2.58,2.58,0,0,0-.48.21c-6.93,4.82-8.77,4.8-15.36-.15.93-1.82,2.34-2.81,4.17-1.45,2.7,2,5.52,1.68,8.41.88C187.84,210.44,189,210,189.87,211.29Z"/><path class="cls-55" d="M217.5,145.9a9,9,0,0,0,.17,1.56c.5,1.79,3.37,2.91,2.27,4.89-.9,1.63-3.51,1.07-5.27,1.76a5.07,5.07,0,0,1-1.57.1Z"/><path class="cls-56" d="M141.15,172.57c.29.18.86.34,1.06.71s.27,1.18,0,1.41c-1.67,1.6-3,3.27-2.79,5.81,0,.43-.51.89-1.12.84a1.32,1.32,0,0,1-1.22-.79C135.77,177.73,138,173,141.15,172.57Z"/><path class="cls-57" d="M226.85,177.32a1,1,0,0,1-.81,1.14c-.45.06-1.19-.05-1.38-.35a21.29,21.29,0,0,0-4.09-4.64,1.58,1.58,0,0,1,0-1.44,1.61,1.61,0,0,1,1.27-.63C224.18,171.62,227,175,226.85,177.32Z"/><path class="cls-27" d="M256.27,183.86v4.22A2.84,2.84,0,0,1,256.27,183.86Z"/><path class="cls-32" d="M255.11,201.84l-.68,1.29Z"/><path class="cls-4" d="M147.56,31.81c-4.6,0-8.83-2-13.43-2.34-10.34-.81-17,4.14-21.79,12.6-.86,1.51-1.3,3.28-2.67,4.49-7.92,15.29-17.82,29.35-27.14,43.77-1.38,2.13-3.62,3.28-5.64,4.66-10.65,1.84-19.62-6.48-21-15a27,27,0,0,1,3.34-18.31,58.42,58.42,0,0,1,13-15.15A252.73,252.73,0,0,1,100,25.79C116.4,15.49,133.89,7.91,153,4.59c12.3-2.14,24.79-2.67,37.06.77,8.61,2.42,16.33,6.29,21.72,13.87,1.6,2.24,2.73,4.49,2.44,7.29-1.08,3.62-3.85,5.3-7.24,6.13A43.65,43.65,0,0,1,196,34.28c-8.92-.17-17.84.24-26.74.27C162.12,34.58,154.61,34.16,147.56,31.81Z"/><path class="cls-4" d="M96.87,82.41a98.42,98.42,0,0,0,12.78-25.87c1.75-5.7,3.65-11.4,7.3-16.26,4.82-6.42,10.81-9.46,19.15-7.8,6.21,1.24,12.15,3.39,18.36,4.56,7.85,1.49,15.74,1,23.63,1h8.35c-5.39,8.69-12.51,14.18-20.43,18.81-8.83,5.17-18.31,8.81-28,12C124.54,73.39,111,77.63,98,83.6,97,83.82,96.61,83.43,96.87,82.41Z"/><path class="cls-58" d="M198.29,50.53c.2,2.9-1.93,3.7-3.78,4.64C186.82,59,179.16,63,171.37,66.69A498.36,498.36,0,0,1,98.45,94.31c-1.69.49-3.39.94-5,1.51s-3.1.22-4-1.48c-1-1.88.6-2.52,1.71-3.23a110.31,110.31,0,0,1,22.8-10.91c11.28-4,22.67-7.6,33.89-11.73,11.44-4.2,22.24-9.67,31.57-17.75A56.35,56.35,0,0,0,188.26,41c1.21-1.68,2.32-1.74,4-.79C196.26,42.56,197.76,46.34,198.29,50.53Z"/><path class="cls-59" d="M115.91,109c-.85,0-2.08,0-3.31,0-.73,0-1.43-.31-1.42-1.18a1.47,1.47,0,0,1,1.35-1.38,31.71,31.71,0,0,1,3.65-.5c29.27-2.37,54.59-13.82,76.43-33.27A31.49,31.49,0,0,1,195.86,70c.26-.19,1,.09,1.37.36a1,1,0,0,1,.25,1.4A26.37,26.37,0,0,1,195,74.44a131.49,131.49,0,0,1-63.61,32.35A104.49,104.49,0,0,1,115.91,109Z"/><path class="cls-15" d="M76.89,95c7.92-8.51,13-18.93,19.52-28.42,4.51-6.61,8.07-13.85,13.26-20A94.55,94.55,0,0,1,92.3,83.35c-1.38,1.8-2.83,3.56-4.27,5.32A16.5,16.5,0,0,1,76.89,95Z"/><path class="cls-60" d="M147.56,31.81c6.7,1,13.52.63,20.23,1.78a21.74,21.74,0,0,0,8.35.08c5-1.16,10.09-1,15.12-.8,4.76.14,9.38-.72,14-1.29,3.56-.43,6.46-2.43,8.89-5.06.92,4.33-1.78,6.88-4.66,9.28a33.91,33.91,0,0,1-3.11,2c-4.28,2.84-7.92,4.7-13,.24-5.49-4.79-13.15-3.76-19.78-2.73-5.94.93-11.46-.43-17.12-.89C153.5,34.12,150.13,34,147.56,31.81Z"/><path class="cls-61" d="M96.87,82.41,98,83.6c-.68.86-1.44,2.49-2.56,1.32S96,83,96.87,82.41Z"/><path class="cls-62" d="M197.2,384.38c-2.45-.12-5-2.44-5-4.59,0-2.69,3.82-7,6.2-7,2.57.05,6.1,3.89,5.94,6.46S200.25,384.53,197.2,384.38Z"/><path class="cls-63" d="M203.37,440.77c-3.2,0-4.75-1.23-4.63-3.67s2.26-5.06,3.91-4.89c2.15.22,5.37,3.92,5.2,6C207.7,439.93,206.26,440.77,203.37,440.77Z"/><path class="cls-64" d="M145.46,444.75c-2.22.13-4.06-1-6-1.84-2.11-1-2.51-2.72-2.11-4.83,1.16-6.2,4.65-7.91,10.24-5a7.86,7.86,0,0,1,1.75,1.14c2,1.84,3.8,3.82,3,6.79C151.83,443.33,148.85,444.79,145.46,444.75Z"/><path class="cls-64" d="M149.24,366.11c2.73.09,5.73,3.76,5.77,7.07,0,2.45-2.13,4.11-5.16,3.95-3.73-.21-6.66-3-6.48-6.27C143.53,368,146,366,149.24,366.11Z"/><path class="cls-65" d="M225.69,232.69c-3.33-1.91-5.72-3.06-8.41-1.75-1.15.57-1.95-.12-2.86-.67-3.6-2.16-7.13-4.66-11.65-2.26-.86.45-1.63-.44-2.39-.83-1.09-.56-2.13-1.26-3.27-1.71-3.67-1.45-4.56-.94-5.84,3.43a9.86,9.86,0,0,1-6.52-8.08c-.53-3.39,1.56-4.91,4.75-3.74,1,.37,1.89,1,2.89,1.26,2.66.73,5.26,0,6.47-2.29,1.54-2.94,3.77-2.87,6.22-2.39C215.24,215.66,222.18,221.37,225.69,232.69Z"/><path class="cls-65" d="M159,232.13c-1-4.88-1.48-5-7.53-2-1-3.54-1-3.54-4.93-3.6a26.34,26.34,0,0,1,15.42-12,3.12,3.12,0,0,1,3.74,1c2.06,2.59,4.9,2.63,7.67,1.6a7.22,7.22,0,0,1,5.06.2c3.59,1.13,4.33,2.3,2.71,5.41-2.11,4-6.09,5.62-10.06,7.12a1.22,1.22,0,0,1-1-.1C165.81,226.61,162.52,228.94,159,232.13Z"/><path class="cls-66" d="M183.31,243.14c-3.49.13-5.76-.14-7.73-1.47-1.07-.72-2.83-1.4-1.59-3.2,1.07-1.56,2.68-2.34,4.57-1.45.55.26.85,1.06,1.29,1.59.83,1,1.71,1.17,2.59.07a3.14,3.14,0,0,1,2.71-1.38,3.65,3.65,0,0,1,3.29,3c.44,2-1.45,2.11-2.65,2.5A9.08,9.08,0,0,1,183.31,243.14Z"/><path class="cls-67" d="M219.79,191c-3.31-5.74-6.28-10.29-13.24-9.38,1-2.74,2.28-3.9,4.47-3.75C216.27,178.21,220.8,184.23,219.79,191Z"/><path class="cls-68" d="M211.87,192.25a1.77,1.77,0,0,1-2.22,1.68c-1.09-.1-2.75.21-2.78-1.49,0-1.36,1.25-2.08,2.51-2.18A2.21,2.21,0,0,1,211.87,192.25Z"/><path class="cls-69" d="M156.9,181c-5.59-.35-6.78.41-9.37,6-.31.51-.65.54-1,.07a12.89,12.89,0,0,1-.8-3,7.67,7.67,0,0,1,5.22-7.52c3.78-1.08,5.75,1.19,7.32,4.11A1.13,1.13,0,0,1,156.9,181Z"/><path class="cls-70" d="M156.69,191.87a2.2,2.2,0,0,1-2.31,1.66,1.53,1.53,0,0,1-1.81-1.4,1.65,1.65,0,0,1,1.79-2A2.47,2.47,0,0,1,156.69,191.87Z"/><path class="cls-71" d="M156.9,181l1.35-.27c.47.24.77.63.17.93S157.24,181.57,156.9,181Z"/><path class="cls-72" d="M146.51,187.05c.34,0,.68,0,1-.07.16.64.13,1.56-.42,1.6S146.41,187.7,146.51,187.05Z"/><path class="cls-73" d="M239.62,169.55c-5.28-6.21-11.93-10-20-13.37,3.52-1.45,4.71-3.61,3.37-6.7,2.55.05,4,1.35,5.57,2.42s2.86,3.42,5.27,1c.7-.71,1.47.52,1.92,1.23A22.64,22.64,0,0,1,239.62,169.55Z"/><path class="cls-74" d="M149.72,154c-4.09,2.17-8.18,2.52-11.61,4.56a43.72,43.72,0,0,0-9.37,7.72c-1.08-4.92-.61-7.52,2-12.18,1.61-.13,1.87,2.87,3.54,2,1.18-.58,2-1.88,3-2.84.75-.73,1.5-1.47,2.3-2.15,1.1-.92,2.06-1.41,2.37.71.21,1.38,1.38,1.32,2.47,1.3C145.93,153.14,147.52,152.57,149.72,154Z"/><path class="cls-75" d="M132.09,49.67c-2.92-1.08-5.79-1.46-5.14-4.85.34-1.77,3.2-3.68,4.8-3.44,2.12.31,2.75,2.06,2.34,6.51.75.84,1.57.42,2.38.12s1.79-.35,2.26.6-.28,1.63-1.07,2c-2.8,1.38-.83,3,0,4.24,1.2,1.88,4.1,2.55,5.54,1.62s2.23-4.06.76-5.08c-2.51-1.76-1.8-3.34-.77-5.3.88-1.67,1.75-3.11,4-1.83s2.53,2,.91,4.52c-.89,1.36-.46,2.7-.51,4-.11,3.24-1,5.95-4.48,6.88A2.43,2.43,0,0,0,141,62.25c0,.32-1,.92-1.07.86-2.92-2.64-4.06.76-5.86,1.72-2.14,1.14-4,.58-6-.48-1.39-.76-2.74-2.49-4.38-.24-.27.38-1,.18-1.38-.21-1.19-1.1-1.4-5.43-.31-6.4s5.24-1,6-.25a1.24,1.24,0,0,1,.25,1.43c-1.39,3.44,1.61,3.28,3.33,3.63s4.24-2.91,3.57-4.87c-.55-1.61-.64-4.79-4-2.88a1.31,1.31,0,0,1-1.8-.57c-.46-.74,0-1.34.43-1.87S131,50.86,132.09,49.67Z"/><path class="cls-76" d="M131.4,45a4.71,4.71,0,0,1-.57.81c-.34.33-.73.24-.78-.22a1.22,1.22,0,0,1,.45-.83C130.82,44.49,131.17,44.63,131.4,45Z"/></svg>