<svg id="Layer_1" data-name="Layer 1" xmlns="http://www.w3.org/2000/svg" viewBox="0 0 412.79 447.03"><defs><style>.cls-1{fill:#575656;}.cls-2{fill:#a4a4a4;}.cls-3{fill:#ead5c7;}.cls-4{fill:#335fa3;}.cls-5{fill:#dadada;}.cls-6{fill:#dbc0b1;}.cls-7{fill:#dac0b1;}.cls-8{fill:#3660a0;}.cls-9{fill:#e6d1c3;}.cls-10{fill:#d3baad;}.cls-11{fill:#d6bcae;}.cls-12{fill:#d0bbaf;}.cls-13{fill:#c5b0a5;}.cls-14{fill:#585757;}.cls-15{fill:#dbc0b2;}.cls-16{fill:#595858;}.cls-17{fill:#5a5959;}.cls-18{fill:#5b5a59;}.cls-19{fill:#5f5d5c;}.cls-20{fill:#5e5c5c;}.cls-21{fill:#d8bfb0;}.cls-22{fill:#d9c0b1;}.cls-23{fill:#d7beb0;}.cls-24{fill:#605e5d;}.cls-25{fill:#636160;}.cls-26{fill:#d9bfb1;}.cls-27{fill:#d4bcae;}.cls-28{fill:#625f5f;}.cls-29{fill:#666362;}.cls-30{fill:#d9d9d9;}.cls-31{fill:#d781a3;}.cls-32{fill:#eee;}.cls-33{fill:#ececec;}.cls-34{fill:#f5f5f5;}.cls-35{fill:#e2e2e2;}.cls-36{fill:#bcbbbb;}.cls-37{fill:#c5c5c5;}.cls-38{fill:#d7d7d6;}.cls-39{fill:#d4d4d4;}.cls-40{fill:#ead539;}.cls-41{fill:#d6d6d6;}.cls-42{fill:#224a7d;}.cls-43{fill:#224b7d;}.cls-44{fill:#546481;}.cls-45{fill:#e4d13d;}.cls-46{fill:#788988;}</style></defs><path class="cls-1" d="M411.09,226.18c-2.67-4.52-6.67-7.68-11-10.63-4.74-3.2-10.18-5.52-15.05-11.06,5.22-.31,9.44-.5,13.65-.8,2.44-.17,4.93-.58,5.67-3.43.63-2.42-1.24-3.82-2.8-5.07a69,69,0,0,0-28.48-13.75c-11.45-2.6-23.08-3.84-34.17,1.7-3.26,1.61-5,0-7.08-2-17.42-16.58-37.77-28.52-60.16-36.81-30-11.1-60.83-15.39-92.86-11a179.34,179.34,0,0,0-58.59,18.06c-12,6.17-22.92,13.85-31.62,24.29a15.33,15.33,0,0,1-9.42,5.57c-13.44,2.58-26.84,5.35-40.24,8-6.4,1.27-12.8,2.54-18.55,5.79-5.56,3.16-5.56,3.94-.1,8.25.72.59,1.35,1.27,2.5,2.36-7.59,3.92-15.18,7.18-19.35,14.89A40.52,40.52,0,0,0,.18,228c-.5,1.56.08,3.39,1.23,3.43,7.65.31,4.12,4.21,2.67,7.61a42.7,42.7,0,0,0-1.95,5.85c-1.26,5,0,6.82,4.84,5.61a59.15,59.15,0,0,1,16.33-1.4c3.84.1,6.3.94,6.82,5.62,1.19,10.69,5.41,20.48,10.32,30A181.8,181.8,0,0,1,54.68,319.9C58,331.9,61.16,334,74.24,335c2.23.16,3.05.94,3.46,2.73,3.59,15.55,14.16,25.24,27,33.47a41.71,41.71,0,0,1,15,16.49,88.85,88.85,0,0,1,7.59,10.87,15.26,15.26,0,0,1,.85,1.35c4.93,9,10.7,17.52,18.31,24.64a17.31,17.31,0,0,1,1.69,1.85,26,26,0,0,1,2.1,2,4.19,4.19,0,0,1,.9,1.45,4.85,4.85,0,0,1,.4.28,49.54,49.54,0,0,0,7.72,5.38l-.15-.36a105.91,105.91,0,0,0,21.62,8.71l.12,0c.88.24,1.76.46,2.64.67l1.57.37.53.11a91.15,91.15,0,0,0,17.31,2l1.58,0h1.35l1.71,0A77.69,77.69,0,0,0,218,445.92a4.53,4.53,0,0,1,1-.05c12.42-2,24.61-6.39,36.71-12.59.77-.51,1.53-1,2.26-1.61a20.59,20.59,0,0,1,4.14-2.79c1.57-.73,3.64-.92,5-2.07a4.21,4.21,0,0,1,1.6-.87l.06,0v0a4.61,4.61,0,0,1,.89-.11,4.06,4.06,0,0,1,1.51-1.8c2.48-1.66,4.36-4,6.72-5.84s5.06-3.51,7.44-5.5c4.29-4.46,8.8-8.7,13.45-12.78l.06,0q2.25-2,4.54-3.9a4.3,4.3,0,0,1,.65-.43,55.61,55.61,0,0,0,5.66-8.4,6.77,6.77,0,0,1,2.45-4c.14-.21.28-.43.43-.64,2.11-3.06,4.61-5.81,6.67-8.91l-.18-.11c3.9-7.9,7.8-15.83,11.53-23.4,2-1.76,3.57-.37,5.11,0,9.09,2.2,17.14-.88,22-8.76a74.89,74.89,0,0,0,9.95-25.77c2.39-13,7.43-24.84,14.14-36.18,3.84-6.45,7.21-13.26,6.78-21.22-.09-1.85-.35-5,2.68-4.23,5.65,1.5,5.52-1.83,5.58-5.52a42.33,42.33,0,0,0-1.78-14.3c3.84-2.55,7.41-1,11-.1,2.09.51,4.23.55,5.74-1.2C413.82,230.45,412.28,228.19,411.09,226.18ZM21.31,243.68c-3.45-1-7.39-.16-12.27-.16.82-5.46,3.55-9,5.73-12.81,3.14-5.44,3.1-5.46-3.29-6.42a12.92,12.92,0,0,1-2-.37c-.24-.06-.37-.43-.76-.88,2.59-5.17,7.27-7.84,12.42-9.89,1.89-.78,4-1.13,5.81-2,5.21-2.47,5.64-4.68,1.84-9.2-.86-1-2.3-1.54-1.8-3.88,17.52-5.87,36.28-7,55.67-11.59-3.55,20.44-7.82,39.23-14.16,57.95-4.12-2.65-4.94-7-7.47-10.18-9.3-11.49-22.74-10.46-28.63,2.94C29.93,242.82,27.78,245.51,21.31,243.68ZM383.1,261.14a45.69,45.69,0,0,1-3.74,10.61c-3.57,7-7.57,13.83-11.39,20.71a140,140,0,0,1-6.05,20.85c-.64,7.92-3.35,15.22-7,22.16-2,3.9-4.51,7.66-9.32,8.78-9,2.43-12.14.11-10.15-7.75,1.66-6.53,3.77-12.95,5.68-19.42,0-.71.1-1.41.14-2.11-.26-2.42-.18-4.76,1.56-6.71.15-1.89.29-3.76.43-5.66-.69-8.15,1.4-16.36-.45-24.49-5.48.5-3.79,4.81-3.92,7.86a176.13,176.13,0,0,1-10.32,53.2c-13.83,37.67-37.12,67.71-72.23,87.78C233.48,440,209,444.81,183.1,438.57c-18.1-4.35-32.28-14.69-42.71-30-4.8-7.06-9.15-14.47-13.7-21.72-5.73-9.13-12.77-17-22.12-22.53-15.29-9-21.88-22.78-23.4-39.89-.94-10.55-2.69-21-4.08-31.54a7.57,7.57,0,0,0-5.67.2,2.14,2.14,0,0,1-.24,1.38c2.83,8.86,3.86,18,4.14,27.23.27,8.5-1.6,9.46-10.4,5.73-2.83-1.69-4.11-4.54-4.74-7.49-2.75-13.32-8.76-25.39-14-37.78a65.4,65.4,0,0,1-10.73-29.59,22.18,22.18,0,0,1,3.18-14.78c4.11-6.26,10-7.14,15.74-2.19,5.4,4.71,7.74,11.16,9.73,17.81.53,1.82.22,4.66,2.87,4.86,3,.21,3.53-2.67,4.39-4.88,7.57-19.58,12-40,16-60.54a35.35,35.35,0,0,1,10-18.65c16.54-16.65,37.06-26,59.37-31.2,58.07-13.5,111.65-3.44,159.86,32.33,2.75,2.05,5.21,4.49,7.94,6.56,4.53,3.43,6.83,6.88,3.43,12.81-3,5.19-.76,10.87,1.45,15.88,6.2,14,10.39,28.26,9.87,43.75-.2,5.42,2.22,6.59,7.14,4.06,5.22-2.71,9.22-7.06,13.53-11,7.06-6.42,11.31-7.49,16.37-4.37S384.66,254.21,383.1,261.14ZM395,226.2c-2.59-.11-5.2-3.12-7.66-.6s.47,5,1.19,7.43a67.14,67.14,0,0,1,2.1,6.83c.39,2.1,2.19,4.87-1.13,6.2-2.51,1-3.66-1.27-4.78-2.89a15.47,15.47,0,0,0-12.95-7.08c-5.48-.19-9.87,2.17-13.94,5.54-3.61,3-6.42,7-10.79,9.17-3.1-1.62-1.77-4.31-2-6.44-1.25-10.22-2.92-20.3-7.78-29.57a44.71,44.71,0,0,1-2.09-4.68c-5.56-14.12-.8-22.49,14.36-24.65,13.34-1.91,32.79,1.65,44.94,12.19-4.78,2.88-9.31.6-13.71.37s-5.78,1.81-3.85,5.65c3.09,6.13,8.78,9.39,14.34,12.82,4.76,2.94,10,5.34,13.58,10.59C400.74,228.43,398,226.32,395,226.2Z"/><path class="cls-1" d="M383.1,261.14a45.69,45.69,0,0,1-3.74,10.61c-3.57,7-7.57,13.83-11.39,20.71a140,140,0,0,1-6.05,20.85c-.64,7.92-3.35,15.22-7,22.16-2,3.9-4.51,7.66-9.32,8.78-9,2.43-12.14.11-10.15-7.75,1.66-6.53,3.77-12.95,5.68-19.42,0-.71.1-1.41.14-2.11-.26-2.42-.18-4.76,1.56-6.71.15-1.89.29-3.76.43-5.66-.69-8.15,1.4-16.36-.45-24.49-5.48.5-3.79,4.81-3.92,7.86a176.26,176.26,0,0,1-10.32,53.21c-13.83,37.66-37.12,67.7-72.23,87.77C233.48,440,209,444.81,183.1,438.57c-18.1-4.35-32.28-14.69-42.71-30-4.8-7.06-9.15-14.47-13.7-21.72-5.73-9.13-12.77-17-22.12-22.53-15.29-9-21.88-22.78-23.4-39.89-.94-10.55-2.69-21-4.08-31.54a7.57,7.57,0,0,0-5.67.2,2.14,2.14,0,0,1-.24,1.38c2.83,8.86,3.86,18,4.14,27.23.27,8.5-1.6,9.46-10.4,5.73-2.83-1.69-4.11-4.54-4.74-7.49-2.75-13.32-8.76-25.39-14-37.78a65.4,65.4,0,0,1-10.73-29.59,22.18,22.18,0,0,1,3.18-14.78c4.11-6.26,10-7.14,15.74-2.19,5.4,4.71,7.74,11.16,9.73,17.81.53,1.82.22,4.66,2.87,4.86,3,.21,3.53-2.67,4.39-4.88,7.57-19.58,12-40,16-60.54a35.35,35.35,0,0,1,10-18.65c16.54-16.65,37.06-26,59.37-31.2,58.07-13.5,111.65-3.44,159.86,32.33,2.75,2.05,5.21,4.49,7.94,6.56,4.53,3.43,6.83,6.88,3.43,12.81-3,5.19-.76,10.87,1.45,15.88,6.2,14,10.39,28.26,9.87,43.75-.2,5.42,2.22,6.59,7.14,4.06,5.22-2.71,9.22-7.06,13.53-11,7.06-6.42,11.31-7.49,16.37-4.37S384.67,254.21,383.1,261.14Z"/><path class="cls-1" d="M82.69,186.47c-3.55,20.44-7.82,39.23-14.16,57.95-4.12-2.65-4.94-7-7.47-10.18-9.3-11.49-22.74-10.46-28.63,2.94-2.5,5.64-4.65,8.33-11.12,6.5-3.45-1-7.39-.16-12.27-.16.82-5.46,3.55-9,5.73-12.81,3.14-5.44,3.1-5.46-3.29-6.42a12.92,12.92,0,0,1-2-.37c-.24-.06-.37-.43-.76-.88,2.59-5.17,7.27-7.84,12.42-9.89,1.89-.78,4-1.13,5.81-2,5.21-2.47,5.64-4.68,1.84-9.2-.86-1-2.3-1.54-1.8-3.88C44.54,192.19,63.3,191,82.69,186.47Z"/><path class="cls-1" d="M128.62,401.15a3.6,3.6,0,0,1,1,1.88c1.08,4.84,4.94,8.86,8.06,12.53,2,2.31,3.83,4.73,6,6.88,1.41,1.4,3,2.62,4.48,3.92a17.31,17.31,0,0,0-1.69-1.85c-7.61-7.12-13.38-15.62-18.31-24.64a15.26,15.26,0,0,0-.85-1.35c.28.46.57.92.84,1.39A4,4,0,0,1,128.62,401.15Z"/><path class="cls-1" d="M180.64,443.76l.11,0a105.91,105.91,0,0,1-21.62-8.71l.15.36A93,93,0,0,0,180.64,443.76Z"/><path class="cls-1" d="M220.61,445.78c8.74-.85,17.69-4.63,25.78-7.9a54.4,54.4,0,0,0,9.38-4.6c-12.1,6.2-24.29,10.62-36.71,12.59a4,4,0,0,1,.62.1A4.51,4.51,0,0,1,220.61,445.78Z"/><path class="cls-1" d="M299.57,399.34a18.69,18.69,0,0,0,4.49-3.82,4.3,4.3,0,0,0-.65.43q-2.3,1.94-4.54,3.9A4.86,4.86,0,0,1,299.57,399.34Z"/><path class="cls-1" d="M298.05,400.93a3.71,3.71,0,0,1,.76-1c-4.65,4.08-9.16,8.32-13.45,12.78.36-.3.71-.61,1.06-.94C290.36,408.1,293.79,404.13,298.05,400.93Z"/><path class="cls-1" d="M312.17,383.14a6.77,6.77,0,0,0-2.45,4C310.52,385.76,311.33,384.41,312.17,383.14Z"/><path class="cls-1" d="M404.76,227.08c-4,1.35-6.79-.76-9.8-.88-2.59-.11-5.2-3.12-7.66-.6s.47,5,1.19,7.43a67.14,67.14,0,0,1,2.1,6.83c.39,2.1,2.19,4.87-1.13,6.2-2.51,1-3.66-1.27-4.78-2.89a15.47,15.47,0,0,0-12.95-7.08c-5.48-.19-9.87,2.17-13.94,5.54-3.61,3-6.42,7-10.79,9.17-3.1-1.62-1.77-4.31-2-6.44-1.25-10.22-2.92-20.3-7.78-29.57a44.71,44.71,0,0,1-2.09-4.68c-5.56-14.12-.8-22.49,14.36-24.65,13.34-1.91,32.79,1.65,44.94,12.19-4.78,2.88-9.31.6-13.71.37s-5.78,1.81-3.85,5.65c3.09,6.13,8.78,9.39,14.34,12.82C395.94,219.43,401.22,221.83,404.76,227.08Z"/><path class="cls-1" d="M320.69,128.14c-.15,3.17,2.63,2.33,4.39,2.94,12.91,4.45,16.75,17.68,8.61,28.87-8.34,11.42-20,18.71-32,25.33-30.73,17-63.57,22.45-98.37,17.1-26.15-4-51.17-12.25-76.54-19.18-14.56-4-29.12-7.7-42.57-14.78-11.5-6.06-16.48-15.74-15-27.76.6-4.95,3.33-8.13,6.41-11.29,1.93-2,4.37-3.54,3.33-6.84-1.18-3.77-4.4-2.6-6.93-2.64a41.22,41.22,0,0,1-39.66-30.1c-3.78-14.13-1.18-27.11,7.07-39,11.3-16.35,28.11-25,46.15-30.94A396,396,0,0,1,175,1.24c36.9-3.13,73.18-.6,108.69,10.65,7.21,2.28,14.42,4.37,21.29,7.6,20.24,9.78,39.21,21.4,52.1,40.45,7.55,11.17,13.28,23.26,11.66,37.48-1.26,10.93-6.57,18.42-17.43,21.75-6,1.83-12.07,2.44-18.21,3-2.74.23-5.48.37-8.18.84S320.84,125.55,320.69,128.14Z"/><path class="cls-2" d="M320.69,128.14c-.15,3.17,2.63,2.33,4.39,2.94,12.91,4.45,16.75,17.68,8.61,28.87-8.34,11.42-20,18.71-32,25.33-30.73,17-63.57,22.45-98.37,17.1-26.15-4-51.17-12.25-76.54-19.18-14.56-4-29.12-7.7-42.57-14.78-11.5-6.06-16.48-15.74-15-27.76.6-4.95,3.33-8.13,6.41-11.29,1.93-2,4.37-3.54,3.33-6.84-1.18-3.77-4.4-2.6-6.93-2.64a41.22,41.22,0,0,1-39.66-30.1c-3.78-14.13-1.18-27.11,7.07-39,11.3-16.35,28.11-25,46.15-30.94A396,396,0,0,1,175,1.24c36.9-3.13,73.18-.6,108.69,10.65,7.21,2.28,14.42,4.37,21.29,7.6,20.24,9.78,39.21,21.4,52.1,40.45,7.55,11.17,13.28,23.26,11.66,37.48-1.26,10.93-6.57,18.42-17.43,21.75-6,1.83-12.07,2.44-18.21,3-2.74.23-5.48.37-8.18.84S320.84,125.55,320.69,128.14Z"/><path class="cls-3" d="M383.1,261.14a45.69,45.69,0,0,1-3.74,10.61c-3.57,7-7.57,13.83-11.39,20.71-.16-.12-.29-.25-.43-.37-6.48-5.68-7.86-17.22-2.77-24.48,1.74-2.48,4.39-4.27,5.62-7.14-.1-.41-.22-.78-.33-1.13a7.74,7.74,0,0,0-.65-1.38c-2-3.28-5.4-1.68-8.52-.18-4.86,2.34-7.47,6.83-9.64,11.55a10.84,10.84,0,0,0-.66,8.64,5.76,5.76,0,0,1-.66,3.84l-.33.25,0,0c-1.64,1.12-3,.24-4.39-.82h0l-.24-.36c-.64-1-1.05-2.14-2.12-2.78-5.48.5-3.79,4.81-3.92,7.86a176.26,176.26,0,0,1-10.32,53.21c-13.83,37.66-37.12,67.7-72.23,87.77C233.48,440,209,444.81,183.1,438.57c-18.1-4.35-32.28-14.69-42.71-30-4.8-7.06-9.15-14.47-13.7-21.72-5.73-9.13-12.77-17-22.12-22.53-15.29-9-21.88-22.78-23.4-39.89-.94-10.55-2.69-21-4.08-31.54-2-2.2-3.88-2.48-5.67.2a2.14,2.14,0,0,1-.24,1.38A3.93,3.93,0,0,1,67,294a6,6,0,0,1-.82-.58c-.18-.12-.33-.26-.49-.37-6.46-6.28-9.26-13.46-7.7-22.82,1.17-7,.35-14.3-5.27-19.9-2.42-2.44-5.29-3.14-8.33-1.62-3.78,1.89-2.77,4.86-1.29,7.76.34.36.65.69.94,1,.16.17.31.35.45.51,6,6.55,8.5,9.79,8.35,13.69v0a15.26,15.26,0,0,1-1.43,5.4l0,0c-.6,1.46-1.38,3.1-2.34,5a.46.46,0,0,1-.13.08.84.84,0,0,1-.24.16,2.1,2.1,0,0,1-2.53-.28,65.4,65.4,0,0,1-10.73-29.59,22.18,22.18,0,0,1,3.18-14.78c4.11-6.26,10-7.14,15.74-2.19,5.4,4.71,7.74,11.16,9.73,17.81.53,1.82.22,4.66,2.87,4.86,3,.21,3.53-2.67,4.39-4.88,7.57-19.58,12-40,16-60.54a35.35,35.35,0,0,1,10-18.65c16.54-16.65,37.06-26,59.37-31.2,58.07-13.5,111.65-3.44,159.86,32.33,2.75,2.05,5.21,4.49,7.94,6.56,4.53,3.43,6.83,6.88,3.43,12.81-3,5.19-.76,10.87,1.45,15.88,6.2,14,10.39,28.26,9.87,43.75-.2,5.42,2.22,6.59,7.14,4.06,5.22-2.71,9.22-7.06,13.53-11,7.06-6.42,11.31-7.49,16.37-4.37S384.67,254.21,383.1,261.14Z"/><path class="cls-4" d="M128.62,401.15a3.6,3.6,0,0,1,1,1.88c1.08,4.84,4.94,8.86,8.06,12.53,2,2.31,3.83,4.73,6,6.88,1.41,1.4,3,2.62,4.48,3.92a17.31,17.31,0,0,0-1.69-1.85c-7.61-7.12-13.38-15.62-18.31-24.64a15.26,15.26,0,0,0-.85-1.35c.28.46.57.92.84,1.39A4,4,0,0,1,128.62,401.15Z"/><path class="cls-4" d="M299.57,399.34a18.69,18.69,0,0,0,4.49-3.82,4.3,4.3,0,0,0-.65.43q-2.3,1.94-4.54,3.9A4.86,4.86,0,0,1,299.57,399.34Z"/><path class="cls-4" d="M298.05,400.93a3.71,3.71,0,0,1,.76-1c-4.65,4.08-9.16,8.32-13.45,12.78.36-.3.71-.61,1.06-.94C290.36,408.1,293.79,404.13,298.05,400.93Z"/><path class="cls-5" d="M404.76,227.08c-4,1.35-6.79-.76-9.8-.88-2.59-.11-5.2-3.12-7.66-.6s.47,5,1.19,7.43a67.14,67.14,0,0,1,2.1,6.83c.39,2.1,2.19,4.87-1.13,6.2-2.51,1-3.66-1.27-4.78-2.89a15.47,15.47,0,0,0-12.95-7.08c-5.48-.19-9.87,2.17-13.94,5.54-3.61,3-6.42,7-10.79,9.17-3.1-1.62-1.77-4.31-2-6.44-1.25-10.22-2.92-20.3-7.78-29.57a44.71,44.71,0,0,1-2.09-4.68c-5.56-14.12-.8-22.49,14.36-24.65,13.34-1.91,32.79,1.65,44.94,12.19-4.78,2.88-9.31.6-13.71.37s-5.78,1.81-3.85,5.65c3.09,6.13,8.78,9.39,14.34,12.82C395.94,219.43,401.22,221.83,404.76,227.08Z"/><path class="cls-5" d="M82.69,186.47c-3.55,20.44-7.82,39.23-14.16,57.95-4.12-2.65-4.94-7-7.47-10.18-9.3-11.49-22.74-10.46-28.63,2.94-2.5,5.64-4.65,8.33-11.12,6.5-3.45-1-7.39-.16-12.27-.16.82-5.46,3.55-9,5.73-12.81,3.14-5.44,3.1-5.46-3.29-6.42a12.92,12.92,0,0,1-2-.37c-.24-.06-.37-.43-.76-.88,2.59-5.17,7.27-7.84,12.42-9.89,1.89-.78,4-1.13,5.81-2,5.21-2.47,5.64-4.68,1.84-9.2-.86-1-2.3-1.54-1.8-3.88C44.54,192.19,63.3,191,82.69,186.47Z"/><path class="cls-6" d="M180.64,443.76l.11,0a105.91,105.91,0,0,1-21.62-8.71l.15.36A93,93,0,0,0,180.64,443.76Z"/><path class="cls-6" d="M220.61,445.78c8.74-.85,17.69-4.63,25.78-7.9a54.4,54.4,0,0,0,9.38-4.6c-12.1,6.2-24.29,10.62-36.71,12.59a4,4,0,0,1,.62.1A4.51,4.51,0,0,1,220.61,445.78Z"/><path class="cls-7" d="M368.89,267.07c-4.69,3.37-6.44,7.78-4,13.12,1.75,3.81-.82,8.6,2.63,11.9.14.12.27.25.43.37a140,140,0,0,1-6.05,20.85c-3.14,1.43-1.83,4.94-3.33,7.12-2.19,3.2-4.53,5.46-7.77,2.56a1.21,1.21,0,0,1-.19-.2,8.66,8.66,0,0,1-.84-.86c-2-5.73-2.15-11.8.82-16.83a27.35,27.35,0,0,0,3.06-7.37,28.6,28.6,0,0,0,.59-10.79,45.66,45.66,0,0,0-1.27-6.3,23.88,23.88,0,0,1-.57-9.11c1.21-9.65,7.84-14.74,17-13.57a23.77,23.77,0,0,1,4.31,1C374.27,262.91,371.67,265.06,368.89,267.07Z"/><path class="cls-8" d="M312.17,383.14a6.77,6.77,0,0,0-2.45,4C310.52,385.76,311.33,384.41,312.17,383.14Z"/><path class="cls-9" d="M71.65,321.35c-.57,3.35-.72,8.25-6.73,6-2.83-1.69-4.11-4.54-4.74-7.49-2.75-13.32-8.76-25.39-14-37.78.76,0,1.52-.06,2.28-.07a2.92,2.92,0,0,1,.49.19,12.52,12.52,0,0,1,3.82,2.57s0,0,0,0c3.53,3.44,5.52,8.53,9.48,11.51a0,0,0,0,1,0,0,11.17,11.17,0,0,0,3.12,1.7,2.16,2.16,0,0,0,.45.15,7.94,7.94,0,0,1,.72.34,8.9,8.9,0,0,1,3.33,2.53C71.83,307.75,72.78,314.52,71.65,321.35Z"/><path class="cls-9" d="M361.92,313.31c-.64,7.92-3.35,15.22-7,22.16-2,3.9-4.51,7.66-9.32,8.78-7.45-5.21-7.51-13.74-.14-21.91a7.09,7.09,0,0,1,1.91-.43,4.82,4.82,0,0,1,.76,0,4.94,4.94,0,0,1,2.5.88l.25.2c5,.35,6.36-2.6,6.81-6.89C357.92,314,358.27,310.81,361.92,313.31Z"/><path class="cls-10" d="M64.92,327.39c.94-.37,2.59-.58,2.69-1.13,1.74-8.75,3.67-17.59-1.21-26.06a7.85,7.85,0,0,1-1-2.12,5,5,0,0,1,.8-4.66,8.94,8.94,0,0,1,1-1.12l4,2.13c2.83,8.86,3.86,18,4.14,27.23C75.59,330.16,73.72,331.12,64.92,327.39Z"/><path class="cls-11" d="M348.13,321.91a4.91,4.91,0,0,1-.31.94c-5.83,5.77-6.51,12.46-2.22,21.4-9,2.43-12.14.11-10.15-7.75,1.66-6.53,3.77-12.95,5.68-19.42a3.73,3.73,0,0,1,3.94-.88.89.89,0,0,1,.31.08,3.06,3.06,0,0,1,.29.21C347.59,317.9,348.76,319.57,348.13,321.91Z"/><path class="cls-12" d="M353.67,297.73a69.28,69.28,0,0,1-3.9,7,14,14,0,0,0-1.66,4.11c-.62,2.62-.41,5.56-2.44,7.65a5.2,5.2,0,0,1-.64.59h-3.9c0-.71.1-1.41.14-2.11,1.5-2,.35-4.64,1.56-6.71.15-1.89.29-3.76.43-5.66,2.59-7-.71-14.63,1.67-21.71.14-.39.28-.78.45-1.17l4.16,2.31a.09.09,0,0,0,.06,0,21.62,21.62,0,0,1,4.66,4.88C356.07,289.91,355.88,293,353.67,297.73Z"/><path class="cls-13" d="M343.26,302.6c-.69-8.15,1.4-16.36-.45-24.49.86.54,1.71,1.09,2.57,1.61-.08.51-.15,1-.19,1.54C344.5,288.38,347.14,295.8,343.26,302.6Z"/><path class="cls-13" d="M341.27,315c-.26-2.42-.18-4.76,1.56-6.71C343.1,310.68,343.63,313.16,341.27,315Z"/><path class="cls-10" d="M77.09,292.85a7.57,7.57,0,0,0-5.67.2C73.17,289.14,75.06,289.14,77.09,292.85Z"/><path class="cls-14" d="M219.46,323.19a18.81,18.81,0,0,1,1.68,2.53c2.37,5.23,5.08,7,8.83,5.39,4.11-1.8,4.18-4.87,2.33-8.48-.39-.75-.06-1.86-.06-3.84,6.72,2.75,13.4,3.1,20,4,21.43,3,42.79,24.06,43.26,49.28-2.1,2.7-4.83,2.13-7.36,1.09-5.15-2.13-10.15-3.93-15.83-1.61-2.38,1-4.79-.43-6.57-2.09-4.74-4.41-9.07-6.53-15-1.16-2.79,2.54-6.85-.05-9.16-2.5-5.15-5.46-5.88-.25-7.65,2.76C230.17,381.36,221.78,389,208.6,391c-11.26,1.65-25.69-2.66-32.33-18.28-2.84-6.92-6.56-7.49-12-2.26-3.83,3.68-8.42,6.53-12.62.06-2.49-3.83-4.46-.71-6.71.33-5.09,2.35-10.73,6.89-12.17-3.76-.59-4.35-6.46,1.16-7.86-3.13,2.79-16.58,13.52-27,27.25-35.06a49.71,49.71,0,0,1,10.32-4.47c4.26-1.32,8.5-2.16,10.67-6.84.64-1.38,2.5-2.24,3.92-3.17s3.21-1.59,4.48.21c.89,1.27.3,2.57-.82,3.56a22.71,22.71,0,0,0-3,2.74c-2.11,2.72-2.88,6.07.33,8,2.84,1.72,6.6,2.5,8.32-2.3a16.84,16.84,0,0,1,2.21-3.3c7.32.08,13.47,7.7,21.74,2.91C212.91,324.71,215.72,322,219.46,323.19Z"/><path class="cls-15" d="M147,217.56c.38,6.23-3.78,8.9-8.8,9.26-15,1.06-24.49,10.61-33.68,20.83a25.61,25.61,0,0,1-2.93,2.87c-4.13,3.36-8.27,3-11.45-1.18-1-1.32-2.1-3-2.11-4.58-.11-11.54-2.2-23.22,1.84-34.51,3-8.35,8.35-14.09,17.72-14.72,3.22-.22,5.86-1.68,8.62-3,15.15-7.12,27-2.32,33.17,13.41C142,207,134.57,208.46,129,201.24c-2.46-3.21-5-.69-7.13.73-4.7,3.11-8.35,7.54-15.51,5.19-3.95-1.31-5.82,4.19-7.33,7.4-4.11,8.73-2.56,18-2.48,28.72,5.79-3.75,8.46-8.6,12.44-12C120,222,131.78,215.14,147,217.56Z"/><path class="cls-16" d="M260.17,294.88c-14.61.12-19.83-5.9-18-20.43a32.52,32.52,0,0,1,3.18-9.67c6-12.94,15.44-15.59,27.29-7.77A29.24,29.24,0,0,1,282,267.66c6,10.95,2,21-9.77,25.36C268.31,294.49,264.27,294.68,260.17,294.88Z"/><path class="cls-16" d="M128.4,263.55c1.13-2.1,2-4.43,3.44-6.27,8.53-10.69,19.91-10.84,28.51-.33,2.15,2.62,3.71,5.73,5.54,8.62a2.92,2.92,0,0,1,.49.89C168.48,285,161.77,296,148,296.85c-13.2.8-20.46-9.39-20.16-28.26A13.67,13.67,0,0,1,128.4,263.55Z"/><path class="cls-17" d="M264.83,218.1c-1.83-2.06-2.75-4.13-.06-6.24,8.76-2.28,9.23-9,8.58-16.21l-.2.12c6.33-2.55,12.69-1.56,18.81.46,3.9,1.29,7.49,2.87,11.82,2.09s6.89,2.11,9.32,5.15c10,12.48,12.79,26.86,11.28,42.36-.26,2.62-.48,5.73-4.09,6.21-4.36.57-8.24-.69-11-4.17a69,69,0,0,0-27.28-21C276.11,224.28,269.66,222.8,264.83,218.1Z"/><path class="cls-18" d="M147,217.56c-3,.67-6,1.45-9,2-16.12,2.87-28.22,11.6-37,25.21-1.08,1.67-2.24,3.82-4.74,2.79-1.68-.7-2.15-2.56-2.2-4.34-.27-8.86-1.52-17.75,1.34-26.48a26.34,26.34,0,0,1,8.27-12.7c1.28-1.05,3.65-2.84,4.46-1.69,5.41,7.65,7.67-.42,11.09-2,2.46-1.17,4.57-3.1,7.07-4.13,3.34-1.38,6.4-1.27,5.7,3.73-.52,3.73,1.86,3.95,4.37,3.77,4.57-.34,8.74,1.34,13.06,2.28,1.06,1.8,2,3.67-.2,5.27S147,215.22,147,217.56Z"/><path class="cls-7" d="M264.83,218.1c18.19,4.77,34.85,12.06,46.25,28a10.4,10.4,0,0,0,4.69,3.77c4.52,1.84,6.27,1,6.78-3.89,1.66-16.07-2.59-30.44-12.92-42.9-2.14-2.58-4.44-5.8-8.05-1.24-2.34,3-4.22,0-6-1.1-6.91-4.28-14.19-6.69-22.41-5,6.12-4.84,13.13-1.52,19.71-2.05,2.26-.18,4.39,1.65,7,.77,7.52-2.57,12.27,1.36,16.45,7,9.74,13.24,11.63,28.31,10.11,44-.79,8.2-12.38,12.83-17.8,6.8-10.16-11.29-23.35-17.8-36.11-25C268.5,225.06,266.5,221.89,264.83,218.1Z"/><path class="cls-7" d="M233.92,368.59c-.2-3.31-.4-6.62-.62-10.35,5.42.56,8.08,4.39,11.44,7s6.2,3.28,7.33-1.9c.75-3.47,2.82-3.31,5.3-2.36a28.43,28.43,0,0,1,10,6.83c1.67,1.68,3.73,3.78,6,1.17,3.7-4.31,7.2-2,10.92-.31,3.56,1.65,6.58,5.19,11.2,3.41-1.09,3-4.24,5-6.28,3.88-8-4.41-16.68,7.31-24.62-2.08-4.6-5.43-5.58-4.6-10.83.59-4.86,4.79-6.58,4.93-12.08.66C239,373.08,236.49,370.78,233.92,368.59Z"/><path class="cls-19" d="M345,317.08l.35-9.8c.43-.84.87-1.68,1.33-2.51,5-7.08,9.68-14.19,2.83-22.75l-.57-4.11a11.58,11.58,0,0,1,0-8.22c1.78-7.48,5.66-13.3,13.4-15.42,4.7-1.28,9.68-2,11.35,4.64-18.41,1.77-21.78,6.84-16.83,25.69,1.73,6.6,2,12.9-2.61,18.51-5,6-1.88,13.32-3.4,19.87l-3.06-.13Z"/><path class="cls-20" d="M67.18,292.3l-.78,7.9-2.91.14c-2.23-2.48-3-6-5.39-8.29-6.09-6-8.82-12.55-5-20.93,1.17-2.55.46-5.37-.37-8-1.41-4.43-2.21-9.91-8.86-4.65-.89.7-2.61-.22-3.61-1.28-2.56-4.42-2.52-8.44,2.16-11.4,3.76-2.38,9.18-1.17,12.77,2.89,5.28,6,6.46,13.21,6.06,20.89a38.28,38.28,0,0,0,5.05,20.9C66.63,291.06,66.89,291.69,67.18,292.3Z"/><path class="cls-21" d="M124.91,363.93c4.09,2.06,6.6-2.73,10.36-2.6,1,3.67-2.05,7.55,1.18,11.14,6.09-.82,9.24-6.55,14.35-9,.57.26,1.53.41,1.65.8,2.9,10.23,2.88,10.24,11.07,3.34.78-.66,1.52-1.37,2.33-2,2.41-1.88,4.89-4.33,8.18-3.07,3.86,1.48,1.87,5.27,2.36,8.07a9.34,9.34,0,0,1-.12,2c-3.8-2.6-7.19-1.11-10.3,1.25-5.48,4.15-10.86,7.33-17.42,1.8a5.92,5.92,0,0,0-4.87-.84C133.1,378.45,129.33,370.7,124.91,363.93Z"/><path class="cls-7" d="M225.68,395.36c4.87,2.67,5.24,6.18,1.35,9.82-6.44,6.06-13.56,10-23.05,7.42-4.56-1.26-9.4-1.54-13.9-3.23a21.54,21.54,0,0,1-9.88-7.09c-2.23-2.95-3.39-6.06.39-8.85C195.05,407.37,210.19,405.42,225.68,395.36Z"/><path class="cls-22" d="M128.4,263.55c.27,7.09-.37,14.24,3.47,20.84,4.53,7.77,11.38,11.44,19.42,9.76A19.1,19.1,0,0,0,166,277.78c.4-4,0-8.14-.08-12.21,6.9,17.55-2.22,33.31-20.23,34.91-6.3.56-14.11-3.74-16.43-10.1C126.05,281.65,125,272.61,128.4,263.55Z"/><path class="cls-23" d="M40.25,257.19c2.62.39,5.78,1.49,5.29-3.12-.15-1.38-.76-2.74.85-3.39,1.83-.74,3.33.34,4.36,1.71,4.25,5.64,6.32,11.92,5,19a19.69,19.69,0,0,1-1.4,4.88c-2.06,4.25-1.62,7.83,2.29,10.76,4.42,3.32,5.31,8.48,6.89,13.28-7.14-4.35-10.4-11.9-15.05-18.3a9.14,9.14,0,0,1,.19-3c3.65-8.1,1.93-14.28-6.15-18.52C41.44,259.94,41,258.32,40.25,257.19Z"/><path class="cls-24" d="M225.68,395.36c-12.41,15.85-33.7,12.85-43.8,1.82-.82-.89-.88-2.48-1.29-3.75,2.88-1.91,5-.31,7.19,1.45,9.3,7.33,18.85,8.28,28.92,1.3C219.27,394.39,222.35,391.74,225.68,395.36Z"/><path class="cls-25" d="M203.44,296.3c6.49-.19,11.69,1,16.16,4.48a3.29,3.29,0,0,1,1,2.6c-.18,1.6-1.6,2.08-3,2a10,10,0,0,1-2.9-.88,26.25,26.25,0,0,0-21.65.41c-1.81.83-4,2.26-5.35-.14-1.72-3,1-4.2,3-5.29C194.92,297.17,199.44,295.82,203.44,296.3Z"/><path class="cls-26" d="M219.46,323.19a6.11,6.11,0,0,0-.94.42c-13.51,9.4-17.11,9.36-30-.3,1.81-3.55,4.57-5.49,8.13-2.83,5.28,3.95,10.78,3.28,16.42,1.71C215.51,321.53,217.67,320.71,219.46,323.19Z"/><path class="cls-27" d="M273.35,195.65a17,17,0,0,0,.33,3c1,3.5,6.58,5.69,4.44,9.55-1.77,3.17-6.85,2.08-10.3,3.43a10.17,10.17,0,0,1-3.05.19Z"/><path class="cls-28" d="M124.44,247.68c.55.33,1.67.65,2.06,1.37s.52,2.31,0,2.76c-3.28,3.12-5.93,6.37-5.45,11.33.08.84-1,1.73-2.19,1.65a2.6,2.6,0,0,1-2.37-1.55C113.94,257.74,118.36,248.59,124.44,247.68Z"/><path class="cls-29" d="M291.58,256.94a2,2,0,0,1-1.57,2.22c-.88.11-2.33-.1-2.7-.68a41.49,41.49,0,0,0-8-9.06c-.49-.44-.46-2.08,0-2.8a3.09,3.09,0,0,1,2.47-1.22C286.37,245.81,291.86,252.39,291.58,256.94Z"/><path class="cls-12" d="M349,269.69v8.22Q345.31,273.8,349,269.69Z"/><path class="cls-13" d="M346.71,304.77l-1.33,2.51Z"/><path class="cls-30" d="M289.33,364.94c-6.5-3.74-11.16-6-16.4-3.41-2.26,1.1-3.81-.24-5.6-1.32-7-4.21-13.89-9.09-22.72-4.41-1.67.89-3.16-.85-4.64-1.61-2.14-1.1-4.17-2.45-6.38-3.33-7.18-2.83-8.91-1.84-11.4,6.69a19.23,19.23,0,0,1-12.72-15.76c-1-6.62,3.05-9.58,9.27-7.3,1.92.71,3.68,1.91,5.64,2.45,5.18,1.42,10.26.06,12.62-4.46,3-5.74,7.35-5.6,12.13-4.66C269,331.73,282.48,342.85,289.33,364.94Z"/><path class="cls-30" d="M159.2,363.84c-1.88-9.52-2.89-9.72-14.68-3.84-1.94-6.91-1.94-6.91-9.62-7,7.26-12.05,17.3-19.45,30.08-23.41,2.77-.86,5.19-.6,7.29,2,4,5,9.56,5.11,15,3.11,3.57-1.32,6.51-.66,9.87.4,7,2.2,8.45,4.48,5.28,10.54-4.12,7.9-11.88,11-19.62,13.9a2.36,2.36,0,0,1-1.93-.21C172.52,353.08,166.12,357.63,159.2,363.84Z"/><path class="cls-31" d="M206.66,385.31c-6.8.25-11.24-.26-15.07-2.86-2.08-1.41-5.52-2.73-3.11-6.24,2.1-3,5.23-4.56,8.91-2.83,1.09.51,1.67,2.07,2.53,3.1,1.61,1.94,3.32,2.29,5,.14,1.37-1.71,3.22-2.91,5.29-2.69a7.13,7.13,0,0,1,6.43,5.83c.86,3.95-2.84,4.11-5.17,4.88A17.17,17.17,0,0,1,206.66,385.31Z"/><path class="cls-32" d="M277.82,283.56c-6.46-11.19-12.25-20.07-25.82-18.29,1.95-5.35,4.45-7.62,8.72-7.32C271,258.67,279.79,270.42,277.82,283.56Z"/><path class="cls-33" d="M262.36,286.06c-.27,2.83-2.23,3.49-4.33,3.28s-5.36.39-5.41-2.92c0-2.65,2.44-4,4.89-4.25C260.17,281.94,261.89,283.49,262.36,286.06Z"/><path class="cls-34" d="M155.16,264c-10.92-.68-13.23.8-18.28,11.78-.6,1-1.27,1-2,.13-.54-1.93-1.5-3.84-1.55-5.78-.15-6.73,4.24-13,10.17-14.67,7.38-2.1,11.22,2.33,14.28,8A2.19,2.19,0,0,1,155.16,264Z"/><path class="cls-35" d="M154.74,285.32c-.57,2.36-2.38,3.1-4.5,3.24-1.91.12-3.33-.79-3.53-2.74-.25-2.41,1.11-3.81,3.48-3.85S153.87,283.33,154.74,285.32Z"/><path class="cls-36" d="M155.16,264l2.62-.51c.93.46,1.51,1.22.34,1.8S155.81,265.23,155.16,264Z"/><path class="cls-37" d="M134.88,275.92c.67,0,1.34-.08,2-.13.3,1.23.24,3-.82,3.1S134.7,277.19,134.88,275.92Z"/><path class="cls-38" d="M316.49,241.78c-10.28-12.12-23.27-19.58-39-26.08,6.88-2.83,9.18-7,6.59-13.07,5,.11,7.8,2.65,10.85,4.72s5.57,6.68,10.28,1.89c1.36-1.39,2.86,1,3.75,2.39C314.81,220.72,317.86,230.57,316.49,241.78Z"/><path class="cls-39" d="M141.14,211.44c-8,4.24-15.94,4.93-22.64,8.9a86,86,0,0,0-18.28,15.06c-2.1-9.6-1.19-14.67,3.85-23.75,3.13-.25,3.64,5.6,6.91,4,2.29-1.14,3.9-3.66,5.84-5.54,1.47-1.42,2.92-2.87,4.48-4.19,2.15-1.81,4-2.76,4.64,1.38.39,2.69,2.69,2.57,4.8,2.54C133.75,209.78,136.85,208.66,141.14,211.44Z"/><path class="cls-1" d="M320.69,128.14c-.15,3.17,2.63,2.33,4.39,2.94,12.91,4.45,16.75,17.68,8.61,28.87-8.34,11.42-20,18.71-32,25.33-30.73,17-63.57,22.45-98.37,17.1-26.15-4-51.17-12.25-76.54-19.18-14.56-4-29.12-7.7-42.57-14.78-11.5-6.06-16.48-15.74-15-27.76.6-4.95,3.33-8.13,6.41-11.29,1.93-2,4.37-3.54,3.33-6.84-1.18-3.77-4.4-2.6-6.93-2.64a41.22,41.22,0,0,1-39.66-30.1c-3.78-14.13-1.18-27.11,7.07-39,11.3-16.35,28.11-25,46.15-30.94A396,396,0,0,1,175,1.24c36.9-3.13,73.18-.6,108.69,10.65,7.21,2.28,14.42,4.37,21.29,7.6,20.24,9.78,39.21,21.4,52.1,40.45,7.55,11.17,13.28,23.26,11.66,37.48-1.26,10.93-6.57,18.42-17.43,21.75-6,1.83-12.07,2.44-18.21,3-2.74.23-5.48.37-8.18.84S320.84,125.55,320.69,128.14Z"/><path class="cls-4" d="M238.81,57.57c-8.16-3.73-14.09-10.63-22-15-17.71-9.79-33.49-6.36-48.84,4.78-2.75,2-5,4.79-8.37,5.83C133.22,74,104.3,90.93,76.11,109c-4.18,2.67-9.07,2.9-13.78,3.72C42,107.41,32.72,85.39,37.15,69.24a52.61,52.61,0,0,1,20.7-29.81A114.26,114.26,0,0,1,93.12,23c21.75-6.08,43.67-11.41,66.13-14.47,37.39-5.08,74.56-4.43,111.1,5.06,23.58,6.13,46.19,15.27,65.2,31.28C348.89,56.1,359.48,69.21,362.93,87c1,5.27,1.22,10.18-1.55,14.92-4.84,5.55-11.11,6.32-17.81,5-7.06-1.35-14.2-2.79-20.7-5.89-15.71-7.51-31.88-14-47.7-21.1C262.42,74.24,249.44,67.43,238.81,57.57Z"/><path class="cls-4" d="M108,106.52c16.11-9.94,30.91-21.39,43.56-35.64,7.71-8.69,15.69-17.28,26.1-23,13.72-7.51,26.82-8.07,40.29,1.61,10,7.2,18.83,15.81,28.91,22.9C259.58,81.4,274,87,288,93.34l14.83,6.73c-16.58,11.08-33.66,15.09-51.45,16.92-19.85,2.05-39.62.88-59.41-1.23-27.56-2.94-55.09-6.37-82.89-6.2C107.06,109.13,106.68,108.12,108,106.52Z"/><path class="cls-40" d="M313.78,131.75c-2,5.3-6.4,5-10.44,5.18-16.8.68-33.59,1.53-50.4,1.78a969.52,969.52,0,0,1-151.78-9.79c-3.39-.49-6.77-1.06-10.18-1.4-3.64-.35-5.68-2.11-5.86-5.82-.2-4.12,3.1-4,5.66-4.36a214.91,214.91,0,0,1,49.28-1c23.22,2.09,46.39,4.79,69.63,6.52,23.72,1.76,47.32.77,70.39-6a109.8,109.8,0,0,0,23.59-10.13c3.5-2,5.54-1.22,7.67,1.79C316.6,116,316.22,123.87,313.78,131.75Z"/><path class="cls-41" d="M120.35,169c-1.5-.68-3.72-1.61-5.86-2.69-1.27-.64-2.29-1.7-1.56-3.25a2.86,2.86,0,0,1,3.5-1.35,63.93,63.93,0,0,1,6.88,2.06c53.9,19.4,108.1,19.51,162.58,2.59a64.2,64.2,0,0,1,7.9-2.07c.61-.11,1.71,1,2.15,1.75a1.87,1.87,0,0,1-.7,2.68,49.39,49.39,0,0,1-6.56,2.84c-45.78,14.72-92.13,17-139,6.11A202.79,202.79,0,0,1,120.35,169Z"/><path class="cls-42" d="M62.33,112.73C83.25,104,100.76,89.65,119.93,78c13.35-8.09,25.5-18.09,39.69-24.83a184.17,184.17,0,0,1-60.53,51.3c-3.91,2.1-7.9,4.05-11.88,6C79.21,114.46,70.94,115.48,62.33,112.73Z"/><path class="cls-43" d="M238.81,57.57c11.06,7.25,23.5,12,34.48,19.49,4.46,3,9.58,5.81,14.77,6.87,9.89,2,18.68,6.46,27.49,10.78,8.34,4.09,17.24,6.28,26,9,6.67,2.1,13.44.9,19.87-1.81-1.87,8.43-8.72,10.77-15.77,12.72-2.27.63-4.73.58-7.09.95-9.9,1.6-17.86,2-23.34-10.08-5.88-12.93-20.31-17.28-32.92-20.8-11.29-3.16-20-10-29.68-15.41C247.48,66.47,241.57,63.59,238.81,57.57Z"/><path class="cls-44" d="M108,106.52c.36,1,.72,2,1.07,3-1.89,1-4.56,3.27-5.61.28S105.84,106.9,108,106.52Z"/><path class="cls-45" d="M196.93,76.81c-4.32-4.28-9.1-7.27-5.21-12.76,2-2.88,8.64-4,11.29-2.26,3.52,2.27,3.23,5.89-1.09,13.45.65,2.11,2.44,2,4.12,2.15,1.85.15,3.46.82,3.53,2.88.08,2.26-1.81,2.68-3.54,2.74-6.09.2-3.9,4.68-3.49,7.49.61,4.33,5.23,7.84,8.53,7.35s7.23-5.41,5.46-8.4c-3-5.14-.52-7.39,2.9-10,2.91-2.25,5.62-4.1,8.61,0s2.86,5.63-2,8.76c-2.67,1.7-3,4.43-4.16,6.77-2.81,5.66-6.56,9.76-13.51,8.59-2.81-.47-4.45.35-5.75,2.79-.3.56-2.53.82-2.59.67-3-7-7.82-1.92-11.8-1.67-4.71.3-7.65-2.23-10.23-5.67-1.86-2.49-2.85-6.64-7.57-4-.8.46-1.85-.45-2.29-1.5-1.22-2.9,1.9-10.75,4.61-11.61,2.35-.74,10.15,2.36,10.93,4.44a2.43,2.43,0,0,1-.7,2.73c-5.26,5,.21,7.14,3,9.13s9.89-1.73,10.28-5.75c.33-3.31,2.72-9-4.84-8.36a2.54,2.54,0,0,1-2.72-2.47c-.23-1.69,1.08-2.39,2.27-3C192.4,78.56,194,78,196.93,76.81Z"/><path class="cls-46" d="M199.48,67.92a9.17,9.17,0,0,1-1.67,1c-.88.31-1.49-.16-1.2-1a2.28,2.28,0,0,1,1.47-1.12C198.86,66.57,199.36,67.11,199.48,67.92Z"/></svg>