<svg id="Layer_1" data-name="Layer 1" xmlns="http://www.w3.org/2000/svg" width="431" height="523" viewBox="0 0 431 523"><defs><style>.cls-1{fill:#ffb611;}.cls-2{fill:#002395;}.cls-3,.cls-7{fill:none;stroke-miterlimit:10;}.cls-3{stroke:#000;stroke-width:53px;}.cls-4{fill:#000a00;}.cls-5{fill:#211b0d;}.cls-6{fill:#f3f3f3;}.cls-7{stroke:#f3f3f3;}</style></defs><title>Artboard 4</title><g id="Politimand"><path class="cls-1" d="M309.15,377.32,170.58,387.79A70.5,70.5,0,0,1,111,340.66L107.08,247a649.56,649.56,0,0,0,18.33-122.42c.7-13.31,1-26.2.88-38.63H309.15c17,0,31,16.21,31,36,8.1,19.46,33.52,87.34,2.62,153.18a156.66,156.66,0,0,1-22.91,35.35q9.48,15.72,19,31.43c.22,2,1.42,14.4-7.79,24.77A32.51,32.51,0,0,1,309.15,377.32Z"/><rect class="cls-2" x="108.39" y="350.48" width="230.44" height="171.52"/><path class="cls-2" d="M101.53,56C101,29.18,166.53,1.93,223,.92,283.62-.17,353.14,28.67,352.58,56s-71.64,53-131.42,51.49C167.73,106.18,102.1,82.7,101.53,56Z"/><path d="M127,86.2H333.3"/><path class="cls-3" d="M127,86.2H333.3"/><path class="cls-4" d="M114.94,124.68c-.54-20.44,61.52-41.17,115-41.94,57.41-.83,123.21,21.11,122.68,41.94S284.77,165,228.18,163.85C177.6,162.82,115.47,145,114.94,124.68Z"/><path class="cls-5" d="M205.28,268H259c0-12.48-12-22.59-26.84-22.59S205.28,255.51,205.28,268Z"/><circle class="cls-1" cx="232.15" cy="82.67" r="28.2"/><ellipse class="cls-4" cx="275.95" cy="190.31" rx="15.51" ry="22.04"/><ellipse class="cls-4" cx="194.77" cy="191.62" rx="15.51" ry="22.04"/><polygon class="cls-6" points="204.57 372.74 95.95 361.91 95.95 292.87 248.49 334.15 204.57 372.74"/><polygon points="237.36 421.18 200.54 369.96 237.78 332.72 275.02 369.96 237.36 421.18"/><polygon class="cls-6" points="274.67 370.12 338.83 370.12 346.03 307.92 237.36 332.8 274.67 370.12"/><polygon points="262.24 493.19 211.82 506.29 226.23 406.29 248.05 405.92 262.24 493.19"/><line class="cls-7" x1="251.76" y1="430.02" x2="238.01" y2="430.02"/><path class="cls-5" d="M194.65,283.69c4.54.51,8.49-.85,12.72-2.32a57,57,0,0,1,17.16-3.57c10.72-.33,21.39,3.87,27.05,13.34a1.5,1.5,0,0,0,2.59-1.51c-5-8.32-13.65-13.33-23.18-14.53a48,48,0,0,0-16.68,1.06c-6.5,1.49-12.86,5.3-19.66,4.53-1.92-.22-1.9,2.79,0,3Z"/><path class="cls-5" d="M221.61,287.2c4.12,4.81,10.88,10.68,17.29,5.9,1.53-1.14,0-3.74-1.51-2.59-5.26,3.92-10.43-1.66-13.66-5.43-1.25-1.47-3.37.66-2.12,2.12Z"/><path class="cls-5" d="M240.66,242.92a7.25,7.25,0,0,1,6.64,2.77c1.22,1.5,3.33-.63,2.12-2.12a10.21,10.21,0,0,0-9.55-3.54c-1.91.27-1.1,3.16.79,2.89Z"/><path class="cls-5" d="M216.28,247.83a30.38,30.38,0,0,1,8.51-4c1.85-.54,1.06-3.44-.8-2.89a33.18,33.18,0,0,0-9.23,4.29c-1.59,1.06-.09,3.66,1.52,2.59Z"/></g><path class="cls-1" d="M304.62,443.87a11.92,11.92,0,0,0,5.69-2c10-6.26,15.4-17.93,15.4-17.93a52.17,52.17,0,0,0,1.59-38.07,1.13,1.13,0,0,0-.63,0c-.86.26-1.19,1.56-1.29,1.91-.7,2.31-4.34,5.09-7.65,5.82a9.39,9.39,0,0,1-5.65-.52c-3.67-1.64-5.32-5.76-6.51-5.21a.82.82,0,0,0-.32.32,20,20,0,0,1-3.52,3.53,11.8,11.8,0,0,1-7.9,2.37,11.1,11.1,0,0,1-6.87-3c-1.87-1.89-2.46-4.21-3.39-4-.53.11-.79,1-1,1.59-1.67,5.62-2,4.43-2.64,7.6-1.63,8.55,0,17.92,0,17.92.81,4.61,1.65,9.45,4.78,15,0,0,5.69,10.09,15.17,13.84A10.82,10.82,0,0,0,304.62,443.87Z"/></svg>
