<svg id="Layer_1" data-name="Layer 1" xmlns="http://www.w3.org/2000/svg" viewBox="0 0 287.34 616.33"><defs><style>.cls-1{fill:#a5deed;}.cls-2{fill:#575656;}.cls-3{fill:#615f60;}.cls-4{fill:#c6c6c6;}.cls-5{fill:#a09f9f;}.cls-6{fill:#b5b5b5;}.cls-7{fill:#9f775c;}.cls-8{fill:#85ccd6;}.cls-9{fill:#f7e8dc;}.cls-10{fill:#7ab5e3;}.cls-11{fill:#faedb1;}.cls-12{fill:#c19a6c;}.cls-13{fill:#e2d3c7;}.cls-14{fill:#6badae;}.cls-15{fill:#fefefe;}.cls-16{fill:#e1d2c6;}.cls-17{fill:#e46e6e;}.cls-18{fill:#fdfdfd;}.cls-19{fill:#539ccd;}.cls-20{fill:#fcfcfc;}.cls-21{fill:#e36e6e;}.cls-22{fill:#e16e6e;}.cls-23{fill:#e26e6e;}.cls-24{fill:#e06e6e;}.cls-25{fill:#6bacae;}.cls-26{fill:#307092;}.cls-27{fill:#fbfbfb;}.cls-28{fill:#e0d1c5;}.cls-29{fill:#de6e6e;}.cls-30{fill:#fafafa;}.cls-31{fill:#316f91;}.cls-32{fill:#dacbc1;}.cls-33{fill:#2e7092;}.cls-34{fill:#dbccc2;}.cls-35{fill:#317091;}.cls-36{fill:#d96f6f;}.cls-37{fill:#f8f8f8;}.cls-38{fill:#eee2ab;}.cls-39{fill:#f3f3f3;}.cls-40{fill:#eceded;}.cls-41{fill:#dccdc2;}.cls-42{fill:#d5c7bd;}.cls-43{fill:#4d6b7f;}.cls-44{fill:#f0f0f0;}.cls-45{fill:#d7c9bf;}.cls-46{fill:#dfd1c6;}.cls-47{fill:#cbcbcb;}.cls-48{fill:#bc706e;}.cls-49{fill:#e0d5a6;}.cls-50{fill:#6e9190;}.cls-51{fill:#aeab97;}.cls-52{fill:#cbc29b;}.cls-53{fill:#a9a9a9;}.cls-54{fill:#b4ada7;}.cls-55{fill:#afaeae;}.cls-56{fill:#cac29b;}.cls-57{fill:#999889;}.cls-58{fill:#bcb5a9;}.cls-59{fill:#575757;}.cls-60{fill:#5d5c5b;}.cls-61{fill:#5f5d5d;}.cls-62{fill:#dfd0c4;}.cls-63{fill:#676564;}.cls-64{fill:#decfc4;}.cls-65{fill:#636160;}.cls-66{fill:#666462;}.cls-67{fill:#646261;}.cls-68{fill:#615f5e;}.cls-69{fill:#706d6b;}.cls-70{fill:#6c6968;}.cls-71{fill:#529dcd;}.cls-72{fill:#58595a;}.cls-73{fill:#595857;}.cls-74{fill:#e2d2c6;}.cls-75{fill:#5e5c5c;}.cls-76{fill:#5d5c5c;}.cls-77{fill:#eee0d4;}.cls-78{fill:#f7f7f7;}.cls-79{fill:#f2e6ad;}.cls-80{fill:#e5e5e5;}.cls-81{fill:#d1d1d1;}.cls-82{fill:#b46f6d;}.cls-83{fill:#9f9f9f;}.cls-84{fill:#d8d8d8;}.cls-85{fill:#d76f6e;}</style></defs><path class="cls-1" d="M269.4,82.89c-1.25-.88-2.87-1.3-3.69-2.75.31-.89,1.09-.68,1.68-.77,1.06-.17,2.25-.34,2.48-1.52s-.94-1.78-1.83-2.26a53.35,53.35,0,0,0-5.16-2.51c-8.51-3.51-17.28-3.76-26.19-1.93-.89-.23-1.88-.25-2.33-1.27.44-1.06,2.13-1.63,1.49-3.06s-2.08-1.06-3.26-1a21.86,21.86,0,0,0-15.32,6.92c-1,1-1.42,2.85-3.49,2.89-14.7-20.84-34.87-34.14-58.87-42.12-11.9-3.95-23.64-8.4-35.63-12.06-8-2.42-15.18-5.72-21-11.45-1.32.1-2.63.2-3.93.32-6.29.56-12.36,1.25-18.17,2-.35,0-.68-.06-1-.08a22.57,22.57,0,0,0-3.39,0c-1,0-1.93.14-2.89.23a23.57,23.57,0,0,0-.22,5.71c.46,6.37,3.16,12.11,5.23,18,3.35,9.5,1.88,17.71-5.62,24.8-6.33,6-12.35,12.31-18.57,18.41-5.27,5.16-10.46,10.33-10.83,18.71C33.09,95.4,27.56,94.25,21.73,95a19.81,19.81,0,0,0-13.07,6.93C7,103.92,7.43,105,10,105.29s5-.06,7.34,2c-1.39,1-2.37,1.69-3.34,2.41a34.24,34.24,0,0,0-13.41,20,17.66,17.66,0,0,0-.58,3.6c-.07,1.74,1,2.17,2.37,1.42,1.67-.91,2.9-2.52,4.78-3.12l1.39.2c-1.21,3.43-2.77,6.73-3.39,10.38a98.51,98.51,0,0,0,1.18,37.33c6.36,29.77,21.58,54,45.87,72.46a12.75,12.75,0,0,0,3,2c1.19.44,2.16-.25,1.78-1.58a15.06,15.06,0,0,0-1.73-3.2,60.87,60.87,0,0,1-7.3-18.9c.3-.7.18-1.65,1.1-2a62.35,62.35,0,0,0,8.79,8.93c.77.65,1.63,1.54,2.71.66.77-.63.45-1.59.26-2.44-.15-.68-.23-1.38-.41-2.06-1.3-4.6-.75-9.33-.93-14-.11-2.75,1.6-3.29,3.58-3.3,2.59,0,1.57,2.19,1.76,3.5a36.29,36.29,0,0,1,0,4.17c0,.81-.29,1.86.81,2.21,1.29.44,1.87-.56,2.41-1.44a50.35,50.35,0,0,0,5-11.47c.82-2.59,1.92-1,3-.38A42.41,42.41,0,0,0,85.53,222h0A1.35,1.35,0,0,0,86.68,223a1.36,1.36,0,0,0,1.1,1,1.34,1.34,0,0,0,1.1,1A1.29,1.29,0,0,0,90,226a1.23,1.23,0,0,0,1.1.92l.07.06a.88.88,0,0,0,.92.81.6.6,0,0,0,.64.43,1.79,1.79,0,0,0,1.34,1,1.3,1.3,0,0,0,1.17.91,1,1,0,0,0,1,.83.56.56,0,0,0,.63.35,1.69,1.69,0,0,0,1.4,1,1.16,1.16,0,0,0,1.17.82l.1.06a2.18,2.18,0,0,0,1.88,1.19,1,1,0,0,0,1.1.74c6.77,4.53,14.33,7,22.24,8.66,3.85.78,4.64,2.5,2.73,5.77-3.49,6-13.92,10.6-20.69,9.16C86.91,254.5,67.89,265.67,62.2,285a46.11,46.11,0,0,0-1.7,15A9.1,9.1,0,0,1,58,307c-3.9,4.22-7.49,8.74-11.21,13.12a24,24,0,0,1-5.4,4.9c-2.83,1.79-2.85,2.06-.69,4.64,4.2,5,9.81,7.75,16,9.31,4.3,1.09,8.67,1.85,13,2.75-.23.61-.25,1-.47,1.19-1.16.77-2.36,1.49-3.57,2.18a218.2,218.2,0,0,1-46.45,20c-5,1.5-5,1.52-4.75,6.81,1,20.64,9.15,38.42,21.91,54.33a121.81,121.81,0,0,0,26.7,24.11c1.32.89,3.47,1.33,2.88,3.76a3.61,3.61,0,0,0-.82,2.4c0,1-.06,1.78-.11,2.48.64,2.38,2,4.47,2.39,7,0,.15,0,.3.06.44a6,6,0,0,1,.56,1.61,8.93,8.93,0,0,1,.35.85,6.76,6.76,0,0,1,1,2c5.63,16.62,11,33.33,18.09,49.39-4.82,2.69-5.94,4.46-4.42,9.66,1.29,4.39,0,7.53-3.21,10.15-3.9,3.21-7.94,6.25-11.92,9.34C63,553.28,59.21,557.91,57.5,564a5.48,5.48,0,0,1-5,2.13c-3.83-.16-7.68-.15-11.51,0-7.93.31-12.61,3.5-13.61,9.7-.76,4.69-.37,9.44,2.17,13.66a38.52,38.52,0,0,0,10.58,11.38c10.17,7.35,22.07,8.79,34,10.23,6.87.84,13.77,1.51,20.62,2.49,8.58,1.22,17.17,2.47,25.82,2.65s17.34-.08,26-.69c12.8-.92,25.62-1.45,38.31-3.42,13.9-2.14,27.19-6.23,38.45-15,6.47-5,12.24-10.88,14.64-19.22,2.21-7.69.12-16.06-5.44-20.4a33.9,33.9,0,0,0-12.06-6,67.8,67.8,0,0,0-21.69-2.08c-1.3-1.24-1.79-3-2.6-4.49a85.74,85.74,0,0,0-28.57-31.33c-2.46-1.63-5-3.31-8.16-3.05-2.06.17-3.19-1.12-4.34-2.45a56.37,56.37,0,0,1-13.66-31.6c-.21-2-.05-3,.81-3.41a5,5,0,0,1,4.11-2.55,5,5,0,0,1,2.23-.85,5.33,5.33,0,0,1,2.84-.77h.19a18.5,18.5,0,0,1,4.72-.69c7.52-1.65,15.08-3.24,21.55-7.87,1.59-.7,3.17-1.43,4.78-2.09,5.29-2.24,10.63-4.38,15.89-6.72,2.64-1.15,2.94-2.31,1.46-4.31a12.1,12.1,0,0,0-1.48-1.47c-8.4-8.32-13.64-18.37-16.64-29.74-3.76-14.3-3.38-28.64-.88-43,1.57-9,.85-7.19,8.24-6.32,8.34,1,16.33-.37,24.15-3.05,2.53-.86,2.85-1.85,1.15-3.75-6.61-7.39-8.68-16.52-10.26-25.88a8.89,8.89,0,0,1,1.39-6.9,73.35,73.35,0,0,0,8-15.85,45.3,45.3,0,0,0,1.94-25.69,29.08,29.08,0,0,0-14.86-19.93A28.55,28.55,0,0,0,182,263a8.08,8.08,0,0,1-4.09.09c-7.67-2.35-14.4-11.28-14.63-19.35a3.54,3.54,0,0,1,2.58-3.89c3.06-1.24,6.12-2.54,9-4.07,17.55-9.24,30.28-23.24,39.75-40.44.87-1.59,1.39-3.47,2.82-4.65,1.22.61,1.11,1.58,1.2,2.4.48,4,.89,8,1.35,11.94.14,1.18.14,2.72,1.78,2.65,1.35-.06,1.22-1.49,1.31-2.47.33-3.47.57-7,.92-10.42.25-2.58-.72-5.81,1-7.6s5.11-1.32,8.25-1.69a108.52,108.52,0,0,1-.41,21.85c-.3,2.07-.65,4.13-1,6.2a1.7,1.7,0,0,0,.61,1.84,1.53,1.53,0,0,0,1.92-.22A24.28,24.28,0,0,0,236.7,213a105.87,105.87,0,0,0,19.09-25.42c1.06-2,2.1-3.93,3.15-5.9a2.1,2.1,0,0,1,1.05,1.88c.26,2.07.4,4.16.66,6.22.16,1.31-.52,3.24,1.24,3.6,2.14.44,2-1.92,2.79-3.13a6.35,6.35,0,0,0,.36-1,139.38,139.38,0,0,0,10.19-60.34c-.07-1.59-.56-3.3.25-5.25,3.3,2.2,4.76,5.1,6,8.16.34.86.78,1.75,1.75,1.57.54-.07,1.12-.82,1.39-1.39a23.48,23.48,0,0,0,1.2-3.45A42.11,42.11,0,0,0,269.4,82.89Z"/><path class="cls-1" d="M135.6,170.44c.21.24.43.47.64.7C136,170.91,135.81,170.68,135.6,170.44Z"/><path class="cls-2" d="M285.81,128.58a23.48,23.48,0,0,1-1.2,3.45c-.27.57-.85,1.32-1.39,1.39-1,.18-1.41-.71-1.75-1.57-1.23-3.06-2.69-6-6-8.16-.81,2-.32,3.66-.25,5.25A139.38,139.38,0,0,1,265,189.28a6.35,6.35,0,0,1-.36,1c-.78,1.21-.65,3.57-2.79,3.13-1.76-.36-1.08-2.29-1.24-3.6-.26-2.06-.4-4.15-.66-6.22a2.1,2.1,0,0,0-1.05-1.88c-1.05,2-2.09,3.94-3.15,5.9A105.87,105.87,0,0,1,236.7,213a24.28,24.28,0,0,1-2.29,2.14,1.53,1.53,0,0,1-1.92.22,1.7,1.7,0,0,1-.61-1.84c.33-2.07.68-4.13,1-6.2a108.52,108.52,0,0,0,.41-21.85c-3.14.37-6.45-.19-8.25,1.69s-.75,5-1,7.6c-.35,3.46-.59,6.95-.92,10.42-.09,1,0,2.41-1.31,2.47-1.64.07-1.64-1.47-1.78-2.65-.46-4-.87-8-1.35-11.94-.09-.82,0-1.79-1.2-2.4-1.43,1.18-2,3.06-2.82,4.65-9.47,17.2-22.2,31.2-39.75,40.44-2.93,1.53-6,2.83-9,4.07a3.54,3.54,0,0,0-2.58,3.89c.23,8.07,7,17,14.63,19.35A8.08,8.08,0,0,0,182,263a28.55,28.55,0,0,1,18.81,2.69,29.08,29.08,0,0,1,14.86,19.93,45.3,45.3,0,0,1-1.94,25.69,73.35,73.35,0,0,1-8,15.85,8.89,8.89,0,0,0-1.39,6.9c1.58,9.36,3.65,18.49,10.26,25.88,1.7,1.9,1.38,2.89-1.15,3.75-7.82,2.68-15.81,4-24.15,3.05-7.39-.87-6.67-2.69-8.24,6.32-2.5,14.4-2.88,28.74.88,43,3,11.37,8.24,21.42,16.64,29.74a12.1,12.1,0,0,1,1.48,1.47c1.48,2,1.18,3.16-1.46,4.31-5.26,2.34-10.6,4.48-15.89,6.72-1.61.66-3.19,1.39-4.78,2.09-6.47,4.63-14,6.22-21.55,7.87a18.5,18.5,0,0,0-4.72.69h-.19a5.33,5.33,0,0,0-2.84.77,5,5,0,0,0-2.23.85,5,5,0,0,0-4.11,2.55c-.86.44-1,1.41-.81,3.41a56.37,56.37,0,0,0,13.66,31.6c1.15,1.33,2.28,2.62,4.34,2.45,3.17-.26,5.7,1.42,8.16,3.05A85.74,85.74,0,0,1,196.22,545c.81,1.51,1.3,3.25,2.6,4.49,10.25,16.66,12.21,36.63-5.94,45.06-1.57.74-3,1.74-4.59,2.51-17.26,8.54-30.74,6.36-43.92-7.77-3.45-3.7-5.7-3.41-9.56-.88-16,10.49-33.6,14.24-52.46,10.35-14.16-2.91-24-13-26.5-25.75-.67-3.41.4-6.09,1.65-8.94,1.71-6.13,5.52-10.76,10.45-14.6,4-3.09,8-6.13,11.92-9.34,3.23-2.62,4.5-5.76,3.21-10.15-1.52-5.2-.4-7,4.42-9.66C80.41,504.23,75,487.52,69.41,470.9a6.76,6.76,0,0,0-1-2,8.93,8.93,0,0,0-.35-.85,6,6,0,0,0-.56-1.61c0-.14,0-.29-.06-.44-.41-2.51-1.75-4.6-2.39-7,.05-.7.08-1.5.11-2.48a3.61,3.61,0,0,1,.82-2.4c.59-2.43-1.56-2.87-2.88-3.76a121.81,121.81,0,0,1-26.7-24.11C23.66,410.38,15.53,392.6,14.51,372c-.27-5.29-.21-5.31,4.75-6.81a218.2,218.2,0,0,0,46.45-20c1.21-.69,2.41-1.41,3.57-2.18.22-.15.24-.58.47-1.19-4.38-.9-8.75-1.66-13-2.75-6.19-1.56-11.8-4.29-16-9.31-2.16-2.58-2.14-2.85.69-4.64a24,24,0,0,0,5.4-4.9c3.72-4.38,7.31-8.9,11.21-13.12A9.1,9.1,0,0,0,60.5,300a46.11,46.11,0,0,1,1.7-15c5.69-19.28,24.71-30.45,44.64-26.2,6.77,1.44,17.2-3.18,20.69-9.16,1.91-3.27,1.12-5-2.73-5.77-7.91-1.62-15.47-4.13-22.24-8.66l-1-.74h0c-.44-.71-1.47-.48-1.91-1.19l-.1-.06a4,4,0,0,1-.43-.32,4.25,4.25,0,0,0-.7-.5l0,0a1.78,1.78,0,0,0-1.17-.93,1,1,0,0,0-.25,0,.56.56,0,0,1-.63-.35,6.35,6.35,0,0,1-1-.83h0a2.9,2.9,0,0,0-1.1-.9l0,0s0,0,0,0a1.74,1.74,0,0,0-.91-.9,1.63,1.63,0,0,0-.46-.09.6.6,0,0,1-.64-.43,2.19,2.19,0,0,1-.92-.81l-.07-.06L90,226h0v0h0a3.45,3.45,0,0,0-1.06-.95h0s0,0,0,0l0,0a2.09,2.09,0,0,0-1-1h0s0,0,0,0a1.62,1.62,0,0,0-1.06-1s0,0,0,0h0a1.46,1.46,0,0,0-.54-.82,1.11,1.11,0,0,0-.37-.15,1,1,0,0,0-.24,0h0c-.32-1.06.32-1.5,1.18-1.82l.34,0,.36,0a2.78,2.78,0,0,1,.5.11,4.66,4.66,0,0,1,1,.64l.43.37c.27.25.53.53.78.8.13.12.25.26.38.39s.5.5.74.75l.37.37.73.75.38.37.77.7s.4.3.42.3l.91.51a7.9,7.9,0,0,1,.89.56c.28.23.54.47.8.71l.38.37.78.69s.41.29.42.29l.91.52a4.57,4.57,0,0,1,.87.55,10.22,10.22,0,0,1,.79.66s.38.31.4.31a12.75,12.75,0,0,0,1.36.75,5.77,5.77,0,0,1,.91.57c.32.2.63.41,1,.58l.55.23c.84.23,1.7.31,2.55.51,8.14,3.64,16.43,6.38,25.47,7a72.17,72.17,0,0,0,44.24-10.83c15.63-9.66,27-23.31,35.47-39.44.19-.27.38-.54.54-.82,0,0,0,0,0,0a11.08,11.08,0,0,0,.7-1.31v0c1.49-3.21,1.35-6.59.29-10.25a194.53,194.53,0,0,0-9-24.51c-5-11.54-13.85-19.39-24.46-25.6-8.86-5.18-18.37-9.26-26.42-15.71a1.39,1.39,0,0,1-.44-.73c-.25.15-.21.36.14.65,1.46,2.56,4.31,5.34,2,8-2.51,3-5.5-.07-8-1.29A105.22,105.22,0,0,1,121.8,99.87c-2.45-2.37-3.74-2.4-5.12,1-5.58,13.63-15,24.63-24.54,35.52-.07.48-.84.07-.87.65.73,0,1-.73,1.57-1A14.36,14.36,0,0,1,97,134.21l1.43-.42c3.76-.25,8-1.31,9.36,3.87,1,3.67-1.86,7.32-6.8,9.13-4.42,1.61-9.15,1.85-13.68,3a10,10,0,0,0-1.6.53,7.12,7.12,0,0,0-1,.48h0c-4.48,2.5-5,7.67-6.32,12.27a.53.53,0,0,0,0,.12,4.13,4.13,0,0,0-.15.5,42.74,42.74,0,0,0-.7,4.37c-.36,2.2.4,3.39,2.16,3.7h0a4.85,4.85,0,0,0,.9.1h.25c1.6-1,2.16-2.71,3.14-4.11,4.43-6.37,12.22-9.9,18.39-8.27,7.07,1.86,14.4,10.14,15.14,17.09,1.32,12.44-6.67,19.38-20.69,17.93-5.78-.6-11.3-2-16.17-5.37l-.22-.18a4,4,0,0,1-.64-.71,6.11,6.11,0,0,0-2.9-2.49c.3,7.07-1.1,13.69.1,20.25,0,0,0,0,0,.06a23.49,23.49,0,0,0,.84,3.3l0,0a4.11,4.11,0,0,1,.28,1.41.66.66,0,0,1,0,.13l-.06.22c-.26,1-.53,2-2,1.42-1.08-.59-2.18-2.21-3,.38a50.35,50.35,0,0,1-5,11.47c-.54.88-1.12,1.88-2.41,1.44-1.1-.35-.79-1.4-.81-2.21a36.29,36.29,0,0,0,0-4.17c-.19-1.31.83-3.53-1.76-3.5-2,0-3.69.55-3.58,3.3.18,4.69-.37,9.42.93,14,.18.68.26,1.38.41,2.06.19.85.51,1.81-.26,2.44-1.08.88-1.94,0-2.71-.66a62.35,62.35,0,0,1-8.79-8.93c-2.28-.35-1.24,1.09-1.1,2a60.87,60.87,0,0,0,7.3,18.9,15.06,15.06,0,0,1,1.73,3.2c.38,1.33-.59,2-1.78,1.58a12.75,12.75,0,0,1-3-2c-24.29-18.46-39.51-42.69-45.87-72.46a98.51,98.51,0,0,1-1.18-37.33c.62-3.65,2.18-7,3.39-10.38-.36-.79-.9-.3-1.39-.2-1.88.6-3.11,2.21-4.78,3.12C1,135.44-.07,135,0,133.27a17.66,17.66,0,0,1,.58-3.6A34.24,34.24,0,0,1,14,109.7c1-.72,1.95-1.41,3.34-2.41-2.31-2.06-4.89-1.75-7.34-2s-3-1.37-1.33-3.35A19.81,19.81,0,0,1,21.73,95c5.83-.76,11.36.39,17.08,3.08.37-8.38,5.56-13.55,10.83-18.71C55.86,73.28,61.88,67,68.21,61c7.5-7.09,9-15.3,5.62-24.8-2.07-5.89-4.77-11.63-5.23-18a23.57,23.57,0,0,1,.22-5.71,17.89,17.89,0,0,1,2.35-6.33C74.47.71,80-1.23,86.06.78a20.62,20.62,0,0,1,9.49,6.28A39.31,39.31,0,0,0,98.23,10c5.87,5.73,13.07,9,21,11.45,12,3.66,23.73,8.11,35.63,12.06,24,8,44.17,21.28,58.87,42.12,2.07,0,2.48-1.87,3.49-2.89a21.86,21.86,0,0,1,15.32-6.92c1.18,0,2.64-.35,3.26,1s-1,2-1.49,3.06c-.3,2.39,1.09,1.69,2.33,1.27,8.91-1.83,17.68-1.58,26.19,1.93A53.35,53.35,0,0,1,268,75.59c.89.48,2.08,1,1.83,2.26s-1.42,1.35-2.48,1.52c-.59.09-1.37-.12-1.68.77.82,1.45,2.44,1.87,3.69,2.75A42.11,42.11,0,0,1,285.81,128.58Z"/><path class="cls-3" d="M87.69,220.78a2.47,2.47,0,0,0-2.16,1.2A42.41,42.41,0,0,1,76,212.56a2,2,0,0,0,1.34-2.1c.25.11.49.21.73.33a19.53,19.53,0,0,1,9.3,9.38Z"/><path class="cls-4" d="M236.69,71.15a14.74,14.74,0,0,1-1.81.93c-.64.21-1.63.36-1.85-.29-.31-.91.48-1.54,1.33-1.91C234.81,70.9,235.8,70.92,236.69,71.15Z"/><path class="cls-5" d="M49.09,228.2c-.92.38-.8,1.33-1.1,2a9.64,9.64,0,0,1-.85-1.7c-.18-.61-.22-1.58.37-1.75C48.47,226.48,48.88,227.35,49.09,228.2Z"/><path class="cls-6" d="M8.54,131.77l-1.39-.2a1.12,1.12,0,0,1,1.46-.72C9.19,131.1,9,131.5,8.54,131.77Z"/><path class="cls-3" d="M101.51,234.42h-.05a2.18,2.18,0,0,1-1.88-1.19A2,2,0,0,1,101.51,234.42Z"/><path class="cls-3" d="M99.48,233.17a1.16,1.16,0,0,1-1.17-.82.08.08,0,0,1,0,0l.06,0h0c.23.17.46.35.7.5A1.66,1.66,0,0,0,99.48,233.17Z"/><path class="cls-3" d="M98.35,232.35h0a1.69,1.69,0,0,1-1.4-1,1,1,0,0,1,.25,0,1.48,1.48,0,0,1,1.17.93Z"/><path class="cls-3" d="M96.28,231a1,1,0,0,1-1-.83h0Z"/><path class="cls-3" d="M102.56,235.16a1,1,0,0,1-1.1-.74,0,0,0,0,0,0,0l0,0h0Z"/><path class="cls-3" d="M95.24,230.17h0a1.3,1.3,0,0,1-1.17-.91.42.42,0,0,0,0-.06h.07A1.45,1.45,0,0,1,95.24,230.17Z"/><path class="cls-3" d="M94.14,229.27h-.07a1.79,1.79,0,0,1-1.34-1,1.63,1.63,0,0,1,.46.09,1.43,1.43,0,0,1,.93.91s0,0,0,0Z"/><path class="cls-3" d="M92.09,227.79a.88.88,0,0,1-.92-.81Z"/><path class="cls-3" d="M91.1,226.92A1.23,1.23,0,0,1,90,226h0C90.36,226.32,90.73,226.63,91.1,226.92Z"/><path class="cls-3" d="M90,226v0a1.29,1.29,0,0,1-1.12-1,.23.23,0,0,0,0,0l0,0s0,0,0,0h0L90,226Z"/><path class="cls-3" d="M88.93,225h-.05a1.34,1.34,0,0,1-1.1-1s0-.06,0-.07h.06A1.39,1.39,0,0,1,88.93,225Z"/><path class="cls-3" d="M87.84,224h-.06a1.36,1.36,0,0,1-1.1-1s0-.05,0-.06h.07a1.28,1.28,0,0,1,1.09,1v0A.1.1,0,0,0,87.84,224Z"/><path class="cls-3" d="M86.75,223h-.07A1.35,1.35,0,0,1,85.57,222a1,1,0,0,1,.24,0,1.11,1.11,0,0,1,.37.15,1.15,1.15,0,0,1,.55.82s0,0,0,0Z"/><path class="cls-7" d="M238,578c-2.4,8.34-8.17,14.19-14.64,19.22-11.26,8.74-24.55,12.83-38.45,15-12.69,2-25.51,2.5-38.31,3.42-8.7.61-17.37.86-26,.69s-17.24-1.43-25.82-2.65c-6.85-1-13.75-1.65-20.62-2.49-11.92-1.44-23.82-2.88-34-10.23a38.52,38.52,0,0,1-10.58-11.38c-2.54-4.22-2.93-9-2.17-13.66,1-6.2,5.68-9.39,13.61-9.7,3.83-.15,7.68-.16,11.51,0a5.48,5.48,0,0,0,5-2.13c-3.36,18.29,11.3,30.61,25.06,33.38,20.21,4.08,38.64-.65,55.2-12.71,2.2-1.61,3.17-1.86,4.87.57a40.74,40.74,0,0,0,14.23,12.07,27.73,27.73,0,0,0,22.74,1.88,71.14,71.14,0,0,0,16.76-8.41c7.46-5,9.88-12.26,8.48-20.91a97.37,97.37,0,0,0-6-20.45,67.8,67.8,0,0,1,21.69,2.08,33.9,33.9,0,0,1,12.06,6C238.13,561.92,240.22,570.29,238,578Z"/><path class="cls-8" d="M127.73,288.76c-2.84,8.89-1.51,17.89-.54,26.84.43,4,1.17,7.92-.08,11.86-.52,1.63,0,2.71,1.66,3.18,2.31-.51,3.11-2.68,4.46-4.18,4.19-4.65,5-4.58,7,1.14a59.5,59.5,0,0,0,5.11,10.86c1.62,2.69,4.15,2.64,5.27,0,5.43-12.72,13.08-24.8,12.31-39.47a21,21,0,0,0-.67-4.64c-1-3.55.73-4.82,4-4.68a36.24,36.24,0,0,1,4.65.71c4.47.76,8.91,1.61,13.47.46,1.68-.42,3.5-.41,4.85,1.1,3.42,10.07,3.06,20.27.71,30.42-3,12.88-6.39,25.66-9.42,38.52a142.59,142.59,0,0,0-3.86,37.3c.56,18.44,6.16,34.84,18.76,48.59.47.51.87,1.07,1.21,1.49-.09,1.25-.92,1.58-1.71,1.91-15,6.24-29.95,12.28-45.83,15.92-22.58,5.18-44.22,3.06-65.1-7.09-16-7.77-30.48-17.59-42.42-30.88A94.93,94.93,0,0,1,17,372.23c-.29-3,1.33-4,3.68-4.68a216.53,216.53,0,0,0,42.8-18A184.47,184.47,0,0,0,79.66,340c8-5.51,12.31-12.79,12.53-22.76.21-9.78,3.65-18.73,9-26.93.76-1.17,1.59-2.29,2.33-3.47.54-.87,1.32-1.87.14-2.73-1-.69-1.54.3-2.14.87s-1.23,1.22-1.85,1.84c-.87.34-.63,1.43-1.28,1.92v0a4.67,4.67,0,0,0-.91,1.17h0c-4.56,6.25-6.58,13.61-9,20.79-2.12,6.28-5,12.22-9.53,17.09-2.57,2.76-5.53,5.57-9.87,2.86-2.78-5.3-3.71-11.14-4.74-16.91C63,305.89,62.19,298,63.77,290c1.5-7.51,4.46-14.15,10.33-19.28a6.78,6.78,0,0,1,5.54.48c14.72,6.62,29.61,12.71,45.53,15.89A3.93,3.93,0,0,1,127.73,288.76Z"/><path class="cls-9" d="M87.69,220.78,77.38,210.46l.19-.38c-1.36-6.51-.74-13,.7-19.36.28-1.28.59-2.83,2.55-2.6,4.73,2.08,9.31,4.44,14.68,4.82a33.86,33.86,0,0,0,16.25-2.86c3-1.32,4.44-3.52,4.64-6.89.45-7.39-1.26-13.7-7.32-18.59-7.54-6.08-16.94-5.25-23,2.4a23.21,23.21,0,0,0-3.53,6.37c-.4,1.1-1.18,1.07-2,.29-1.73-2.6-1.54-5.31-.47-8.06,2.87-4.29,2.87-4.29,9-7.67-2,.42-3.66,2.09-5.88,1.46-2.59-4.42,1-7.29,2.67-10.64,3.35-1.58,7.07-1.45,10.59-2.25,2.71-.62,5.41-1.21,7.7-2.88s3.2-4.12,2.39-6.3c-1-2.62-3.21-2.86-5.54-2.75-1.21.06-2.41.26-3.61.39-1.12-2-1.2-2,.55-4,3.25-3.65,6.15-7.58,9.28-11.33a103.84,103.84,0,0,0,8.43-12c2.76-4.45,3.73-4.78,7.73-1.59,8.45,6.75,18.17,11,28.14,14.77,2.15.82,4,1.8,5.94-.8,1.28-1.71,10.63,1.34,10.87,3.46.25,2.32-2,1.86-3.35,2.28a17.44,17.44,0,0,0-7.58,1.69c-1.8.91-3.47,2-2.87,4.36s2.64,2.48,4.6,2.55a4.6,4.6,0,0,0,1.05,0,51.3,51.3,0,0,1,28.23,2.37,6.47,6.47,0,0,1,3.94,2.4c9.2,11.72,17.19,24.09,20.61,38.89a36.15,36.15,0,0,1,.6,12.44c-13.58,27.21-34.06,45.83-64.84,51a65.32,65.32,0,0,1-40.55-6.18c-.77-.38-1.59-.64-2.39-1-.6-.59-1.66-.35-2.12-1.18l.09.07c-.49-.16-.79-.61-1.24-.85l-.07,0c-.43-.75-1.5-.48-1.94-1.22l.07.06c-.45-.23-.75-.65-1.2-.88l-.09,0c-.4-.78-1.52-.48-1.89-1.29l.09.08a3.55,3.55,0,0,1-1.21-1h0a4.73,4.73,0,0,0-1.11-.88l-.12-.08c-.34-.8-1.51-.49-1.82-1.34l.09.09a2.15,2.15,0,0,1-1.18-1l.06.06a4.49,4.49,0,0,1-1.15-1v0a12.82,12.82,0,0,0-1.1-1l0,0a3.28,3.28,0,0,0-1-.93l-.11-.09a1.71,1.71,0,0,0-.95-.88Z"/><path class="cls-10" d="M187.27,87.9c-7.14-2.2-13.86-5.57-21.12-7.45-10.91-2.83-21.79-4.29-32.92-1.14a40.8,40.8,0,0,0-12.71,5.88,7.51,7.51,0,0,1-5.3,1.69c-14.72-1.54-27.84,2.74-39.86,11a6.19,6.19,0,0,1-.93.46c-8,4.16-16.37,4.61-24.9,2.25C43.89,99,42.88,97,43.87,91c1.11-2.85,3.3-4.89,5.38-7,7.11-7.19,14.28-14.31,21.4-21.48,5-5,8.29-10.87,7.62-18.16a42.89,42.89,0,0,0-2.92-12.14A71.93,71.93,0,0,1,71.6,20.27,17.14,17.14,0,0,1,72.85,9.06c2.71-5.7,8.24-7.69,14-5.05A13.5,13.5,0,0,1,92,7.55c7.71,9.85,18.63,14,30,17.77,14.71,4.83,29.53,9.41,43.83,15.4a106.47,106.47,0,0,1,42.79,32.53,9.3,9.3,0,0,1,.92,1.84c1.25,4-1.12,6.75-3.81,9C200.3,88.46,194.2,90.38,187.27,87.9Z"/><path class="cls-11" d="M262.89,183q-.61-3.86-1.25-7.73c-.12-.72-.44-1.37-1.23-1.47a1.53,1.53,0,0,0-1.63,1c-.51,1.11-.95,2.25-1.45,3.36a105.08,105.08,0,0,1-17.7,27.6c-1,1.12-1.75,2.61-3.44,3-1-.87-.51-2-.36-2.85a73.58,73.58,0,0,0,.29-19.27c-.21-2.08.23-3.22,2-4.18,13-6.91,20.32-18.86,26.38-31.49,5.25-10.95-1.41-21.31-13.57-22.45a26.45,26.45,0,0,0-16.46,4c-3.23,1.95-6.39,4-10.06,6.34-.33-3.57-1.49-6.5,1.25-9.19a6.36,6.36,0,0,0,1.45-5.41c-.47-4,.58-7.57,2-11.18a27.41,27.41,0,0,0,1.49-5.53c1.2-7.73-4.83-12.83-12.2-10.42-1.22.4-2.22,1.4-3.86.51-3.55-1.91-3.75-2.17-2.37-6.26,1-3,1.73-6,2.77-9,2.48-7.06,7.19-11.7,15.05-13.46.33,2.11-1.07,3.42-1.43,5-.5,2.13.29,2.95,2.47,2.38,1.34-.35,2.6-1,3.93-1.42a39.14,39.14,0,0,1,28.58,1.7c-2,1.28-4.22.6-5.55,2.43.33,2,2.26,2.08,3.7,2.8,15.19,7.6,22.67,20,22.86,36.88,0,2.77-.71,5.39-1.34,8.89-2.6-2.7-4.15-5.53-6.91-7-1.2-.65-2.33-1.93-3.78-1-1.24.78-.63,2.22-.56,3.38a189.46,189.46,0,0,1,.25,23A123.64,123.64,0,0,1,264.74,182C264.26,182.56,264,183.61,262.89,183Z"/><path class="cls-12" d="M121.63,523.59c4.17,4.06,5.42,8.93,6.22,14.2,1,6.2.56,12.46,1.58,18.67,1.42,8.58,4.89,16.25,9.34,23.88a68.18,68.18,0,0,1-26,13.66c-10.42,3-20.91,3.64-31.33.32S63.22,585.16,60.34,574c-1.78-6.86.19-12.67,4.64-17.86,4-4.69,9.24-7.9,14.06-11.59a26,26,0,0,0,4.65-4.16c2.13-2.64,3.72-5.45,2.35-9.09a15.88,15.88,0,0,1-.8-4.61c-.11-1.83,1.25-2.66,2.7-3.45s2.09.25,3,1.14c3.58,3.65,7.5,6.81,12.86,7.28C112.35,532.41,115.49,531,121.63,523.59Z"/><path class="cls-11" d="M220,184.05a184,184,0,0,0-11.45-33,54.6,54.6,0,0,0-22-24.51c-6.76-4-13.65-7.72-20.44-11.64a72.47,72.47,0,0,1-11.18-7.69,19.73,19.73,0,0,1-4.36-5.17c-.62-1.08-.7-3.3-2.54-2.69-2.28.76-.57,2.7-.48,4.06.26,3.83,2.08,7.29,3.05,11-7.06-1.2-26.16-15.68-31.88-24.18a37.14,37.14,0,0,1,23.58-9.81c10.1-.64,19.74,1.57,29.2,4.78A208.26,208.26,0,0,1,195,95.13c15.1,7.27,23.75,19,25.84,35.77a245.78,245.78,0,0,1,1,52.15C221.34,183.63,221.08,184.65,220,184.05Z"/><path class="cls-11" d="M48,244.92c-24.42-21.47-38.23-48.3-41-80.8a88.23,88.23,0,0,1,.26-18.24,34.19,34.19,0,0,1,5.14-14.65c.82-1.27,2.15-2.32,2-4.27-3.93-1.32-6.85,1.63-10.87,2.65a31.08,31.08,0,0,1,9.21-15.23,37.15,37.15,0,0,1,6.35-4.56c1.11-.67,3-.87,2.71-2.68-.24-1.46-1.77-2.09-3-2.67-1.89-.87-3.84-1.58-5.83-2.39C24,92,41,99.8,49.25,111.15c-10.87,7.36-14,18.36-13.89,30.68.07,5.38,1.94,10.2,6.49,13.66,2.39,1.81,3,5.57,6.69,6.14.77.11.79,1.92.35,2.85s-1.47.63-2.31.39a37,37,0,0,0-11.31-1.75,20.42,20.42,0,0,0-8.57,2c-8.51,4.13-11.6,13.1-7.41,21.58a24,24,0,0,0,4.54,6.36,157.89,157.89,0,0,0,23.46,19.14,22.28,22.28,0,0,0,7.12,3.19,2.54,2.54,0,0,1,2.23,2.93c-.06,4.12,0,8.25,0,12.94-2.71-1.28-4-3.37-5.52-5.13-1.24-1.45-2.29-3.07-3.44-4.6-.7-.93-1.13-2.55-2.61-2.11-1.84.56-1.14,2.37-1,3.61.35,3.11.86,6.21,1.48,9.27a65.54,65.54,0,0,0,3.71,11.41C49.55,244.84,49.05,245.14,48,244.92Z"/><path class="cls-12" d="M128.86,529.07c2.85,1.83,4.68,3.12,6.61,4.22,9.32,5.32,19.77,2.17,23.75-7.08,1.38-3.18,1.26-6.45.66-9.74-.18-1-.78-1.92-.34-3.2,2.5-.16,4.32,1.22,6.13,2.42C184.23,528,196.06,545,201.54,566.53a29.76,29.76,0,0,1,.3,12,13.56,13.56,0,0,1-5.7,9A70.61,70.61,0,0,1,182,595.33c-11.74,5-22.24,2.46-31.4-5.89a57.18,57.18,0,0,1-18.88-37.33C130.89,544.73,131.48,537.23,128.86,529.07Z"/><path class="cls-11" d="M68.12,216.73c-1.59-11.65-6.13-22.26-9.5-33.18-2.22-7.21-2.48-14.68-3.48-22.05-.17-1.26.53-2.7,1-4,2.25-5.65,4.58-11.28,6.89-16.92.46-1.12,1-2.22,1.38-3.36a1.14,1.14,0,0,0-.53-1.35,1.22,1.22,0,0,0-1.8.33,17.75,17.75,0,0,0-1.4,2.79c-2.15,5.13-4.23,10.3-6.44,15.41-.57,1.31-.6,3-2.73,4.2a81.22,81.22,0,0,1,4.07-27.47c6.6-19.24,18.91-33.08,38.61-39.52a39.71,39.71,0,0,1,18-2c3.19.45,3.52.86,2.68,4a60.87,60.87,0,0,1-8.35,17.91c-5.08,7.73-11.25,14.62-16.87,21.94-1.9,2.49-3.74,5-5.56,7.58C76.71,151.43,72.76,162.9,73,175.74c.11,5.39.09,10.79.11,16.19C73.13,200.51,72.09,208.89,68.12,216.73Z"/><path class="cls-9" d="M160.33,245.74c2.11,8.51,6.46,15.36,15.15,19.52-6,5.42-12.66,8-19.9,9.46a3.35,3.35,0,0,1-2.45-.64c-3.44-2-7.16-1.73-10.68-.74a11.89,11.89,0,0,1-6.62-.18A46.68,46.68,0,0,1,115,262c6.23-3.12,12.12-6.16,15.83-12a2.94,2.94,0,0,1,3-1.54c8,.73,15.8-.63,23.45-2.93A4.13,4.13,0,0,1,160.33,245.74Z"/><path class="cls-13" d="M165.25,124.52l2.18-.3c-.81-1.51-2.48-1.34-3.6-2.08a25.49,25.49,0,0,0-3.73-1.87c-.8-.35-1.81-.71-2,.66-.31,2.9-2.47,2.94-4.22,2.23-9.63-3.86-19.59-7.13-27.93-13.61-2-1.6-4.46-2.71-6-5-2.56,1.22-3.13,3.65-4.21,5.43-4.87,8.06-11.14,15-17.15,22.14-.64.75-2.52,1.17-1.17,2.81-1.49,1.22-3.37,1.54-5.1,2.2a1.2,1.2,0,0,1-1.59-.18c3.15-5,7.23-9.36,10.9-14,6.42-8.11,12.19-16.55,15.45-26.47a1.46,1.46,0,0,1,1.22-1.2c3.88,3.34,7.88,6.91,12,10.33a110,110,0,0,0,21.08,13.48,18.06,18.06,0,0,0,2.38,1.07,1.65,1.65,0,0,0,1.93-.29,1.7,1.7,0,0,0,.08-1.94c-1.1-2.36-2.61-4.53-3.18-7.13a1,1,0,0,1,1.5-.21c8.41,6,17.52,10.75,26.56,15.63a58.45,58.45,0,0,1,28,31.81c2.58,6.85,4.83,13.79,7.05,20.75a11.72,11.72,0,0,1-2.12,11.64,8.9,8.9,0,0,1-1.12-5,41.62,41.62,0,0,0-3.79-17.12,130.54,130.54,0,0,0-17.48-28.8,4.44,4.44,0,0,0-3.1-1.68c-5.48-4.69-11.82-7.81-18.46-10.46C168,126.74,165.61,127.15,165.25,124.52Z"/><path class="cls-9" d="M228.22,140.22c5.15-4.27,10.7-7.73,17.43-8.9a15.8,15.8,0,0,1,13.62,3.61c3.57,3.07,5,7,3.73,11.7A25.11,25.11,0,0,1,261,152a108,108,0,0,1-10.65,16.68c-5,6.24-11,11-18.76,13.48-.71.42-1.62.28-2.3.8l-1,.07a4.83,4.83,0,0,1-.32-6.09,2.92,2.92,0,0,1,1.28-.72c1.28-.19,2.65.53,3.87-.35a10.21,10.21,0,0,0,.86-1A18.2,18.2,0,0,1,238.39,164c2.35-2.92,2.44-5.82-.11-8.89s-2.16-5.08,1.41-7.35c2.46-1.58,5.24-1.42,8-1.73,1.72-.21,4.51,1.19,4.79-2.26-5.75-3.87-14.42-2.66-19.55,2.72-1.34,1.4-2.13,3.7-4.8,3C226.06,146.38,226.36,143.29,228.22,140.22Z"/><path class="cls-9" d="M55.26,212.48c-2.91-.23-5.29-1.76-7.53-3.36a211.66,211.66,0,0,1-19.22-15.2,26.19,26.19,0,0,1-6.66-8.6c-3.92-8.89.84-17.65,10.48-19a28.77,28.77,0,0,1,15.81,2.18c1.81,2.64,1.94,5-1,7-2.67.89-5.47.22-8.18.61-3,.44-6.22.67-7.33,4.34,1.54,2.35,3.64,1.39,5.63.94,3-.69,4.5-.11,5.21,3.56,1.34,6.95,6.15,11.67,12.45,14.58,3.5,1.61,6.84,7.55,5.45,11C59.41,213,57.51,213.27,55.26,212.48Z"/><path class="cls-8" d="M210.26,279.4c5.11,9.18,4.33,18.76,1.57,28.31a70.81,70.81,0,0,1-11,21.76c-5.29-.72-5.39-5.18-6.06-8.91-.52-2.84.18-5.84-.05-8.77a68,68,0,0,0-2.26-19.73,2.26,2.26,0,0,1,1.26-3.42c5.38-2.2,9.82-5.75,14.21-9.42A1.68,1.68,0,0,1,210.26,279.4Z"/><path class="cls-14" d="M210.26,279.4c-.63.21-1.48.23-1.88.66a32.16,32.16,0,0,1-13.8,9.36,3,3,0,0,0-2.14,2.64c-1-.72-2.07-1.95-3.18-.1a23.76,23.76,0,0,0-6.7.61c-4.69,1.24-9.26-.5-13.84-1.18-1.89-.28-3.68-.8-5.67-.18-.1,2.88,1.29,5.37,1.39,8.17.31,9.32-2.87,17.69-6.38,26-1.75,4.16-3.63,8.26-5.3,12.44-.82,2.07-1.9,3.8-4.22,4.11s-3.56-1.51-4.48-3.06c-2.75-4.62-5.24-9.38-6.25-15.06-2.94,1.5-3.66,4.79-6.05,6.46-1,.68-1.79,1.9-3,.36a28.94,28.94,0,0,1,11.17-15.5c.47,2.5.94,4.74,1.3,7a54.48,54.48,0,0,0,5.13,15.24c.86,1.77,2.46,1.77,2.93,0,2.15-8.16,6.83-15.22,9.73-23,3.28-8.8,4.23-17.56-2-25.75-1.44-1.89-.9-2.62,1.5-2.9,3.54-.42,6.91.65,10.3,1.3,13,2.52,24.41-1.1,34.7-8.88C207.59,275.05,207.45,274.87,210.26,279.4Z"/><path class="cls-15" d="M130.94,318.94c-1.39-9-3.29-17.72-1.2-26.59.65-2.79,1.83-5.25,4.39-6.82,1.62-1,3.07-1.48,4.44.57a8.71,8.71,0,0,0,7,4c2.21.14,2.36,1.53,2.2,3.28a28.72,28.72,0,0,1-4.83,13.09C139.78,311.33,135.2,314.84,130.94,318.94Z"/><path class="cls-16" d="M55.26,212.48c4.61-1,5-1.52,3.71-5.77-.29-1-.72-2-.94-3-.49-2.24-1.79-3.24-4.08-2.92a3.77,3.77,0,0,1-4.5-2.58c-.78-2-2.48-3.3-3.94-4.77-4.8-4.83-4.82-4.82-4.67-11.55-3.92.48-8.23,4-11.56-.89,5.21-4.4,10.9-6.8,17.7-3.94,3.07,1.29,5.29,3.05,2.6,6.65-1.39,1.88-1.06,3.58.62,5.05a17.52,17.52,0,0,1,5.37,7.32c-.8-2-1.44-4-3-5.45-2.74-2.45-4.39-4.86-1.33-8.36,1.33-1.52-.24-2.75-1.33-3.92S46,177.27,46,174.73c1.62-.19,2.26-1.16,2.19-2.74,0-1.16,0-2.32,0-3.49,1.67.12,3.23.92,5,.6.53,7.7,2.78,14.79,5.06,21.88,1.85,5.76,3.65,11.55,5.23,17.4,1.19,4.39.47,5.11-4.23,5.06C57.81,213.43,56.39,213.54,55.26,212.48Z"/><path class="cls-15" d="M146.91,331.58c-3.24-8.4-5.84-16.76-.26-25.52a27.61,27.61,0,0,0,4.14-13.82c.05-1.24,0-2.65,1.37-3.07s2.22.74,3,1.71a17.71,17.71,0,0,1,3.62,13.22,38.25,38.25,0,0,1-3.2,11.49c-2.47,5.36-5,10.67-7.51,16Z"/><path class="cls-17" d="M76.79,482.4c5.43,1,10.31,2.11,15.33,2.49,3.13.24,6.2.77,9.33.19a4.18,4.18,0,0,1,2,0c.93.34,3.47,8.65,3.07,9.7s-1.29,1.11-2.15,1.13c-5.91.19-11.73.32-17.6-1.33C80.61,492.86,77.32,489.34,76.79,482.4Z"/><path class="cls-18" d="M89.4,188.21a4.28,4.28,0,0,1-1.25,0c-5.49-1.84-5.46-1.83-4.54-7.58a26.38,26.38,0,0,1,3.08-9.34c3-5.14,7.23-8.53,13.51-8.07,4.89.35,11.62,6.62,12.74,11.82.77,3.53,1.37,7.17-.17,10.77-1.93-.53-1.51-2.17-1.78-3.38-.84-3.6-2-7-4.74-9.68-5.06-4.93-11.88-3.85-15.21,2.39a17,17,0,0,0-1.73,8.58C89.34,185.14,90,186.47,89.4,188.21Z"/><path class="cls-18" d="M109.21,490.84c10.5.19,20.87.78,30.06-4.75.44.26.88.36.95.58,2.59,7.86,3.66,6-4.16,9.46-6.45,2.85-13.31,4-20.26,4.78-2,.22-3.33-.29-4-2.34C110.92,496.15,109.55,493.89,109.21,490.84Z"/><path class="cls-14" d="M69.09,330.64c6.85.79,9.73-4.26,12.75-8.87,3.54-5.4,5.61-11.52,7.72-17.56,1.5-4.29,3.76-8.2,5.7-12.27a3.33,3.33,0,0,1,2.22-2c-2.15,5.83-5.42,11.22-6.6,17.44a88.72,88.72,0,0,0-1.82,12.82c-.39,9.52-6.3,15-13.78,19.38-1.53.9-2.59.43-3.34-1.13A28,28,0,0,1,69.09,330.64Z"/><path class="cls-19" d="M43.87,91c.29,6.11,1,6.94,7,8.45a34.58,34.58,0,0,0,16.46.07c2.33-.53,4.62-1.68,7.14-1.15-3.92,4.64-8.85,8.33-12.32,13.39-1,1.48-2.46,1.94-4.52.93-2.81-1.39-5.65-2.41-7.45-5.29a16.23,16.23,0,0,0-3.74-3.6C41,99.36,40.62,97.55,43.87,91Z"/><path class="cls-18" d="M72.64,468.12c7.5,2.81,14.92,5.83,23,6.35.18,0,.35,0,.52.06,6,.64,6,.64,6.74,7.49-9.09,1.25-17.83-.6-26.54-2.83a2.59,2.59,0,0,1-1.65-1.12C73.76,476.64,72.46,470.67,72.64,468.12Z"/><path class="cls-20" d="M90.34,518.18c7.56-.19,14.44-.18,21.34.33,2.17.16,4.47,1.19,6.53-.45.9-.72,1.19.19,1.62.6a1.6,1.6,0,0,1,.33,1.9,14.52,14.52,0,0,1-15.86,8.34C98.18,527.71,93.73,524.27,90.34,518.18Z"/><path class="cls-14" d="M127.73,288.76a148.28,148.28,0,0,1-38.64-12,131,131,0,0,0-15-6c3.75-3.74,3.74-3.71,8.24-1.59,13.84,6.52,27.91,12.39,43.21,14.64a24.76,24.76,0,0,1,3.86,1.24A4.26,4.26,0,0,1,127.73,288.76Z"/><path class="cls-21" d="M114.58,503.66a71,71,0,0,0,27-6.77c1.22-.58,2.39-1,3,.63s3.07,3.3.85,5.53a20.52,20.52,0,0,1-7.13,4.27c-5.74,2.33-11.9,2.46-17.93,3C116.26,510.69,116,506.74,114.58,503.66Z"/><path class="cls-22" d="M106.44,479.83c2.1.18,4.31.27,6.5.58,7.84,1.12,15.53.23,23.15-1.66,1.17-.3,2.48-.94,3,.81.36,1.33.63,2.81-.84,3.76a18.11,18.11,0,0,1-2.74,1.48,47.08,47.08,0,0,1-23.91,3.33c-3.12-.35-4.82-1.5-5-4.7C106.52,482.29,105.42,481.22,106.44,479.83Z"/><path class="cls-18" d="M120.28,513.06c10.28-.61,19.95-1.64,27.88-8.37a5.47,5.47,0,0,1,1.35.84c4,4.51,4,4.51-1.27,7.87a45,45,0,0,1-16.47,6.26C125,520.89,124,520.4,120.28,513.06Z"/><path class="cls-23" d="M58.37,117.07c-1,2.48-2.12,5.15-3.26,7.79a71.53,71.53,0,0,0-6,28.38c0,1,0,2.09-.11,3.13,0,.5-.26,1.11-.88,1.09a2,2,0,0,1-1.32-.55A7.91,7.91,0,0,1,45,152.13a71.7,71.7,0,0,1,3.41-27.79,11.82,11.82,0,0,1,7.76-7.9A1.91,1.91,0,0,1,58.37,117.07Z"/><path class="cls-23" d="M69.66,454.58a148.49,148.49,0,0,0,18.53,9.14l9.24,3.53a28.34,28.34,0,0,1,2.93,1.07,2,2,0,0,1,1,2.22c-.19,1-1,1.3-2,1.34-5.28.18-10.35-1.1-15.33-2.6-3.49-1-6.82-2.6-10.26-3.8-2.31-.81-3.85-1.94-3.87-4.73C69.92,458.9,68.71,457.11,69.66,454.58Z"/><path class="cls-20" d="M104.87,469.72c5.33.62,10.3,1.29,15.29,1.75a83.42,83.42,0,0,0,15.07-.38c1.33-.12,3.27-1,3.66,1.49s-1.36,2.91-3.07,3.35A66.2,66.2,0,0,1,122,478.12a55.12,55.12,0,0,1-11.4-.76C104.6,476.36,104.59,476.45,104.87,469.72Z"/><path class="cls-20" d="M110.84,506.84c-1.6-1.11-3.37-.55-5.08-.48a114.45,114.45,0,0,1-16.13-.7c-4.28-.44-6.79-2-7.5-6.29-.17-1-.43-1.93-.76-3.37,3.3.83,6.08,1.56,8.88,2.22a33.53,33.53,0,0,0,15,.31c2.42-.53,3.53.15,4.31,2.3.7,2,1.62,3.83,2.45,5.74A1.17,1.17,0,0,1,110.84,506.84Z"/><path class="cls-24" d="M110.84,506.84l1.18-.27c2.18,2.48,3.21,5.64,5.67,9.17a101.51,101.51,0,0,1-16-.36,23.07,23.07,0,0,0-6.21-.09c-7.26,1-8,.5-10.06-7.36,3.63.38,7.17.47,10.59,1.16,4.4.88,8.62-.12,12.91-.58C109.89,508.41,110.33,507.54,110.84,506.84Z"/><path class="cls-19" d="M187.27,87.9c4.17,0,8.39,0,12.31-1.61,5.1-2.05,8.75-5.58,9.93-11.2,3,2.35,3.48,5.13,2.21,8.75-1.14,3.26-1.84,6.69-3.69,9.67-1.68,2.73-3.45,3.4-6.07,2.1C197,93.15,192.16,90.48,187.27,87.9Z"/><path class="cls-23" d="M128.29,523.63c2.47-1.84,5.09-1.17,7.41-1.85a51.78,51.78,0,0,0,16.06-7.39c1.18-.85,2.31-2.55,4-.76a4.29,4.29,0,0,1,0,6.09,20.39,20.39,0,0,1-6.59,4.18c-3.41,1.32-7,2.2-10.33,3.65C134,529.64,130.86,528,128.29,523.63Z"/><path class="cls-25" d="M194.7,311.79c1.82,1.91.76,4.27,1,6.42.49,4.31,1,8.6,5.1,11.26-3.74,6.56-8.37,12.53-12.52,18.82-1.88.06-1.48-1-1-2.06,1.94-8.6,3.77-17.24,5.88-25.8C193.87,317.56,193.05,314.46,194.7,311.79Z"/><path class="cls-26" d="M206.73,352.72c.74,3.09,3.13,5.3,4.58,8.57-8.58,2.85-17.07,4-25.85,1.85-1.05-.25-2.14-.45-2-1.82a2.29,2.29,0,0,1,2.33-2.33c3.47-.09,6.94-.12,10.4,0a19.68,19.68,0,0,0,8-1.74,2.58,2.58,0,0,0,1.9-2.75C205.75,353.69,205.45,352.92,206.73,352.72Z"/><path class="cls-27" d="M147.27,275.28a7.89,7.89,0,0,1,4.92,1.7c3.75,2.92,3.38,7-.83,9.2-3.55,1.87-7.25,1.56-9.68-.81-3.42-3.35-2.44-7.95,2.09-9.46A24.56,24.56,0,0,1,147.27,275.28Z"/><path class="cls-28" d="M160.33,245.74c-8.67,3.55-17.6,5.31-27,3.93a5.38,5.38,0,0,0-2.53.36A13.21,13.21,0,0,0,131,248c-.12-2.49,1-3.23,3.46-3.09a68,68,0,0,0,22.67-2.27C160.52,241.65,160.57,243.39,160.33,245.74Z"/><path class="cls-29" d="M49.26,117.18c-4.31,5.42-5.09,12-6.35,18.5a68.89,68.89,0,0,0-1,15.37c-7.15-9.51-3.91-26.6,6.12-35.14C49.15,115.6,49.47,116.12,49.26,117.18Z"/><path class="cls-30" d="M172.77,279.43a38.7,38.7,0,0,0,14.83-10.2c3.79-4.28,4.24-4.29,10.17-.8A34.7,34.7,0,0,1,175,280.54C173.91,280.83,172.69,281.44,172.77,279.43Z"/><path class="cls-26" d="M156.82,279.45a5.68,5.68,0,0,1,4.53-3.28c5.81-1.49,10.79-4.63,15.66-8,3.85-2.68,3.89-2.62,8.79-1.83C178.75,276.08,168.55,278.19,156.82,279.45Z"/><path class="cls-31" d="M172.2,283.84a43,43,0,0,0,21.61-7.7,37.59,37.59,0,0,0,5.36-4.95c1.47-1.53,2.83-1.08,4.1,0,1.47,1.28.6,2.52-.41,3.58a20.64,20.64,0,0,1-4.35,3.7,56,56,0,0,1-21.13,7A5.64,5.64,0,0,1,172.2,283.84Z"/><path class="cls-26" d="M106.25,261.73c2.5.09,4.7.54,6.37,2.12,7,6.61,15.44,10.43,24.79,12.75C131.14,281.53,114.29,273.47,106.25,261.73Z"/><path class="cls-31" d="M110.9,277.32c-5.73-.86-10.92-3.33-16.14-5.61-4.23-1.85-8.76-3.19-12.87-6.26,2.74-2,4.63-3,8-1,7.43,4.42,14.93,8.85,23.11,11.85C113.12,278.27,112,277.77,110.9,277.32Z"/><path class="cls-32" d="M228.22,140.22c.35,3.1-.91,6.35.91,9.31,1.54,2.34.17,5,.76,7.41a31.27,31.27,0,0,0,0,8.48c-.53,2.9-1.55,5.69-1.86,8.64-1.49,2.78.05,6.2-1.9,8.88-1.65-.85-1.12-2.4-1.08-3.69.33-11.3.51-22.59-.1-33.87C224.78,142.66,225.82,141.11,228.22,140.22Z"/><path class="cls-33" d="M190.49,350.67c3-5.8,6.75-10.54,10.85-15.94.91,3.81,1.5,6.79,2.36,9.68.62,2.1-.09,3.25-1.92,4.13A23.43,23.43,0,0,1,190.49,350.67Z"/><path class="cls-30" d="M52,319c3.44,2.61,6.89,5.49,11.07,7.19,2.46,1,1.74,3.5,2.69,5.44-6.76-.1-12.06-3-16.52-7.77a1.52,1.52,0,0,1-.06-2.27C50,320.74,50.58,319.61,52,319Z"/><path class="cls-34" d="M80.82,188.12c-1.92,3.52-2.18,7.39-2.3,11.27-.1,3.58.29,7.21-1,10.69-2.45-1.59-2.95-3.59-2.56-6.61.65-5.16.36-10.42.56-15.64.07-1.56-.76-3.69,2-4,2.62-.27,2.62,1.56,2.81,3.3A3.23,3.23,0,0,0,80.82,188.12Z"/><path class="cls-29" d="M225.29,115.2c-2.49-4.81-4.53-8.78-6.6-12.74-1.12-2.14.14-2.82,1.9-3.14,4.43-.8,8,2.78,7.47,7.57C227.76,109.47,226.73,111.88,225.29,115.2Z"/><path class="cls-35" d="M64.94,338.11c-7-1.55-14.17-2.95-19.86-8-.94-.84-2.46-1.7-.93-3.35,1.37-1.49,2.52-1.27,3.93.06,4.77,4.49,10.17,7.7,16.93,8.06,1.22.07,2.63.37,2.51,2S65.92,337.68,64.94,338.11Z"/><path class="cls-36" d="M223.32,127.4c-2.18-5.54-2.89-11.06-5.59-15.88s-6.41-8.51-10.37-12.63a4.23,4.23,0,0,1,5.72,1.25c5.91,7.58,10.95,15.61,11,25.71C224.08,126.14,223.81,126.42,223.32,127.4Z"/><path class="cls-37" d="M157.4,522.49c-3.65,9.93-11.12,12.92-19.39,8.53C144.41,528.49,150.88,526.88,157.4,522.49Z"/><path class="cls-38" d="M86.61,145c3.84-4.05,8.53-6.21,13.57-7.66,1.38-.39,2.95-.63,3.52,1.14.51,1.57-.55,2.74-1.87,3.32a48.73,48.73,0,0,1-5.43,1.82C93.23,144.63,89.86,144.31,86.61,145Z"/><path class="cls-39" d="M111,272.21c-6.76-2.66-12.88-6.52-19.89-10.11,4.83-2.05,8.42-2,11.74,1.63,2.47,2.64,5.37,4.88,8.08,7.3.33.24.44.5.35.77S111.08,272.21,111,272.21Z"/><path class="cls-35" d="M62.78,322.3c-9.77-4.08-10.08-6.44-2.45-13C62,313.35,62.14,317.55,62.78,322.3Z"/><path class="cls-40" d="M206.73,352.72l-.63,1.75c-1.82-.69-3.34.38-5,.86a27.62,27.62,0,0,1-12.24,1.2c-.84-.13-1.86-.41-1.73-1.46s1-1.31,2-1.29a35.45,35.45,0,0,0,14.57-3C205.59,350,206,351.58,206.73,352.72Z"/><path class="cls-41" d="M85.9,148.75c-.14,2.66-1.25,5-2.32,7.4-.43.95-1.08,1.86,0,2.77-.07,3.22-2.62,3.9-4.93,4.83a2.25,2.25,0,0,1-1.38-.62c.09-3.89,1.83-7.27,3.4-10.68A6.32,6.32,0,0,1,85.9,148.75Z"/><path class="cls-42" d="M77.3,163.13l1.19,0c.86.8,2.21.79,3,1.79-1.09,2.82-.87,5.77-.85,8.71-1.58-.63-3.17-1.25-5-1.95C76.33,168.83,75.79,165.81,77.3,163.13Z"/><path class="cls-43" d="M110.9,277.32c.82-.09,1.64-.19,2.06-1.05,7,2.92,14.5,4.2,21.88,5.84C126.63,281.72,118.54,280.7,110.9,277.32Z"/><path class="cls-44" d="M104.07,177.19c-.31,1.74-1.24,2.92-3.11,2.62a2.85,2.85,0,0,1-2.62-3.23c.14-1.75.58-3.51,2.77-3.63C102.58,172.87,104.18,175.33,104.07,177.19Z"/><path class="cls-45" d="M75.5,175c2.28-.08,3.16,1.19,4.37,1.79s1.44,1.77.94,3.09c-.62,1.65-2,1-3.09,1.09-1.52.09-2.25-.64-2.23-2.16C75.51,177.61,75.5,176.41,75.5,175Z"/><path class="cls-46" d="M226.11,182.94c.34-3.09-.82-6.33.87-9.3a2.63,2.63,0,0,1,2.48,3c-2.17,1.78-.91,4.23-1.25,6.36A2.29,2.29,0,0,1,226.11,182.94Z"/><path class="cls-47" d="M172.77,279.43c.48.89,1.44.8,2.21,1.11-2,1.32-4.25.92-6.44.88-.35-.22-.47-.43-.34-.64s.25-.3.37-.3Z"/><path class="cls-48" d="M49.26,117.18,48,115.92c1.26-1.18,2.61-2.11,4.69-1.7A10.16,10.16,0,0,1,49.26,117.18Z"/><path class="cls-49" d="M220,184.05l1.89-1c0,1.39-.05,2.77-.07,4.16-.3.55-.66.56-1.07.11A3.72,3.72,0,0,1,220,184.05Z"/><path class="cls-50" d="M187.28,346.23c.13.79.17,1.62,1,2.06-.26.8-.57,1.7-1.6,1.43-.25-.07-.4-1.2-.29-1.78A6.18,6.18,0,0,1,187.28,346.23Z"/><path class="cls-51" d="M48,244.92l1.21-1.19c.82.71,1.63,1.7.6,2.51C49.25,246.72,48.4,245.74,48,244.92Z"/><path class="cls-52" d="M262.89,183l1.85-1a4,4,0,0,1-.2,1.42c-.3.52-1,1.35-1.22,1.27C262.67,184.38,262.73,183.62,262.89,183Z"/><path class="cls-53" d="M168.57,280.48a5,5,0,0,0,0,.94c-.82.13-1.65.31-2.31-.45A2.6,2.6,0,0,1,168.57,280.48Z"/><path class="cls-54" d="M154.1,110.63l-1.5.21c-.65-.42-1-1.2-.29-1.51S153.71,109.88,154.1,110.63Z"/><path class="cls-55" d="M111,272.21l-.07-1.18c.85.22,1.86.71,1.53,1.58S111.31,273,111,272.21Z"/><path class="cls-46" d="M229.24,182.92a2.12,2.12,0,0,1,2.3-.8A2.15,2.15,0,0,1,229.24,182.92Z"/><path class="cls-56" d="M220.7,187.32l1.07-.11c0,.68,0,1.37,0,2-.26.54-.56.55-.88.05C220.83,188.65,220.76,188,220.7,187.32Z"/><path class="cls-57" d="M220.9,189.31a5.2,5.2,0,0,0,.88-.05c0,.52.39,1.25-.56,1.3A6.29,6.29,0,0,1,220.9,189.31Z"/><path class="cls-58" d="M90.74,137l1.59.18a1.37,1.37,0,0,1-1.56.78C90.15,137.76,90.27,137.32,90.74,137Z"/><path class="cls-14" d="M98.37,288.72c0-.91.28-1.66,1.28-1.92A2.15,2.15,0,0,1,98.37,288.72Z"/><path class="cls-3" d="M93.27,225.75a2.28,2.28,0,0,1,1.82,1.34C94.22,227,93.49,226.72,93.27,225.75Z"/><path class="cls-3" d="M103.7,233.12a2.52,2.52,0,0,1,2.12,1.18C104.87,234.33,104.05,234.16,103.7,233.12Z"/><path class="cls-3" d="M97.43,228.93a2.33,2.33,0,0,1,1.89,1.29A1.85,1.85,0,0,1,97.43,228.93Z"/><path class="cls-3" d="M100.54,231.08a2.35,2.35,0,0,1,1.94,1.22A1.91,1.91,0,0,1,100.54,231.08Z"/><path class="cls-3" d="M99.41,230.26a1.22,1.22,0,0,1,1.2.88Z"/><path class="cls-3" d="M102.55,232.34a1.22,1.22,0,0,1,1.24.85Z"/><path class="cls-3" d="M96.31,228.05a1.3,1.3,0,0,1,1.2,1A1.47,1.47,0,0,1,96.31,228.05Z"/><path class="cls-3" d="M95.21,227.17a1.13,1.13,0,0,1,1.11.88Z"/><path class="cls-3" d="M92.18,224.8a1.34,1.34,0,0,1,1.18,1A1.34,1.34,0,0,1,92.18,224.8Z"/><path class="cls-3" d="M91.09,223.84a1.34,1.34,0,0,1,1.15,1A1.51,1.51,0,0,1,91.09,223.84Z"/><path class="cls-3" d="M90,222.88a1.27,1.27,0,0,1,1.1,1Z"/><path class="cls-3" d="M88.93,221.92a1.07,1.07,0,0,1,1,.93Z"/><path class="cls-3" d="M87.87,221a1,1,0,0,1,.95.88Z"/><path class="cls-14" d="M97.45,289.91a1.36,1.36,0,0,1,.91-1.17A1.32,1.32,0,0,1,97.45,289.91Z"/><path class="cls-59" d="M164.32,181.18c-1,0-1.9,0-2.77,0-6-.19-6.05-.19-6.53-6-.35-4.16-.7-8.36.45-12.48,2.61-9.27,10.95-14,20.32-11.52A20.88,20.88,0,0,1,186.72,158c2.16,2.6,3,2.27,5.38-.09,1-1,1.56-3.69,3.25-2.35s-.42,3-1.23,4.43-4.46,2.14-2.38,4.23,3.28-1.29,4.88-2.23a20.68,20.68,0,0,0,2.31-2.11c.52-.43,1.18-.82,1.8-.11a1.51,1.51,0,0,1,.1,1.92,1.35,1.35,0,0,1-.29.43c-6,4.42-9.71,11.3-16.71,14.61C177.57,179.67,171.15,181.57,164.32,181.18Z"/><path class="cls-60" d="M165.25,124.52c7.5,2.2,14.21,6,21,9.84,1.53.86,2.68,1.55,1.9,3.49a58.92,58.92,0,0,0-29.17-2.07c-3.23.61-5.73-1.26-6.15-3.56-.54-2.89,1.25-4.51,3.43-5.84C159,124.69,162.09,124.42,165.25,124.52Z"/><path class="cls-61" d="M160.24,213.46c-6.05,4.26-12.5,7.39-20.12,7.5a27.3,27.3,0,0,1-10.24-1.32c-2.75-1.17-5.35.05-8,.47-3.09.48-3.74-.86-2.3-3.48,4.11-2.14,7.84-2.15,12.18.22,4.74,2.58,10.15,1.46,15.26.1,2.71-.73,5.49-1.6,7.53-3.44,4.25-3.81,8.78-6.25,14.67-5.14a1.35,1.35,0,0,1,1.26,1.06l-.13-.07c.47,2.88-1.81,2.81-3.53,3.17C164.64,213,162.37,212.68,160.24,213.46Z"/><path class="cls-62" d="M151.75,222.84c2.91,4.32,2,6.57-2.93,7.28s-6.86-.55-8.56-5.19C144.06,224.06,148.42,226.29,151.75,222.84Z"/><path class="cls-63" d="M175.27,144.68a28.48,28.48,0,0,1,12.86,5.3c.68.53,1.34,1.3.68,2.19a1.58,1.58,0,0,1-2.33.17,29.26,29.26,0,0,0-12-4.81c-1.08-.17-2.17-.49-1.81-1.9S174.24,144.49,175.27,144.68Z"/><path class="cls-62" d="M160.24,213.46c1.15-2.35,3.19-2.22,5.36-2.09,1.83.11,4,.56,4.73-2,2.89,2.41,3,3.72.13,5.13A8.87,8.87,0,0,1,160.24,213.46Z"/><path class="cls-64" d="M146.43,203c1.23-.14,2.21.55,3.26,1h0c-.43,4.21-1,4.93-4.72,5.19-1.72.13-3.46.05-5.2,0-2.34,0-4-1-4.5-3.45C139,205,143.19,205.88,146.43,203Z"/><path class="cls-65" d="M81.44,165c-1.75.66-3.16.77-3-1.79l5.12-4.24c1.9-.84,3.78-1.71,5.69-2.52,1-.41,2.12-.82,2.66.48s-.44,1.82-1.49,2.2a22.82,22.82,0,0,0-6.82,3.7A30.15,30.15,0,0,0,81.44,165Z"/><path class="cls-46" d="M119.56,216.63c-.68,2.41,0,3.51,2.48,2.27,2.85-1.44,5.45-1.91,7.84.74-2.23.08-3.52,2-5.46,2.73-2.13.78-3.8-.14-5.13-1.46S117.47,217.93,119.56,216.63Z"/><path class="cls-66" d="M146.43,203c-1,4-4.44,3.44-7.28,3.69-1.25.11-2.59-.6-3.89-.95-.13-1.08.15-2.67,1.17-2.33C139.89,204.57,143.09,202.38,146.43,203Z"/><path class="cls-67" d="M142.5,190.89a9.5,9.5,0,0,1,2,.38,1.8,1.8,0,0,1,1,1,1.08,1.08,0,0,1-1.13,1.36,9.66,9.66,0,0,0-6.63,2.52,1.35,1.35,0,0,1-1.88,0c-.9-.79-.38-1.58.18-2.24A8.78,8.78,0,0,1,142.5,190.89Z"/><path class="cls-68" d="M151.75,222.84c.24,2-1,2.79-2.64,3-3,.45-6.05.84-8.85-.94.07-.89.36-2.15,1.29-1.85C145,224.2,148.35,222.62,151.75,222.84Z"/><path class="cls-69" d="M130.26,208.43a2.34,2.34,0,0,1-2.26-1,5,5,0,0,1-.5-5.34c.45-.93.91-2,2.21-1.61a1.41,1.41,0,0,1,.86,2.07c-.6,1.38.23,2.18.87,3.2C132.27,207.05,131.6,208,130.26,208.43Z"/><path class="cls-70" d="M149.66,198.81c0-1.31.08-2.8,1.86-2.09,2.75,1.11,3.24,6.24.85,7.92-.61.42-1.32-.08-1.82-.61C149.65,202.39,151,200.38,149.66,198.81Z"/><path class="cls-64" d="M149.66,198.81c1.71,1.5.93,3.42.89,5.22a8.46,8.46,0,0,1-.87-.05h0Z"/><path class="cls-62" d="M170.46,209.43l-1.26-1.06A1.16,1.16,0,0,1,170.46,209.43Z"/><path class="cls-71" d="M74.25,81.51c-2.74-3.29-2.67-4.71.65-7a89.71,89.71,0,0,1,15.68-8.29,126.36,126.36,0,0,1,35.6-9.52c6.88-.84,13.93-.37,20.9-.2,3.85.1,4.58,2.48,2.54,7.17-6.51-2.2-13.09-.81-19.57-.1A134.79,134.79,0,0,0,81.88,78.18C79.43,79.46,77.08,81.06,74.25,81.51Z"/><path class="cls-72" d="M74.25,81.51c3.16-3.46,7.55-4.87,11.59-6.76,18.81-8.8,38.54-13.66,59.42-13.25,1.66,0,4.12-1,4.36,2.13-8.12.45-16.23.75-24.31,2a142.24,142.24,0,0,0-45.6,15.31C78.08,81.77,76.34,84,74.25,81.51Z"/><path class="cls-73" d="M121.45,540.55c-.39,3.92-2.8,7.64-6.52,10.47-1.48,1.13-3.36.72-5-.09-6.65-3.35-13.36-3-20.21-.63-2.28.79-4.71,1.11-7.06,1.72-1.41.37-2.86.72-3.7-.8s.55-2.22,1.38-3a62.63,62.63,0,0,0,9.71-11.54c1-1.63,2.1-2,3.86-1,7.83,4.35,15.81,4.58,24,.86C120.38,535.4,121.4,536.44,121.45,540.55Z"/><path class="cls-73" d="M140.19,546.9c0-.87.06-1.74,0-2.61-.18-2.14.84-2.9,2.9-3.44,7.81-2,15.06-5.32,21.15-10.76,1.51-1.35,2.76-1.3,4,.14,3.86,4.46,7.84,8.85,10.78,14,2.76,4.84,2.37,7.49-2.06,10.78a65.52,65.52,0,0,1-19.33,10c-5.4,1.72-9.62.18-12.72-4.27A25.18,25.18,0,0,1,140.19,546.9Z"/><path class="cls-74" d="M254.27,143.14c-.68,4.13-.69,4.16-4.25,4.31-1.22.06-2.44,0-3.66,0-5,0-5.73.45-9.18,4.64.24,1.45,1.77,1.53,2.56,2.39,2.32,2.47,3,5.84.92,8.61C237.73,167,235,170.87,235,176c0,.18-.54.36-.83.54a6.49,6.49,0,0,0-2.57-1.71c-3.6-1.73-3.56-4.27-1.53-7.22,1.28-1.86,3.11-3.27,4.25-5.24,1.41-2.45,2.33-4.73-1.23-6.34s-3.11-4.23-1.53-6.95c4-6.94,10.58-7.7,17.65-7A49.45,49.45,0,0,1,254.27,143.14Z"/><path class="cls-75" d="M254.27,143.14c-1.15,1.18-2.4.82-3.84.53-3.6-.71-7.25-1-10.81.3a12.66,12.66,0,0,0-7.35,6.29c-1.51,2.94-1.36,3.38,1.75,4.72,3,1.28,3.81,3.29,2.63,6.26a13.23,13.23,0,0,1-3,4.2,26.07,26.07,0,0,0-2.48,2.68c-2.36,3.22-2,4.45,1.84,5.65,1.84.57,1.41,1.61,1.16,2.8a1,1,0,0,0-.71.28,3.07,3.07,0,0,1-3.14,0,1.29,1.29,0,0,0-.83-.25c-.83-1-1.66-2-2.48-3a11.84,11.84,0,0,1,2.39-8.3c1.26-2.83,4.17-5.71-.18-8.43-1.58-2.45-.47-4.92-.06-7.38,5.54-8.19,13.49-11.17,22.43-8.5C252.8,141.4,253.82,141.84,254.27,143.14Z"/><path class="cls-46" d="M230.29,176.88l3.14,0C232.39,178.11,231.35,178.11,230.29,176.88Z"/><path class="cls-76" d="M46,174.73a45.69,45.69,0,0,1,4.9,2.85c2.87,2.19,3.2,3.93.65,6.34-2.17,2.06-1.37,3.09.48,4.4,3.17,2.25,4.71,5.48,5.38,9.19.15.86,0,1.8-1.08,2s-1.63-.5-1.75-1.42c-.45-3.72-2.6-6.24-5.4-8.53s-2.76-3.66-.6-6.61c1.82-2.49,1.8-2.76-.75-4.11a13.5,13.5,0,0,0-13.89.3c-1.45.85-2.61,2.42-4.63,1.86-.47-2.49,1.53-3.28,3.07-4.3C36.55,173.94,41.26,174.28,46,174.73Z"/><path class="cls-77" d="M229.19,156.91c1.42,1.15,3.37.6,5.08,1.45-.26,3.41-2.86,5-4.9,7C227.5,162.57,227.72,159.76,229.19,156.91Z"/><path class="cls-27" d="M184.54,172.32c-.46-2-.82-4-1.39-6-1.72-5.94-6.28-9.67-11.13-9.21-5.26.5-10,5.49-10.65,11.31a18.49,18.49,0,0,0,.75,7.23c.26.92.79,2.32-.58,2.64s-3,.18-3.38-1.59c-1.13-6.07-1.56-12.15,2-17.67,3.1-4.75,9.35-6.82,15.32-5,6.38,2,10.53,6.55,13.69,12.19a2.92,2.92,0,0,1-.91,4.13C187.2,171.2,186.25,172.31,184.54,172.32Z"/><path class="cls-78" d="M176.25,164.11c-.14,1.91-.95,3.08-2.8,3.22a2.94,2.94,0,0,1-3.06-3.29c.11-1.93,2-4.23,3.35-3.85C175.73,160.75,175.82,162.64,176.25,164.11Z"/><path class="cls-79" d="M174.85,131.75a88.65,88.65,0,0,0-15.34,1.11c-1.31.21-3.07.4-3.52-1.3-.51-1.93,1.18-2.66,2.61-3.27a12.18,12.18,0,0,1,8.12-.32A22.17,22.17,0,0,1,174.85,131.75Z"/><path class="cls-36" d="M107.44,542.42c3-.77,5.73-1.56,8.55-2.2,1.89-.43,2.61.41,2.07,2.23-1,3.55-2.61,4.27-6.12,2.59C110.43,544.32,108.68,543.92,107.44,542.42Z"/><path class="cls-80" d="M95.28,546.05l-6.11,1.33c-1.4.58-2.51.65-2.43-1.38,4.93-3.62,10.29-3.11,15.75-1.66C100.65,547.3,97.49,544.68,95.28,546.05Z"/><path class="cls-81" d="M95.28,546.05c1.1-1.14,2.53-.79,3.86-.86,1.18-.06,2.43.2,3.35-.85l4.08,1.08c.31.92.14,1.37-.92,1Z"/><path class="cls-82" d="M96.36,540.62c-1.13.68-2.32.37-3.46.37-.88,0-1.79-.27-1.38-1.48a1.37,1.37,0,0,1,2-.85C94.59,539.14,95.84,539.35,96.36,540.62Z"/><path class="cls-83" d="M105.65,546.38l.92-1a10.05,10.05,0,0,1,5.26,3A12.74,12.74,0,0,1,105.65,546.38Z"/><path class="cls-84" d="M86.74,546c.46,1.08,1.43,1.25,2.43,1.38a8.12,8.12,0,0,1-1.79.85c-.71.16-1.79.68-2.07-.4C85.09,547,86,546.44,86.74,546Z"/><path class="cls-18" d="M170,537.06c3.73,4.22,3.75,4.24.45,7.26A58.7,58.7,0,0,1,149,556.76c-2.81.93-3.71-.41-4.5-2.61-1.32-3.68-1.33-4,1.58-5.26,4.77-2,9.61-3.95,14.42-5.91C163.91,541.6,167.32,540.29,170,537.06Z"/><path class="cls-22" d="M149,560.54c.79-1.39,1.88-1.49,2.86-1.82a55.64,55.64,0,0,0,20.43-12.28c1-.93,1.86-3,3.78-1.46a4.5,4.5,0,0,1,.9,6,12.28,12.28,0,0,1-2.68,2.46c-5.66,3.8-11.57,7.11-18.19,9C153.34,563.24,150.92,563.25,149,560.54Z"/><path class="cls-85" d="M143.94,546.33c-.32-.27-.88-.53-1-.91a1.59,1.59,0,0,1,.4-1.35,4.68,4.68,0,0,1,1.82-.88A50.59,50.59,0,0,0,163.62,534a14,14,0,0,1,1.25-.93,1.89,1.89,0,0,1,2.73.53c.67.88.1,1.64-.55,2.24a10,10,0,0,1-2.42,1.92c-6.32,2.81-12.68,5.54-19,8.27A7.83,7.83,0,0,1,143.94,546.33Z"/></svg>
