<svg id="Layer_1" data-name="Layer 1" xmlns="http://www.w3.org/2000/svg" viewBox="0 0 262.84 348.76"><defs><style>.cls-1{fill:#5d5c5c;}.cls-2{fill:#6d9c6a;}.cls-3{fill:#5a7e56;}.cls-4{fill:#f5e6da;}.cls-5{fill:#7ab4e1;}.cls-6{fill:#e07c4a;}.cls-7{fill:#2f7093;}.cls-8{fill:#549ccb;}.cls-9{fill:#f3e5d9;}.cls-10{fill:#dfcfc4;}.cls-11{fill:#f3f3f4;}.cls-12{fill:#5f5e5d;}.cls-13{fill:#fefefe;}.cls-14{fill:#5c5b5b;}.cls-15{fill:#ea9898;}.cls-16{fill:#fafafa;}</style></defs><path class="cls-1" d="M36,272.21a28.82,28.82,0,0,1-7.14,1.07c-1.45,0-3.26.37-3.94-1.37-.75-1.94,1.18-2.53,2.31-3.32,8.85-6.21,13.32-14.68,13.52-25.48a5.87,5.87,0,0,0-2.06-4.76c-7.27-7-11.47-15.74-13.28-25.6a19.16,19.16,0,0,1,1.93-12.42,13.44,13.44,0,0,0,1.56-7,82.31,82.31,0,0,1,1.36-15.47c5.67-34.4,21-63.54,47.48-86.55,4.68-4.08,9.44-8.09,14.34-11.91,12.78-10,21.15-22.85,25.85-38.29,2.15-7,4.6-14,8.35-20.4,5.89-10.06,13.88-17.4,25.89-19.32.58-.09,2.21.15,1.09-1.43h4.15c-.95.72-.37,1.27.33,1.38,10.69,1.73,15.45,9.59,19,18.54a109.23,109.23,0,0,1,3.86,12.15c5,18.55,15.12,34.17,27,48.91,11,13.63,23.1,26.3,33,40.77,10.62,15.48,18.66,32,20.27,51.08a57.67,57.67,0,0,1-3.64,26.08c-.73,1.88-.73,3.19.75,4.87,5.31,6.05,6.32,12.73,2.63,20.12-3.4,6.85-7.08,13.46-12.73,18.74a26.91,26.91,0,0,1-3.49,2.82c-4.68,3.09-4.73,3.08-3,8.48a72.21,72.21,0,0,0,10.47,21.29c.78,1.07,2,2.11,1.11,3.68s-2.36.86-3.68.63c-1.93-.33-3.88-.51-5.78-.94-2.34-.52-2.34.5-1.7,2.21a18.78,18.78,0,0,0,2.71,4.77c1.88,2.48,1.39,3.66-1.75,4a29.74,29.74,0,0,1-23.86-7.72c-2.81-2.55-4.53-2.74-6.67.3a9.88,9.88,0,0,1-2,1.54c5.27,3.05,10.18,5.67,14.87,8.65,10.28,6.55,19.07,14.48,23.2,26.45.62,1.8,1.68,3.6-.06,5.45-.78.84,0,1.73.35,2.56a150.62,150.62,0,0,1,5.55,18.49c.72,3.3.39,3.61-3.29,3.25-1.05-5.64-2.31-11.21-4.85-16.41a5,5,0,0,0-.15-1.36c-.76-1.9-1.21-4.12-2.53-5.51-.61-.63-3,.48-4.52.67-12.71,1.52-25.3,3.58-37.3,8.3-6.92,2.72-13.43,6.08-18.89,11.3,1.93,2.11,5.14.23,6.64,2.71-6.28.2-12.56.9-18.84,0h-1.34l-1.26-.07a51,51,0,0,0-10.48.05h-1.18c-6.5-.6-13-.26-19.49-.07l-1.29.06-2,.06a258.51,258.51,0,0,1-26.41.13c0-.33,0-.66,0-1,1.71-.11,3.47.28,5.11-.48.77-.37,2.07.13,2.29-1.09s-1-1.36-1.74-1.83c-9.44-6.17-19.35-11.32-30.26-14.41A110.21,110.21,0,0,0,49,325.07c-5.23.15-10.53.13-15.64,1s-11,.42-14.24,6.05A78.28,78.28,0,0,0,5.14,348.37c-1.54.58-3.09.36-5.14.31,2.78-4.71,6.21-8.24,9.34-12a27.23,27.23,0,0,1,2.59-2.78,23.33,23.33,0,0,0,7.69-12.83c1.74-7.75,7.75-12.9,14-17.39a99.76,99.76,0,0,1,35.56-16.11c.91-.22,2.38.13,2.59-1.15.14-.92-1.14-1.33-1.7-2-3.82-4.74-8-6.33-14.17-3.75-5.16,2.14-11,1.51-16.66.4-2.19-.43-4.55-.72-5.42-3-1-2.53,1.64-3.48,2.85-5,.15-.24.47-.59.41-.68C36.81,271.89,36.4,272,36,272.21ZM168,99.1l.64-.64h.05a1.31,1.31,0,0,0,1.24-.76c.42-.38.85-.75,1.25-1.15.89-.86,1.69-2.08,3.14-1.62s1,2.09,1.3,3.23c1,4-.41,7.93-.2,11.9-1,3.64-1.95,7.29-3.07,11.46,5.17-2.26,8.94-5.1,10.72-10.07h0l.49-.69c1.81-2.38,3.27-1.9,4.46.57.68,1.4,1.32,2.83,2,4.25l.86,4.71c1.62-1.2,2.81-2.24,3.36-3.83.36-.28.74-.54,1.07-.84.82-.76,1.54-1.8,2.89-1.28s1.36,1.92,1.4,3.17c.08,1.93.18,3.86.27,5.79.07,9-1.06,17.68-8.51,24.45l8.06,1.94c15,6,24.27,16.52,26.11,32.95.87,5.19-.05,10.48.6,16a6.83,6.83,0,0,0,1.45-.75c3.65-3.36,7.61-6,12.89-5.61,1.43.1,1.95-.79,2.1-2.16,1.21-10.37-1.69-19.51-8.19-27.58-2.21-3.82-5.3-6.88-8.44-9.89-.95-.92-2.1-1.78-.94-3.11s2.46-.69,3.56.36c.49.48,1,.95,1.49,1.44a62.25,62.25,0,0,1,15.9,25.35c.48,5.13,1.43,10.25.11,15.41-.35,1.36.64,2.11,1.63,2.77a15.85,15.85,0,0,1,2.84,1.91c2.13,2.28,3.06,1.81,4-1.07a60.88,60.88,0,0,0,1.48-31c-1.17-5.82-2.32-11.74-5.65-16.87-3.36-9.8-9-18.31-14.93-26.68C224.7,106,211.68,92.71,200.45,78c-9.76-12.81-18.23-26.27-22.63-42-2-7.29-3.56-14.82-7.53-21.43-3.86-6.42-9.39-10-17.16-9.2C145.06,6.18,139,10.54,134,16.53c-6.31,7.59-9.33,16.86-12.37,26-3.92,11.84-9.07,23-18.31,31.64C95.64,81.36,87.51,88,79.68,95,74,100,68.34,105,63.93,111.29a31.81,31.81,0,0,0-2.57,2.76,141.74,141.74,0,0,0-26.06,57.6,104.67,104.67,0,0,0-2.45,20.76c3.4-1.71,6-4.25,9.4-4.3,4.62-.08,5.84-3.2,6.87-6.69.45-1.54.79-3.11,1.14-4.68,1.38-6.27,1.42-12.77,3.28-19,.45-1.18.87-2.37,1.36-3.53,1-2.24,2.09-4.38,4.27-5.67a2.92,2.92,0,0,1,4.23.9c1.08,1.56-.39,2.18-1.41,2.88-1.7-.54-2.17.73-2.8,1.84a32.52,32.52,0,0,0-3.45,11.46c-1,6.67-1.26,13.51-4.19,19.75-.93,2,.05,2.45,1.61,2.73,4.4.78,7.77,3.25,10.69,6.47,1.1,1.21,2.22,2.4,3.65,4,1.06-12.72.14-25.23,6.4-36.45a71.08,71.08,0,0,1,11-12.42l.69-.79.05,0c5.29-2.46,10.26-5.61,16.3-6.63C93.84,131.68,93.54,123,100.69,112a4,4,0,0,0,.78-2.55c2.06-2.86,3.41-1,4.8.71,2.6,3.64,6.28,5.13,10.6,5.57,1.62.16,1.93-.37,1.89-1.85-.1-3.79-.06-7.59-.08-11.39a73.1,73.1,0,0,1,3.89-14.54c.54-1.31.82-3.12,2.92-2.65,1.92.43,1.37,2.06,1.41,3.38s.1,2.73.16,4.1c-.19,4.21,1.75,7.68,3.89,11.08.28.44.84,1,1.25,1,.79,0,.85-.89,1-1.55a65.94,65.94,0,0,1,5.42-14,60.88,60.88,0,0,1,20.49-22c1.35-.84,2.71-2.32,4.32-1.19,1.87,1.31.32,3-.26,4.31-3.15,7.41-6.21,14.84-6.93,23a29.79,29.79,0,0,0,.9,11.88c.41,1.49,1.22,2.88,2.82,1.55,2.59-2.16,5.8-3.71,7.33-7v-.09l.67-.65ZM120.69,329.43c1.93,1.77,3.9,3.52,5.8,5.33,1,1,1.7.08,2.34-.43,1.16-.94-.08-1.38-.59-1.73-2-1.35-4.05-2.59-6.08-3.87l-13.62-9c-2.16-2.36-4.94-4.4-6.34-7.15-2.08-4.09-5.26-6.74-8.76-9.34q-7.32-5.42-14.39-11.16a6.31,6.31,0,0,0-5.65-1.46,90.73,90.73,0,0,0-24.29,8.39c-1,.5-2.83.49-2.66,1.78.22,1.71,2.11.63,3.2,1a16.77,16.77,0,0,0,3,.56,219.16,219.16,0,0,1,26.43,5.76A139.44,139.44,0,0,1,107,319.84,143.35,143.35,0,0,0,120.69,329.43Zm6.84-1.86c2.76,1.85,5.37,4,8.31,5.46,1.68.84,4,2.87,5.5,1.53,2.21-2,5-3.27,6.78-5.77,2.7-1.64,4.41-4.18,6.73-7.22a60.53,60.53,0,0,1-16,1.67,52.81,52.81,0,0,1-15.52-2.9c-4.68-1.65-9.21-3.75-13.8-5.65A84.31,84.31,0,0,0,127.53,327.57Zm105.92-82.34a15.91,15.91,0,0,0,9.22-3.37c8.23-6.2,12.7-15,16.16-24.3a8.9,8.9,0,0,0-2-9.07c-4.11-4.49-7.61-9.21-14.33-11.31-4.89-1.53-7.47.22-10.79,2a17.49,17.49,0,0,0-3.05,2.75c-2.52,1.47-3.43,3.6-3.35,6.56.14,5.39.05,10.8-.23,16.19-.23,4.52-.23,8.81,2.77,12.67a12.26,12.26,0,0,1,1.89,5.12C230.15,244.76,231.15,245.77,233.45,245.23ZM64.7,202.09c-.93-2.59-2.92-4.4-4.84-6.18A18.34,18.34,0,0,0,39.61,193a18,18,0,0,0-10.36,17.31c.59,9.07,4.66,16.74,10.19,23.7a9.08,9.08,0,0,0,5.09,3.4c1.67,1.35,3,1.35,4-.84,2.41-5.12,5.89-9.56,9.19-14.11s6.33-9,8.06-14.35C66.51,205.85,66.57,203.82,64.7,202.09Zm148.73,24c2.6.41,4.9,1.72,7.65,2.75v-8c.69-10.68.77-21.38.91-32.07a45.44,45.44,0,0,0-1.11-11c-3.34-14.35-18.52-26.56-32.26-25.91a10.72,10.72,0,0,0-6.65-.23,24.4,24.4,0,0,1-11.27.19c-13.88-3-27.8-4.3-42-2.47-6.41.83-13,.28-18.86-2.64-3.61-1.78-6.6-1.15-9.85.22-11.76,3.22-19.94,10.62-24.8,21.68-3.37,7.67-3.55,15.9-3.56,24.09,0,12.16-3.22,23.16-11.24,32.57a74,74,0,0,0-5.48,7.54c-2.79,4.26-5.12,8.74-5.39,14-.41,7.66,2.84,14,7.78,19.34a258.62,258.62,0,0,0,50.82,42.75c22.33,14.36,44.69,14,67-.43,13.06-8.44,24.11-19.17,35.2-29.88,6.27-6,11.86-12.57,14.91-20.9,4.47-12.21-.22-23.07-11.91-27.67-1-.4-1.95-.81-1.94-2.11S212.29,226.16,213.43,226.06ZM157.64,73.44a10.74,10.74,0,0,0-1.57.64,16.53,16.53,0,0,0-1.61,1.29A57.2,57.2,0,0,0,136,107.8c-.26,1.4-.31,2.91-1.84,3.43s-2.39-1-3.38-1.89c-3.44-3-5.15-7.14-7.17-11.8-.53,3.64-1,6.58-1.38,9.54a33.67,33.67,0,0,0,.45,7.56c.43,4.2-.44,5.1-4.74,5a19.86,19.86,0,0,1-12.11-4.35c-1.06-.82-1.84-1.51-3.09,0-6.19,7.72-3.5,21.43,5.08,26.39,7.15,4.13,14.84,4.32,22.67,3.7,10.57-.84,21.06-1.55,31.53,1.23a56.45,56.45,0,0,0,15.3,1.69c15.52-.24,20.14-14.74,18.15-27.2-2,2.34-3.89,4.53-5.83,6.63-.87.94-1.51,2.55-3.33,1.58s-.92-2.29-.55-3.58a15.82,15.82,0,0,0-.12-10.47A25.73,25.73,0,0,1,172,125.68c-1.48.47-3.37,1.09-4.57-.29s.06-2.83.63-4.18A49.64,49.64,0,0,0,172,101.74c-4.59,3.37-8.12,7.17-12.47,10-2.08,1.34-3.37,1.06-4.29-1.18-.48-1.17-1.05-2.31-1.41-3.52a38.63,38.63,0,0,1,.79-24.61C155.59,79.61,156.5,76.8,157.64,73.44Zm74.24,228.83c-7.59-6.58-15.38-10.92-23.47-14.79-1.2-.58-1.92.19-2.7.92-2.87,2.65-5.7,5.36-8.65,7.92-8.48,7.36-17.11,14.5-27.32,19.48-4.92,2.4-10.27,3.88-13.23,9.69-1.93,3.8-5.75,6.95-9.64,9.22-3.31,1.92-2.93,3.5-.88,6.13,1,1.33,1.22,1.71,2.66.57,3.69-2.91,7.43-5.81,11.38-8.36,14.72-9.48,30.45-17,46.6-23.64C214.46,306.18,222.07,302.29,231.88,302.27Zm-201.09,9c18.5,2.79,36.8,5.18,55,8.39,8.28,1.46,16.46,3.21,23.49,8.33,4,2.94,6.67,7.33,10.82,10.09.9.59,1.78,2.27,3.12.65s-.24-2.19-1.11-3a93.44,93.44,0,0,0-22.4-15.36C82.07,311.51,63.1,307.73,43.79,305,37.45,304,34.56,308,30.79,311.24Zm216.36-36a80.11,80.11,0,0,1-10.58-24.37c-.53-2.21-2.07-1.64-3.49-1.72s-2.23.33-2.43,2.05a36.06,36.06,0,0,1-2.67,9.94,54,54,0,0,1-7.88,12.49c-.68.85-2.51,1.7-.87,3.41a26.91,26.91,0,0,0,20.35,8.79c-.59-1.59-1.08-2.74-1.45-3.93a29.61,29.61,0,0,1-1-4c-.52-3.2.58-4.25,3.82-3.74C242.74,274.44,244.52,274.79,247.15,275.25Zm-95.24,68.39c3.32.6,5.69.23,8.08-1.32,4.14-2.69,8.39-5.24,12.77-7.5,20.84-10.79,41.78-21.36,65.73-23.43.84-.07,1.56-.37,1-1.16-1.09-1.66-1.87-3.74-4.32-4a31.78,31.78,0,0,0-16.45,2.42c-9.29,3.95-18.66,7.73-27.84,11.93A195.1,195.1,0,0,0,151.91,343.64Zm12.77.6c3.65.25,6.73.16,9.67.75a4.41,4.41,0,0,0,4.57-1.38c5.76-5.8,12.74-9.68,20.23-12.75,13.61-5.59,28.18-7,42.44-9.71,1.28-.24,3.22.14,2.62-2-.5-1.8-.49-4.42-3.59-4.16a92.2,92.2,0,0,0-13.55,1.77c-19.56,4.71-37.49,13.41-55.1,22.84A30.25,30.25,0,0,0,164.68,344.24Zm-44.12,1c.49-1.36,0-2.28-1.23-3.13a80.15,80.15,0,0,1-11.39-10,23.68,23.68,0,0,0-7.5-4.8c-8.88-3.85-18.47-4.54-27.82-6.09-13.21-2.19-26.54-3.68-39.8-5.59-6.27-.9-6.28-1.05-8.95,4.73-.45,1-2,1.88-1,3s2.37.45,3.59.15a90.08,90.08,0,0,1,17.34-2.43,116.52,116.52,0,0,1,45.36,6.63A108.34,108.34,0,0,1,120.56,345.28ZM38.4,276.72c6.23,2.08,12.08,1.55,17.89,0,4.51-1.18,4.46-1.24,1.28-4.6-7.43-7.86-12.87-16.55-11.56-28,.07-.62.26-1.44-1.17-1.71-.41,9.79-3.62,18.49-10.9,25.74,2.53.51,3.74-1,5.24-1.65,1-.48,2.08-1.75,3.39-.45,1.07,1.07.81,2.33.43,3.56A16.74,16.74,0,0,1,38.4,276.72Zm89,68.54c4.7-.35,9-.76,13.35-1,2.83-.13,2.43-1.4,1.17-2.9-5.19-6.14-10.92-5.21-15.8-.25-1,1-.66,2.42-.4,3.59C125.94,345.76,127,345.22,127.39,345.26Z"/><path class="cls-2" d="M5.14,348.37a78.28,78.28,0,0,1,14-16.21c1,1.73,2.49,2.16,4.38,2,4.55-.46,9.1-1.05,13.67-1.17,7.71-.19,15.47.43,23.15-.16C77.9,331.44,92.23,340,107,347.44c0,.33,0,.66,0,1-14.5.08-29,.21-43.5.24q-27.28.07-54.58,0C7.64,348.66,6.39,348.47,5.14,348.37Z"/><path class="cls-2" d="M246,332.13c2.54,5.2,3.8,10.77,4.85,16.41l-56.5.09c-1,0-2-.17-3.06-.26-.47-3.85,2.93-4.38,5.14-5.45,12.13-5.82,25.21-7.81,38.41-9.46C238.57,333,242.44,333.69,246,332.13Z"/><path class="cls-3" d="M246,332.13c-3.58,1.56-7.45.87-11.16,1.33-13.2,1.65-26.28,3.64-38.41,9.46-2.21,1.07-5.61,1.6-5.14,5.45a2.14,2.14,0,0,1-2-.13c-1.5-2.48-4.71-.6-6.64-2.71,5.46-5.22,12-8.58,18.89-11.3,12-4.72,24.59-6.78,37.3-8.3,1.57-.19,3.91-1.3,4.52-.67,1.32,1.39,1.77,3.61,2.53,5.51A5,5,0,0,1,246,332.13Z"/><path class="cls-2" d="M136.68,348.18c6.5-.19,13-.53,19.49.07C149.67,348.37,143.17,348.82,136.68,348.18Z"/><path class="cls-2" d="M157.35,348.24a51,51,0,0,1,10.48-.05A43.23,43.23,0,0,1,157.35,348.24Z"/><path class="cls-2" d="M133.38,348.3l2-.06A1.78,1.78,0,0,1,133.38,348.3Z"/><path class="cls-2" d="M169.09,348.26h0Z"/><path class="cls-4" d="M188.62,151.83c13.74-.65,28.92,11.56,32.26,25.91a45.44,45.44,0,0,1,1.11,11c-.14,10.69-.22,21.39-.91,32.07-3.31.67-6.82,1-7.65,5.29-1.14.1-2,.47-2.05,1.82s.93,1.71,1.94,2.11c11.69,4.6,16.38,15.46,11.91,27.67-3,8.33-8.64,14.86-14.91,20.9-11.09,10.71-22.14,21.44-35.2,29.88-22.31,14.42-44.67,14.79-67,.43A258.62,258.62,0,0,1,57.3,266.12c-4.94-5.38-8.19-11.68-7.78-19.34.27-5.26,2.6-9.74,5.39-14a74,74,0,0,1,5.48-7.54c8-9.41,11.22-20.41,11.24-32.57,0-8.19.19-16.42,3.56-24.09,4.86-11.06,13-18.46,24.8-21.68a3.74,3.74,0,0,0,2.42,4.11c5.64,2.51,11.23,5,17.67,4.78,4.12-.14,8.22-.41,12.33-.74,9.48-.75,18.64,1.52,27.87,3.12,8.43,1.47,16.84,1.87,25.16-.61C188.24,156.72,190.28,155.25,188.62,151.83ZM82,193.73c1.54,2.67,3.58,1.85,4.89.15a34.34,34.34,0,0,1,6.08-6A9.56,9.56,0,0,0,96.26,184c.87-2.27-.49-3.66-2.18-4.41s-3.53-.77-3.67,1.92a29.12,29.12,0,0,0-9.49,8.24C79.58,191.58,79.86,192.89,82,193.73Zm122.48,3.46c-.15,1.72.55,3,2.23,3.38,1.3.29,2.81.5,3.74-.93s1.36-2.91.43-4.52a37.32,37.32,0,0,0-9.56-10.72c-1.61-1.25-4-2.42-5.18,1-3,1.26-2.52,2.79-.4,4.53C198.71,192.3,201.6,194.76,204.51,197.19Zm-72,97.22c0,2.26,1.44,2.69,3.23,2.48,5.53-.65,10.81-.45,15.89,2.45,1.93,1.1,4.52.69,5-2.28.49-2.77-.7-4.47-3.77-4.34-.62-1.8-2.44-1.88-3.79-2.64.22-.49-1.79-1.1.08-1.49,1.22-.25,2.47-.43,3.69-.69a129.71,129.71,0,0,0,42.48-17.37c3.55-2.25,6.65-5.19,10.57-6.87.89,1,1.88,1.93,3.19.72,1-1,.57-2-.06-3.12-3.54-6.12-13.31-9.25-19.8-6.33-1.25.56-2.42,1.23-1.79,2.79s2,1.23,3.25.82,2.65-1.16,4.32-.15a80.24,80.24,0,0,1-12.44,10.15c-8.49,5.88-17.43,10.77-27.91,12.07a2.23,2.23,0,0,0-1.95-2.4c-9.24-2.28-16.83-7.58-24.13-13.37-.74-.58-2.67-1-1.78-2.39a3.64,3.64,0,0,1,4-1.25c.42.09.74.56,1.16.72a17.93,17.93,0,0,0,14.64-.51c2.35-1.16,4.06-1.78,6.61-1,5.65,1.83,10.36-1.45,10.48-7a11.59,11.59,0,0,0,3.89-4.74c1.48-3.62.28-7.84-2.6-9-1-.41-2.3-.9-3.14.3s-.1,2,.86,2.9c2.27,2.1,2.24,4.31-.05,6.41a8.36,8.36,0,0,1-8,1.88c-1.36-.33-2.4-.79-1.46-2.58a1.75,1.75,0,0,0-1-2.55c-1.24-.49-1.9.33-2.44,1.3a19.56,19.56,0,0,1-1.28,2.05c-4.09,5.5-11.51,5.52-15.53.13-.8-1.07-2.12-1.65-2.77-3a1.7,1.7,0,0,0-2.39-.68c-1,.52-.88,1.46-.8,2.42s1.26,1.73.67,2.89c-.86,1.74-5.76,3-7.92,1.82-2.43-1.28-3-3.27-1.87-5.81a13.79,13.79,0,0,1,3.53-4.62c1-.84,1.62-1.83.7-3-1.07-1.32-2.27-.72-3.28.2-3.36,3.05-5.76,6.58-5.35,11.4-3.37-.53-5.47-3.23-8.15-4.91-7.26-4.56-14.58-3.75-20.49,2.42-.91,1-1.35,2.52-3,2.59a2.79,2.79,0,0,0-2.2-.77c-3.57.64-9.34,6.26-10,9.83-.39,2.19.38,3.61,2.76,3.84,13,12,29.3,17,45.83,21.53,5.26,1.42,10.52,2.81,15.78,4.21C131.73,290.92,130.19,292,132.5,294.41Zm3.43-63.53c.73,1.26,1.16.85,1.47-.26A26.66,26.66,0,0,1,150.56,232c1.5.52,3.21,1.47,4.11-.69.82-2-1.06-2.44-2.28-3.19.38-4.85-.27-5.93-4.95-6.76-6.65-1.18-13.19-1.26-19.08,2.92-2.63,1.87-3.79,6.05-2.13,8.5,2,2.91,6.27,2.08,9-1.74ZM124.3,213.12a34.44,34.44,0,0,0-4.86-17.44c-5.62-9.58-15.19-12.17-24.06-6-10.76,7.52-15.31,18.34-15,31.31,0,1.38.5,2.73-1.05,3.67-1,.59-1.54,1.48-.8,2.62s1.84,1,3,.5a34.14,34.14,0,0,1,11.75-2.5c6.66-.22,13.33-.33,20-.5C121.9,224.59,124.57,221.75,124.3,213.12Zm66.15,11.12c.51,0,1.55,0,2.57.13,9.44,1,8.11,0,6.64-7.29-1.34-6.64-2.08-13.46-5.22-19.61-3.67-7.16-10.1-9.87-17.58-7.25a38.63,38.63,0,0,0-12,6.72,13.21,13.21,0,0,0-5.11,9.1c-.47,5.16-.76,10.35-.83,15.52-.05,3.84,2.95,6,6.67,5.16A107.84,107.84,0,0,1,190.45,224.24Zm1.88-65a6,6,0,0,0-5.42,3.95c-1.11,3,.51,5.14,2.89,6.69,5.32,3.47,11.31,5.61,17,8.44a2.1,2.1,0,0,0,2.56-.2c1-.88.64-1.84.21-2.83-2-4.67-4.49-9.08-8.3-12.58A12.2,12.2,0,0,0,192.33,159.28Zm-94.27-3.71c-1.19-.14-3,.75-4.57,1.9-5.32,3.91-8.85,9.3-11.8,15.07-.86,1.68.54,3,1.83,3.61s2.55-.22,2.62-1.75c.07-1.73,1.26-2.21,2.42-3,2.2-1.54,4.74-1.65,7.2-2.12,2.87-.55,5.66-1.28,7.66-3.59,1.6-1.85,2.39-4,1.33-6.39S101.61,155.71,98.06,155.57Z"/><path class="cls-5" d="M106.27,110.13c-1.39-1.7-2.74-3.57-4.8-.71a2.15,2.15,0,0,0-2.09,1c-4.74,6.47-9.57,12.87-11.24,21-1.19,5.8-.8,11.82-2.49,17.55l-.05,0-.69.8a71.08,71.08,0,0,0-11,12.42c-7.89.36-10.59-1.85-11.91-9.76,1-.7,2.49-1.32,1.41-2.88a2.92,2.92,0,0,0-4.23-.9c-2.18,1.29-3.32,3.43-4.27,5.67-.49,1.16-.91,2.35-1.36,3.53-3.22-4.43-2.31-9.51-1.58-14.22,1.39-8.93,5.06-17.11,9.74-24.84,1.35-2.23,2.66-4.6,2.23-7.43C68.34,105,74,100,79.68,95c7.83-7,16-13.59,23.61-20.74,9.24-8.64,14.39-19.8,18.31-31.64,3-9.18,6.06-18.45,12.37-26,5-6,11.09-10.35,19.16-11.18,7.77-.79,13.3,2.78,17.16,9.2,4,6.61,5.49,14.14,7.53,21.43,4.4,15.73,12.87,29.19,22.63,42,11.23,14.73,24.25,28,34.93,43.18,5.89,8.37,11.57,16.88,14.93,26.68a28.18,28.18,0,0,0,.21,5.43c.62,8.19,1.56,16.53-4.6,23.42A62.25,62.25,0,0,0,230,151.34c-.49-.49-1-1-1.49-1.44-1.1-1.05-2.36-1.74-3.56-.36s0,2.19.94,3.11c3.14,3,6.23,6.07,8.44,9.89a8.48,8.48,0,0,0,.35,3.35c1.71,8.15-1.73,14.35-9.2,16.75-1.84-16.43-11.11-27-26.11-32.95.52-2,2-3.43,2.44-5.58,1.39-7.18-1.1-13.9-2-20.81-.09-1.93-.19-3.86-.27-5.79,0-1.25.09-2.59-1.4-3.17s-2.07.52-2.89,1.28c-.33.3-.71.56-1.07.84-1.15-1.52-2.8-.66-4.22-.88-.66-1.42-1.3-2.85-2-4.25-1.19-2.47-2.65-3-4.46-.57l-.49.69h0c-2.6-.21-5.39.69-7.65-1.39-.21-4,1.19-7.92.2-11.9-.28-1.14.29-2.73-1.3-3.23s-2.25.76-3.14,1.62c-.4.4-.83.77-1.25,1.15-.6,0-1.15,0-1.24.76h-.05a.56.56,0,0,0-.64.64l-.05,0a.58.58,0,0,0-.67.65v.09c-3.33.3-6.88,1.33-9-2.53-.71-1.28-1.34-2.6-2-3.9.72-8.15,3.78-15.58,6.93-23,.58-1.35,2.13-3,.26-4.31-1.61-1.13-3,.35-4.32,1.19a60.88,60.88,0,0,0-20.49,22c-2-.1-3.32,1.31-4.69,2.38-2.16,1.69-4.35,2.2-6.87,1.07-.06-1.37-.12-2.74-.16-4.1s.51-3-1.41-3.38c-2.1-.47-2.38,1.34-2.92,2.65a73.1,73.1,0,0,0-3.89,14.54C115.41,106.42,111.73,109.72,106.27,110.13Z"/><path class="cls-6" d="M157.64,73.44c-1.14,3.36-2,6.17-3,9a38.63,38.63,0,0,0-.79,24.61c.36,1.21.93,2.35,1.41,3.52.92,2.24,2.21,2.52,4.29,1.18,4.35-2.79,7.88-6.59,12.47-10a49.64,49.64,0,0,1-3.88,19.47c-.57,1.35-1.78,2.84-.63,4.18s3.09.76,4.57.29a25.73,25.73,0,0,0,13.64-10.37,15.82,15.82,0,0,1,.12,10.47c-.37,1.29-1.27,2.62.55,3.58s2.46-.64,3.33-1.58c1.94-2.1,3.78-4.29,5.83-6.63,2,12.46-2.63,27-18.15,27.2a56.45,56.45,0,0,1-15.3-1.69c-10.47-2.78-21-2.07-31.53-1.23-7.83.62-15.52.43-22.67-3.7-8.58-5-11.27-18.67-5.08-26.39,1.25-1.55,2-.86,3.09,0A19.86,19.86,0,0,0,118,119.65c4.3.09,5.17-.81,4.74-5a33.67,33.67,0,0,1-.45-7.56c.36-3,.85-5.9,1.38-9.54,2,4.66,3.73,8.79,7.17,11.8,1,.87,1.74,2.45,3.38,1.89s1.58-2,1.84-3.43a57.2,57.2,0,0,1,18.42-32.43,16.53,16.53,0,0,1,1.61-1.29A10.74,10.74,0,0,1,157.64,73.44Z"/><path class="cls-7" d="M231.88,302.27c-9.81,0-17.42,3.91-25.25,7.14-16.15,6.67-31.88,14.16-46.6,23.64-3.95,2.55-7.69,5.45-11.38,8.36-1.44,1.14-1.62.76-2.66-.57-2.05-2.63-2.43-4.21.88-6.13,3.89-2.27,7.71-5.42,9.64-9.22,3-5.81,8.31-7.29,13.23-9.69,10.21-5,18.84-12.12,27.32-19.48,2.95-2.56,5.78-5.27,8.65-7.92.78-.73,1.5-1.5,2.7-.92C216.5,291.35,224.29,295.69,231.88,302.27Z"/><path class="cls-8" d="M63.93,111.29c.43,2.83-.88,5.2-2.23,7.43C57,126.45,53.35,134.63,52,143.56c-.73,4.71-1.64,9.79,1.58,14.22-1.86,6.19-1.9,12.69-3.28,19-.35,1.57-.69,3.14-1.14,4.68-1,3.49-2.25,6.61-6.87,6.69-3.4,0-6,2.59-9.4,4.3a104.67,104.67,0,0,1,2.45-20.76,141.74,141.74,0,0,1,26.06-57.6A31.81,31.81,0,0,1,63.93,111.29Z"/><path class="cls-9" d="M44.53,237.39a9.08,9.08,0,0,1-5.09-3.4c-5.53-7-9.6-14.63-10.19-23.7A18,18,0,0,1,39.61,193a18.34,18.34,0,0,1,20.25,2.93c1.92,1.78,3.91,3.59,4.84,6.18a5,5,0,0,0-4.43,4c-.22.86-.21,2.14-1.64,2.22a75.31,75.31,0,0,0-4.82-5.83c-3.35-3.3-7.37-5.11-12.19-4.17-2.09.41-3.52,1.45-1.79,3.81-.17,3.4-.32,6.76,4.72,6.26,1-.11,1.28.48,1.1,1.55-.51,3.06.06,6.28-3,8.69-1.85,1.45-.82,3.87,1.55,4.85,2.39,3,4.42.43,6.56-.43.39,1.29-.61,2.08-1.06,3.1C48,229.89,44.38,232.78,44.53,237.39Z"/><path class="cls-3" d="M107,347.44c-14.75-7.44-29.08-16-46.69-14.65-7.68.59-15.44,0-23.15.16-4.57.12-9.12.71-13.67,1.17-1.89.2-3.4-.23-4.38-2,3.19-5.63,9.15-5.15,14.24-6.05s10.41-.89,15.64-1a110.21,110.21,0,0,1,33.41,4.56c10.91,3.09,20.82,8.24,30.26,14.41.73.47,2,.64,1.74,1.83s-1.52.72-2.29,1.09C110.45,347.72,108.69,347.33,107,347.44Z"/><path class="cls-10" d="M188.62,151.83c1.66,3.42-.38,4.89-3.18,5.73-8.32,2.48-16.73,2.08-25.16.61-9.23-1.6-18.39-3.87-27.87-3.12-4.11.33-8.21.6-12.33.74-6.44.21-12-2.27-17.67-4.78A3.74,3.74,0,0,1,100,146.9c3.25-1.37,6.24-2,9.85-.22,5.87,2.92,12.45,3.47,18.86,2.64,14.2-1.83,28.12-.51,42,2.47A24.4,24.4,0,0,0,182,151.6,10.72,10.72,0,0,1,188.62,151.83Z"/><path class="cls-7" d="M107,319.84A139.44,139.44,0,0,0,79.1,308.19a219.16,219.16,0,0,0-26.43-5.76,16.77,16.77,0,0,1-3-.56c-1.09-.4-3,.68-3.2-1-.17-1.29,1.71-1.28,2.66-1.78a90.73,90.73,0,0,1,24.29-8.39,6.31,6.31,0,0,1,5.65,1.46q7.08,5.73,14.39,11.16c3.5,2.6,6.68,5.25,8.76,9.34,1.4,2.75,4.18,4.79,6.34,7.14Z"/><path class="cls-9" d="M228.63,202a17.49,17.49,0,0,1,3.05-2.75c3.32-1.82,5.9-3.57,10.79-2,6.72,2.1,10.22,6.82,14.33,11.31a8.9,8.9,0,0,1,2,9.07c-3.46,9.34-7.93,18.1-16.16,24.3a15.83,15.83,0,0,1-9.22,3.36c1.56-3.89,2-7.72-.29-11.54-.31-.5-.07-1.32-.08-2,1.62.7,3.16,3.35,4.93.19,4.21-.51,5-1.38,4.66-5.28a2.39,2.39,0,0,1,.73-2.17c1.91-1.75,2.14-4,1.87-6.37-.2-1.75-.38-3,2.14-3a3.53,3.53,0,0,0,3.3-3.47c.16-1.8-.37-3.45-2.49-3.95.52-3.05-1.91-3.38-3.82-3.81-5.65-1.25-10.25,1.93-12.9,8.68C229.89,209.15,230.64,205.18,228.63,202Z"/><path class="cls-8" d="M62,152.36c1.32,7.91,4,10.12,11.91,9.76-6.26,11.22-5.34,23.73-6.4,36.45-1.43-1.56-2.55-2.75-3.65-4-2.92-3.22-6.29-5.69-10.69-6.47-1.56-.28-2.54-.74-1.61-2.73,2.93-6.24,3.21-13.08,4.19-19.75a32.52,32.52,0,0,1,3.45-11.46C59.82,153.09,60.29,151.82,62,152.36Z"/><path class="cls-11" d="M30.79,311.24c3.77-3.22,6.66-7.2,13-6.29,19.31,2.78,38.28,6.56,55.89,15.38a93.44,93.44,0,0,1,22.4,15.36c.87.82,2.39,1.47,1.11,3s-2.22-.06-3.12-.65c-4.15-2.76-6.79-7.15-10.82-10.09-7-5.12-15.21-6.87-23.49-8.33C67.59,316.42,49.29,314,30.79,311.24Z"/><path class="cls-6" d="M247.15,275.25c-2.63-.46-4.41-.81-6.2-1.08-3.24-.51-4.34.54-3.82,3.74a29.61,29.61,0,0,0,1,4c.37,1.19.86,2.34,1.45,3.93a26.91,26.91,0,0,1-20.35-8.79c-1.64-1.71.19-2.56.87-3.41A54,54,0,0,0,228,261.15a36.06,36.06,0,0,0,2.67-9.94c.2-1.72,1-2.13,2.43-2.05s3-.49,3.49,1.72A80.11,80.11,0,0,0,247.15,275.25Z"/><path class="cls-11" d="M151.91,343.64a195.1,195.1,0,0,1,39-23.08c9.18-4.2,18.55-8,27.84-11.93a31.78,31.78,0,0,1,16.45-2.42c2.45.28,3.23,2.36,4.32,4,.52.79-.2,1.09-1,1.16-24,2.07-44.89,12.64-65.73,23.43-4.38,2.26-8.63,4.81-12.77,7.5C157.6,343.87,155.23,344.24,151.91,343.64Z"/><path class="cls-7" d="M164.68,344.24a30.25,30.25,0,0,1,7.29-4.66c17.61-9.43,35.54-18.13,55.1-22.84A92.2,92.2,0,0,1,240.62,315c3.1-.26,3.09,2.36,3.59,4.16.6,2.16-1.34,1.78-2.62,2-14.26,2.72-28.83,4.12-42.44,9.71-7.49,3.07-14.47,6.95-20.23,12.75a4.41,4.41,0,0,1-4.57,1.38C171.41,344.4,168.33,344.49,164.68,344.24Z"/><path class="cls-7" d="M120.56,345.28a108.34,108.34,0,0,0-31.37-17.5,116.52,116.52,0,0,0-45.36-6.63,90.08,90.08,0,0,0-17.34,2.43c-1.22.3-2.68.88-3.59-.15s.52-2.06,1-3c2.67-5.78,2.68-5.63,9-4.73,13.26,1.91,26.59,3.4,39.8,5.59,9.35,1.55,18.94,2.24,27.82,6.09a23.68,23.68,0,0,1,7.5,4.8,80.15,80.15,0,0,0,11.39,10C120.57,343,121.05,343.92,120.56,345.28Z"/><path class="cls-8" d="M245.92,176.69c6.16-6.89,5.22-15.23,4.6-23.42a28.18,28.18,0,0,1-.21-5.43c3.33,5.13,4.48,11,5.65,16.87a60.88,60.88,0,0,1-1.48,31c-.92,2.88-1.85,3.35-4,1.07a15.85,15.85,0,0,0-2.84-1.91c-1-.66-2-1.41-1.63-2.77C247.35,186.94,246.4,181.82,245.92,176.69Z"/><path class="cls-8" d="M225.5,182.64c7.47-2.4,10.91-8.6,9.2-16.75a8.48,8.48,0,0,1-.35-3.35c6.5,8.07,9.4,17.21,8.19,27.58-.15,1.37-.67,2.26-2.1,2.16-5.28-.35-9.24,2.25-12.89,5.61a6.83,6.83,0,0,1-1.45.75C225.45,193.12,226.37,187.83,225.5,182.64Z"/><path class="cls-6" d="M38.4,276.72A16.74,16.74,0,0,0,43,269.6c.38-1.23.64-2.49-.43-3.56-1.31-1.3-2.34,0-3.39.45-1.5.69-2.71,2.16-5.24,1.65,7.28-7.25,10.49-15.95,10.9-25.74,1.43.27,1.24,1.09,1.17,1.71-1.31,11.49,4.13,20.18,11.56,28,3.18,3.36,3.23,3.42-1.28,4.6C50.48,278.27,44.63,278.8,38.4,276.72Z"/><path class="cls-8" d="M85.65,149c1.69-5.73,1.3-11.75,2.49-17.55,1.67-8.14,6.5-14.54,11.24-21a2.15,2.15,0,0,1,2.09-1,4,4,0,0,1-.78,2.55c-7.15,11-6.85,19.71,1.26,30.35C95.91,143.34,90.94,146.49,85.65,149Z"/><path class="cls-10" d="M233.08,231.68c0,.68-.23,1.5.08,2,2.33,3.82,1.85,7.65.29,11.54-2.3.55-3.3-.46-3.74-2.71a12.26,12.26,0,0,0-1.89-5.12c-3-3.86-3-8.15-2.77-12.67.28-5.39.37-10.8.23-16.19-.08-3,.83-5.09,3.35-6.56,2,3.21,1.26,7.18,2.87,10.51,0,1.13,0,2.27,0,3.4a6.49,6.49,0,0,0,.73,5.66,9.28,9.28,0,0,0,0,8.86c-1.2,1.28-.26,1.33.76,1.34Z"/><path class="cls-10" d="M127.53,327.57a84.31,84.31,0,0,1-18-12.88c4.59,1.9,9.12,4,13.8,5.65a52.81,52.81,0,0,0,15.52,2.9,60.53,60.53,0,0,0,16-1.67c-2.32,3-4,5.58-6.73,7.22-5.2-.19-10.41.22-15.57-1.17C131.11,327.23,129.19,325.7,127.53,327.57Z"/><path class="cls-10" d="M44.53,237.39c-.15-4.61,3.46-7.5,5.13-11.27.45-1,1.45-1.81,1.06-3.1,2.06-2,4.19-4,4.47-7.12a6.79,6.79,0,0,0,3.35-4c1-1.19.64-2.41.09-3.64,1.43-.08,1.42-1.36,1.64-2.22a5,5,0,0,1,4.43-4c1.87,1.73,1.81,3.76,1.09,6-1.73,5.33-4.82,9.88-8.06,14.35s-6.78,9-9.19,14.11C47.5,238.74,46.2,238.74,44.53,237.39Z"/><path class="cls-11" d="M127.39,345.26c-.36,0-1.45.5-1.68-.52-.26-1.17-.62-2.55.4-3.59,4.88-5,10.61-5.89,15.8.25,1.26,1.5,1.66,2.77-1.17,2.9C136.41,344.5,132.09,344.91,127.39,345.26Z"/><path class="cls-8" d="M199.84,123.3c.89,6.91,3.38,13.63,2,20.81-.42,2.15-1.92,3.61-2.44,5.58l-8.06-1.94C198.78,141,199.91,132.33,199.84,123.3Z"/><path class="cls-8" d="M106.27,110.13c5.46-.41,9.14-3.71,12.41-7.67,0,3.8,0,7.6.08,11.39,0,1.48-.27,2-1.89,1.85C112.55,115.26,108.87,113.77,106.27,110.13Z"/><path class="cls-8" d="M127.06,92.75c2.52,1.13,4.71.62,6.87-1.07,1.37-1.07,2.68-2.48,4.69-2.38a65.94,65.94,0,0,0-5.42,14c-.15.66-.21,1.51-1,1.55-.41,0-1-.56-1.25-1C128.81,100.43,126.87,97,127.06,92.75Z"/><path class="cls-9" d="M127.53,327.57c1.66-1.87,3.58-.34,5,.05,5.16,1.39,10.37,1,15.57,1.17-1.75,2.5-4.57,3.79-6.78,5.77-1.5,1.34-3.82-.69-5.5-1.53C132.9,331.55,130.29,329.42,127.53,327.57Z"/><path class="cls-8" d="M156.24,93.45c.67,1.3,1.3,2.62,2,3.9,2.16,3.86,5.71,2.83,9,2.53-1.53,3.29-4.74,4.84-7.33,7-1.6,1.33-2.41-.06-2.82-1.55A29.79,29.79,0,0,1,156.24,93.45Z"/><path class="cls-8" d="M175.42,110.06c2.26,2.08,5.05,1.18,7.65,1.39-1.78,5-5.55,7.81-10.72,10.07C173.47,117.35,174.44,113.7,175.42,110.06Z"/><path class="cls-10" d="M213.43,226.06c.83-4.25,4.34-4.62,7.65-5.29v8C218.33,227.78,216,226.47,213.43,226.06Z"/><path class="cls-12" d="M107,319.84l1.57-.07,13.62,9a1.43,1.43,0,0,0-1.47.7A143.35,143.35,0,0,1,107,319.84Z"/><path class="cls-7" d="M120.69,329.43a1.43,1.43,0,0,1,1.47-.7c2,1.28,4.09,2.52,6.08,3.87.51.35,1.75.79.59,1.73-.64.51-1.3,1.43-2.34.43C124.59,333,122.62,331.2,120.69,329.43Z"/><path class="cls-8" d="M190,115.58c1.42.22,3.07-.64,4.22.88-.55,1.59-1.74,2.63-3.36,3.83Z"/><path class="cls-8" d="M168.69,98.46c.09-.78.64-.81,1.24-.76A1.31,1.31,0,0,1,168.69,98.46Z"/><path class="cls-13" d="M36,272.21c.37-.19.78-.32,1,.08.06.09-.26.44-.41.68C36.46,272.72,36.24,272.47,36,272.21Z"/><path class="cls-8" d="M84.91,149.7l.69-.8Z"/><path class="cls-8" d="M183.06,111.45l.49-.69Z"/><path class="cls-8" d="M167.28,99.79a.58.58,0,0,1,.67-.65Z"/><path class="cls-8" d="M168,99.1a.56.56,0,0,1,.64-.64C168.43,98.68,168.21,98.89,168,99.1Z"/><path class="cls-1" d="M72.32,264.28c-2.38-.23-3.15-1.65-2.76-3.84.64-3.57,6.41-9.19,10-9.83a2.79,2.79,0,0,1,2.2.77c.62,2.42-1.26,2.82-2.81,3.55-1.89.89-2.56,1.78-.28,3.25A58.63,58.63,0,0,0,86.76,263a10.4,10.4,0,0,0,.13-1.56c-.69-6.32,1-10,5.66-12.45,4.34-2.28,9.27-1.54,13.57,2.42,3.45,3.19,6.7,6.61,9.89,10.07,7.33,8,17.82,11.83,25.42,19.46.2.19.66.15,1,.17,4.1.29,8.21.72,12.26-.45,10.48-1.3,19.42-6.19,27.91-12.07A80.24,80.24,0,0,0,195,258.39c-1.67-1-3-.27-4.32.15s-2.63.74-3.25-.82.54-2.23,1.79-2.79c6.49-2.92,16.26.21,19.8,6.33.63,1.08,1.1,2.15.06,3.12-1.31,1.21-2.3.29-3.19-.72-3.53-5.31-4.83-5.53-9.24-1.53a122.16,122.16,0,0,1-17.91,13.48c-11.23,7-23.33,11.14-36.69,9.28-16.61-2.31-32.36-7.8-47.86-14A95.44,95.44,0,0,1,74,259.62C73.76,262.61,73.76,262.61,72.32,264.28Zm33.8,7.18.33-.58c-1.07-1.2-2.22-2.34-3.18-3.61-1.09-1.44-3.76-3-1.53-4.81s3.28,1.2,4.34,2.5c6.8,8.34,15.69,12.66,26.18,14.15.08-.78-.41-1.11-.89-1.41a101.2,101.2,0,0,1-24.48-20.6,19.56,19.56,0,0,0-5.2-4.51c-4.12-2.32-8.49-1.09-10.55,3-1.92,3.77-.11,10,3.47,11.51C98.4,268.65,102.28,270,106.12,271.46Z"/><path class="cls-14" d="M124.3,213.12c.27,8.63-2.4,11.47-11,11.69-6.66.17-13.33.28-20,.5a34.14,34.14,0,0,0-11.75,2.5c-1.18.48-2.23.73-3-.5s-.16-2,.8-2.62c1.55-.94,1.08-2.29,1.05-3.67-.3-13,4.25-23.79,15-31.31,8.87-6.2,18.44-3.61,24.06,6A34.44,34.44,0,0,1,124.3,213.12Zm-5.56,6.32a2.33,2.33,0,0,0,1.35-2.2,29.29,29.29,0,0,0-5.2-21.6c-4.18-5.79-10.13-7-16.41-3.56-9.37,5.1-15.63,18.67-14.07,30.63a70.07,70.07,0,0,1,7.44-1.05c2.64-.11,2.9-.79,1.94-3.25-3.42-8.79,3-17.39,12.42-16.9,8.7.45,13.59,7.51,12.17,17.55l0,.81Zm-13.12,1.74c2-.16,2.55-2.39,2.85-4.44s-1.11-3.31-3.07-3.36c-2.46,0-3.76,1.58-3.91,3.9S102.33,221.05,105.62,221.18Z"/><path class="cls-14" d="M190.45,224.24a107.84,107.84,0,0,0-24.84,2.48c-3.72.82-6.72-1.32-6.67-5.16.07-5.17.36-10.36.83-15.52a13.21,13.21,0,0,1,5.11-9.1,38.63,38.63,0,0,1,12-6.72c7.48-2.62,13.91.09,17.58,7.25,3.14,6.15,3.88,13,5.22,19.61,1.47,7.29,2.8,8.31-6.64,7.29C192,224.26,191,224.27,190.45,224.24ZM163,215.41h-.08a49.68,49.68,0,0,0,.05,5.18c.1.93-1,3,1.4,2.46,1.38-.28,3.77.38,3-2.77s.13-6.38,1.88-9.2a11.61,11.61,0,0,1,13.62-4.45c4.54,1.76,6.81,6,5.83,11.48-.36,2,.46,2.52,2.08,2.52,6.23,0,6.32.9,4.82-4.73-.09-.33,0-.7-.08-1-1.2-5.59-1.84-11.35-4.79-16.43-2.83-4.88-7.44-6.86-12.61-4.68C164.35,199.58,162.9,202,163,214.37Zm17.21,3.2c-.23-1.23-.61-2.59-2.21-2.48-1.44.1-2.08,1.28-2.16,2.67s.41,2.25,2,2.12C179.18,220.8,180.26,220.37,180.2,218.61Z"/><path class="cls-10" d="M72.32,264.28c1.44-1.67,1.44-1.67,1.7-4.66a95.44,95.44,0,0,0,20.21,11.25c15.5,6.22,31.25,11.71,47.86,14,13.36,1.86,25.46-2.31,36.69-9.28a122.16,122.16,0,0,0,17.91-13.48c4.41-4,5.71-3.78,9.24,1.53-3.92,1.68-7,4.62-10.57,6.87a129.71,129.71,0,0,1-42.48,17.37c-1.22.26-2.47.44-3.69.69-1.87.39.14,1-.08,1.49a37.5,37.5,0,0,0-15.18-.06c-5.26-1.4-10.52-2.79-15.78-4.21C101.62,281.32,85.34,276.28,72.32,264.28Z"/><path class="cls-10" d="M154.69,280.61c-4.05,1.17-8.16.74-12.26.45-.34,0-.8,0-1-.17-7.6-7.63-18.09-11.47-25.42-19.46-3.19-3.46-6.44-6.88-9.89-10.07-4.3-4-9.23-4.7-13.57-2.42-4.69,2.48-6.35,6.13-5.66,12.45a10.4,10.4,0,0,1-.13,1.56,58.63,58.63,0,0,1-8.11-4.77c-2.28-1.47-1.61-2.36.28-3.25,1.55-.73,3.43-1.13,2.81-3.55,1.68-.07,2.12-1.64,3-2.59,5.91-6.17,13.23-7,20.49-2.42,2.68,1.68,4.78,4.38,8.15,4.91,3.1,6.42,8.77,8.12,14.8,4.27,1.66-1.06,2.85-1.31,4.63-.22,5.09,3.13,10.24,2.94,15.2-.46a3.36,3.36,0,0,1,3.77-.54c4,1.85,8.05,1.27,11.89-.84-.12,5.51-4.83,8.79-10.48,7-2.55-.82-4.26-.2-6.61,1a17.93,17.93,0,0,1-14.64.51c-.42-.16-.74-.63-1.16-.72a3.64,3.64,0,0,0-4,1.25c-.89,1.41,1,1.81,1.78,2.39,7.3,5.79,14.89,11.09,24.13,13.37A2.23,2.23,0,0,1,154.69,280.61Z"/><path class="cls-12" d="M163.7,253.49c-3.84,2.11-7.85,2.69-11.89.84a3.36,3.36,0,0,0-3.77.54c-5,3.4-10.11,3.59-15.2.46-1.78-1.09-3-.84-4.63.22-6,3.85-11.7,2.15-14.8-4.27-.41-4.82,2-8.35,5.35-11.4,1-.92,2.21-1.52,3.28-.2.92,1.14.25,2.13-.7,3a13.79,13.79,0,0,0-3.53,4.62c-1.16,2.54-.56,4.53,1.87,5.81,2.16,1.15,7.06-.08,7.92-1.82.59-1.16-.58-1.88-.67-2.89s-.2-1.9.8-2.42a1.7,1.7,0,0,1,2.39.68c.65,1.31,2,1.89,2.77,3,4,5.39,11.44,5.37,15.53-.13a19.56,19.56,0,0,0,1.28-2.05c.54-1,1.2-1.79,2.44-1.3a1.75,1.75,0,0,1,1,2.55c-.94,1.79.1,2.25,1.46,2.58a8.36,8.36,0,0,0,8-1.88c2.29-2.1,2.32-4.31.05-6.41-1-.88-1.69-1.7-.86-2.9s2.11-.71,3.14-.3c2.88,1.16,4.08,5.38,2.6,9A11.59,11.59,0,0,1,163.7,253.49Z"/><path class="cls-1" d="M192.33,159.28a12.2,12.2,0,0,1,8.9,3.47c3.81,3.5,6.26,7.91,8.3,12.58.43,1,.76,1.95-.21,2.83a2.1,2.1,0,0,1-2.56.2c-5.65-2.83-11.64-5-17-8.44-2.38-1.55-4-3.72-2.89-6.69A6,6,0,0,1,192.33,159.28Zm10.93,13.37.6-.76c-2.55-3.64-4.77-7.66-9.81-8.58-1.22-.22-2.73-.3-3.27,1.14s.76,2.33,1.83,2.89C196.12,169.18,199.7,170.89,203.26,172.65Z"/><path class="cls-12" d="M98.06,155.57c3.55.14,5.61,1.3,6.69,3.72s.27,4.54-1.33,6.39c-2,2.31-4.79,3-7.66,3.59-2.46.47-5,.58-7.2,2.12-1.16.8-2.35,1.28-2.42,3-.07,1.53-1.22,2.44-2.62,1.75s-2.69-1.93-1.83-3.61c3-5.77,6.48-11.16,11.8-15.07C95.06,156.32,96.87,155.43,98.06,155.57Zm-7.23,10.3c2.82-.54,5.82-.07,8.36-1.6,1.38-.83,2.94-2.08,1.84-3.86-1-1.58-2.71-1.41-4.28-.46A20.6,20.6,0,0,0,90.83,165.87Z"/><path class="cls-10" d="M135.25,231c-2.75,3.82-7.05,4.65-9,1.74-1.66-2.45-.5-6.63,2.13-8.5,5.89-4.18,12.43-4.1,19.08-2.92,4.68.83,5.33,1.91,4.95,6.76-1.23-.27-2.46-.52-3.68-.81a32.77,32.77,0,0,0-18.56.86c-1.32.45-3.31.74-2.63,2.83.63,1.93,2.23,1.38,3.74.88A32.84,32.84,0,0,1,135.25,231Z"/><path class="cls-12" d="M135.25,231a32.84,32.84,0,0,0-4,.84c-1.51.5-3.11,1-3.74-.88-.68-2.09,1.31-2.38,2.63-2.83a32.77,32.77,0,0,1,18.56-.86c1.22.29,2.45.54,3.68.81,1.22.75,3.1,1.19,2.28,3.19-.9,2.16-2.61,1.21-4.11.69a26.66,26.66,0,0,0-13.16-1.33,1.24,1.24,0,0,0-1.47.26Z"/><path class="cls-10" d="M152.9,292.72c3.07-.13,4.26,1.57,3.77,4.34-.53,3-3.12,3.38-5,2.28-5.08-2.9-10.36-3.1-15.89-2.45-1.79.21-3.25-.22-3.23-2.49,5.87-1.44,11.71-1.9,17.55.2C151.63,295.16,152.75,294.57,152.9,292.72Z"/><path class="cls-12" d="M152.9,292.72c-.15,1.85-1.27,2.44-2.85,1.88-5.84-2.1-11.68-1.64-17.55-.2-2.31-2.37-.77-3.48,1.43-4.38a37.5,37.5,0,0,1,15.18.06C150.46,290.84,152.28,290.92,152.9,292.72Z"/><path class="cls-10" d="M196.17,185.37c1.14-3.39,3.57-2.22,5.18-1a37.32,37.32,0,0,1,9.56,10.72c.93,1.61.49,3.1-.43,4.52s-2.44,1.22-3.74.93c-1.68-.38-2.38-1.66-2.23-3.38,1.31.37,2.77,2,3.89,0s-.66-2.61-1.79-3.52Q201.39,189.52,196.17,185.37Z"/><path class="cls-12" d="M196.17,185.37q5.22,4.17,10.44,8.34c1.13.91,2.83,1.74,1.79,3.52s-2.58.33-3.89,0c-2.91-2.43-5.8-4.89-8.74-7.29C193.65,188.16,193.14,186.63,196.17,185.37Z"/><path class="cls-10" d="M90.41,181.49c.14-2.69,2-2.63,3.67-1.92s3,2.14,2.18,4.41A9.56,9.56,0,0,1,93,187.91a34.34,34.34,0,0,0-6.08,6c-1.31,1.7-3.35,2.52-4.89-.15,3.32-2.78,5.58-6.75,9.82-8.49,1-.41,2.24-1.12,1.74-2.58S91.72,181.21,90.41,181.49Z"/><path class="cls-1" d="M90.41,181.49c1.31-.28,2.64-.39,3.18,1.17s-.74,2.17-1.74,2.58C87.61,187,85.35,191,82,193.73c-2.17-.84-2.45-2.15-1.11-4A29.12,29.12,0,0,1,90.41,181.49Z"/><path class="cls-10" d="M135.93,230.88a1.24,1.24,0,0,1,1.47-.26C137.09,231.73,136.66,232.14,135.93,230.88Z"/><path class="cls-1" d="M58.63,208.29c.55,1.23.88,2.45-.09,3.64-4.31,0-4.31,0-3.35,4C54.91,219,52.78,221,50.72,223c-2.14.86-4.17,3.41-6.56.43,0-1.74.9-2.47,2.62-3,3.74-1.1,4.93-3.34,3.85-6.89-.5-1.68-.23-3.17,1-4,2.49-1.65,1.27-2.8-.11-4.23-3.29-3.41-7.37-3.78-11.72-3.24-1.73-2.36-.3-3.4,1.79-3.81,4.82-.94,8.84.87,12.19,4.17A75.31,75.31,0,0,1,58.63,208.29Z"/><path class="cls-10" d="M39.83,202.1c4.35-.54,8.43-.17,11.72,3.24,1.38,1.43,2.6,2.58.11,4.23-1.26.84-1.53,2.33-1,4,1.08,3.55-.11,5.79-3.85,6.89-1.72.51-2.59,1.24-2.62,3-2.37-1-3.4-3.4-1.55-4.85,3.1-2.41,2.53-5.63,3-8.69.18-1.07-.06-1.66-1.1-1.55C39.51,208.86,39.66,205.5,39.83,202.1Z"/><path class="cls-10" d="M248.22,207.61c2.12.5,2.65,2.15,2.49,3.95a3.53,3.53,0,0,1-3.3,3.47c-2.52,0-2.34,1.27-2.14,3,.27,2.34,0,4.62-1.87,6.37a2.39,2.39,0,0,0-.73,2.17c.37,3.9-.45,4.77-4.66,5.28a3.93,3.93,0,0,0-.41-1.28c-3.63-4.68-3.64-4.68.6-9.09,2.27-2.37,2.11-4.86-.43-6.77s-2.63-3.18-.2-5.42a7.34,7.34,0,0,1,7.1-1.56C245.91,208,247.07,208.64,248.22,207.61Z"/><path class="cls-1" d="M248.22,207.61c-1.15,1-2.31.43-3.55.14a7.34,7.34,0,0,0-7.1,1.56c-2.43,2.24-2.39,3.47.2,5.42s2.7,4.4.43,6.77c-4.24,4.41-4.23,4.41-.6,9.09a3.93,3.93,0,0,1,.41,1.28c-1.77,3.16-3.31.51-4.93-.19l-.07.06-.76-1.34a9.28,9.28,0,0,1,0-8.86l3.54-3.23-4.27-2.43c0-1.13,0-2.27,0-3.4,2.65-6.75,7.25-9.93,12.9-8.68C246.31,204.23,248.74,204.56,248.22,207.61Z"/><path class="cls-9" d="M231.54,215.88l4.27,2.43-3.54,3.23A6.49,6.49,0,0,1,231.54,215.88Z"/><path class="cls-9" d="M232.25,230.4l.76,1.34C232,231.73,231.05,231.68,232.25,230.4Z"/><path class="cls-9" d="M55.19,215.9c-1-3.92-1-3.92,3.35-4A6.79,6.79,0,0,1,55.19,215.9Z"/><path class="cls-15" d="M106.12,271.46c-3.84-1.45-7.72-2.81-11.51-4.38-3.58-1.47-5.39-7.74-3.47-11.51,2.06-4.07,6.43-5.3,10.55-3a19.56,19.56,0,0,1,5.2,4.51,101.2,101.2,0,0,0,24.48,20.6c.48.3,1,.63.89,1.41-10.49-1.49-19.38-5.81-26.18-14.15-1.06-1.3-2.09-4.34-4.34-2.5s.44,3.37,1.53,4.81c1,1.27,2.11,2.41,3.18,3.61Z"/><path class="cls-16" d="M118.38,219.06c1.42-10-3.47-17.1-12.17-17.55-9.41-.49-15.84,8.11-12.42,16.9,1,2.46.7,3.14-1.94,3.25a70.07,70.07,0,0,0-7.44,1.05c-1.56-12,4.7-25.53,14.07-30.63,6.28-3.42,12.23-2.23,16.41,3.56a29.29,29.29,0,0,1,5.2,21.6,2.33,2.33,0,0,1-1.35,2.2C118.63,219.31,118.5,219.18,118.38,219.06Z"/><path class="cls-11" d="M105.62,221.18c-3.29-.13-4.27-1.69-4.13-3.9s1.45-3.95,3.91-3.9c2,.05,3.35,1.33,3.07,3.36S107.63,221,105.62,221.18Z"/><path class="cls-16" d="M118.74,219.44l-.38.43c0-.27,0-.54,0-.81C118.5,219.18,118.63,219.31,118.74,219.44Z"/><path class="cls-16" d="M163,215.41v-1c-.09-12.33,1.36-14.79,15.09-20.61,5.17-2.18,9.78-.2,12.61,4.68,2.95,5.08,3.59,10.84,4.79,16.43.08.33,0,.7.08,1,1.5,5.63,1.41,4.77-4.82,4.73-1.62,0-2.44-.54-2.08-2.52,1-5.45-1.29-9.72-5.83-11.48a11.61,11.61,0,0,0-13.62,4.45c-1.75,2.82-2.71,5.95-1.88,9.2s-1.59,2.49-3,2.77c-2.44.51-1.3-1.53-1.4-2.46a49.68,49.68,0,0,1-.05-5.18Z"/><path class="cls-11" d="M180.2,218.61c.06,1.76-1,2.19-2.41,2.31-1.55.13-2-.78-2-2.12s.72-2.57,2.16-2.67C179.59,216,180,217.38,180.2,218.61Z"/><path class="cls-6" d="M203.26,172.65c-3.56-1.76-7.14-3.47-10.65-5.31-1.07-.56-2.4-1.38-1.83-2.89s2.05-1.36,3.27-1.14c5,.92,7.26,4.94,9.81,8.58Z"/><path class="cls-6" d="M90.83,165.87A20.6,20.6,0,0,1,96.75,160c1.57-.95,3.31-1.12,4.28.46,1.1,1.78-.46,3-1.84,3.86C96.65,165.8,93.65,165.33,90.83,165.87Z"/></svg>