<?xml version="1.0" encoding="utf-8"?>
<!-- Generator: Adobe Illustrator 26.1.0, SVG Export Plug-In . SVG Version: 6.00 Build 0)  -->
<svg version="1.1" id="a" xmlns="http://www.w3.org/2000/svg" xmlns:xlink="http://www.w3.org/1999/xlink" x="0px" y="0px"
	 viewBox="0 0 325 325" style="enable-background:new 0 0 325 325;" xml:space="preserve">
<style type="text/css">
	.st0{fill-rule:evenodd;clip-rule:evenodd;fill:#6F6F6F;}
</style>
<path class="st0" d="M242.5,127.6c4.7,10.8,7.3,22.6,7.3,34.9s-2.6,24.3-7.4,35.1c-4.9,11.2-12.2,21.2-21.1,29.6l-0.1,0.1
	c-0.6,0.6-1.1,1.3-1.4,2.1c-0.3,0.8-0.5,1.6-0.5,2.5c0,1.8,0.7,3.4,1.9,4.6c1.2,1.2,2.8,1.9,4.6,1.9c1,0,1.9-0.2,2.7-0.6
	c0.9-0.4,1.6-0.9,2.2-1.6l0.1-0.2l0,0c10.2-9.6,18.4-21,24.1-33.8c5.4-12.3,8.4-25.8,8.4-39.9s-3-27.6-8.4-39.8
	c-5.6-12.8-13.9-24.2-24.1-33.9c-0.7-0.7-1.5-1.2-2.3-1.7c-0.8-0.4-1.7-0.7-2.7-0.7c-1.8,0-3.4,0.7-4.6,1.9
	c-1.2,1.2-1.9,2.8-1.9,4.6c0,1,0.2,1.9,0.6,2.7c0.4,0.8,0.9,1.6,1.6,2.2l0,0C230.3,106.4,237.5,116.4,242.5,127.6"/>
<path class="st0" d="M235.4,162.5c0-10.6-2.2-20.7-6.3-29.9c-4.2-9.6-10.4-18.2-18.1-25.4c-0.2-0.2-0.4-0.3-0.5-0.5
	c-1.1-1-2-1.8-4.4-1.8c-1.5,0-3.2,0.8-4.6,2.2c-1.2,1.2-2,2.7-2,4.4c0,0.9,0.2,1.7,0.5,2.5c0.3,0.8,0.8,1.5,1.4,2.1l0.2,0.2l0,0
	c6.4,6,11.5,13.2,15,21.1c3.4,7.7,5.3,16.2,5.3,25.1s-1.9,17.4-5.3,25.1c-3.5,7.9-8.7,15.1-15.1,21.1l0,0l-0.1,0.2
	c-0.6,0.6-1.1,1.3-1.4,2.1c-0.3,0.8-0.5,1.6-0.5,2.5c0,1.8,0.7,3.4,1.9,4.6c1.2,1.2,2.8,1.9,4.6,1.9c1,0,1.9-0.2,2.7-0.6
	c0.9-0.4,1.6-0.9,2.2-1.6l0,0c7.7-7.2,13.9-15.8,18.1-25.4C233.2,183.2,235.4,173.1,235.4,162.5"/>
<path class="st0" d="M207.5,162.5c0-7.1-1.5-13.8-4.2-19.9c-2.8-6.4-6.9-12.1-12.1-16.9c-0.2-0.2-0.4-0.3-0.6-0.5
	c-1.1-1-2-1.8-4.4-1.8c-1.5,0-3.2,0.8-4.6,2.2c-1.2,1.2-2,2.7-2,4.4c0,0.9,0.2,1.7,0.5,2.5c0.3,0.8,0.8,1.5,1.4,2.1l0.1,0.1
	c3.8,3.6,6.9,7.9,9,12.6c2.1,4.6,3.2,9.7,3.2,15.1s-1.1,10.4-3.2,15.1c-2.1,4.8-5.2,9-9,12.6l-0.1,0.2c-0.6,0.6-1.1,1.3-1.4,2.1
	c-0.3,0.8-0.5,1.6-0.5,2.5c0,1.8,0.7,3.4,1.9,4.6c1.2,1.2,2.8,1.9,4.6,1.9c1,0,1.9-0.2,2.7-0.6c0.9-0.4,1.6-0.9,2.2-1.6l0.1-0.2l0,0
	c5.1-4.8,9.1-10.5,11.9-16.8C206,176.3,207.5,169.6,207.5,162.5"/>
<path class="st0" d="M154.9,245.2l-48.8-46.9H69c-4,0-7.3-3.3-7.3-7.3V134c0-4,3.3-7.3,7.3-7.3h37.2c16.2-15.6,32.5-31.2,48.7-46.7
	c5.5-5.2,10.9,0,10.9,10.5v144.4C165.9,250.4,157.6,247.8,154.9,245.2"/>
</svg>
