<svg id="Layer_1" data-name="Layer 1" xmlns="http://www.w3.org/2000/svg" xmlns:xlink="http://www.w3.org/1999/xlink" width="1920" height="1080" viewBox="0 0 1920 1080"><defs><style>.cls-1,.cls-2,.cls-3,.cls-7{fill:none;stroke-miterlimit:10;}.cls-1,.cls-2{stroke:#4d4d4d;}.cls-1{stroke-width:55px;}.cls-2{stroke-width:49px;}.cls-3{stroke:#fbb03b;stroke-width:26px;}.cls-4{fill:#4d4d4d;}.cls-5{fill:#b3b3b3;}.cls-6{fill:#de3832;}.cls-7{stroke:#000;stroke-linecap:round;stroke-width:12px;}</style></defs><title>Artboard 12</title><image width="1993" height="1153" transform="translate(-36.5 -36.5)" xlink:href="Artboard%20121.png"/><g id="Hjern"><circle class="cls-1" cx="779.9" cy="663.1" r="137.4"/><circle class="cls-2" cx="1146.1" cy="486.96" r="137.4"/><rect class="cls-3" x="741.77" y="322.32" width="115" height="77.48" rx="12" transform="translate(-6.65 707.02) rotate(-47.54)"/><rect class="cls-4" x="723.61" y="440.96" width="121.06" height="63.98" rx="12"/><rect class="cls-4" x="747.82" y="407.06" width="72.63" height="41.51" rx="12"/><rect class="cls-4" x="947.96" y="328.92" width="121.06" height="63.98" rx="12" transform="translate(61.45 861.33) rotate(-47.54)"/><rect class="cls-3" x="844.67" y="279.95" width="115" height="77.48" rx="12"/><rect class="cls-4" x="938.88" y="309.69" width="72.63" height="41.51" rx="12" transform="translate(73.11 826.86) rotate(-47.54)"/><rect class="cls-5" x="987.92" y="343.4" width="33.87" height="29.05" rx="7.5" transform="translate(1504.61 1300.31) rotate(-137.54)"/><rect class="cls-5" x="767.2" y="457.57" width="33.87" height="29.05" rx="7.5" transform="translate(312.04 1256.24) rotate(-90)"/></g><path d="M567.9,921.1a7.38,7.38,0,0,0-.3,2.4c0,.39,0,1,0,1.74s0,1.35,0,1.74q0,1.95-.34,5.82t-.34,5.82c0,1,.07,2.47.21,4.45s.22,3.47.22,4.48a1.82,1.82,0,0,1-.54,1.34,1.78,1.78,0,0,1-1.34.55,1.8,1.8,0,0,1-1.33-.55,1.82,1.82,0,0,1-.54-1.34c0-1-.07-2.5-.22-4.48s-.21-3.46-.21-4.45,0-1.91.1-2.89a50,50,0,0,0-8.27,1l-8.2,1.6c0,1.17-.12,2.83-.35,5a47.74,47.74,0,0,0-.35,5,1.86,1.86,0,0,1-.54,1.35,1.88,1.88,0,0,1-2.68,0,1.9,1.9,0,0,1-.53-1.35q0-2.07.34-6.18t.34-6.19c0-.71,0-1.79-.08-3.24s-.07-2.53-.07-3.26c0-1,.06-2.58.19-4.64s.2-3.61.2-4.64a1.85,1.85,0,0,1,.53-1.36,1.91,1.91,0,0,1,2.68,0,1.85,1.85,0,0,1,.54,1.36q0,1.56-.21,4.68c-.14,2.08-.2,3.64-.2,4.68l.11,4.94,8.38-1.58a50.6,50.6,0,0,1,8.46-1q.21-2.79.21-8.42a9.91,9.91,0,0,1,.49-3c.43-1.4,1-2.09,1.82-2.09a1.91,1.91,0,0,1,1.33.53,1.76,1.76,0,0,1,.58,1.36A2.79,2.79,0,0,1,567.9,921.1Z"/><path d="M581.9,947.6a1.61,1.61,0,0,1-1.78,1.8,2.19,2.19,0,0,1-2.07-1.68l-3-7.93-3.47-9a2.59,2.59,0,0,1-.2-.9,1.79,1.79,0,0,1,.61-1.37,2,2,0,0,1,1.4-.56,1.71,1.71,0,0,1,1.68,1.19l5,13.65c1-2.08,2.21-5.11,3.7-9.06q.53-1.57,1.66-4.42a1.88,1.88,0,0,1,1.72-1.25,2,2,0,0,1,1.4.57,1.81,1.81,0,0,1,.61,1.35q0,.74-3.23,8.36Z"/><path d="M607.6,949.91c-.24,0-.69-.29-1.34-.86a8.05,8.05,0,0,1-1.31-1.43,25.52,25.52,0,0,1-3.3,1.54,7.39,7.39,0,0,1-2.39.51c-3,0-5.26-.85-6.66-2.57s-2-4.09-2-7.43a11.19,11.19,0,0,1,3.25-8.08,10.44,10.44,0,0,1,7.77-3.36,10,10,0,0,1,3.81.88c1.77.73,2.65,1.61,2.65,2.64a1.3,1.3,0,0,1-.39.93,14.27,14.27,0,0,0-.3,2.44c-.07,1.14-.12,2.59-.13,4.36a16.4,16.4,0,0,0,.33,3.83,29.62,29.62,0,0,0,1.23,3.44c.09.23.24.57.45,1l.12.33a1.67,1.67,0,0,1-.55,1.29A1.8,1.8,0,0,1,607.6,949.91Zm-4.06-13.58a17.5,17.5,0,0,1,.11-1.82c.07-.66.18-1.36.32-2.1a9.2,9.2,0,0,0-1.24-.55,2.89,2.89,0,0,0-.83-.17,6.74,6.74,0,0,0-5.22,2.47,8.27,8.27,0,0,0-2.2,5.69,8.39,8.39,0,0,0,1.13,4.81,3.91,3.91,0,0,0,3.4,1.6,6.73,6.73,0,0,0,3.18-.69,11.42,11.42,0,0,0,2-1.48A70.49,70.49,0,0,1,603.54,936.33Z"/><path d="M638,933.58a1.62,1.62,0,0,1-1.51-.72,7.07,7.07,0,0,1-.51-2.11c-1,.25-2.48.7-4.51,1.37q-3.15,1.25-3.16,3.08a5.62,5.62,0,0,0,1.15.31,18.89,18.89,0,0,1,6.68,2.21,6.65,6.65,0,0,1,3.18,5.94,5.22,5.22,0,0,1-2.75,4.8,11.32,11.32,0,0,1-5.78,1.33,13.78,13.78,0,0,1-4.88-.86q-3-1.09-3-3a1.83,1.83,0,0,1,.61-1.37,2,2,0,0,1,1.4-.59,2.67,2.67,0,0,1,1.56.94,4.43,4.43,0,0,0,2.11.74,12.59,12.59,0,0,0,2.21.24,9.72,9.72,0,0,0,2.89-.39c1.21-.38,1.82-1,1.82-1.8q0-2.65-3.72-3.59l-2-.45a10.88,10.88,0,0,1-3.69-1.33,3.75,3.75,0,0,1-1.58-3.3,6,6,0,0,1,3.85-5.82,30.35,30.35,0,0,1,3.75-1.26,28.7,28.7,0,0,0,3.69-1.24,4.16,4.16,0,0,1,1.74-.35,1.83,1.83,0,0,1,1.37.54,2,2,0,0,1,.54,1.43,8.45,8.45,0,0,0,.24,1.66,7.9,7.9,0,0,1,.25,1.66,1.93,1.93,0,0,1-.54,1.42A1.83,1.83,0,0,1,638,933.58Z"/><path d="M659.79,949.91c-.25,0-.7-.29-1.35-.86a8.91,8.91,0,0,1-1.31-1.43,25.52,25.52,0,0,1-3.3,1.54,7.34,7.34,0,0,1-2.38.51c-3.05,0-5.27-.85-6.66-2.57s-2-4.09-2-7.43a11.19,11.19,0,0,1,3.25-8.08,10.44,10.44,0,0,1,7.76-3.36,9.91,9.91,0,0,1,3.81.88c1.77.73,2.66,1.61,2.66,2.64a1.3,1.3,0,0,1-.39.93,14.27,14.27,0,0,0-.3,2.44c-.08,1.14-.12,2.59-.13,4.36a16.4,16.4,0,0,0,.33,3.83,29.62,29.62,0,0,0,1.23,3.44c.09.23.24.57.45,1l.12.33a1.71,1.71,0,0,1-.55,1.29A1.8,1.8,0,0,1,659.79,949.91Zm-4.06-13.58a15.12,15.12,0,0,1,.11-1.82c.07-.66.17-1.36.32-2.1a9.79,9.79,0,0,0-1.24-.55,3,3,0,0,0-.83-.17,6.78,6.78,0,0,0-5.23,2.47,9.37,9.37,0,0,0-1.06,10.5,3.9,3.9,0,0,0,3.4,1.6,6.73,6.73,0,0,0,3.18-.69,11.06,11.06,0,0,0,2-1.48A72.48,72.48,0,0,1,655.73,936.33Zm-8.75-16a5.45,5.45,0,0,1,2-4.47,7.79,7.79,0,0,1,5.08-1.57,6.56,6.56,0,0,1,4.18,1.37,4.74,4.74,0,0,1,1.89,3.89,5.41,5.41,0,0,1-1.75,4.37,8.14,8.14,0,0,1-5.24,1.55,6.35,6.35,0,0,1-4.41-1.49A4.61,4.61,0,0,1,647,920.32Zm6.46,2.26a5.94,5.94,0,0,0,2.46-.46,2.65,2.65,0,0,0,1.31-2.58,2,2,0,0,0-1.05-1.78,3.76,3.76,0,0,0-2.09-.57c-2.83,0-4.21,1-4.16,3.13a2,2,0,0,0,1.19,1.6A4.18,4.18,0,0,0,653.44,922.58Z"/><path d="M685,949.3a16.64,16.64,0,0,1-4.3-.62l0,9.33a1.91,1.91,0,0,1-.54,1.41,1.8,1.8,0,0,1-1.37.55,1.84,1.84,0,0,1-1.38-.55,1.91,1.91,0,0,1-.54-1.41l.06-7.81v-7.79q-.06-4.27-.29-7.79l-.29-4a4.94,4.94,0,0,1,.5-2.34,1.84,1.84,0,0,1,1.7-1.15,1.68,1.68,0,0,1,1.28.53,1.82,1.82,0,0,1,.52,1.32,6.27,6.27,0,0,1-.06.65c-.06.4-.11.77-.14,1.11a14.53,14.53,0,0,1,3.25-1.73,8.69,8.69,0,0,1,3-.58,6.17,6.17,0,0,1,5.86,3.56,16.07,16.07,0,0,1,1.47,7.44,10.53,10.53,0,0,1-2.27,6.95A7.88,7.88,0,0,1,685,949.3Zm1.34-16.93a6.65,6.65,0,0,0-3.24.8,13.85,13.85,0,0,0-2.61,2.07c.16,3,.25,6.06.25,9.32a11.93,11.93,0,0,0,4.26.82,4.31,4.31,0,0,0,3.73-1.82,7,7,0,0,0,1.11-4.1,12.53,12.53,0,0,0-.87-5.32A2.79,2.79,0,0,0,686.31,932.37Z"/><path d="M697.78,949.64a1.54,1.54,0,0,1-1-.34.91.91,0,0,1-.43-.78,4.34,4.34,0,0,1,1.64-2.46,4.65,4.65,0,0,0,.41-.39A11.49,11.49,0,0,1,697,940.1a12.57,12.57,0,0,1,2.23-7.77,8.73,8.73,0,0,1,7.61-4,6.25,6.25,0,0,1,5,2.2l.32-.35c1.17-1.35,1.9-2,2.2-2a1.07,1.07,0,0,1,.82.37,1.18,1.18,0,0,1,.36.84,8.27,8.27,0,0,1-1.7,2.4c-.06.07-.29.34-.71.8a14.17,14.17,0,0,1,1.21,6.29A12.69,12.69,0,0,1,712,946.3a7.8,7.8,0,0,1-6.62,3.47,7.59,7.59,0,0,1-5.51-2.28q-.39.42-.45.51C698.61,949.09,698.07,949.64,697.78,949.64Zm3.44-7q2.46-2.74,8-9.2a3.48,3.48,0,0,0-2.71-1.15,4.86,4.86,0,0,0-4.45,2.74,9.78,9.78,0,0,0-1.29,5A7.35,7.35,0,0,0,701.22,942.68Zm9.1-7-7.91,8.89a4.16,4.16,0,0,0,3,1.25,4.73,4.73,0,0,0,3.49-1.49,6.27,6.27,0,0,0,1.76-4.43A15.6,15.6,0,0,0,710.32,935.69Z"/><path d="M724.05,933.27l-.29,9.71c0,1-.06,2.53-.16,4.53-.13,1.3-.77,2-1.91,2s-1.92-.66-1.92-2c0-1.58.07-3.94.22-7.1s.21-5.53.21-7.1q0-3.09.1-7.06c.06-2.65.1-5,.1-7.06a1.92,1.92,0,1,1,3.84,0q0,3.09-.09,7.06T724.05,933.27Z"/><path d="M743.23,933.58a1.62,1.62,0,0,1-1.51-.72,6.85,6.85,0,0,1-.5-2.11c-1,.25-2.48.7-4.51,1.37q-3.15,1.25-3.17,3.08a5.8,5.8,0,0,0,1.15.31,18.82,18.82,0,0,1,6.68,2.21,6.64,6.64,0,0,1,3.19,5.94,5.23,5.23,0,0,1-2.76,4.8,11.32,11.32,0,0,1-5.78,1.33,13.82,13.82,0,0,1-4.88-.86q-3-1.09-3-3a1.84,1.84,0,0,1,.62-1.37,2,2,0,0,1,1.39-.59,2.66,2.66,0,0,1,1.57.94,4.38,4.38,0,0,0,2.1.74,12.68,12.68,0,0,0,2.21.24,9.67,9.67,0,0,0,2.89-.39c1.21-.38,1.82-1,1.82-1.8q0-2.65-3.71-3.59l-2-.45a10.87,10.87,0,0,1-3.7-1.33,3.75,3.75,0,0,1-1.58-3.3,6,6,0,0,1,3.85-5.82,30.35,30.35,0,0,1,3.75-1.26,28.7,28.7,0,0,0,3.69-1.24,4.23,4.23,0,0,1,1.74-.35,1.87,1.87,0,0,1,1.38.54,2,2,0,0,1,.53,1.43,8.63,8.63,0,0,0,.25,1.66,8.45,8.45,0,0,1,.24,1.66,2,2,0,0,1-.53,1.42A1.84,1.84,0,0,1,743.23,933.58Z"/><path d="M758.64,949.52a11,11,0,0,1-7.15-2.21,8.33,8.33,0,0,1-3-6.83A14.26,14.26,0,0,1,751,932a8.37,8.37,0,0,1,7.15-3.75,11.18,11.18,0,0,1,5.29,1.09,4.41,4.41,0,0,1,2.52,4.14,4.46,4.46,0,0,1-2.2,3.56,30.85,30.85,0,0,1-4.14,2.19l-7.46,3.53a7,7,0,0,0,2.72,2.44,8.31,8.31,0,0,0,3.8.82,12.26,12.26,0,0,0,3.16-.5,5,5,0,0,0,3-1.69c.44-.7.92-1,1.43-1a1.71,1.71,0,0,1,1.22.52,1.6,1.6,0,0,1,.54,1.2q0,2.17-3.5,3.73A14.19,14.19,0,0,1,758.64,949.52Zm-.53-17.79a5,5,0,0,0-4,1.84,12.36,12.36,0,0,0-2.37,5.56l6-2.85a26.1,26.1,0,0,0,5-3A6.66,6.66,0,0,0,758.11,931.73Z"/><path d="M784.56,921.16q-4.72,0-5.3,6.56l0,1.21c2.21-.15,3.64-.23,4.29-.23,2.07,0,3.11.65,3.11,1.95a1.61,1.61,0,0,1-1.53,1.7,7.39,7.39,0,0,1-1.55.09c-.59,0-2.09.07-4.5.26l-.16,4.46c0,.8,0,2,.08,3.63s.08,2.82.08,3.61a29.69,29.69,0,0,1-.43,5.78,1.73,1.73,0,0,1-1.82,1.57,2,2,0,0,1-1.36-.52,1.69,1.69,0,0,1-.57-1.3,2,2,0,0,1,0-.39,35.17,35.17,0,0,0,.41-5.53l-.06-5.33V933c-1.63.13-2.66.2-3.09.2-1.31,0-2-.63-2-1.89s1.14-2,3.42-2l1.87,0q.06-1.1.3-3c.34-2.89,1.06-5,2.19-6.39q2-2.48,6.34-2.48c1.87,0,2.8.63,2.8,1.89S786.25,921.16,784.56,921.16Z"/><path d="M796.37,939.75c0,.78,0,2,.07,3.51s.07,2.72.07,3.5a1.94,1.94,0,0,1-.53,1.41,1.81,1.81,0,0,1-1.38.55,1.84,1.84,0,0,1-1.38-.55,1.91,1.91,0,0,1-.54-1.41c0-.78,0-2-.07-3.5s-.07-2.73-.07-3.51c0-1.22.07-2.75.2-4.58s.2-3.35.2-4.58a1.92,1.92,0,0,1,.53-1.42,2,2,0,0,1,2.76,0,2,2,0,0,1,.53,1.42c0,1.23-.06,2.75-.19,4.58S796.37,938.53,796.37,939.75Zm-.88-15.86a2.27,2.27,0,0,1-1.62-.66,2.22,2.22,0,0,1,0-3.2,2.24,2.24,0,0,1,1.62-.67,2.2,2.2,0,0,1,1.62.67,2.25,2.25,0,0,1,0,3.2A2.23,2.23,0,0,1,795.49,923.89Z"/><path d="M818,950c-1.13,0-1.76-.62-1.9-1.84l-.55-4.28a36.52,36.52,0,0,1-.27-4.27c0-.37,0-1,.07-1.86s.07-1.49.07-1.85c0-2.82-.52-4.22-1.57-4.22-1.45,0-2.85.86-4.18,2.59a18,18,0,0,0-2.81,6c0,.51-.08,1.15-.17,1.91a15.76,15.76,0,0,0-.12,1.9c0,.39,0,1,.12,1.76s.11,1.36.11,1.75a2,2,0,0,1-.53,1.43,2,2,0,0,1-2.77,0,2,2,0,0,1-.52-1.43c0-.39-.05-1-.13-1.75a16.54,16.54,0,0,1-.13-1.76c0-1.34.1-3.2.28-5.58s.29-4.23.29-5.57c0-.42,0-1-.07-1.86s-.07-1.44-.07-1.85a1.85,1.85,0,0,1,.56-1.38,1.89,1.89,0,0,1,1.37-.54c1.2,0,1.86.85,2,2.54l.06,2.29c2.18-2.92,4.43-4.38,6.73-4.38a4.39,4.39,0,0,1,4.36,2.76,14.25,14.25,0,0,1,.92,5.42v2l0,1.81a27.06,27.06,0,0,0,.42,4.19,27.19,27.19,0,0,1,.42,4.17,1.86,1.86,0,0,1-.56,1.4A1.92,1.92,0,0,1,818,950Z"/><path d="M840,940.2l-.45,6.56a28.2,28.2,0,0,1-.8,6.39,8.62,8.62,0,0,1-2.82,4.67q-2.34,1.81-6.77,1.82a22.23,22.23,0,0,1-4.36-.36c-1.64-.32-2.46-1-2.46-2a1.52,1.52,0,0,1,1.7-1.74,13.19,13.19,0,0,1,2.34.35,16.61,16.61,0,0,0,3.64.3,5.27,5.27,0,0,0,5.17-3.63,21.93,21.93,0,0,0,1-7.33,8.08,8.08,0,0,1-2.51,2.93,5.85,5.85,0,0,1-3.33,1,7.46,7.46,0,0,1-5.75-2.41,8.89,8.89,0,0,1-2.22-6.26,11.9,11.9,0,0,1,3-8.5,11.13,11.13,0,0,1,8.51-3.32,8.69,8.69,0,0,1,3.05.47,3.82,3.82,0,0,1,1.87,1.41c1.4,0,2.09.81,2.09,2.32a21.86,21.86,0,0,1-.41,3.71C840.21,938.33,840,939.55,840,940.2Zm-6.27-8.45A6.93,6.93,0,0,0,828,934.3a9.19,9.19,0,0,0-1.81,5.86,7.07,7.07,0,0,0,1.07,4.26,3.79,3.79,0,0,0,3.23,1.43,5.13,5.13,0,0,0,3.82-2.23,8,8,0,0,0,1.92-4.06q.4-2.12.88-6.62a5.57,5.57,0,0,0-1.62-.9A5.13,5.13,0,0,0,833.72,931.75Z"/><path d="M854.26,949.52a11,11,0,0,1-7.14-2.21,8.3,8.3,0,0,1-3-6.83,14.26,14.26,0,0,1,2.46-8.52,8.35,8.35,0,0,1,7.15-3.75A11.2,11.2,0,0,1,859,929.3a4.41,4.41,0,0,1,2.52,4.14,4.47,4.47,0,0,1-2.21,3.56,30.85,30.85,0,0,1-4.14,2.19l-7.46,3.53a7.12,7.12,0,0,0,2.72,2.44,8.34,8.34,0,0,0,3.8.82,12.33,12.33,0,0,0,3.17-.5,5.11,5.11,0,0,0,3-1.69c.44-.7.91-1,1.42-1a1.69,1.69,0,0,1,1.22.52,1.6,1.6,0,0,1,.54,1.2c0,1.45-1.16,2.69-3.5,3.73A14.19,14.19,0,0,1,854.26,949.52Zm-.52-17.79a5,5,0,0,0-4,1.84,12.47,12.47,0,0,0-2.36,5.56l6-2.85a26.1,26.1,0,0,0,5-3A6.65,6.65,0,0,0,853.74,931.73Z"/><path d="M882.25,934.19c-.09,1.62-.74,2.44-2,2.44s-1.68-.65-1.68-1.94c0-.24,0-.7-.06-1.36l-.06-1.64a10.22,10.22,0,0,0-4.94,1.73,9.43,9.43,0,0,0-2.89,3.83l0,10.71a1.73,1.73,0,0,1-1.93,2c-1.15,0-1.72-.66-1.72-2V934.25c0-.43,0-1.08.05-1.94s0-1.5,0-1.93c0-1.32.58-2,1.72-2s1.92,1.08,1.94,3.24a11.74,11.74,0,0,1,8.32-3.62,2.63,2.63,0,0,1,2.36,1.2,6.62,6.62,0,0,1,.78,3.59C882.27,933.5,882.26,934,882.25,934.19Z"/><path d="M889.13,955.34a1.59,1.59,0,0,1-1.19-.53,1.68,1.68,0,0,1-.51-1.21,14.37,14.37,0,0,1,1.21-3.36c.7-1.61,1.24-2.77,1.62-3.46a1.52,1.52,0,0,1,1.35-.93,1.59,1.59,0,0,1,1.2.53,1.77,1.77,0,0,1,.5,1.22,58.68,58.68,0,0,1-2.78,6.68A1.48,1.48,0,0,1,889.13,955.34Z"/><path d="M927.29,931.37c-.16,1.92-.23,3.83-.23,5.75a59.6,59.6,0,0,0,.6,9.82,2.74,2.74,0,0,1,0,.45,1.67,1.67,0,0,1-.55,1.29,1.78,1.78,0,0,1-1.27.51c-.8,0-1.39-.59-1.77-1.76a11,11,0,0,1-2.92,1.56,9.57,9.57,0,0,1-3.16.53,9,9,0,0,1-6.7-2.7,9.6,9.6,0,0,1-2.73-7.07,12.24,12.24,0,0,1,2.76-8.36,9.14,9.14,0,0,1,7.18-3.14,7.13,7.13,0,0,1,3.5.7l1.83,1.35c.19-5.48.4-9.17.65-11.07q.26-1.74,1.77-1.74c1.19,0,1.78.63,1.78,1.89Q928.07,922.1,927.29,931.37Zm-8.67.51a6.06,6.06,0,0,0-4.92,2c-1.1,1.29-1.64,3.24-1.64,5.84a6,6,0,0,0,1.78,4.34,5.72,5.72,0,0,0,4.19,1.82,5.89,5.89,0,0,0,2.78-.61A14.43,14.43,0,0,0,923,943.6a4.1,4.1,0,0,0,.57-.6l-.06-3.38,0-2.27,0-2.3a5.47,5.47,0,0,0-2-2.38A5.41,5.41,0,0,0,918.62,931.88Z"/><path d="M941.92,949.52a11,11,0,0,1-7.15-2.21,8.33,8.33,0,0,1-3-6.83,14.26,14.26,0,0,1,2.46-8.52,8.37,8.37,0,0,1,7.15-3.75,11.25,11.25,0,0,1,5.3,1.09,4.41,4.41,0,0,1,2.52,4.14A4.47,4.47,0,0,1,947,937a30.85,30.85,0,0,1-4.14,2.19l-7.46,3.53a7,7,0,0,0,2.72,2.44,8.31,8.31,0,0,0,3.8.82,12.26,12.26,0,0,0,3.16-.5,5,5,0,0,0,3-1.69c.45-.7.92-1,1.43-1a1.71,1.71,0,0,1,1.22.52,1.6,1.6,0,0,1,.54,1.2q0,2.17-3.5,3.73A14.19,14.19,0,0,1,941.92,949.52Zm-.53-17.79a5,5,0,0,0-4,1.84,12.36,12.36,0,0,0-2.37,5.56l6-2.85a26.1,26.1,0,0,0,5-3A6.66,6.66,0,0,0,941.39,931.73Z"/><path d="M969.91,934.19c-.09,1.62-.74,2.44-1.95,2.44s-1.68-.65-1.68-1.94c0-.24,0-.7-.06-1.36l-.06-1.64a10.18,10.18,0,0,0-4.94,1.73,9.35,9.35,0,0,0-2.89,3.83l0,10.71a1.73,1.73,0,0,1-1.94,2c-1.14,0-1.72-.66-1.72-2V934.25c0-.43,0-1.08,0-1.94s0-1.5,0-1.93c0-1.32.57-2,1.72-2s1.92,1.08,1.93,3.24a11.75,11.75,0,0,1,8.32-3.62,2.63,2.63,0,0,1,2.37,1.2,6.62,6.62,0,0,1,.78,3.59C969.93,933.5,969.92,934,969.91,934.19Z"/><path d="M995,949.44a12.36,12.36,0,0,1-5.43-1.17,1.84,1.84,0,0,1-1.53.94,1.75,1.75,0,0,1-1.26-.52,1.79,1.79,0,0,1-.51-1.3c0-.34,0-.84,0-1.5s0-1.17,0-1.51q0-2.07-.1-6.2c-.08-2.75-.11-4.82-.11-6.2,0-1,0-2.75,0-5.4s0-4.46,0-5.42a4.44,4.44,0,0,1,.49-2.11,2,2,0,0,1,1.77-1.19c1,0,1.47.56,1.47,1.7a4.37,4.37,0,0,1-.1.8,4.37,4.37,0,0,0-.1.8l-.06,4.28,0,5a15.39,15.39,0,0,1,3.24-1.73,8.07,8.07,0,0,1,2.88-.58,8.37,8.37,0,0,1,6.81,3.22,11.38,11.38,0,0,1,2.47,7.45,10.69,10.69,0,0,1-2.88,7.55A9.29,9.29,0,0,1,995,949.44Zm.74-17.64a6.91,6.91,0,0,0-3.28.9,29.34,29.34,0,0,0-2.82,1.94l0,3.37v3l0,3.2c.63.29,1.51.66,2.64,1.1a9.18,9.18,0,0,0,2.72.37,6,6,0,0,0,4.64-2,7,7,0,0,0,1.82-5,7.93,7.93,0,0,0-1.46-4.87A5.08,5.08,0,0,0,995.75,931.8Z"/><path d="M1014.58,933.27l-.3,9.71q0,1.53-.15,4.53-.2,1.95-1.92,2c-1.27,0-1.91-.66-1.91-2,0-1.58.07-3.94.21-7.1s.22-5.53.22-7.1q0-3.09.1-7.06t.09-7.06a1.93,1.93,0,1,1,3.85,0q0,3.09-.1,7.06T1014.58,933.27Z"/><path d="M1029.69,949.52a11.06,11.06,0,0,1-7.15-2.21,8.33,8.33,0,0,1-3-6.83A14.26,14.26,0,0,1,1022,932a8.35,8.35,0,0,1,7.15-3.75,11.2,11.2,0,0,1,5.29,1.09,4.41,4.41,0,0,1,2.52,4.14,4.47,4.47,0,0,1-2.21,3.56,30.85,30.85,0,0,1-4.14,2.19l-7.46,3.53a7.12,7.12,0,0,0,2.72,2.44,8.34,8.34,0,0,0,3.8.82,12.33,12.33,0,0,0,3.17-.5,5.11,5.11,0,0,0,3-1.69c.44-.7.91-1,1.42-1a1.69,1.69,0,0,1,1.22.52,1.6,1.6,0,0,1,.54,1.2q0,2.17-3.5,3.73A14.19,14.19,0,0,1,1029.69,949.52Zm-.52-17.79a5,5,0,0,0-4,1.84,12.47,12.47,0,0,0-2.36,5.56l6-2.85a26.1,26.1,0,0,0,5-3A6.65,6.65,0,0,0,1029.17,931.73Z"/><path d="M1051.49,947.6a1.61,1.61,0,0,1-1.78,1.8,2.19,2.19,0,0,1-2.07-1.68l-3-7.93-3.47-9a2.59,2.59,0,0,1-.2-.9,1.79,1.79,0,0,1,.61-1.37,2,2,0,0,1,1.4-.56,1.72,1.72,0,0,1,1.68,1.19l5,13.65c1-2.08,2.21-5.11,3.7-9.06q.53-1.57,1.66-4.42a1.88,1.88,0,0,1,1.72-1.25,2,2,0,0,1,1.4.57,1.81,1.81,0,0,1,.61,1.35q0,.74-3.23,8.36Z"/><path d="M1091.88,931.37c-.16,1.92-.23,3.83-.23,5.75a59.6,59.6,0,0,0,.6,9.82,2.74,2.74,0,0,1,0,.45,1.67,1.67,0,0,1-.55,1.29,1.78,1.78,0,0,1-1.27.51c-.8,0-1.39-.59-1.77-1.76a11,11,0,0,1-2.92,1.56,9.57,9.57,0,0,1-3.16.53,9,9,0,0,1-6.7-2.7,9.6,9.6,0,0,1-2.73-7.07,12.24,12.24,0,0,1,2.76-8.36,9.14,9.14,0,0,1,7.18-3.14,7.13,7.13,0,0,1,3.5.7l1.83,1.35c.19-5.48.4-9.17.65-11.07q.26-1.74,1.77-1.74c1.19,0,1.78.63,1.78,1.89Q1092.66,922.1,1091.88,931.37Zm-8.67.51a6.06,6.06,0,0,0-4.92,2c-1.1,1.29-1.64,3.24-1.64,5.84a6,6,0,0,0,1.78,4.34,5.7,5.7,0,0,0,4.19,1.82,5.89,5.89,0,0,0,2.78-.61,14.43,14.43,0,0,0,2.16-1.62,4.1,4.1,0,0,0,.57-.6l-.06-3.38,0-2.27,0-2.3a5.47,5.47,0,0,0-2-2.38A5.41,5.41,0,0,0,1083.21,931.88Z"/><path d="M1113.33,937.21c0,.94,0,2.35,0,4.22s0,3.28,0,4.22c0,.29,0,.72.06,1.31s.07,1,.07,1.31a1.85,1.85,0,0,1-.56,1.38,2,2,0,0,1-1.39.53c-1,0-1.64-.62-1.92-1.85a12.06,12.06,0,0,1-5.62,1.27,7.38,7.38,0,0,1-4.24-1.14,5.07,5.07,0,0,1-2.21-3.65,65.14,65.14,0,0,1-.76-9.22,36.61,36.61,0,0,1,.59-6.09,1.75,1.75,0,0,1,1.85-1.7,2,2,0,0,1,1.41.54,1.8,1.8,0,0,1,.57,1.37,22.76,22.76,0,0,1-.29,2.87,24.58,24.58,0,0,0-.28,3c0,2.18.07,4,.22,5.59a18.82,18.82,0,0,0,.64,3.73,7.22,7.22,0,0,0,1.27.54,4.47,4.47,0,0,0,1.23.18,20,20,0,0,0,5.53-.84l0-4,0-3.79a62.27,62.27,0,0,1,.37-7.33,1.76,1.76,0,0,1,1.89-1.79,2,2,0,0,1,1.41.54,1.72,1.72,0,0,1,.53,1.37Z"/><path d="M1143.27,921.16q-4.73,0-5.3,6.56l0,1.21c2.21-.15,3.64-.23,4.29-.23,2.07,0,3.11.65,3.11,1.95a1.61,1.61,0,0,1-1.53,1.7,7.39,7.39,0,0,1-1.55.09c-.59,0-2.09.07-4.5.26l-.16,4.46c0,.8,0,2,.08,3.63s.08,2.82.08,3.61a29.69,29.69,0,0,1-.43,5.78,1.73,1.73,0,0,1-1.82,1.57,2,2,0,0,1-1.36-.52,1.69,1.69,0,0,1-.57-1.3,2,2,0,0,1,0-.39A35.17,35.17,0,0,0,1134,944l-.06-5.33V933c-1.63.13-2.66.2-3.08.2q-2,0-2-1.89t3.42-2l1.88,0c0-.73.13-1.72.29-3q.51-4.34,2.19-6.39c1.35-1.65,3.47-2.48,6.34-2.48,1.87,0,2.8.63,2.8,1.89S1145,921.16,1143.27,921.16Z"/><path d="M1165.73,949.91c-.25,0-.7-.29-1.35-.86a8.46,8.46,0,0,1-1.31-1.43,25.52,25.52,0,0,1-3.3,1.54,7.34,7.34,0,0,1-2.38.51c-3.05,0-5.27-.85-6.66-2.57s-2-4.09-2-7.43a11.19,11.19,0,0,1,3.25-8.08,10.42,10.42,0,0,1,7.76-3.36,10,10,0,0,1,3.81.88c1.77.73,2.66,1.61,2.66,2.64a1.3,1.3,0,0,1-.39.93,14,14,0,0,0-.31,2.44c-.07,1.14-.11,2.59-.12,4.36a15.38,15.38,0,0,0,.33,3.83,29.62,29.62,0,0,0,1.23,3.44c.09.23.24.57.45,1l.11.33a1.7,1.7,0,0,1-.54,1.29A1.82,1.82,0,0,1,1165.73,949.91Zm-4.06-13.58a17.32,17.32,0,0,1,.1-1.82q.11-1,.33-2.1a10.47,10.47,0,0,0-1.24-.55,3,3,0,0,0-.83-.17,6.78,6.78,0,0,0-5.23,2.47,9.32,9.32,0,0,0-1.06,10.5,3.88,3.88,0,0,0,3.39,1.6,6.77,6.77,0,0,0,3.19-.69,11.44,11.44,0,0,0,2-1.48A69.91,69.91,0,0,1,1161.67,936.33Z"/><path d="M1185.92,950c-1.12,0-1.75-.62-1.89-1.84l-.55-4.28a36.52,36.52,0,0,1-.27-4.27c0-.37,0-1,.07-1.86s.07-1.49.07-1.85c0-2.82-.52-4.22-1.57-4.22-1.45,0-2.85.86-4.18,2.59a18,18,0,0,0-2.81,6c0,.51-.08,1.15-.17,1.91a15.76,15.76,0,0,0-.12,1.9c0,.39,0,1,.12,1.76s.11,1.36.11,1.75a2,2,0,0,1-.53,1.43,2,2,0,0,1-2.77,0,2,2,0,0,1-.53-1.43c0-.39,0-1-.12-1.75a16.54,16.54,0,0,1-.13-1.76c0-1.34.1-3.2.28-5.58s.29-4.23.29-5.57c0-.42,0-1-.07-1.86s-.07-1.44-.07-1.85a1.85,1.85,0,0,1,.56-1.38,1.89,1.89,0,0,1,1.37-.54c1.2,0,1.86.85,2,2.54l0,2.29q3.29-4.38,6.74-4.38a4.39,4.39,0,0,1,4.36,2.76,14.45,14.45,0,0,1,.92,5.42v2l0,1.81a27.06,27.06,0,0,0,.42,4.19,27.19,27.19,0,0,1,.42,4.17,1.86,1.86,0,0,1-.56,1.4A1.93,1.93,0,0,1,1185.92,950Z"/><path d="M1208,940.2l-.45,6.56a28.2,28.2,0,0,1-.8,6.39,8.62,8.62,0,0,1-2.82,4.67q-2.34,1.81-6.77,1.82a22.16,22.16,0,0,1-4.36-.36c-1.64-.32-2.46-1-2.46-2a1.52,1.52,0,0,1,1.7-1.74,13.19,13.19,0,0,1,2.34.35,16.57,16.57,0,0,0,3.63.3,5.28,5.28,0,0,0,5.18-3.63,21.93,21.93,0,0,0,1-7.33,8.08,8.08,0,0,1-2.51,2.93,5.85,5.85,0,0,1-3.33,1,7.49,7.49,0,0,1-5.76-2.41,8.93,8.93,0,0,1-2.21-6.26,11.9,11.9,0,0,1,3-8.5,11.13,11.13,0,0,1,8.51-3.32,8.69,8.69,0,0,1,3,.47,3.82,3.82,0,0,1,1.87,1.41c1.4,0,2.09.81,2.09,2.32a21.86,21.86,0,0,1-.41,3.71C1208.18,938.33,1208,939.55,1208,940.2Zm-6.27-8.45a6.93,6.93,0,0,0-5.75,2.55,9.19,9.19,0,0,0-1.81,5.86,7.07,7.07,0,0,0,1.07,4.26,3.79,3.79,0,0,0,3.22,1.43c1.32,0,2.59-.75,3.83-2.23a8,8,0,0,0,1.92-4.06q.4-2.12.87-6.62a5.44,5.44,0,0,0-1.62-.9A5.11,5.11,0,0,0,1201.69,931.75Z"/><path d="M1222.23,949.52a11.06,11.06,0,0,1-7.15-2.21,8.33,8.33,0,0,1-3-6.83,14.26,14.26,0,0,1,2.46-8.52,8.35,8.35,0,0,1,7.15-3.75,11.2,11.2,0,0,1,5.29,1.09,4.41,4.41,0,0,1,2.52,4.14,4.47,4.47,0,0,1-2.21,3.56,30.85,30.85,0,0,1-4.14,2.19l-7.46,3.53a7.12,7.12,0,0,0,2.72,2.44,8.34,8.34,0,0,0,3.8.82,12.33,12.33,0,0,0,3.17-.5,5.11,5.11,0,0,0,3-1.69c.44-.7.91-1,1.42-1a1.69,1.69,0,0,1,1.22.52,1.6,1.6,0,0,1,.54,1.2q0,2.17-3.5,3.73A14.19,14.19,0,0,1,1222.23,949.52Zm-.52-17.79a5,5,0,0,0-4,1.84,12.47,12.47,0,0,0-2.36,5.56l6-2.85a26.1,26.1,0,0,0,5-3A6.65,6.65,0,0,0,1221.71,931.73Z"/><path d="M1248.09,932c-.27,0-.59,0-1,0s-.69,0-1,0-1.19.1-2.66.29l.37,11.55,0,.86,0,1q.08,4.27-2.05,4.28a2,2,0,0,1-1.36-.51,1.63,1.63,0,0,1-.57-1.27q0-.74.06-2.22c0-1,0-1.74,0-2.23l-.39-11.41c-1,0-2.39-.15-4.33-.33a1.77,1.77,0,0,1-1.74-1.93,2,2,0,0,1,.53-1.43,1.74,1.74,0,0,1,1.35-.56l4.1.33q0-1-.09-2.67c-.06-1.11-.09-1.92-.09-2.41a1.79,1.79,0,0,1,.57-1.36,1.93,1.93,0,0,1,1.38-.54c1.18,0,1.86,1,2.05,2.88,0,.48.06,1.06.06,1.73l0,1.14,0,1.21c1.62-.21,2.54-.31,2.78-.31a11.17,11.17,0,0,1,2.65.19A1.72,1.72,0,0,1,1250,930a1.94,1.94,0,0,1-.54,1.41A1.85,1.85,0,0,1,1248.09,932Z"/><path d="M1281.08,949.91c-.25,0-.7-.29-1.35-.86a8.91,8.91,0,0,1-1.31-1.43,25.52,25.52,0,0,1-3.3,1.54,7.34,7.34,0,0,1-2.38.51c-3,0-5.27-.85-6.66-2.57s-2-4.09-2-7.43a11.19,11.19,0,0,1,3.25-8.08,10.44,10.44,0,0,1,7.76-3.36,9.91,9.91,0,0,1,3.81.88c1.77.73,2.66,1.61,2.66,2.64a1.3,1.3,0,0,1-.39.93,15.1,15.1,0,0,0-.31,2.44c-.07,1.14-.11,2.59-.12,4.36a15.87,15.87,0,0,0,.33,3.83,29.62,29.62,0,0,0,1.23,3.44c.09.23.24.57.45,1l.12.33a1.71,1.71,0,0,1-.55,1.29A1.8,1.8,0,0,1,1281.08,949.91ZM1277,936.33a17.32,17.32,0,0,1,.1-1.82c.08-.66.18-1.36.33-2.1a9.79,9.79,0,0,0-1.24-.55,3,3,0,0,0-.83-.17,6.78,6.78,0,0,0-5.23,2.47,9.37,9.37,0,0,0-1.06,10.5,3.9,3.9,0,0,0,3.4,1.6,6.73,6.73,0,0,0,3.18-.69,11.06,11.06,0,0,0,2-1.48A72.48,72.48,0,0,1,1277,936.33Z"/><path d="M1299.42,921.16c-3.15,0-4.92,2.19-5.29,6.56l-.06,1.21c2.21-.15,3.64-.23,4.3-.23,2.07,0,3.1.65,3.1,1.95a1.61,1.61,0,0,1-1.52,1.7,7.49,7.49,0,0,1-1.56.09c-.59,0-2.09.07-4.5.26l-.15,4.46c0,.8,0,2,.07,3.63s.08,2.82.08,3.61a29.69,29.69,0,0,1-.43,5.78,1.72,1.72,0,0,1-1.81,1.57,2,2,0,0,1-1.37-.52,1.69,1.69,0,0,1-.57-1.3,3.22,3.22,0,0,1,0-.39,34,34,0,0,0,.41-5.53l-.06-5.33V933c-1.62.13-2.65.2-3.08.2q-2,0-2-1.89t3.42-2l1.88,0c0-.73.13-1.72.29-3q.51-4.34,2.19-6.39,2-2.48,6.35-2.48,2.79,0,2.79,1.89C1302,920.53,1301.11,921.16,1299.42,921.16Z"/><path d="M1326.88,949.3a16.7,16.7,0,0,1-4.3-.62l0,9.33a1.9,1.9,0,0,1-.53,1.41,2,2,0,0,1-2.76,0,1.94,1.94,0,0,1-.53-1.41l.06-7.81v-7.79q-.06-4.27-.3-7.79l-.29-4a4.93,4.93,0,0,1,.51-2.34,1.83,1.83,0,0,1,1.7-1.15,1.71,1.71,0,0,1,1.28.53,1.85,1.85,0,0,1,.51,1.32,6.27,6.27,0,0,1-.06.65c-.06.4-.11.77-.13,1.11a14.7,14.7,0,0,1,3.24-1.73,8.74,8.74,0,0,1,3-.58,6.18,6.18,0,0,1,5.86,3.56,16.21,16.21,0,0,1,1.46,7.44,10.52,10.52,0,0,1-2.26,6.95A7.9,7.9,0,0,1,1326.88,949.3Zm1.35-16.93a6.59,6.59,0,0,0-3.24.8,13.85,13.85,0,0,0-2.62,2.07c.17,3,.25,6.06.25,9.32a11.93,11.93,0,0,0,4.26.82,4.29,4.29,0,0,0,3.73-1.82,7,7,0,0,0,1.11-4.1,12.72,12.72,0,0,0-.86-5.32A2.8,2.8,0,0,0,1328.23,932.37Z"/><path d="M1347.29,949.77a7.61,7.61,0,0,1-5.64-2.42,10.38,10.38,0,0,1-2.78-7.25,12.64,12.64,0,0,1,2.23-7.77,8.74,8.74,0,0,1,7.62-4,6.41,6.41,0,0,1,5.91,3.57,13.71,13.71,0,0,1,1.55,6.95,12.7,12.7,0,0,1-2.27,7.41A7.77,7.77,0,0,1,1347.29,949.77Zm1.17-17.44a4.92,4.92,0,0,0-4.47,2.74,9.87,9.87,0,0,0-1.27,5,6.11,6.11,0,0,0,1.54,4.42,4.13,4.13,0,0,0,3,1.31,4.75,4.75,0,0,0,3.5-1.49,6.27,6.27,0,0,0,1.75-4.43Q1352.83,932.35,1348.46,932.33Z"/><path d="M1366,933.27l-.29,9.71c0,1-.05,2.53-.16,4.53-.13,1.3-.76,2-1.91,2s-1.91-.66-1.91-2c0-1.58.07-3.94.21-7.1s.22-5.53.22-7.1q0-3.09.09-7.06t.1-7.06a1.93,1.93,0,1,1,3.85,0q0,3.09-.1,7.06C1366,928.86,1366,931.21,1366,933.27Z"/><path d="M1376.57,939.75c0,.78,0,2,.07,3.51s.07,2.72.07,3.5a1.94,1.94,0,0,1-.53,1.41,2,2,0,0,1-2.77,0,1.94,1.94,0,0,1-.53-1.41c0-.78,0-2-.07-3.5s-.07-2.73-.07-3.51c0-1.22.07-2.75.2-4.58s.19-3.35.19-4.58a1.93,1.93,0,0,1,.54-1.42,2,2,0,0,1,2.75,0,1.93,1.93,0,0,1,.54,1.42c0,1.23-.07,2.75-.2,4.58S1376.57,938.53,1376.57,939.75Zm-.88-15.86a2.23,2.23,0,0,1-1.62-.66,2.2,2.2,0,0,1,0-3.2,2.28,2.28,0,0,1,3.23,0,2.25,2.25,0,0,1,0,3.2A2.23,2.23,0,0,1,1375.69,923.89Z"/><path d="M1396.24,932c-.28,0-.6,0-1,0s-.69,0-1,0-1.18.1-2.65.29l.37,11.55,0,.86,0,1c0,2.85-.64,4.28-2,4.28a2,2,0,0,1-1.36-.51,1.61,1.61,0,0,1-.58-1.27q0-.74.06-2.22c0-1,.06-1.74.06-2.23l-.39-11.41c-1,0-2.4-.15-4.34-.33a1.77,1.77,0,0,1-1.74-1.93,2,2,0,0,1,.53-1.43,1.74,1.74,0,0,1,1.35-.56l4.1.33q0-1-.09-2.67c-.06-1.11-.08-1.92-.08-2.41a1.78,1.78,0,0,1,.56-1.36,1.94,1.94,0,0,1,1.39-.54c1.17,0,1.85,1,2,2.88,0,.48.06,1.06.06,1.73l0,1.14,0,1.21c1.61-.21,2.54-.31,2.77-.31a11.28,11.28,0,0,1,2.66.19,1.72,1.72,0,0,1,1.19,1.84,1.94,1.94,0,0,1-.54,1.41A1.82,1.82,0,0,1,1396.24,932Z"/><path d="M1406.63,939.75c0,.78,0,2,.07,3.51s.06,2.72.06,3.5a1.93,1.93,0,0,1-.52,1.41,2,2,0,0,1-2.77,0,1.9,1.9,0,0,1-.53-1.41c0-.78,0-2-.07-3.5s-.07-2.73-.07-3.51c0-1.22.06-2.75.19-4.58s.2-3.35.2-4.58a1.93,1.93,0,0,1,.54-1.42,1.8,1.8,0,0,1,1.37-.55,1.84,1.84,0,0,1,1.38.55,1.93,1.93,0,0,1,.54,1.42c0,1.23-.07,2.75-.2,4.58S1406.63,938.53,1406.63,939.75Zm-.88-15.86a2.23,2.23,0,0,1-1.62-.66,2.2,2.2,0,0,1,0-3.2,2.28,2.28,0,0,1,3.23,0,2.25,2.25,0,0,1,0,3.2A2.23,2.23,0,0,1,1405.75,923.89Z"/><path d="M1422.35,949.52a11,11,0,0,1-7.15-2.21,8.33,8.33,0,0,1-3-6.83,14.26,14.26,0,0,1,2.46-8.52,8.37,8.37,0,0,1,7.15-3.75,11.25,11.25,0,0,1,5.3,1.09,4.33,4.33,0,0,1,.31,7.7,30.85,30.85,0,0,1-4.14,2.19l-7.46,3.53a7,7,0,0,0,2.72,2.44,8.31,8.31,0,0,0,3.8.82,12.26,12.26,0,0,0,3.16-.5,5,5,0,0,0,3-1.69c.44-.7.92-1,1.43-1a1.71,1.71,0,0,1,1.22.52,1.6,1.6,0,0,1,.54,1.2q0,2.17-3.5,3.73A14.19,14.19,0,0,1,1422.35,949.52Zm-.53-17.79a5,5,0,0,0-4,1.84,12.36,12.36,0,0,0-2.37,5.56l6-2.85a26.1,26.1,0,0,0,5-3A6.66,6.66,0,0,0,1421.82,931.73Z"/><path d="M1448.21,932c-.27,0-.6,0-1,0s-.69,0-1,0-1.19.1-2.66.29l.37,11.55,0,.86,0,1q.08,4.27-2,4.28a2,2,0,0,1-1.36-.51,1.64,1.64,0,0,1-.58-1.27q0-.74.06-2.22c0-1,.06-1.74.06-2.23l-.39-11.41c-1,0-2.39-.15-4.33-.33a1.77,1.77,0,0,1-1.74-1.93,2,2,0,0,1,.52-1.43,1.77,1.77,0,0,1,1.35-.56l4.1.33c0-.67,0-1.56-.08-2.67s-.09-1.92-.09-2.41a1.82,1.82,0,0,1,.56-1.36,1.94,1.94,0,0,1,1.39-.54c1.17,0,1.86,1,2,2.88,0,.48.06,1.06.06,1.73l0,1.14,0,1.21c1.62-.21,2.54-.31,2.78-.31a11.23,11.23,0,0,1,2.65.19,1.71,1.71,0,0,1,1.19,1.84,2,2,0,0,1-.53,1.41A1.85,1.85,0,0,1,1448.21,932Z"/><path d="M1456.49,950.44a2.43,2.43,0,0,1-1.72-4.13,2.31,2.31,0,0,1,1.72-.72,2.43,2.43,0,0,1,1.71,4.14A2.37,2.37,0,0,1,1456.49,950.44Z"/><path d="M654.35,172.06q-6.06,4.14-17.39,4.14a27.77,27.77,0,0,1-6.52-.9,18.27,18.27,0,0,1-6.64-2.74h-.39a3.74,3.74,0,0,1-2.81-1.17,3.93,3.93,0,0,1-1.14-2.85q0-4.09.37-12.29t.38-12.28q0-4.58-.18-13.65t-.18-13.65a5.07,5.07,0,0,1,1.65-3.36,4.57,4.57,0,0,1,3.28-1.76q.93,0,6.25,2.62c4,2,6.32,3,7,3.24a48.08,48.08,0,0,1,18.91,11.64q9.17,9.25,9.18,20.35a27.69,27.69,0,0,1-3.15,12.81A26.2,26.2,0,0,1,654.35,172.06Zm-8.21-41.33q-4-2.62-18.39-9l.19,11.25.12,11.21-.63,21.33a5.19,5.19,0,0,1,.82.51,15.21,15.21,0,0,0,8.67,2.3q8.91,0,13-2.73a18.44,18.44,0,0,0,6-6.93,19.55,19.55,0,0,0,2.24-9.09Q658.17,138.58,646.14,130.73Z"/><path d="M707.35,149.52c0,1.87,0,4.68,0,8.43s0,6.57,0,8.44c0,.57.05,1.45.14,2.62s.14,2,.14,2.62a3.61,3.61,0,0,1-1.14,2.75,3.85,3.85,0,0,1-2.77,1.07c-2,0-3.28-1.23-3.83-3.71a23.92,23.92,0,0,1-11.25,2.54,14.8,14.8,0,0,1-8.47-2.26,10.13,10.13,0,0,1-4.42-7.31,128.82,128.82,0,0,1-1.52-18.44,73,73,0,0,1,1.17-12.18q.54-3.41,3.71-3.4a3.94,3.94,0,0,1,2.81,1.07,3.63,3.63,0,0,1,1.14,2.76,45.35,45.35,0,0,1-.57,5.74,45.54,45.54,0,0,0-.57,6c0,4.35.15,8.08.43,11.18a39.07,39.07,0,0,0,1.29,7.46,13.27,13.27,0,0,0,2.54,1.07,8.49,8.49,0,0,0,2.46.37,39.92,39.92,0,0,0,11.06-1.68l0-7.93-.08-7.57a126.44,126.44,0,0,1,.74-14.65q.44-3.6,3.79-3.6A3.88,3.88,0,0,1,707,132a3.39,3.39,0,0,1,1.06,2.73Z"/><path d="M771,175.1q-3.36,0-3.79-3.67l-1.09-8.55a71.22,71.22,0,0,1-.55-8.56c0-.73,0-2,.14-3.71s.13-3,.13-3.71q0-8.44-3.12-8.44-4.38,0-8.36,5.2a35.38,35.38,0,0,0-5.63,12c0,1-.17,2.29-.35,3.83a30.93,30.93,0,0,0-.23,3.79c0,.78.07,2,.23,3.51s.24,2.74.24,3.52a3.88,3.88,0,0,1-1.08,2.85,4.05,4.05,0,0,1-5.53,0,4,4,0,0,1-1.05-2.85c0-.78-.09-1.95-.25-3.52s-.26-2.73-.26-3.51q0-4,.57-11.15c.37-4.76.56-8.47.56-11.16,0-.83,0-2.07-.13-3.71s-.14-2.88-.14-3.71a3.65,3.65,0,0,1,1.11-2.75,3.82,3.82,0,0,1,2.76-1.08c2.39,0,3.71,1.7,3.94,5.08l.12,4.57q6.57-8.74,13.48-8.75,6.24,0,8.71,5.51,1.68,3.67,1.83,10.86v3.94l0,3.64a54.24,54.24,0,0,0,.84,8.38,53.91,53.91,0,0,1,.84,8.34,3.72,3.72,0,0,1-1.11,2.79A3.87,3.87,0,0,1,771,175.1Z"/><path d="M814,174.91c-.5,0-1.4-.58-2.7-1.72a18.19,18.19,0,0,1-2.62-2.85,50.63,50.63,0,0,1-6.6,3.06,14.57,14.57,0,0,1-4.76,1q-9.15,0-13.32-5.16-3.94-4.84-4-14.84a22.44,22.44,0,0,1,6.5-16.17A20.88,20.88,0,0,1,802,131.55a19.91,19.91,0,0,1,7.62,1.76q5.31,2.17,5.31,5.27a2.63,2.63,0,0,1-.78,1.87,29.2,29.2,0,0,0-.61,4.89c-.14,2.26-.22,5.17-.25,8.71a31.47,31.47,0,0,0,.67,7.65,56.68,56.68,0,0,0,2.46,6.88c.18.47.48,1.16.89,2.07l.24.66a3.41,3.41,0,0,1-1.09,2.58A3.62,3.62,0,0,1,814,174.91Zm-8.13-27.15a32.2,32.2,0,0,1,.22-3.65c.14-1.32.35-2.72.64-4.2a19,19,0,0,0-2.48-1.1,5.59,5.59,0,0,0-1.66-.35,13.55,13.55,0,0,0-10.45,4.94,16.63,16.63,0,0,0-4.39,11.39q0,6.41,2.26,9.61a7.77,7.77,0,0,0,6.8,3.2,13.66,13.66,0,0,0,6.37-1.36,24.2,24.2,0,0,0,3.94-3A142.8,142.8,0,0,1,805.83,147.76Zm-17.5-32a10.94,10.94,0,0,1,4-9q3.87-3.12,10.16-3.12a13.12,13.12,0,0,1,8.36,2.73,9.48,9.48,0,0,1,3.79,7.78q0,5.77-3.5,8.75T800.67,126a12.69,12.69,0,0,1-8.82-3A9.25,9.25,0,0,1,788.33,115.73Zm12.93,4.53a12,12,0,0,0,4.92-.94c1.75-.94,2.62-2.65,2.62-5.15a4,4,0,0,0-2.11-3.56,7.6,7.6,0,0,0-4.18-1.13q-8.47,0-8.32,6.25c0,1.2.82,2.26,2.38,3.2A8.5,8.5,0,0,0,801.26,120.26Z"/><path d="M842,174.13q-8.82,0-14.29-4.42-6-4.87-6-13.67,0-10.15,4.92-17a16.72,16.72,0,0,1,14.3-7.5,22.37,22.37,0,0,1,10.58,2.19,8.8,8.8,0,0,1,5,8.28q0,3.9-4.41,7.11a63.29,63.29,0,0,1-8.28,4.37L829,160.53a14.28,14.28,0,0,0,5.44,4.89,16.78,16.78,0,0,0,7.6,1.64,23.87,23.87,0,0,0,6.33-1q4.61-1.29,5.94-3.38c.88-1.39,1.83-2.09,2.85-2.09a3.44,3.44,0,0,1,2.44,1,3.22,3.22,0,0,1,1.07,2.4q0,4.34-7,7.46A28.55,28.55,0,0,1,842,174.13Zm-1-35.59a10,10,0,0,0-7.93,3.69q-3.16,3.69-4.73,11.11l12-5.7a51.26,51.26,0,0,0,10.08-6Q847,138.54,841,138.54Z"/><path d="M903.6,137.84c-.31,3.83-.46,7.65-.46,11.48q0,13,1.21,19.65a6.64,6.64,0,0,1,.07.9,3.37,3.37,0,0,1-1.09,2.58,3.65,3.65,0,0,1-2.54,1c-1.61,0-2.8-1.17-3.55-3.51a22.06,22.06,0,0,1-5.84,3.12,19.13,19.13,0,0,1-6.31,1.06,18,18,0,0,1-13.4-5.39q-5.48-5.52-5.47-14.15,0-10.43,5.53-16.71a18.18,18.18,0,0,1,14.35-6.29,14.38,14.38,0,0,1,7,1.4l3.67,2.7q.54-16.44,1.29-22.15.51-3.48,3.55-3.48c2.37,0,3.56,1.27,3.56,3.79Q905.17,119.28,903.6,137.84Zm-17.34,1c-4.37,0-7.66,1.3-9.84,3.89s-3.28,6.49-3.28,11.7a11.93,11.93,0,0,0,3.57,8.67,11.39,11.39,0,0,0,8.38,3.63,11.64,11.64,0,0,0,5.55-1.21,30.32,30.32,0,0,0,4.33-3.24,8.27,8.27,0,0,0,1.13-1.21l-.11-6.76,0-4.53.07-4.61a11,11,0,0,0-3.94-4.75A10.72,10.72,0,0,0,886.26,138.85Z"/><path d="M932.86,174.13q-8.82,0-14.29-4.42-6-4.87-6-13.67,0-10.15,4.92-17a16.72,16.72,0,0,1,14.3-7.5,22.37,22.37,0,0,1,10.58,2.19,8.8,8.8,0,0,1,5,8.28q0,3.9-4.41,7.11a63.29,63.29,0,0,1-8.28,4.37l-14.92,7.07a14.28,14.28,0,0,0,5.44,4.89,16.78,16.78,0,0,0,7.6,1.64,23.87,23.87,0,0,0,6.33-1q4.6-1.29,5.94-3.38c.88-1.39,1.83-2.09,2.85-2.09a3.44,3.44,0,0,1,2.44,1,3.23,3.23,0,0,1,1.08,2.4q0,4.34-7,7.46A28.55,28.55,0,0,1,932.86,174.13Zm-1.05-35.59a10,10,0,0,0-7.93,3.69q-3.17,3.69-4.73,11.11l12-5.7a51.26,51.26,0,0,0,10.08-6Q937.86,138.54,931.81,138.54Z"/><path d="M1018.33,137.84c-.31,3.83-.47,7.65-.47,11.48q0,13,1.21,19.65a6.88,6.88,0,0,1,.08.9,3.37,3.37,0,0,1-1.09,2.58,3.65,3.65,0,0,1-2.54,1c-1.62,0-2.8-1.17-3.56-3.51a21.91,21.91,0,0,1-5.84,3.12,19.07,19.07,0,0,1-6.3,1.06,18,18,0,0,1-13.4-5.39q-5.48-5.52-5.47-14.15,0-10.43,5.53-16.71a18.18,18.18,0,0,1,14.35-6.29,14.33,14.33,0,0,1,7,1.4l3.68,2.7q.54-16.44,1.28-22.15.51-3.48,3.56-3.48c2.37,0,3.55,1.27,3.55,3.79Q1019.89,119.28,1018.33,137.84Zm-17.34,1q-6.57,0-9.85,3.89t-3.28,11.7a11.9,11.9,0,0,0,3.58,8.67,11.38,11.38,0,0,0,8.38,3.63,11.6,11.6,0,0,0,5.54-1.21,30.24,30.24,0,0,0,4.34-3.24,8.27,8.27,0,0,0,1.13-1.21l-.12-6.76,0-4.53.08-4.61a11,11,0,0,0-3.94-4.75A10.72,10.72,0,0,0,1001,138.85Z"/><path d="M1047.59,174.13q-8.83,0-14.3-4.42-6-4.87-6-13.67,0-10.15,4.92-17a16.7,16.7,0,0,1,14.29-7.5,22.39,22.39,0,0,1,10.59,2.19,8.8,8.8,0,0,1,5,8.28q0,3.9-4.41,7.11a64.35,64.35,0,0,1-8.29,4.37l-14.92,7.07a14.38,14.38,0,0,0,5.45,4.89,16.78,16.78,0,0,0,7.6,1.64,23.87,23.87,0,0,0,6.33-1q4.61-1.29,5.93-3.38c.89-1.39,1.84-2.09,2.86-2.09a3.44,3.44,0,0,1,2.44,1,3.26,3.26,0,0,1,1.07,2.4q0,4.34-7,7.46A28.58,28.58,0,0,1,1047.59,174.13Zm-1.06-35.59a10,10,0,0,0-7.93,3.69q-3.15,3.69-4.72,11.11l12-5.7a51.88,51.88,0,0,0,10.08-6Q1052.59,138.54,1046.53,138.54Z"/><path d="M1099.31,139.05c-.55,0-1.19,0-1.94-.08s-1.38-.08-1.93-.08-2.37.2-5.31.59l.74,23.08,0,1.72,0,2q.15,8.56-4.1,8.56a4,4,0,0,1-2.72-1,3.22,3.22,0,0,1-1.15-2.54c0-1,0-2.47.12-4.45s.11-3.46.11-4.45l-.78-22.81q-2.85-.12-8.67-.67-3.48-.46-3.48-3.87a4.05,4.05,0,0,1,1.06-2.85A3.53,3.53,0,0,1,1074,131l8.21.66c0-1.32-.06-3.1-.18-5.33s-.17-3.83-.17-4.82a3.57,3.57,0,0,1,1.13-2.72,3.89,3.89,0,0,1,2.77-1.07c2.35,0,3.71,1.91,4.1,5.74q.12,1.44.12,3.48l-.08,2.26,0,2.43q4.84-.63,5.55-.63a22.26,22.26,0,0,1,5.31.39,3.44,3.44,0,0,1,2.39,3.67,3.89,3.89,0,0,1-1.08,2.83A3.63,3.63,0,0,1,1099.31,139.05Z"/><path d="M1144,154.59q0,2.35.13,7t.14,7a3.86,3.86,0,0,1-1.06,2.81,4,4,0,0,1-5.52,0,3.84,3.84,0,0,1-1.08-2.81q0-2.34-.13-7c-.1-3.11-.14-5.45-.14-7,0-2.44.13-5.5.39-9.16s.39-6.71.39-9.16a3.92,3.92,0,0,1,1.07-2.85,3.71,3.71,0,0,1,2.76-1.09,3.67,3.67,0,0,1,2.75,1.09,3.88,3.88,0,0,1,1.08,2.85c0,2.45-.13,5.51-.39,9.16S1144,152.15,1144,154.59Zm-1.76-31.71a4.51,4.51,0,0,1-3.24-1.33,4.43,4.43,0,0,1,0-6.41,4.51,4.51,0,0,1,3.24-1.33,4.45,4.45,0,0,1,3.22,1.33,4.48,4.48,0,0,1,0,6.41A4.45,4.45,0,0,1,1142.24,122.88Z"/><path d="M1189.74,173.93a3.63,3.63,0,0,1-3.32-2.26,65.94,65.94,0,0,0-6.14-9.34l-6.91-9.41q-2.26,1.79-7,5-.43,6.06-.43,11.8a3.88,3.88,0,0,1-1.08,2.85,3.68,3.68,0,0,1-2.75,1.1q-3.94,0-3.94-5.32,0-3.24.44-9.7T1159,149q0-5.94.18-13.57c.12-5.1.18-9.59.18-13.5q0-1.75-.18-4.14t-.18-4.14a3.88,3.88,0,0,1,1.08-2.85,3.68,3.68,0,0,1,2.75-1.1,3.71,3.71,0,0,1,2.76,1.1,3.92,3.92,0,0,1,1.07,2.85c0,1.2.06,2.61.2,4.24s.19,3,.19,4.23l-.27,12.58q-.19,6.79-.12,13.6a109.09,109.09,0,0,0,10.23-8.91l8.6-8.87a3.94,3.94,0,0,1,6.76,2.7,4,4,0,0,1-1.14,2.62,139.75,139.75,0,0,1-11.83,12.07l8.51,11.6q6,8.16,6,10.62a3.56,3.56,0,0,1-1.23,2.7A4.09,4.09,0,0,1,1189.74,173.93Z"/><path d="M1232.94,173.93a3.64,3.64,0,0,1-3.32-2.26,65.75,65.75,0,0,0-6.13-9.34l-6.92-9.41q-2.27,1.79-7,5-.43,6.06-.43,11.8a3.92,3.92,0,0,1-1.07,2.85,3.71,3.71,0,0,1-2.76,1.1q-3.94,0-3.94-5.32,0-3.24.45-9.7t.45-9.71q0-5.94.17-13.57c.12-5.1.18-9.59.18-13.5q0-1.75-.18-4.14c-.11-1.59-.17-3-.17-4.14a3.88,3.88,0,0,1,1.07-2.85,4,4,0,0,1,5.51,0,3.88,3.88,0,0,1,1.07,2.85c0,1.2.07,2.61.2,4.24s.19,3,.19,4.23l-.27,12.58q-.19,6.79-.12,13.6a109.19,109.19,0,0,0,10.24-8.91l8.59-8.87a3.94,3.94,0,0,1,6.76,2.7,4,4,0,0,1-1.13,2.62,141.49,141.49,0,0,1-11.84,12.07l8.52,11.6q6,8.16,6,10.62a3.56,3.56,0,0,1-1.23,2.7A4.07,4.07,0,0,1,1232.94,173.93Z"/><path d="M1261.85,174.13q-8.83,0-14.3-4.42-6-4.87-6-13.67,0-10.15,4.93-17a16.7,16.7,0,0,1,14.29-7.5,22.44,22.44,0,0,1,10.59,2.19,8.8,8.8,0,0,1,5,8.28q0,3.9-4.42,7.11a63.29,63.29,0,0,1-8.28,4.37l-14.92,7.07a14.31,14.31,0,0,0,5.45,4.89,16.75,16.75,0,0,0,7.6,1.64,23.86,23.86,0,0,0,6.32-1q4.62-1.29,5.94-3.38c.89-1.39,1.84-2.09,2.85-2.09a3.44,3.44,0,0,1,2.45,1,3.26,3.26,0,0,1,1.07,2.4q0,4.34-7,7.46A28.62,28.62,0,0,1,1261.85,174.13Zm-1.06-35.59a10,10,0,0,0-7.93,3.69q-3.16,3.69-4.72,11.11l12-5.7a51.88,51.88,0,0,0,10.08-6Q1266.85,138.54,1260.79,138.54Z"/><path d="M1292.43,176a4.84,4.84,0,0,1-3.43-8.26,4.85,4.85,0,1,1,6.85,6.86A4.72,4.72,0,0,1,1292.43,176Z"/><path d="M1312.35,176a4.84,4.84,0,0,1-3.43-8.26,4.85,4.85,0,1,1,6.85,6.86A4.72,4.72,0,0,1,1312.35,176Z"/><g id="_RS_knap" data-name=" RS knap"><circle class="cls-6" cx="1839.5" cy="78.5" r="67"/><path class="cls-7" d="M1840.31,123.57a45.23,45.23,0,0,1-15.43-2.84c-19.21-7.19-26.33-25.15-26.8-26.39-6.06-16-.71-30.07.81-33.71,2.06-4.88,8.59-18.06,24-24.36,19.86-8.14,37.54,2.13,39.39,3.25,13.74,8.3,18.28,21.47,19.49,25.17a47.21,47.21,0,0,1,.41,28,45.65,45.65,0,0,1-11.78,19.09"/><polygon points="1872.82 81.05 1872.39 109.83 1901.16 110.25 1888.77 122.28 1860 121.85 1860.43 93.09 1872.82 81.05"/></g></svg>