<svg id="Layer_1" data-name="Layer 1" xmlns="http://www.w3.org/2000/svg" width="431" height="523" viewBox="0 0 431 523"><defs><style>.cls-1{fill:#7b3b17;}.cls-2{fill:#9c552f;}.cls-3{fill:#662a0b;}.cls-4{fill:#522007;}.cls-5{fill:#006837;}</style></defs><title>spilskærm</title><g id="hest"><path id="hals" class="cls-1" d="M29.67,482.69a422.39,422.39,0,0,0,257.72,27.74c4.4-18.52,5.68-46.4,0-78.59-6.93-39.29-25.42-98.23-31.2-106.32-23.08-32.31-42-55.85-45.08-72.81-17.46-96.16,17.14-159.57,0-167.58-12.92-6-45.56,24-61.25,58.94-10.92,24.36-19.32,56.25-19.64,61.25-1.3,19.88,5.78,37.54,2.31,38.14-3.78.66-5.61-20.51-12.72-20.8C109,222.21,92.46,278.91,84,316.27,74.46,358.28,64,416.44,29.67,482.69Z"/><path id="hoved" class="cls-2" d="M218.05,75.88c-51.77,44.47-26.11,144.15-3.47,190.69,18.58,38.19,35.83,42.09,48.54,85.53,9.27,31.7,8.09,57,30.05,87.83,6.84,9.6,15.41,21.34,31.2,28.89,24.81,11.86,59.79,9.72,76.28-9.24,8.68-10,9.22-21.14,10.4-42.76.82-15,5.35-97.79,8.09-131.75,3.21-39.76,6.76-46.95,5.78-76.28-1.19-35.6-7.42-55.18-10.4-63.56-1.29-3.63-11-30.43-26.58-48.54C351.36,54.12,263.24,37.07,218.05,75.88Z"/><path id="højre_øre" data-name="højre øre" class="cls-3" d="M387.94,96.69c11-1.74,15.72-28.58,16.18-31.21,2-11.3-.54-12.9,1.15-25.42C408,19.64,416.55,10.52,413.36,7.7c-3.82-3.39-19.07,7-28.89,16.18-10.47,9.78-21.16,19.77-22,34.67C361.48,78,377.62,98.31,387.94,96.69Z"/><path class="cls-4" d="M6.55,472.29c2.73,2.83,22.25-4.8,34.68-13.87,11.55-25.42,19.26-48.54,30-75.12,4.34,9,5.11,6.27,6.94,5.78q4.49-1.2-1.16-40.45l41.61-124.82q10.62,27.44,13.87,26.58,3.72-1-2.31-39.29a159.93,159.93,0,0,1,13.86-50.85c6.95-15,14.5-25.16,20.81-33.52,9.7-12.86,25.23-27.3,48.54-45.07.47,1.69,5,13.65,20.8,19.65,8.15,3.11,20.44,4.12,28.89-2.31,9.48-7.22,7.07-18.42,15-22,6.64-3,15.15,1.81,20.8,5.78.66,1,1.67,2.56,2.87,4.48,9.57,15.28,13.51,25,15.62,24.41,1.7-.49,0-7.06,2.31-8.09,2.67-1.16,6.63,6.53,15,12.71,10.63,7.84,22.7,9.08,23.11,8.09s-11.12-5.55-10.4-8.09c.4-1.43,4.59-1.85,8.09-1.15,6.45,1.28,8.05,5.86,13.87,10.4,8.45,6.58,11.79,2.15,23.11,9.24,4.61,2.89,11,6.91,12.71,13.87,1.48,6.07-1.51,10.74,0,11.56,1.88,1,9.47-4.5,10.4-11.56,1.57-11.75-16.05-22.25-13.86-25.42,1.64-2.38,11.92,3,13.86,0,.78-1.2,0-3.34-1.15-4.63-3.29-3.78-7.1-6.17-12.71-8.09-5.78-2-6.13-2.53-10.4-12.71-7.3-17.35-14.77-26.89-23.12-33.51-11.19-8.88-25.71-9-25.42-12.72.21-2.71,7.89-3.33,8.09-6.93.11-2.09-2.34-4.6-4.63-4.62-3.64,0-4.32,6.25-9.24,9.24s-9.52-.58-17.34-1.15c-47.38-3.47-24.42,8.27-35.83,3.46-4.28-1.8-6.36,1.34-10.4-2.31C257.65,35,223.62,48.22,203,56.24c-14.41,5.61-34.32,13.61-37,26.58a28.48,28.48,0,0,1-3.46,10.4c-4.29,7.19-11.15,10.22-13.87,11.56-13.6,6.67-34.2,25.38-35.83,43.91-1,11.1,5.07,19.77-1.16,27.74-1.61,2.07-2.79,2.47-5.77,4.62-3.83,2.76-19.41,14.72-23.12,31.21-1.7,7.55-.18,12.8-3.47,20.8A40.66,40.66,0,0,0,77.05,240c-1.08,4.67-.65,6.73-1.15,10.4-.46,3.39-1.86,6.54-4.63,12.72A109.3,109.3,0,0,1,64.34,277C56.7,289.22,46.17,294,47,295.47c1,1.74,15.93-6.78,18.5-3.47,1.06,1.37-.72,3.82-2.32,8.09-2.46,6.61-2.4,12-2.31,19.65.18,14.75,5.11,17.56,2.31,25.42-1.47,4.14-3.66,5.7-8.09,10.4C53,357.83,41.56,370,36.6,381c-6.72,15,1.74,20.62-4.62,45.07-2.08,8-3.11,12-5.78,16.18C19.7,452.53,9.83,457,6.55,468.82,6.07,470.57,6,471.67,6.55,472.29Z"/><ellipse cx="267.84" cy="204.49" rx="29.68" ry="36.61" transform="translate(-67.67 235.93) rotate(-42.71)"/><ellipse cx="390.96" cy="211.37" rx="36.39" ry="30.33" transform="translate(-50.74 260.61) rotate(-34.76)"/><ellipse class="cls-4" cx="336.51" cy="428.37" rx="13.29" ry="16.18"/><ellipse class="cls-4" cx="393.72" cy="426.64" rx="12.71" ry="14.45"/><path id="venstre_øre" data-name="venstre øre" class="cls-3" d="M213.43,5.38a245.37,245.37,0,0,0,3.46,59c5.94,32.43,13.88,37.58,17.34,39.29,12.06,6,26.2-1.89,28.89-3.47,15.89-9.34,24.95-30.94,18.49-42.76-4.74-8.68-15.05-6.94-30.05-13.87C232.86,34.88,221,19.29,213.43,5.38Z"/><path class="cls-2" d="M270.06,92.06c-16.89-19-43.92-52-50.86-64.72-6.65-12.2,10.41,60.1,20.81,78.59C245.52,115.73,279.3,102.46,270.06,92.06Z"/><path class="cls-5" d="M396.51,199.82v2.64h.12a46.56,46.56,0,0,1,6.42.52q4.71.68,4.71,1.72c0,.92-.86,1.37-2.6,1.37-.78,0-2.16-.11-4.12-.33a38.21,38.21,0,0,0-4.53-.32v6.36q6.48.3,10.14,2.26,3.35,1.82,3.34,4.38c0,2.09-1.36,3.83-4.07,5.2a27.14,27.14,0,0,1-9.41,2.39v4.16a1.16,1.16,0,0,1-.74,1,4,4,0,0,1-1.89.4c-1.72,0-2.58-.45-2.58-1.37v-4q-14.3-.11-14.3-4,0-1.41,2.43-1.41a6.34,6.34,0,0,1,2.64.58,20.68,20.68,0,0,0,2.84,1.13,29.22,29.22,0,0,0,6.39.72v-8.86h-.24a27.18,27.18,0,0,1-7.85-1.19q-4.09-1.35-4.1-3.73,0-2.15,3.75-4a28.9,28.9,0,0,1,8.44-2.54v-3a1.19,1.19,0,0,1,.77-1,4.13,4.13,0,0,1,1.92-.4Q396.51,198.5,396.51,199.82Zm-5.21,11.71v-5.61q-5.83,1.17-5.83,3.62Q385.47,211.06,391.3,211.53Zm5.21,3.29V223a18.31,18.31,0,0,0,5.19-1.66Q404,220,404,218.59,404,215.88,396.51,214.82Z"/><path class="cls-5" d="M259.82,186.86l1.21,2.77.13-.06a53.28,53.28,0,0,1,7-2.41c3.51-1,5.42-1.1,5.75-.37.42,1-.28,1.85-2.11,2.65q-1.23.54-4.48,1.54a45.72,45.72,0,0,0-4.9,1.75l2.93,6.68q6.94-2.66,11.69-2.29,4.35.36,5.52,3,1.46,3.3-1.88,7.34a30.79,30.79,0,0,1-8.77,6.84l1.91,4.37a1.33,1.33,0,0,1-.32,1.4,4.54,4.54,0,0,1-1.8,1.29c-1.8.79-2.92.71-3.34-.26L266.5,217q-15.08,6.48-16.84,2.44c-.43-1,.2-1.86,1.91-2.6a7.14,7.14,0,0,1,3-.61,23.46,23.46,0,0,0,3.51-.13,32.26,32.26,0,0,0,7-2.19l-4.08-9.3-.24.11a30.8,30.8,0,0,1-8.8,2.37q-4.92.48-6-2-1-2.25,2.08-6a32.66,32.66,0,0,1,7.68-6.56l-1.38-3.15a1.38,1.38,0,0,1,.35-1.43,4.74,4.74,0,0,1,1.83-1.31C258.32,185.85,259.41,185.93,259.82,186.86Zm-.09,14.69-2.58-5.89q-5.59,3.92-4.46,6.49C253.16,203.21,255.5,203,259.73,201.55Zm7,1.06,3.74,8.53a20.71,20.71,0,0,0,4.68-4.13c1.24-1.59,1.63-2.89,1.19-3.9Q275.08,200.24,266.73,202.61Z"/></g></svg>
