<svg id="Layer_1" data-name="Layer 1" xmlns="http://www.w3.org/2000/svg" width="1920" height="1080" viewBox="0 0 1920 1080"><defs><style>.cls-1{fill:#e6e6e6;}.cls-2{fill:#1a1a1a;}.cls-3{fill:#4d4d4d;}.cls-4{fill:#f3f3f3;}</style></defs><title>Artboard 1 copy 2</title><g id="huler"><ellipse class="cls-1" cx="1704.45" cy="926" rx="126.55" ry="54"/><ellipse class="cls-2" cx="1704.56" cy="926" rx="112.48" ry="48" transform="translate(-75.82 155.78) rotate(-5.12)"/><ellipse class="cls-1" cx="1650.45" cy="751" rx="126.55" ry="54"/><ellipse class="cls-2" cx="1650.56" cy="751" rx="112.48" ry="48" transform="translate(-60.42 150.26) rotate(-5.12)"/><ellipse class="cls-1" cx="1270.45" cy="905" rx="126.55" ry="54"/><ellipse class="cls-2" cx="1270.56" cy="905" rx="112.48" ry="48" transform="translate(-75.68 116.97) rotate(-5.12)"/><ellipse class="cls-1" cx="1327.45" cy="698" rx="126.55" ry="54"/><ellipse class="cls-2" cx="1327.56" cy="698" rx="112.48" ry="48" transform="translate(-56.98 121.23) rotate(-5.12)"/><ellipse class="cls-1" cx="952.45" cy="851" rx="126.55" ry="54"/><ellipse class="cls-2" cx="952.56" cy="851" rx="112.48" ry="48" transform="translate(-72.13 88.38) rotate(-5.12)"/><ellipse class="cls-1" cx="1049.45" cy="631" rx="126.55" ry="54"/><ellipse class="cls-2" cx="1049.56" cy="631" rx="112.48" ry="48" transform="translate(-52.11 96.16) rotate(-5.12)"/><ellipse class="cls-1" cx="713.45" cy="707" rx="126.55" ry="54"/><ellipse class="cls-2" cx="713.56" cy="707" rx="112.48" ry="48" transform="translate(-60.23 66.49) rotate(-5.12)"/><ellipse class="cls-1" cx="638.45" cy="892" rx="126.55" ry="54"/><ellipse class="cls-1" cx="361" cy="783.05" rx="129" ry="55.05"/><ellipse class="cls-2" cx="361.11" cy="783.05" rx="114.67" ry="48.93" transform="translate(-68.43 35.34) rotate(-5.12)"/><ellipse class="cls-2" cx="638.56" cy="892" rx="112.48" ry="48" transform="translate(-77.04 60.53) rotate(-5.12)"/></g><g id="UI_linje" data-name="UI linje"><g id="UI_linije" data-name="UI linije"><rect class="cls-3" x="1384" y="44" width="501" height="31" rx="11.5"/></g></g><circle class="cls-4" cx="1396" cy="59.5" r="5"/><circle class="cls-4" cx="1875" cy="60" r="5"/></svg>
