<svg id="Layer_1" data-name="Layer 1" xmlns="http://www.w3.org/2000/svg" width="576.53" height="648.19" viewBox="0 0 576.53 648.19"><defs><style>.cls-1{fill:#ffb611;stroke:#000;stroke-miterlimit:10;stroke-width:6px;}</style></defs><title>Artboard 3</title><g id="Afrika"><path class="cls-1" d="M396.44,590.43c10.41-18.86,12.51-29.36,26-41,6.39-5.52,9.61-6.35,13-12,8.38-14-2.63-23.56,3-38,5.7-14.64,19.49-11.19,35-32,4.56-6.12,10.07-13.51,12-24,4.27-23.16-14.28-32.06-12-54,1.32-12.69,8.69-21,23-37,16-18,22.7-16.84,42-37,8.51-8.89,17-17.91,24-32,2.59-5.22,17.41-35.08,8-44-10.56-10-40.84,16.58-58,4-6.25-4.59-4.15-9.52-12-22-9.07-14.43-18.6-18.52-30-28-20.85-17.34-46.57-51.57-40-79,2.64-11.05,8.56-12.78,8-23-.85-15.52-15.66-33.09-31-34-13.24-.79-19.61,11.25-34,8-6.45-1.46-7.35-4.37-13-7-18.19-8.48-33.42,10.17-60,13-29.71,3.15-59.29-15-59-26,.15-5.89,8.76-6.88,10-15,1.56-10.31-9.92-24.33-23-27-15-3.08-19.27,11.48-40,13-20.23,1.47-27-11.61-40-6-10.37,4.47-14.6,12.13-23,23-14.79,19.12-24.87,20.22-51,40-34.35,26-66.95,50.66-71,86-2,17.75,3.48,35,7,46,7.25,22.59,14.86,26.79,21,48,9,31.19-2.2,40.21,6,49,19.78,21.19,82.26-34.37,154-14,7.81,2.21,32.54,9.23,36,25,3.94,17.95-22.43,34.83-16,48,3.17,6.49,10.79,4.87,21,10,30.61,15.37,43.65,70.83,27,87-7.48,7.26-16.67,2.42-20,9-6.1,12,23.9,29.63,25,64,.18,5.51-.55,6.5-1,13-1.89,27.21,5.84,82.2,43,97,19.58,7.79,42.46,2.49,57-7C377.05,625.54,384.34,612.34,396.44,590.43Z"/></g><path d="M268.35,246.83c-.43,0-1.49-.09-3.19-.26q-.23,5.31-.23,17.46a4.85,4.85,0,0,1-5,4.89,4.81,4.81,0,0,1-3.58-1.44A4.74,4.74,0,0,1,255,264V253.44q0-5.9.76-17.43.72-11.73.76-17.5c0-6.57,1.87-9.73,5.54-9.45a20.12,20.12,0,0,1,3.57-.51c1.52-.11,3.37-.17,5.54-.17a23.11,23.11,0,0,1,14,4.82q7.25,5.38,7.25,13.13a18.27,18.27,0,0,1-7.7,15.45A26.64,26.64,0,0,1,268.35,246.83Zm1.9-28.66-2.15,0c-.62,0-1.14.05-1.57.1,0,1.19,0,3,0,5.35q-.08,4.22-.72,13.13a19.91,19.91,0,0,0,2.58.31,16.42,16.42,0,0,0,9.83-2.81,9.32,9.32,0,0,0,4.18-7.94c0-2.15-1.31-4.06-3.91-5.73A14.82,14.82,0,0,0,270.25,218.17Z"/><path d="M309.65,262.43q0,7.21-5.24,7.22a5.18,5.18,0,0,1-3.76-1.45,5,5,0,0,1-1.48-3.72V212a4.61,4.61,0,0,1,1.6-3.61,5.59,5.59,0,0,1,3.76-1.29,5.17,5.17,0,0,1,3.68,1.35,4.62,4.62,0,0,1,1.44,3.55Z"/><path d="M352,270.1q-1.74,0-5.54-3.38a49.59,49.59,0,0,1-6.15,2.53,15.18,15.18,0,0,1-4.52.85q-9.15,0-13.72-4.9t-4.57-14.65a21,21,0,0,1,6.75-15.66,22.5,22.5,0,0,1,16.17-6.51,21.73,21.73,0,0,1,8.35,2q5.75,2.44,5.74,5.68a3.5,3.5,0,0,1-.88,2.37,24.54,24.54,0,0,0-.58,3.77c-.14,1.52-.21,3.29-.21,5.32,0,4.79.34,8.23,1,10.34.08.22.66,1.52,1.75,3.9a20.54,20.54,0,0,1,1.48,3.69,4.13,4.13,0,0,1-1.54,3.3A5.28,5.28,0,0,1,352,270.1Zm-9.41-25.62a24.67,24.67,0,0,1,.17-2.79q.17-1.58.51-3.51a7.24,7.24,0,0,0-1.35-.55,3.42,3.42,0,0,0-1-.17,12.13,12.13,0,0,0-9,4,13.11,13.11,0,0,0-3.87,9.36q0,5.08,1.82,7.64a6.28,6.28,0,0,0,5.47,2.57,12.76,12.76,0,0,0,4.46-.78,14,14,0,0,0,4-2.3A118.66,118.66,0,0,1,342.6,244.48Z"/><path d="M400.18,235.94Q396,244.55,387.09,263q-4.86,9.92-7.41,16.44c-.53,1.57-1.36,3.89-2.5,7a4.91,4.91,0,0,1-4.86,3.57,5.69,5.69,0,0,1-3.8-1.4,4.47,4.47,0,0,1-1.63-3.53q0-3.54,8.05-20.92-4.19-8.24-13.25-24.25L359.83,237a6.4,6.4,0,0,1-1-3.19,4.83,4.83,0,0,1,1.63-3.6,5.28,5.28,0,0,1,3.76-1.56,4.63,4.63,0,0,1,3.91,1.86q5.38,7.17,12.56,21.6,4.06-9,4.93-10.86,2.7-5.66,5.28-9.94a5,5,0,0,1,4.48-2.73,5.67,5.67,0,0,1,3.8,1.44,4.5,4.5,0,0,1,1.67,3.53A5.67,5.67,0,0,1,400.18,235.94Z"/><path d="M349.38,283.13q12.31,0,12.31,5.24a4.33,4.33,0,0,1-2.46,3.75,12.16,12.16,0,0,1-6.35,1.49H263.3a10.94,10.94,0,0,1-6.16-1.6,4.47,4.47,0,0,1-2.2-3.76,4.26,4.26,0,0,1,2.3-3.68,11.28,11.28,0,0,1,6.06-1.44Z"/></svg>
