<svg id="Layer_1" data-name="Layer 1" xmlns="http://www.w3.org/2000/svg" width="200" height="263" viewBox="0 0 200 263"><defs><style>.cls-1{fill:#ffb611;}.cls-2{fill:#724f08;}.cls-3{fill:#603813;}.cls-4{fill:#006837;}</style></defs><title>spilskærm</title><g id="sæk"><path class="cls-1" d="M71,76c-17.54-.49-32.81,28.29-42.5,47.5-3.38,6.71-7.59,18.14-16,41-5.44,14.79-6.82,19.5-7,26-.48,17.27,8,30.42,11,35,14.84,22.44,39.11,29.34,52,33,35.26,10,64.6.27,74-3,14.81-5.15,31.62-11,44-28,14.4-19.77,13.42-41.75,13-49-.85-14.5-7.57-27.33-21-53-4-7.66-12.67-18.44-30-40-2.46-3.07-7.83-9.57-14-9A33.28,33.28,0,0,0,122,80s-10,6-28,2C75.19,77.82,73,76.06,71,76Z"/><path class="cls-2" d="M131,62c8.64-4.18,15.05-3.44,20.72-11,4.89-6.52,8.22-11,10-18,2.41-9.53,1.07-20.27-2-21-1.51-.36-2.33,2-6,4-4.48,2.48-9,2.19-12,2-12.22-.77-18.12-10.22-34-15-7.06-2.13-16.17-4.87-25-1-9.15,4-9.74,11.52-18,13-9.22,1.65-14.1-6.7-19-4-5.93,3.27,1,16.55,4.28,26,4.16,12,12.48,17.08,16,20,5.83,4.85,13.21,6.24,15,7,6.1,2.58,3.58,8.15,10.72,9,6.51.78,13.34-4.26,24.28-6A49.09,49.09,0,0,0,131,62Z"/><path class="cls-1" d="M72,69c-8.64-4.18-13.33-10.44-19-18-4.89-6.52-8.22-11-10-18-2.41-9.53-1.07-20.27,2-21,1.51-.36,2.33,2,6,4,4.48,2.48,9,2.19,12,2C75.22,17.23,81.12,7.78,97,3c7.07-2.13,16.18-4.87,25-1,9.15,4,9.74,11.52,18,13,9.22,1.65,14.1-6.7,19-4,5.93,3.27,4.28,18.55,1,28-4.16,12-12.48,19.08-16,22a52.88,52.88,0,0,1-13,8c-6.1,2.58-10.85,3.15-18,4-6.51.78-15.06,1.74-26,0C81,72.05,77,71.41,72,69Z"/><path class="cls-3" d="M131,69a5.32,5.32,0,0,1,4,2c.89,1.56-.52,4.43-1,5-3.29,3.92-9.55,6.19-17,7-6.56.71-8.22.35-26,0-6.53-.13-13.49-1.22-18-5-1-.81-3-2.53-3-5a4.6,4.6,0,0,1,2-4c1.4-.8,3-.3,4,0,5.41,1.71,9.82,4,11,4,3,0,6.57,1.2,13,1a80.61,80.61,0,0,0,15-2A61.89,61.89,0,0,1,131,69Z"/><path class="cls-4" d="M120.66,121.9l.76,7.43.32,0a129.19,129.19,0,0,1,18.2-.38q13.47.56,13.76,3.5.39,3.87-6.94,4.61-3.3.33-11.68.22a112.08,112.08,0,0,0-12.83.39l1.81,17.89q18.31-1,29.17,3.49,9.92,4.15,10.64,11.36.9,8.84-10,15.8-9.63,6.12-25.78,9.4l1.18,11.69c.12,1.15-.49,2.16-1.81,3a11.33,11.33,0,0,1-5.21,1.66q-7.24.74-7.64-3.13l-1.14-11.22q-40.26,3.76-41.35-7c-.26-2.64,1.88-4.19,6.44-4.65a17.66,17.66,0,0,1,7.59.88,60.78,60.78,0,0,0,8.31,2.36q6.78,1.08,18.18.2l-2.52-24.93-.66.07a75.73,75.73,0,0,1-22.43-1.11q-11.92-2.61-12.6-9.34-.61-6,9.4-12.41,9.23-5.9,23-9.56l-.85-8.44c-.12-1.15.51-2.17,1.89-3.08a11.64,11.64,0,0,1,5.29-1.69Q120.28,118.16,120.66,121.9Zm-11.34,34.41-1.6-15.78q-16.06,5-15.37,11.86Q92.79,156.65,109.32,156.31Zm15.61,7.79L127.24,187a51.05,51.05,0,0,0,14.12-6.13q6.15-4.17,5.74-8.26Q146.34,164.92,124.93,164.1Z"/></g></svg>
