<svg id="Layer_1" data-name="Layer 1" xmlns="http://www.w3.org/2000/svg" viewBox="0 0 407.28 545.06"><defs><style>.cls-1{fill:#a5deed;}.cls-2{fill:#575656;}.cls-3{fill:#d1d0cf;}.cls-4{fill:#9f775c;}.cls-5{fill:#6a9b67;}.cls-6{fill:#f7e8dc;}.cls-7{fill:#2d7195;}.cls-8{fill:#7ab5e3;}.cls-9{fill:#856b57;}.cls-10{fill:#e37c49;}.cls-11{fill:#513d33;}.cls-12{fill:#2c7094;}.cls-13{fill:#1d6473;}.cls-14{fill:#587f54;}.cls-15{fill:#fefefe;}.cls-16{fill:#e2d2c7;}.cls-17{fill:#539ccd;}.cls-18{fill:#2f7092;}.cls-19{fill:#539ccc;}.cls-20{fill:#e07c4a;}.cls-21{fill:#fafafa;}.cls-22{fill:#817d7b;}.cls-23{fill:#1e6474;}.cls-24{fill:#e1d1c6;}.cls-25{fill:#e1d2c6;}.cls-26{fill:#fcfcfc;}.cls-27{fill:#f8f8f8;}.cls-28{fill:#597e55;}.cls-29{fill:#e0d0c5;}.cls-30{fill:#1f6473;}.cls-31{fill:#2e7093;}.cls-32{fill:#dc7b4b;}.cls-33{fill:#549ccb;}.cls-34{fill:#5a7c56;}.cls-35{fill:#5a7e56;}.cls-36{fill:#f3f3f3;}.cls-37{fill:#807c7b;}.cls-38{fill:#326f91;}.cls-39{fill:#dfd0c4;}.cls-40{fill:#327091;}.cls-41{fill:#559bc9;}.cls-42{fill:#7e7b79;}.cls-43{fill:#5799c5;}.cls-44{fill:#5996c0;}.cls-45{fill:#5699c5;}.cls-46{fill:#3f6d87;}.cls-47{fill:#5a94bb;}.cls-48{fill:#3f6e89;}.cls-49{fill:#589ac6;}.cls-50{fill:#f3f0ed;}.cls-51{fill:#7d7a79;}.cls-52{fill:#4d6b7e;}.cls-53{fill:#5a97c0;}.cls-54{fill:#717170;}.cls-55{fill:#d5d5d5;}.cls-56{fill:#d1d1d1;}.cls-57{fill:#637e91;}.cls-58{fill:#b7b7b7;}.cls-59{fill:#9c9c9b;}.cls-60{fill:#466b80;}.cls-61{fill:#878585;}.cls-62{fill:#b0c7d9;}.cls-63{fill:#b2c4d4;}.cls-64{fill:#a9bbc8;}.cls-65{fill:#adc1d5;}.cls-66{fill:#575757;}.cls-67{fill:#585757;}.cls-68{fill:#5d5b5b;}.cls-69{fill:#5d5c5b;}.cls-70{fill:#5f5c5b;}.cls-71{fill:#5e5c5b;}.cls-72{fill:#dfd0c5;}.cls-73{fill:#666463;}.cls-74{fill:#666362;}.cls-75{fill:#676564;}.cls-76{fill:#646261;}.cls-77{fill:#666462;}.cls-78{fill:#686564;}.cls-79{fill:#e46e6e;}.cls-80{fill:#eee;}.cls-81{fill:#dbdbdb;}.cls-82{fill:#d8d8d8;}.cls-83{fill:#d4d4d4;}.cls-84{fill:#e4e4e4;}.cls-85{fill:#fbfbfb;}.cls-86{fill:#f1f1f1;}.cls-87{fill:#dc7c4b;}.cls-88{fill:#d57b4e;}.cls-89{fill:#ad775c;}</style></defs><path class="cls-1" d="M343.23,473.11a.42.42,0,0,1-.19.09.84.84,0,0,0,.06-.14A.43.43,0,0,1,343.23,473.11Z"/><path class="cls-1" d="M402.18,492.87a2.54,2.54,0,0,1-2.25.73c-.49.81-1.32.73-2.1.71a.75.75,0,0,1-.73.56c.24-.18.48-.36.7-.56l0,0c.49-.81,1.3-.71,2.09-.68C400.46,492.68,401.36,492.89,402.18,492.87Z"/><path class="cls-1" d="M343.23,473.11a.42.42,0,0,1-.19.09.84.84,0,0,0,.06-.14A.43.43,0,0,1,343.23,473.11Z"/><path class="cls-1" d="M399.93,493.6c-.49.81-1.32.73-2.1.71a.75.75,0,0,1-.73.56,4.2,4.2,0,0,0,.7-.56l0,0c.56-.6,1.51-.08,2.07-.67Z"/><path class="cls-1" d="M402.18,492.87a2.54,2.54,0,0,1-2.25.73h0C400.57,493,401.55,493.45,402.18,492.87Z"/><path class="cls-1" d="M343.23,473.11a.42.42,0,0,1-.19.09.84.84,0,0,0,.06-.14A.43.43,0,0,1,343.23,473.11Z"/><path class="cls-1" d="M402.18,492.87a2.54,2.54,0,0,1-2.25.73h0C400.46,492.68,401.36,492.89,402.18,492.87Z"/><path class="cls-1" d="M399.94,493.59a0,0,0,0,1,0,0c-.49.81-1.32.73-2.1.71h0l0,0c.49-.81,1.3-.71,2.09-.68Z"/><path class="cls-1" d="M343.23,473.11a.42.42,0,0,1-.19.09.84.84,0,0,0,.06-.14A.43.43,0,0,1,343.23,473.11Z"/><path class="cls-1" d="M397.84,494.27s0,0,0,0a.75.75,0,0,1-.73.56c.24-.18.48-.36.7-.56Z"/><path class="cls-1" d="M260.7,108.24l.63.7Z"/><path class="cls-2" d="M405.24,484.53A15.63,15.63,0,0,0,399,471.85c-7.51-5.68-15.43-10.83-24.39-14-4.74-1.67-9.77-2.83-14.79-1.95-3.76.65-6.07-.75-7.87-3.63a22.08,22.08,0,0,1-3.1-15.06q2.51-17.84,6.55-35.41a30.57,30.57,0,0,1,2.17-6.58,49.83,49.83,0,0,1,2.53-9.59c0-.24,0-.47-.06-.73,1.18-6.54,3.58-12.73,5.59-19,2.07-6.5,4.58-12.84,9.65-17.72,1.53-1.47,1.41-2.84-.25-3.83-3.42-2-3.69-5-3.28-8.55,1.14-9.72,1-19.49.83-29.26-.24-11.14-3.91-20.6-12.32-28.36a233.89,233.89,0,0,0-48.63-35.1c-14.19-7.56-29-12.73-45.39-11.92a9.71,9.71,0,0,1-5.93-1.73c-3.56-2.36-4.1-6.77-1-9.75a66.32,66.32,0,0,0,13.75-19.58c3.41-7.06,6.55-14.25,9.8-21.39,2.81-6.13,2.81-6.2,9.32-5.95a27.27,27.27,0,0,0,15.05-3.6c.9-.52,2-1.09,2-2.24S308,165.5,307,165.13c-2.39-.9-4.84-1.78-6.41-4.42,1.88-.63,3.52-1.08,5.07-1.73,2.75-1.14,3-2.14.63-3.9-3.24-2.45-6.05-5.16-7.47-9.41,9.87-3.9,13.27-12.26,15.34-21.63a111.63,111.63,0,0,0,1.59-12.44,79.52,79.52,0,0,0-1.89-26.49c-1.88-8-6.53-10.91-14.67-9.49a32.27,32.27,0,0,0-17.51,8.72c-.78.77-1.29,2.15-2.74,1.82-2.78-5.12-5.4-10.24-8.27-15.22-7.17-12.4-17.6-21-31-26.08A143.62,143.62,0,0,0,212,37.52c-19.71-3.32-38-9.74-54.1-22.09-7.64-5.87-16.54-9.61-25.6-12.88A48.7,48.7,0,0,0,122.64.16C114.73-1,108.57,4.08,108,12.09a21.11,21.11,0,0,0,.49,6.22,104.28,104.28,0,0,0,3.94,11.9,66.41,66.41,0,0,1,3.21,29.87,192.69,192.69,0,0,1-6.29,30.67c-4.78,17.36-8.75,34.83-7.73,53,.69,12.17,3.55,23.74,9.6,34.42.63,1.12,1.83,2.07,1.51,3.78-1.54.44-3,.82-4.53,1.3-7.5,2.44-11.2,7.87-11,15.82a21.4,21.4,0,0,0,4.51,12.06,67.2,67.2,0,0,0,15.31,14.89c8.37,6,17.51,7.24,27.32,4.12,2-.62,3.86-2.37,5.83-1.81s2.49,3.19,3.56,4.94c1.2,1.95,2.38,2.44,4,.57.56-.64,1.07-1.38,2-1.51,1.74,1.66,3.47,3.34,5.26,5,.76.7,1.61,1.49,2.76,1s.84-1.74.95-2.72c.3-2.66-.69-5.48.9-8.2,9.29,4.65,19.07,6,29,7.09a134,134,0,0,0,19.31.69c2-.08,5.4,2.35,5.53,3.93a5.62,5.62,0,0,1-2.77,5.29,11.34,11.34,0,0,1-5.46,1.59c-7.63.69-15.28,1.2-22.85,2.53a151.71,151.71,0,0,1-51.5-.13c-15.81-2.63-31.43-6.21-47.16-9.25-1.37-.26-2.76-1-4.09-.37-3.16,1.44-5.37-.2-7.48-2.13a54.91,54.91,0,0,1-14.12-20.5A17.93,17.93,0,0,0,65.62,211c-2.05-2.46-5.38-2.63-7.28-.46-4.51,5.17-5,14.25-1.23,20.05.76,1.17,2.7,2.06,1.69,3.91A7,7,0,0,1,55.05,238c-2.27.74-4.6,1.74-7.07.6-5.12.3-9.52-1.56-13.55-4.52-5.8-4.27-12.5-5-19.35-4.56-3.83.25-6.2,2.34-6.6,4.92-.53,3.37,1.77,5,4.14,6.59,1.76,1.19,4,1.75,5.72,3.75-4,.57-7.42-.42-10.86-.66A7.1,7.1,0,0,0,2,245.65a5.85,5.85,0,0,0-1.45,2.09c-1.22,2.86-.39,5.45,1.55,7.73.11.13.23.26.35.38a9.73,9.73,0,0,0,4,2.36c1.65.55,3.36.88,5,1.3.46.47,1.08.41,1.65.54l.09,0h-.09a1.4,1.4,0,0,0-1.57.52c-.76.41-1.56.76-2.28,1.24-3.58,2.42-3.76,5.31-.35,8a15.7,15.7,0,0,0,4.15,2.14,41.85,41.85,0,0,0,9.65,2.27c3.45.39,6.92.77,10.35,1.33a2.88,2.88,0,0,1,2.68,2.18c.22,1.43-.85,2.16-2,2.73a12.11,12.11,0,0,0-5.6,5.29c-1.17,2.26-1.81,4.67-.39,7,1.3,2.09,3.63,1.74,5.71,1.67a31.57,31.57,0,0,0,3.64-.34c5-.75,10-1.53,15-2.3,1.22-.54,2.38.42,3.58.15,11.18-2.48,22.86-3.47,32-11.63,3.26-2.89,4.27-2.38,5.47,2a61.11,61.11,0,0,0,1.84,6.55C100.8,303.53,99,301.67,113,301.73c24.08.09,48.15,0,72.22,0,5.41,0,5.81.69,4.3,5.8a90.69,90.69,0,0,1-6.19,14.4c-1.94,3.92-1.14,7,2.48,9.5a54.48,54.48,0,0,0,13.1,6.45c9.08,3.19,18.5,5.06,27.91,6.94,3.76.75,5.35,2.45,5.22,6.33-.17,5.05-.7,10.23.94,15.08a32.38,32.38,0,0,1,1.29,14.26,24,24,0,0,1,.89,8.57,25.63,25.63,0,0,1,.29,9.53,18.84,18.84,0,0,1,0,3.26c-.06,1-.29,2.06-.42,3.09-.92,7.28-4.21,13.61-8.16,19.59s-8.15,11.71-12.27,17.53c-1.22,1.73-2.46,3.41-2.11,5.71,2.56.75,3.89-1,5.15-2.67,4.58-6.14,9.3-12.21,13.23-18.81,6.19-10.39,10.32-21.25,8.3-33.76a22.57,22.57,0,0,1,1-11.88,8.07,8.07,0,0,1,1.82-2.94,13.23,13.23,0,0,1,5.06-2.92c8.79-3.21,17.39-2.53,25.9,1.07,8.14,3.44,16.57,5.5,25.41,3.67,19.35-4,36.21-12.07,47.16-29.58a45.41,45.41,0,0,1,9.77-10.79c1-.81,2-1.92,3.26-2.06a2.6,2.6,0,0,1,1.52.33h0a4.39,4.39,0,0,1,.65.44,56.09,56.09,0,0,1,6.47,5.26c2.56,2.19,3.21,4.23.95,7.09-2.73,3.45-4.22,7.61-5.66,11.71a381.18,381.18,0,0,0-17,70c-.79,5.29-1.81,11.33.59,16,3.59,7,.38,9.25-4.61,13.57-11.67,10.12-24.41,18.83-36.66,29.16,1.62-15.3,3-30.31,6.52-45,.26-1.32.54-2.64.85-3.95.56-2.47,1.17-4.93,1.77-7.4a0,0,0,0,1,0,0,91.6,91.6,0,0,0,2.57-14.72c.48-6.73.38-6.74,6.78-8.36.85-.22,1.71-.43,2.56-.66l1-.26.22-.08a6.88,6.88,0,0,0,1.3-.58,5.89,5.89,0,0,0,1.29-1c1.53-5.07-2.08-4.25-4.64-3.69-8.15,1.81-16.28,3.79-24.32,6.1s-14.19,6.95-19.41,13.42a233,233,0,0,0-34.29,57.74q-.35.74-.66,1.47c-.45,1.05-.87,2.1-1.26,3.16h0c-2.19,5.86-3.58,11.81-5,16.91.19-3.21-.31-7.44-1.71-13.21l-.18-.74c0-.09,0-.19-.07-.28-4.27-12.43-11.38-23.32-18.81-34-1.93-2.77-3.21-6.26-6.76-7.65h0a9.74,9.74,0,0,1-1.55-1.37A39.41,39.41,0,0,0,187,431a52.82,52.82,0,0,0-19.57-1c-6.43.93-12.61,2.23-17.83,6.42s-8.18,9.35-8.26,16.09,3.14,12,6.69,17.2a337.1,337.1,0,0,0,25.84,32.56l.95,1.11v0A47.45,47.45,0,0,0,203.7,525.7c8.6,2.45,16.87.44,24.61-3.83,2.55-1.41,3.89-5.55,8.17-3.15,1.15.65,2.78-1.08,3.85-2.26a19.4,19.4,0,0,0,3.82-7.34c1.42-4.49,2.35-9.12,3.87-13.58,0-.15.1-.31.15-.46a209.15,209.15,0,0,1,38.89-68.67A34.16,34.16,0,0,1,306.47,415c3.1-.7,4.13.34,4.12,3.34a57,57,0,0,1-2.07,13.38c-5.21,21.66-8.7,43.56-9.42,65.85,0,.4,0,.81,0,1.22,3.34,14.59,8.56,17.23,19.63,18.53,10.18,1.19,20.45,1.48,30.63,2.51,13,1.32,25.69,0,38.42-1.58,10.34-1.28,15.28-7,16.21-17.14C405.37,495.68,405.33,490.11,405.24,484.53Z"/><path class="cls-3" d="M13.2,259.93a.23.23,0,0,1,0,.12h0c-.1.46-.95.58-1.57.52,0-.36,0-.71-.08-1.07C12.19,259.33,13.17,259.38,13.2,259.93Z"/><path class="cls-4" d="M396.42,531.62c-5.15,3.33-11.09,4.53-17.24,5.35a148.23,148.23,0,0,1-25,.76c-8.29-.29-16.52-1.6-24.78-2.53-14.22-1.59-27.6-6.72-41.56-9.35a55.8,55.8,0,0,0-18.19-.15c-11.2,1.59-21.93,5.12-32.63,8.73-12.18,4.11-24.58,7.6-37.28,9.36-6.74.93-13.56,1.93-20.69.7-6.29-1.08-12.76-1.32-18.8-3.65-7-2.69-12.22-7.27-14.28-14.77a12.56,12.56,0,0,1,8.91-15.4c3.52-.86,7.15-1.33,10.68-2.19s7.25-1.47,9.25-5.13a11.8,11.8,0,0,1,2.37,2c5.05,7.12,12,12.18,19.3,16.49,10.52,6.18,27.32,3.63,34.2-3.64,1.13-1.19,2-2.07,3.82-.51,1.27,1.09,2.94-.07,4.14-1.22a17.62,17.62,0,0,0,4.23-7.68c1.47-4.6,2.07-9.46,4.14-13.88.33.23.66.45,1,.64,4.26,2.6,9.06,3.11,13.93,3,11.28-.18,22.6.85,33.84-.95a8.57,8.57,0,0,1,3.31,0,4.93,4.93,0,0,1,1.29.48c1,11,7.18,17,18,17.84,10.38.81,20.73,1.92,31.16,2.34,4.83.19,9.74,1.07,14.55.62,8.29-.79,16.69-.47,24.89-2.11,6.43-1.3,11-4.92,13.14-11.35.48-1.45.58-3.12,1.78-4.28.83,3.37,3,6.29,3.26,9.86C407.84,520.08,403.75,526.87,396.42,531.62Z"/><path class="cls-4" d="M173.87,502.22l.95,1.11Z"/><path class="cls-5" d="M301.46,276.18a7.82,7.82,0,0,0-1.15-5.48c-3.56-5.37-7.64-10.24-13.43-13.4a1.71,1.71,0,0,1,.78-2.24c7.44-3,14.56-6.84,22.23-9.33,5.78,2,10.84,5.49,15.9,8.75a219,219,0,0,1,32.56,25.76c7.65,7.3,12.06,16,11.26,26.86-.22,2.94-.07,5.9-.09,8.86-4.1,1.57-6.11-1.71-8.19-3.95-6-6.51-11.2-13.82-17.85-19.79-6-5.35-11.67-11-17.91-16h0a7.87,7.87,0,0,0-1.05-1h0c-.92-.86-2.13-1.3-3.05-2.16l0,0a8,8,0,0,1-1-1l-17.6-16.71c-1.58,1.51-.58,2.27.11,3,12.57,12.56,24.82,25.48,37.89,37.5,7.54,6.94,13.59,14.22,15.75,24.43.72,3.43-.18,7,1.2,10.33.48,1.15-.41,1.93-1.35,2.51-7.34,4.47-12.45,11.22-17,18.13-6.6,9.94-15.65,16.09-26.64,19.84-7.23,2.47-14.36,5-22.29,4.82a42.09,42.09,0,0,1-15.13-3.57c-11.75-4.83-23.22-5.26-34.66.75a3.68,3.68,0,0,1-1.24.11,29.31,29.31,0,0,1-2.89-10.25,95.66,95.66,0,0,1,0-14.95c.35-6.79.09-13.6.08-20.41-.65-7.38-1.75-14.68-4.34-21.69a4.93,4.93,0,0,1,.13-4.5c-1.2-2.91-4.26-2.64-6.32-2.78-5.19-.36-10.3-1.7-15.55-1.36-33.4,2.18-66.84.41-100.25,1-1.89,0-3.83.35-6.11-.52.83-4.27,1.89-8.57,1.78-13.06a42.27,42.27,0,0,0-1.57-11.83c-3.18-9.91-5.77-20.09-11.48-29a6.56,6.56,0,0,1-.32-2l12.29,2.59c13.38,2.83,26.76,5.75,40.31,7.65a126.37,126.37,0,0,0,22.34,1.31,21,21,0,0,0,8.93,6.08c18.67,7.45,37.9,11.31,58.08,9.65,4.52-.38,6,1.14,4.63,5.47-2.44,7.48-2.18,15.09-2,22.73.09,3.27.26,6.63,2.65,9.31h0c11.92-2.2,19.29-9.51,23-20.76,2.89-8.71,2.84-8.84,12-6.75,7.31,1.68,14.53,1.11,21.78-.12A7.78,7.78,0,0,0,301.46,276.18Z"/><path class="cls-6" d="M228.47,82.43c12.46,2.34,23.84,7.46,34.74,13.73,2.71,1.56,5.32,3.31,7.87,5.11,1.86,1.31,3.05,1.19,4-1a61.57,61.57,0,0,1,3.43-7C282.77,86.07,288.72,81,297,79a22,22,0,0,1,5.15-.67c5.24,0,7.23,1.45,8.61,6.51a80.15,80.15,0,0,1,1.74,31.07c-.66,5.34-1.49,10.7-3.74,15.66-2,4.48-4.42,8.72-9.37,10.66-1.9,1-3.56.64-4.09-1.44-.92-3.59-2.92-7.11-1.36-11,.79-2,5.12,0,4.27-3.84a11,11,0,0,1-.54-10c1.7-4.23.34-6.81-4.15-7.73s-4.66-3.34-3.55-6.83c1.72-5.39,4.64-9.37,10.88-9.68,1,0,2.13,0,2.76-1.08-3.67-3.87-9-3.86-12.83.34a25.85,25.85,0,0,0-6.31,14.56c-.36,2.79,1,5,3.93,5.88,6.23,2,6.21,2,2.71,7.83a10.92,10.92,0,0,0-1,2.41c-1.05,2.76-2.8,2.08-4.49.79s-3-2.43-5.08-1.13c-.24,1.57.83,2.6,1.58,3.73,7.85,11.93,9.3,24.87,4.32,37.94a337,337,0,0,1-19.14,41.72c-6.33,11.56-15.94,18.75-28.46,23-19.41,6.62-38.74,5.73-58.11.86-13.18-3.32-22.24-11.79-27.41-24.4-.65-1.58-.52-4.2-3.55-3.3-1.64,1.57.06,5.08-3.29,5.66-2.21-.45-4.41-1-6.57-1.65-3.4-1-5.67-3-4-7,1.44-3.45-.53-4.19-3.15-4-6.75.54-13.56,1-20,3.16-2.13.72-4.65,1.69-2.21,4.73,1.78,1.25,3.26.37,4.78-.58a20.34,20.34,0,0,1,9.38-2.68c3.19-.25,5.85.31,6.66,4.11a5.69,5.69,0,0,0,4,4.47c4.26,1.07,5.3,4.15,5.72,7.84,3.24.78,4-1.72,5-3.82.68-1.45.14-3.45,2-4.37,3.94,4,6.94,8.43,7.12,14.28-8.05,6.31-16.87,9.71-27.22,7.07a22.07,22.07,0,0,1-5.34-2.07,59,59,0,0,1-19.42-17.94A17.1,17.1,0,0,1,100,197.79c.17-6.75,4.94-11.61,12.4-12.59,3.79-.5,7.64-.6,11.47-.81a41.25,41.25,0,0,0,9.82-1.32c6.14-1.87,8.12-4.37,7.45-10.67a104.19,104.19,0,0,1,.23-24.52c1-7.44,2.37-14.78,6.27-21.38,22.56-5.91,38.52-23.54,58.92-33.34a112.73,112.73,0,0,0,16.54-9.85A5.27,5.27,0,0,1,228.47,82.43Z"/><path class="cls-7" d="M371.81,347.59c-9.91,13-12.48,28.85-16.75,44a337,337,0,0,0-8.31,39.69,58.93,58.93,0,0,0-.08,15.13c.39,3.68,2.51,6.79,4.76,10.14-4.19,2.65-8.75,4.46-12.13,8-.72.74-1.73,1.21-2.41,2-6.06,6.87-13.45,12-21.16,16.84-4.49,2.79-7.93,6.7-11.2,10.84-1.78-5.2,1.5-34.43,5.4-48.44,1.23-3.84,2.53-7.66,3.95-11.43a0,0,0,0,1,0,0A136,136,0,0,1,322.26,416a24.17,24.17,0,0,1,3.54-5.43,8.76,8.76,0,0,1,1.83-1.44l0,0,0,0a12.38,12.38,0,0,0,1-.92c1.08-.9,1-1.89-.19-2.4a4.4,4.4,0,0,0-2.5.22c-8.93,2.22-17.93,4.19-26.74,6.85a31.7,31.7,0,0,0-15.69,10.81c-11.94,14.8-22.5,30.52-30.47,47.86-1.67,3.63-3.33,7.28-5,10.92-1,1.46-2,3-3.08,4.38h0c-.36.47-.73.92-1.12,1.36-1.56,1.75-3.37,3-5.56,2.34a5.91,5.91,0,0,1-1.6-.76c-3.9-12.15-11.18-22.46-18-33-2-3-4.14-5.93-6.21-8.89h0a6.4,6.4,0,0,0,3-2c5.93-8.57,12.61-16.61,17.42-26a50.68,50.68,0,0,0,5.51-19.93c.27-3.91-.95-7.89-.83-11.91a23.74,23.74,0,0,1,1.21-8.21c1-.75,2.08-1.43,3.13-2.05,8.44-5,17.38-5.73,27-1.72,3.05,1.27,6.35,1.89,9.49,2.9,26.82,8.63,53.41-8.27,64.75-24.37,3.41-4.84,6.47-10,10.89-14,1.38-1.27,2.71-2.75,4.45-3.43a5.31,5.31,0,0,1,2.65-.36c4.32,1.83,6.78,5.95,10.46,8.56C372.51,346,372.43,346.78,371.81,347.59Z"/><path class="cls-8" d="M168.37,64.9c-4.51-3.23-7-8-9.7-12.62-.61-1-1.15-2.13-1.71-3.2a1.56,1.56,0,0,0-1.67-.93A1.65,1.65,0,0,0,154,49.59c-.68,3-1.44,6-.75,9.21s1.26,6.07,1.89,9.1c-1.48,1.37-3,1.06-4.54.12-4.88-5.28-6.27-11.87-7-18.7-.09-.86,0-1.74,0-2.61,0-.67-.07-1.42-1-1.62a1.7,1.7,0,0,0-1.77.81c-2.63,3.39-3.71,7.42-4.76,11.48-1.95,7.61-.15,14.82,2.23,22,.62,3.63-.85,5.13-4.5,4.4a21.88,21.88,0,0,1-5.53-4.61c-.68-.68-1.35-1.79-2.55-1-1,.64-.87,1.77-.73,2.81a57.73,57.73,0,0,0,2.87,12c.68,2.9,1.63,6-3.32,5.41-.54-.41-1.08-.83-1.63-1.23-1.67-1.23-2.5-.67-2.56,1.28a14.07,14.07,0,0,0,2.18,7.78c1,1.61,2,3.15,3.09,4.71,4.49,5.58,9.12,11,15.9,14,1,.46,2.35,1,2,2.63A93.19,93.19,0,0,0,138,152.79c-.67,2.9-.29,5.84-.28,8.76,0,3.59-1.66,3.65-4.27,2.4a16.17,16.17,0,0,1-8.89-16.51c0-3.05,1.47-5.67,2.64-8.37a1.26,1.26,0,0,0-.5-1.77,1.29,1.29,0,0,0-1.8.53,44.9,44.9,0,0,0-2.34,5.2c-2.36,6.58-1.38,13.34-.91,20.06,0,2.33-1.75,1.76-3,1.67-6.42-.46-10.63-3.84-12.73-9.9-2.79-14.76-1.76-29.41,1.32-44,2.72-12.94,6.94-25.51,9.37-38.52,3-16.35,3.45-32.52-3.39-48.2A25.19,25.19,0,0,1,110.89,13c.28-6.9,3.73-10.24,10.55-10C126.61,3.1,131.18,5.46,136,7a38.29,38.29,0,0,1,8.54,3.83c.27,1.15,1.46,1,2.16,1.53l-.06,0c.53.74,1.52.57,2.16,1.08l0,0c.51.75,1.51.57,2.14,1.1l-.08,0c.51.72,1.56.47,2.09,1.16A61.24,61.24,0,0,1,162.94,22c12.22,8.82,26,13.78,40.64,16.6,12.27,2.35,24.57,4.62,36.24,9.3s21.07,12,27.23,23.11c-.93,2.58-2.83,3.57-5.48,3.32-4.63-.94-8.86-3-13.2-4.75-.8-.33-1.57-.75-2.35-1.12s-1.43-.37-1.82.34A1.45,1.45,0,0,0,245,71c1.72.83,3.46,1.6,5.22,2.36,5.25,2.27,10.88,3.64,15.86,6.57a23.42,23.42,0,0,1,2,1.56c-1.53,4.76-7.2,7.52-12.72,6.18-1.83-.44-3.48-1.44-5.34-1.77-7.9-2.57-15.68-5.52-23.85-7.22-1.65-.34-2.51-1.11-1.86-2.87,1.6-4.4-.16-8.2-2.31-11.81a26.89,26.89,0,0,0-8.24-8.41c-2,.82-1.32,2.84-2.19,4a2.9,2.9,0,0,1-3.47.13c-2-1.94-3.91-4-6-5.81a16.69,16.69,0,0,0-6.82-3.72c-1.82-.49-2.63.45-2,2.23.6,1.62,1.59,3.11,1.55,4.93,0,2.92-.89,4.8-4.31,3.27-3.49-2.76-6.89-5.66-11.37-6.73a14.6,14.6,0,0,0-3.51-.56c-1.3,0-1.79.9-1.13,2.1.89,1.65,2.14,3.1,2.61,5s1.07,4-1.16,5.5C173.15,67.79,170.83,65.89,168.37,64.9Z"/><path class="cls-6" d="M91,272c-.31-1.35,1.07-3.52-.84-3.95s-1.75,1.91-2.27,3.2c-.74,1.87-1.29,3.85-3,5.18-3.38,2-6.42,4.61-10.4,5.48a.48.48,0,0,0-.22.41c0,.14.23.24.36.35a241.12,241.12,0,0,1-35,8.17c-2.06.35-4.12.74-6.2.89-3,.2-4.15-1.48-2.94-4.25,1-2.37,3.06-3.71,5.27-4.83,1.81-.92,3.14-2.2,3.1-4.43a5.13,5.13,0,0,0-3.81-5A23.84,23.84,0,0,0,28.48,272a47.29,47.29,0,0,1-15.27-3.16c-1.43-.58-3.26-1.1-3.13-3s2-2.14,3.47-2.69a23.65,23.65,0,0,1,16.35-.59c2.63.88,5.36,1.47,8.07,2.1a1.58,1.58,0,0,0,1.35-.58,1.22,1.22,0,0,0-.69-1.71c-1.12-.46-2.28-.84-3.43-1.2a143.84,143.84,0,0,0-23.49-4.85,14.79,14.79,0,0,1-6.41-2c-1.74-1.16-2.73-2.81-2.22-4.9.58-2.37,2.63-2.6,4.6-2.46s4.12.69,6.2.83c2.25.16,4.63.49,6.76,0C26,246.52,31,247.88,36,249.24c.83.22,1.61.87,2.49.45a1.69,1.69,0,0,0,.91-1.08,1.59,1.59,0,0,0-.74-1.21,18.13,18.13,0,0,0-5.45-1.71,47.84,47.84,0,0,1-16.68-5.76A29.71,29.71,0,0,1,13.4,238c-1.1-.84-2.36-1.79-1.8-3.42a3.48,3.48,0,0,1,3.34-2.15c6.16-.31,12.29-.1,17.45,3.91s11.13,5.39,17.6,5.44a13.55,13.55,0,0,0,10.75-4.51c1.75,1.57.15,3.71,1.66,5.14,2.49-.86,2.5-2.82,2.05-4.94a14.76,14.76,0,0,0-3.76-6.79c-5.29-5.84-3.39-11.89-.82-17,1.06-2.09,2.71-2.16,3.92-.21a29.92,29.92,0,0,1,1.9,4.28c4,9.48,9.75,17.64,18.12,23.8,6.58,6.76,9.22,15.56,12.34,24.09.85,2.33,2.24,4.83.18,7.31l-1,0C94,272,92.28,273.11,91,272Z"/><path class="cls-9" d="M350.84,505.47c-9-.54-18-1-27-1.94a126.17,126.17,0,0,1-14.4-2c-4.13-.95-4.93-2.7-2.39-6,3-3.85,6.24-7.59,10.44-10.14,9-5.45,16.73-12.28,24.3-19.55,8-7.65,18-9.1,28.66-6.37,9.82,2.51,18,8.17,26.08,13.91,6.71,4.77,7.22,12,6.24,19.32-1,7.52-1.29,7.28-9.06,8.59a247.58,247.58,0,0,1-28.9,3.25C360.2,504.81,355.54,505.43,350.84,505.47Z"/><path class="cls-10" d="M215.3,60.42a14.56,14.56,0,0,1,6.44,9.73c.89,4.64-1.13,8.17-5.19,10.46-5.61,3.17-11.31,6.18-16.89,9.4a309.56,309.56,0,0,0-29.6,19.62c-5.16,3.83-10.36,7.68-16.93,9a16.78,16.78,0,0,1-8.24-.18c-7.86-2.31-14.94-5.75-19.62-12.89a8.6,8.6,0,0,1-.72-1.38,10.2,10.2,0,0,1-.35-1.35c1.94-.21,3.17,1.3,4.71,1.76s3.33,1,5,1.45c2,.51,4.56,1.53,5.82-.36,1.48-2.21-1.51-3.11-2.66-4.37a36,36,0,0,1-8-13.94c-.29-1-.71-2,.21-3,2.23,1.6,4.42,3.28,6.73,4.79a14.68,14.68,0,0,0,11,1.89c2.27-.41,2.69-1.51,1-3.13a36.27,36.27,0,0,1-7.38-10.68c-3-6.16-3.77-18.81.34-24.35a39.79,39.79,0,0,0,4.87,13.84,33.36,33.36,0,0,0,13.9,13c.92.46,1.92,1.11,2.88.24s.35-1.92-.1-2.85c-2.33-4.86-4.68-9.71-5.93-15a29.05,29.05,0,0,1-.58-7.72c2.42,3.25,4.27,5.86,6.25,8.38A36,36,0,0,0,172.15,72a12.8,12.8,0,0,0,7.42,2.09c3.56-.25,4.79-2,4-5.58-.86-3.89-2.72-7.41-4.73-12,7.4,3,11.6,7.58,14.17,14,.58,1.44.07,4.2,2.41,4,1.84-.17,1.92-2.62,2.44-4.25,1.59-5,1.12-9.93.31-15.17a22.75,22.75,0,0,1,9.27,9.74c.71,1.43.72,3.89,3,3.78,2-.09,2.32-2.35,3.09-3.84C214.15,63.58,214.57,62.24,215.3,60.42Z"/><path class="cls-9" d="M159.81,434.59c3.18-2.14,6.87-1.91,10.17-2.25,9.47-1,18.7.28,27.23,5.14a42.29,42.29,0,0,1,12.25,11.24,198,198,0,0,1,21.44,33.9c3.16,6.44,5.35,13.3,4.61,20.63-.71,7-3.7,12.61-10.38,15.79-1.71.82-2.92.93-3.69-1.1-6.53-17.29-17.36-32.09-27.54-47.24-4.66-6.91-9-14.05-14-20.72a40.88,40.88,0,0,0-15.12-12.47C163.09,436.7,161.17,436.22,159.81,434.59Z"/><path class="cls-11" d="M152.42,454c-1.32.12-2.71.16-4.08.38-3.66.58-3.94.44-3.84-3.07.16-5.22,2.66-9.31,6.63-12.46a7,7,0,0,1,6.92-1c7.71,2.45,14.65,6.47,19.06,13.1,13.38,20.09,28.11,39.35,38.75,61.18.91,1.87,1.6,3.85,2.41,5.77.71,1.67.6,3.09-1.22,3.93-2,.93-4.54.25-5.33-1.69-1.65-4-3.39-7.95-5.31-11.85a137.36,137.36,0,0,0-15.56-24c-4.37-5.61-8.81-11.18-13.53-16.49a47.12,47.12,0,0,0-20.16-13.41C155.73,453.92,154.06,454.14,152.42,454Z"/><path class="cls-12" d="M232.64,326.75c-11.88-.21-22.59-3.52-33-7.92-.48-.2-1-.44-1.41-.68-6.07-3.12-6.39-3.72-4.13-10.08.91-2.55.7-6.13,3.1-7.38,2.07-1.08,5.1-.39,7.71-.41,4.87,0,9.75,0,14.63,0,1.79,0,3.29.23,4.5,2C228.29,308.37,232.16,318.93,232.64,326.75Z"/><path class="cls-11" d="M399.64,503.42c-1.23,5.53-4.3,8.66-9.09,10.13a33.19,33.19,0,0,1-6.11,1.2,200.6,200.6,0,0,1-34.9,1c-9.15-.61-18.35-1-27.46-2-4.58-.54-9.32-1-13.27-4a6.6,6.6,0,0,1-2.81-5.37C337.31,508.94,368.3,509.09,399.64,503.42Z"/><path class="cls-6" d="M255.53,229.05a13.66,13.66,0,0,0,8.94,4.89c2.37.25,2.83,1.53,2.53,3.54-.74,5-3,9.37-7.93,10.75-11.39,3.21-22.91,4.14-34.09-1.21a3.16,3.16,0,0,1-.73-.63c.06-1.59,1.33-2.46,1.91-3.7.21-4.43,2.4-6.59,6.94-7.24,5.51-.79,10.66-3,15.64-5.57C250.84,228.81,253,227.26,255.53,229.05Z"/><path class="cls-13" d="M361.17,336.79c-6.83,4-11.21,10.26-15.58,16.57-11,16-26,25.41-45.3,28.78-9.62,1.69-18.19-1.08-27.06-3.28-3.7-.92-7.36-2.07-11-3.34-5.89-2.06-11.27-.3-16.64,1.88-2.23.91-4.17,2.63-6.8,2.41,1.44-3.53,4.38-5.12,7.78-6.32a35.48,35.48,0,0,1,26.37.95c6.6,2.77,13.34,4.77,20.67,4.4a50.77,50.77,0,0,0,12.67-2.67c7.11-2.24,14.23-4.68,20.61-8.63,5.37-3.32,9.45-8.13,13.36-13,4.12-5.13,7.69-10.71,12.61-15.19a56,56,0,0,1,5-3.76C359.49,334.4,360.4,335.49,361.17,336.79Z"/><path class="cls-14" d="M239.79,306.5c-2.53-.25-2.82-2.25-3.19-4.12a57.25,57.25,0,0,1,.57-26.26c.32-1.17.85-2.29,1.12-3.47.49-2.11-.34-3.17-2.45-2.53-4.47,1.36-9,.95-13.47.76a133.54,133.54,0,0,1-51.19-12.2c-2.43-1.13-4.2-2.43-3.7-5.42A8.54,8.54,0,0,1,172,254c12,6.09,24.61,10.7,37.84,12.4a101.76,101.76,0,0,0,29.61-.4,12.77,12.77,0,0,1,6.19.21A62.14,62.14,0,0,0,239.79,306.5Z"/><path class="cls-15" d="M242,301c-.82-11.45-.28-22.52,6.05-32.55,2.08-3.29,2.11-3.27,5.59-1.68a16.09,16.09,0,0,0,2.41.95c3.91,1.1,4.38,1.59,4,5.54a56.48,56.48,0,0,1-3.77,15.64C253.72,295.13,248.89,299.2,242,301Z"/><path class="cls-15" d="M298.45,273.35c-8.31-.42-15.55,1.51-22.85-.14a18.89,18.89,0,0,1-7.16-2.94c-3.34-2.41-3.58-3.45-1.93-7.49.14-.32.23-.66.37-1,.7-1.5-.44-3.66,1.6-4.65a12,12,0,0,1,6.14-.79,25.66,25.66,0,0,1,16.31,7.29A38.26,38.26,0,0,1,298.45,273.35Z"/><path class="cls-16" d="M228.47,82.43c-1,.19-2.25.08-3,.62-13.53,9.48-28.37,16.78-42.22,25.71-6.27,4-12.26,8.5-18.49,12.61-5.16,3.4-10.69,5.84-17.12,5.13.57-2.56,1.8-4.48,4.67-4.82,6.84-.8,12.31-4.51,17.61-8.47a331,331,0,0,1,33.89-22.35c5.42-3.1,10.89-6.11,16.36-9.12C223.05,80.15,225.77,81.35,228.47,82.43Z"/><path class="cls-14" d="M325.57,276.21c3.28.23,5,3.08,7.11,4.85,9.83,8.15,19.15,16.83,26.86,27.15,2.52,3.39,5.24,7,10,7.75,0,5.4,0,10.81,0,16.22a14.14,14.14,0,0,1-.23,3.63c-.41,1.58-1.6,2.6-3.05,1.23-2.95-2.79-6.42-5-6.33-10.14.08-4.23-1.34-8.53-2.33-12.73-1.32-5.6-4.74-10-8.65-14.05-6.56-6.75-13.3-13.32-19.95-20C327.76,278.89,326.32,277.85,325.57,276.21Z"/><path class="cls-14" d="M301.46,276.18c.36,2.42-1,3.7-3.12,4-8.57,1.18-17.18,2.26-25.72-.18-2-.57-3.91-1.37-6.18-2.18-1.57,5.15-2.54,10.4-5.17,15.08A28.63,28.63,0,0,1,242,307.38a1.91,1.91,0,0,1-2.22-.89c4.65-2.69,9.45-5.12,13.54-8.73a22.6,22.6,0,0,0,7.2-12.44c1.11-5.06,2.81-10.05,2.09-16.1,1.8,1.36,3.06,2.22,4.21,3.19a15.78,15.78,0,0,0,10.57,3.78C285.41,276.2,293.44,276.18,301.46,276.18Z"/><path class="cls-17" d="M105.92,154.86c1.68,1.9,3.26,3.91,5.09,5.66,3,2.86,6.66,3.46,10.62,2.57,1.9,5.21,3.13,10.64,5.46,15.69.91,2,.35,3-1.84,3.07a7.18,7.18,0,0,0-1,0c-5.59,1.06-9-1.2-11.32-6.4C109.89,168.81,107,162.17,105.92,154.86Z"/><path class="cls-18" d="M177.82,253.63A18,18,0,0,1,192,255.05c7.77,4,16.38,5.39,25.22,5.58,9.53.2,19,.27,28.46-1.08a6.86,6.86,0,0,1,1.57,0c.94.1,1.7.53,1.63,1.6a1.37,1.37,0,0,1-1.37,1.31c-1.9.2-3.77.67-5.64.9-17.42,2.22-34.65,2.3-51.26-4.71C186.49,256.89,182,256,177.82,253.63Z"/><path class="cls-19" d="M124.55,147.44c.35,8,4.88,12.94,11.8,16.63,2-3.78-.37-7.88,1.64-11.28q.15,10.64.3,21.29a5.74,5.74,0,0,1-.65,3.51,6.86,6.86,0,0,1-5.81,2.9c-1.93,0-1.92-2.18-2.49-3.54-3.41-8.18-6.24-16.51-5.71-25.58C123.7,150,123.44,148.56,124.55,147.44Z"/><path class="cls-18" d="M232,341.42c-8.84-1.52-17.28-3.53-25.71-5.57a62.42,62.42,0,0,1-15.47-6.19,7.44,7.44,0,0,1-1.74-1.13c-1-1-3.45-1.38-2.16-3.43,1-1.61,2.52-.24,3.7.31,2.68,1.25,5.35,2.51,8.09,3.65a87.82,87.82,0,0,0,31.92,6.78c3.36.08,4.06.76,3.79,3.38C234.23,340.86,233.59,341.89,232,341.42Z"/><path class="cls-20" d="M302.55,156.58c-1,.56-1.42.84-1.88,1-1.36.6-3.51-.4-4.15,1.37-.81,2.24,1.42,3.3,2.66,4.61s2.75,2.44,4.6,4c-4.88,1.84-9.12,3.42-13.92,2-1.74-.51-2.26-1.34-1.64-3,2.21-5.85,3.9-11.82,3.92-18.15,0-.89.25-1.76,1.27-2a2.34,2.34,0,0,1,3,1.34C297.85,151,300.24,153.54,302.55,156.58Z"/><path class="cls-17" d="M250,85.87c1.4-.28,2.66.33,4,.53,5.53.87,10.47-.2,14.07-4.94,3.62,1.5,5.42,4.65,7.07,7.91a4.15,4.15,0,0,1,.27,3.46c-1.89,5.49-2.8,5.92-7.73,2.71C262.06,91.86,255.81,89.32,250,85.87Z"/><path class="cls-21" d="M191,317.1c12.06,7.53,25,11.29,38.72,12.52.87.08,1.75.09,2.6.24a1.5,1.5,0,0,1,1.26,1.45c.07,1.14-.73,1.46-1.67,1.45-2.62,0-5.25.07-7.85-.19a83,83,0,0,1-31.79-9.66C189,321.17,189.06,321.1,191,317.1Z"/><path class="cls-22" d="M176.63,471.72c-5.1,3-9.85,5.82-14.56,8.68-1.51.91-2.55.65-3.38-.88a8,8,0,0,0-1-1.2c-3.43-4.22-3.37-4.2,1.48-7,3-1.72,6.15-3.21,8.74-5.54,1.34-1.21,2.44-1,3.56.2C173.11,467.76,175.12,469.19,176.63,471.72Z"/><path class="cls-23" d="M327.65,409.07a209.27,209.27,0,0,0-16.26,34.58,9.56,9.56,0,0,1-1.46,2.08c1.48-7.12,2.8-14.29,4.52-21.35a28.27,28.27,0,0,0,.6-8.81c-.22-3.12,1-4.38,3.94-4.82S324.62,408.93,327.65,409.07Z"/><path class="cls-22" d="M167.3,489.5a9.14,9.14,0,0,1-4.27-4.73c-.71-1.78.89-2.4,2-3.16a74.91,74.91,0,0,1,11.79-6.45c2.06-1,7,3,6.79,5.29a1.37,1.37,0,0,1-.9,1.11c-4.76,2.45-9.61,4.71-14.13,7.59A5.74,5.74,0,0,1,167.3,489.5Z"/><path class="cls-22" d="M174.44,497.56c-1-.07-4.45-3.51-4.65-4.71-.32-1.91,1.31-2.32,2.48-2.87,3.61-1.72,6.69-4.42,10.61-5.57,2.94-.87,6.93,1.39,7.49,4.34a1.45,1.45,0,0,1-.78,1.75c-4.92,1.83-9.41,4.55-14.16,6.74C175.12,497.38,174.77,497.45,174.44,497.56Z"/><path class="cls-22" d="M176.51,500.4c3.84-3.75,8.89-5.28,13.68-7.21,2.58-1,6.29,1.85,6.31,4.56,0,1.1-.86,1.4-1.59,1.83-2.09,1.23-4.25,2.36-6.29,3.68C181.56,507.82,181.58,507.85,176.51,500.4Z"/><path class="cls-24" d="M96.33,273c-.34-5.61-2.53-10.68-4.78-15.68-2.4-5.32-5.14-10.49-7.74-15.72,3.89.07,6.2,2.11,7.94,5.54a154.83,154.83,0,0,1,9.64,25.16,4.65,4.65,0,0,1-.08,1.55C99.42,274.5,97.93,273.34,96.33,273Z"/><path class="cls-25" d="M255.53,229.05c-2.21-.18-4,.9-5.83,1.9A65.13,65.13,0,0,1,233.26,237c-5.17,1.23-5.17,1.25-7.1,5.67,0-4.52,0-4.52-1.75-8.14,5-1.41,10-2.81,15-4.18A63.76,63.76,0,0,0,253.93,224C254.5,225.85,255,227.45,255.53,229.05Z"/><path class="cls-26" d="M258.42,264.94a6.88,6.88,0,0,1-7-6.33,5.9,5.9,0,0,1,5.93-6.5c3.26-.06,7.21,3.78,7.19,7A6,6,0,0,1,258.42,264.94Z"/><path class="cls-27" d="M194.77,251.16l5.13-.94a13.51,13.51,0,0,1,9.94,1.66c5.28,3.19,11.42,4.07,17.34,5.48q.54.34.33.63c-.14.18-.27.27-.4.27-11.12.38-22-.85-32.38-5.08A1.32,1.32,0,0,1,194.77,251.16Z"/><path class="cls-28" d="M309.89,245.73a68.47,68.47,0,0,1-20.29,9.46,3.82,3.82,0,0,0-2.72,2.11l-4.52-2.3c.19-1.92,1.71-1.58,2.69-2.07,5.28-2.6,10.8-4.82,15.73-8C304.45,242.62,307.06,243.08,309.89,245.73Z"/><path class="cls-22" d="M197.49,501.5c2.34.16,3,2,3.92,3.69,1.75,3.31,1.72,3.42-1.85,4.45a27.47,27.47,0,0,0-6.5,3.14,5,5,0,0,1-7.24-2.41,1.61,1.61,0,0,1,.23-1.9C189.31,505.26,193.4,503.39,197.49,501.5Z"/><path class="cls-29" d="M280.57,121.27c2.58-2.31,4.62-.87,6.71.88,1.51,1.27,1.5-.31,1.86-1.13a23.14,23.14,0,0,1,6.09,8.63c-1,.69-1,1.64-.74,2.71a58.87,58.87,0,0,1,1.72,7.44c.26,2.18,1.53,2.38,3.17,2.4-1.06,1.18-2.49,1-3.87,1.19-3,.36-3.95-1.28-4.34-3.88-.87-5.79-3.37-10.95-6.5-15.84C283.71,122.17,282.77,120.65,280.57,121.27Z"/><path class="cls-30" d="M236.73,489.72a7,7,0,0,0,7-3.2,12.33,12.33,0,0,1,4.41-4.13,258.72,258.72,0,0,0-8.22,26.23,11.14,11.14,0,0,1-5.15,7.07c1.22-4.88,3.67-8.76,3.94-13.22A37.08,37.08,0,0,0,236.73,489.72Z"/><path class="cls-22" d="M160.44,459.35c2.78,0,4.18,1.48,5.52,2.77.94.91.22,1.93-.77,2.53-3.56,2.14-7.14,4.26-10.71,6.39-1.18.7-2,0-2.68-.8-.82-1.07-2.27-2.44-1.22-3.63A26.87,26.87,0,0,1,160.44,459.35Z"/><path class="cls-31" d="M268,243.72a19.31,19.31,0,0,0,2.09-6.95c.09-1.75,1-2.46,2.66-2.45,3.46,0,7-.38,10.5,1.6-3.48,4.61-8.63,6.86-13.16,9.89C267.77,246.73,267.18,245.93,268,243.72Z"/><path class="cls-32" d="M165.38,233.3a11.13,11.13,0,0,1-1.75-1.63c-1.54-2.38-3.37-3.48-6-1.61-2.17,1.53-2.62-.58-3.43-1.68-.93-1.26-1.07-2.52.63-3.42.76-.4,1.39-1,2.12-1.47,1.5-.89,2.64-3.27,4.79-1.84,2.35,1.56,5.36,2.87,4.67,6.68C166.14,229.79,166.76,231.4,165.38,233.3Z"/><path class="cls-33" d="M143.51,127.52c-5-2.59-9.94-5.24-13.59-9.76-1.72-2.13-3.57-4.13-4.27-6.87,6,5,12.47,9.14,20.39,10.81A16.52,16.52,0,0,1,143.51,127.52Z"/><path class="cls-34" d="M101.78,293.69c-3.46-5.05-3.69-10.55-5.2-15.6-.37-1.23.67-1.86,1.92-1.68a6.06,6.06,0,0,1,5.13,5.64C103.81,285.83,103.86,289.61,101.78,293.69Z"/><path class="cls-35" d="M232.35,301.29c.24.82.42,1.67.74,2.46a51.16,51.16,0,0,1,3.47,23.73c-1.88-1.77-.89-4.24-1.45-6.36A76.65,76.65,0,0,0,227.24,302C229.12,301.36,231,302.75,232.35,301.29Z"/><path class="cls-36" d="M272.21,248c4.78-3.1,9.65-6.09,13.91-9.9,1.87-1.67,3.58-1.83,5.72.18-5.18,5.29-11,9.28-18.35,10.94C272.29,249.58,272.05,249,272.21,248Z"/><path class="cls-37" d="M192.86,516.08a32.35,32.35,0,0,1,8.24-4.18c1.92-.61,3.79-.4,4.65,2,.26.72.39,1.55-.15,1.92-2.11,1.41-4.19,3.05-6.53,3.86-1.59.55-3.11-1.13-4.48-2.16C194.19,517.16,193.8,516.83,192.86,516.08Z"/><path class="cls-38" d="M229.23,254.24c-5.12.11-9.85-1.55-14.59-3.2-.58-.56-1.71-.83-1-2a19,19,0,0,0,4-.56,5.51,5.51,0,0,1,5.37.6c3.77,2.64,8.12,3.43,12.51,4.14C233.89,256.28,231.4,254.29,229.23,254.24Z"/><path class="cls-39" d="M146.7,206c1.54-1.42,1-4.09,3.1-5.18.66,5.51,3.43,10.07,6.56,14.47,2.28,3.2,2.28,3.2-1.21,5.74-2.43-4.73-4.24-9.8-7.77-13.91C146.62,207.1,146.26,206.81,146.7,206Z"/><path class="cls-40" d="M284.73,247.88c2.56-2,5.21-4,7.67-6.11,3.52-3.08,3.46-3.15,8.17,0-4.63,3.35-9.18,6.2-14.68,7.3C284.76,249.4,284.49,248.89,284.73,247.88Z"/><path class="cls-41" d="M168.37,64.9A17.1,17.1,0,0,1,171,65c4.76.94,5.43.46,6.21-4.64a20.68,20.68,0,0,1,3.21,7.05c.89,3.11,0,4.11-3.26,3.61-2.7-.42-4.69-2.16-6.69-3.82A20.8,20.8,0,0,1,168.37,64.9Z"/><path class="cls-42" d="M156.66,458.36c-2.69,1.29-4.31,3.36-6.41,4.84-.93.65-2.19,1.52-3.12.05s-2.27-2.9-1-4.67,3.27-1.81,5.06-2.2A4.81,4.81,0,0,1,156.66,458.36Z"/><path class="cls-43" d="M133.83,83.77c2.49-.45,4.11-1.8,4.5-4.4L143.9,88C139.62,88.4,137.66,87.56,133.83,83.77Z"/><path class="cls-44" d="M124.57,98.35c3.53-.31,3.1-3.06,3.32-5.41,2.17,3.26,4,6.76,7.21,10.42C130.54,102.41,127.12,101.33,124.57,98.35Z"/><path class="cls-45" d="M261.57,74.36,267.05,71a24.64,24.64,0,0,1,4.1,6.28,1.6,1.6,0,0,1,0,2.23c-.33-.08-.65-.18-1-.28a5.73,5.73,0,0,1-1.13-.9Z"/><path class="cls-46" d="M229.23,254.24c2.1-.39,4.45.82,6.3-1.05,4.34,0,8.69-.16,12.79.12.3,1.55-.32,1.78-.75,1.79-5.52.06-11,.08-16.55,0C230.42,255.12,229.83,254.55,229.23,254.24Z"/><path class="cls-47" d="M150.6,68l4.54-.12c1.67,1.84,2,4.21,3.09,7.16C154.29,73.4,151.93,71.28,150.6,68Z"/><path class="cls-48" d="M284.73,247.88l1.16,1.17c-3.93,2.35-7.76,5.08-12.85,3.47Z"/><path class="cls-49" d="M190.57,60.6c2.6.45,3.39-1.5,4.31-3.27,1.22,3.79,1.23,4,.57,10.46Z"/><path class="cls-50" d="M74.7,282.66c-.49-.26-1.7-.69-1.32-.84,4-1.55,7.45-4,11.27-5.8,0,0,.2.26.31.4C82.57,280.18,78.94,281.92,74.7,282.66Z"/><path class="cls-51" d="M209,522.32c-2.06-.57-4.45.52-6.37-1.3C206.81,518.15,207.18,518.21,209,522.32Z"/><path class="cls-52" d="M268,243.72a1.87,1.87,0,0,0,2.09,2.09c-1.34,1.74-3.43,2-5.69,2.46Z"/><path class="cls-53" d="M208.12,59.7l3.47-.13a9.87,9.87,0,0,1,0,1.54c-.13.78.11,1.88-1,2.08s-1.3-.91-1.7-1.59A13.21,13.21,0,0,1,208.12,59.7Z"/><path class="cls-54" d="M267,251.13a2.9,2.9,0,0,1-2.86,1.27c.47-1.6,1.83-1.82,2.92-2.33.35.26.45.5.32.73S267.08,251.13,267,251.13Z"/><path class="cls-55" d="M194.77,251.16c0,.67,0,1.35,0,2a2.9,2.9,0,0,1-.51,0c-.88-.13-2-.5-1.89-1.34C192.56,250.48,193.87,251.17,194.77,251.16Z"/><path class="cls-56" d="M272.21,248l1.28,1.22c-.87,1-2.11.9-3.24,1.13s-1.33-.15-1-1.12Z"/><path class="cls-57" d="M271.15,79.55V77.32c.47.64,1,1.24,1.41,1.92.29.47.84,1.23-.08,1.49C271.84,80.9,271.4,80.18,271.15,79.55Z"/><path class="cls-24" d="M91,272c1.45.16,3.07-.45,4.25.94-1.13.05-2.26.18-3.39.15C91.36,273.06,90.52,273,91,272Z"/><path class="cls-58" d="M227.11,258.26c0-.3,0-.6.07-.9l4.1.09c.41.19.54.37.4.56a.54.54,0,0,1-.41.27Z"/><path class="cls-14" d="M321.46,273a3.19,3.19,0,0,1,3.05,2.16A3.07,3.07,0,0,1,321.46,273Z"/><path class="cls-59" d="M269.25,249.19l1,1.12c-.92,1-2.13.81-3.29.82l.06-1.06Z"/><path class="cls-60" d="M213.62,249l1,2c-1,0-2.14-.11-2.39-1.23C212.07,249,213,249.05,213.62,249Z"/><path class="cls-61" d="M231.27,258.28a1.94,1.94,0,0,0,0-.83c.84-.06,1.7-.3,2.4.43C233,258.59,232.11,258.36,231.27,258.28Z"/><path class="cls-62" d="M146.66,12.38c-1.09,0-1.93-.33-2.15-1.53C145.32,11.22,146.36,11.28,146.66,12.38Z"/><path class="cls-63" d="M148.76,13.42a1.9,1.9,0,0,1-2.16-1.08C147.56,12.23,148.38,12.4,148.76,13.42Z"/><path class="cls-64" d="M150.85,14.48c-.92,0-1.75-.11-2.14-1.1A2,2,0,0,1,150.85,14.48Z"/><path class="cls-65" d="M152.86,15.61c-.87-.08-1.7-.23-2.09-1.16A2.49,2.49,0,0,1,152.86,15.61Z"/><path class="cls-23" d="M328.67,408.13l-1,1Z"/><path class="cls-14" d="M320.39,272l1,1Z"/><path class="cls-14" d="M324.51,275.17l1.06,1Z"/><path class="cls-57" d="M269.05,78.37l1.13.91A1.36,1.36,0,0,1,269.05,78.37Z"/><path class="cls-66" d="M218.82,212.44a79.7,79.7,0,0,0-24.89-1.2c-2,.24-4.12.28-2.7,3.3a1.24,1.24,0,0,1-.57,1.76c-.95.43-1.63-.13-2.07-1a10,10,0,0,1,.14-9.52c.47-.94,1.15-2.09,2.3-1.7,1.35.46.73,1.67.41,2.65-.16.47-.26,1-.44,1.69,3.66.35,7-.73,10.2-1.74,17.63-5.54,33.38-14.6,47.72-26.16a58.51,58.51,0,0,0,6.86-7.12c1.18-1.34,2.82-2.72.31-4.67-1.1-.85.13-2.12,1.23-1.88a68.06,68.06,0,0,1,7.46,2.26,1.3,1.3,0,0,1,1,1.6,1.25,1.25,0,0,1-1.62.87c-1.83-.33-2.45.76-3,2.17-2.26,6.2-4.56,12.38-6.84,18.57-1,3.4-.36,6.9-.55,10.34-.56,9.89-6.17,15.24-16.09,15.32-4.85,0-9.24-1.6-13.54-3.5C222.39,213.72,220.63,213,218.82,212.44Z"/><path class="cls-66" d="M166.6,172.53a34.59,34.59,0,0,1,.81-8.33,14.31,14.31,0,0,1,7.14-9.8c3.63-2.17,7.26-2.29,10.81,0a54.29,54.29,0,0,1,13.9,13.26c3.21,4.32,2.44,7.6-2,10.54a62.85,62.85,0,0,1-17.08,7.63,18.67,18.67,0,0,1-7.26.45c-3.8-.4-4.53-1.16-5.47-5A28.51,28.51,0,0,1,166.6,172.53Z"/><path class="cls-67" d="M239.67,125.09a21.24,21.24,0,0,1,16.69,9.22,9.58,9.58,0,0,1,.9,10.32c-4.37,9.52-16.17,15.07-26.17,12.22a3.79,3.79,0,0,1-2.88-2.6c-3.35-9.28-1.34-17.77,3.73-25.77C233.67,125.75,236.46,124.81,239.67,125.09Z"/><path class="cls-24" d="M305.7,91c-.23,2.25-1.95,2.24-3.48,2-8-1-10.68,6-11.71,11.74-.36,1.94,1.06,1.86,2.25,1.87,2.15,0,4.19.28,5.53,2.19,1.54,2.2,2.61,4.58,1,7.19-1.89,3-2.29,6,.06,9,.26.33.07,1,.08,1.53-2.86,2.13-4.9.53-6.62-1.63a5.53,5.53,0,0,1-.32-7.18c3.24-4.77,3.18-4.83-2.64-6.11-3.88-.86-5.73-3.26-5.06-7.15a24.93,24.93,0,0,1,6.05-13C295,86.86,299.13,86.83,305.7,91Z"/><path class="cls-68" d="M305.7,91a3,3,0,0,1-2.92-.25c-4.85-2.68-8.39-1.94-11.72,2.39A27.82,27.82,0,0,0,286,104.43c-.8,3.73.74,5.49,4.56,5.89.52.05,1.06-.1,1.56,0,1.72.31,3.51.61,4.14,2.62s-.38,3.24-1.69,4.58c-2.78,2.85-2.36,6.37.84,8.59a4.72,4.72,0,0,0,4,.41c1.55,1.7,1.1,2.79-1.08,3.14a18.87,18.87,0,0,1-3.1,0c-3.27-2-4.85-5.2-6.09-8.63-.06-3.1,3.14-4.37,4.07-6.82-1.13-1.63-2.65-1-4-1.17-4.28-.55-6.67-3.15-6.17-7.45a27.08,27.08,0,0,1,7.14-15.93,10.33,10.33,0,0,1,11.46-2.9C303.64,87.44,305.64,88.32,305.7,91Z"/><path class="cls-24" d="M140.17,216.57c-3.31-1.62-.57-3.85-.54-5.76-1.11-1.33-2.78-1.36-4.17-2-2.9-1.34-5.55-2.95-5.66-6.68-.05-1.78-1.1-2.36-2.71-2.35-4.35,0-8.62.3-12.09,3.39-1.94,1.73-3.63,1.78-5.12-.52-1.67-3.18.55-4.75,2.86-5.49a63.45,63.45,0,0,1,18.47-2.89c2.91-.05,5.19.88,4.08,4.76-1,3.53,1.41,5,4.21,6.06,2.49.92,5.88.63,6.06,4.55S143,215.09,140.17,216.57Z"/><path class="cls-69" d="M140.17,216.57c-.08-1.51,1-2,2.11-2.62a4.36,4.36,0,0,0,2.18-4.9c-.33-2.16-2.14-1.82-3.64-2.14-6.59-1.42-7.95-3.86-6.12-11.18-7.45-.64-14.56.93-21.64,2.65-2.15.52-3.06,2.15-3.18,4.27-1.94.29-2.51-.79-2.28-2.44.35-2.59,2.25-3.86,4.48-4.52a77.89,77.89,0,0,1,22.5-3.08c3.71,0,4.5,1.67,3,5-1.71,4-.92,5.58,3.4,6.25,2.09.32,4.11.55,5.68,2.12a1,1,0,0,0,.68,1.12c.38,2.27.44,4.52-.86,6.53C145.05,216,143.28,217.8,140.17,216.57Z"/><path class="cls-25" d="M218.82,212.44a11.64,11.64,0,0,1,7.49,1.34,24.43,24.43,0,0,0,13,2.88c7.87-.47,12.81-5.47,13-13.38.08-3.78-.71-7.68,2-10.95a44.75,44.75,0,0,1,1.14,11.88c-.28,7.83-4.79,13.34-12.35,15.48-7.72,2.19-14.32-.44-20.68-4.31A32.53,32.53,0,0,1,218.82,212.44Z"/><path class="cls-70" d="M233.64,111.89a11.34,11.34,0,0,1-5.57-1.32,5.35,5.35,0,0,1-3.22-5.49c.15-2.6,1.69-4.08,4-5A8.11,8.11,0,0,1,234,100c6.69,1.73,12.5,5.19,18.06,9.15.82.58,1.75,1.42.82,2.54-.69.82-1.58.35-2.34-.11-4-2.4-8.16-.42-12.23-.39A29.57,29.57,0,0,0,233.64,111.89Z"/><path class="cls-71" d="M164.61,138.54c-.08,3.47-1.75,6.3-3.74,9-2.78,3.72-6.09,7.11-6.87,12-.17,1-.82,2-2.15,1.52-1-.36-1-1.31-.84-2.19.62-4.1,1.15-8.21,1.9-12.28a20,20,0,0,1,5.48-11c1.11-1.09,2.54-2,4.22-1.37C164.59,134.94,164.64,136.76,164.61,138.54Z"/><path class="cls-72" d="M217.64,188.34c1.84-.78.46-3.43,2.41-4.15,3.17,2.87,5.88,1.12,8.52-.9,1.21-.92,1.74-2.48,2.93-3.45l2,.09c1,.84,1,2,1,3.17-2.07,4.73-5.26,7.72-10.83,7.1C221.87,188.94,218.73,192,217.64,188.34Z"/><path class="cls-73" d="M217.64,188.34c.93,1.1,2,.84,3.13.35,1.64-.75,2.47,0,2.93,1.51-5.4,2.86-10,1.35-11-3.65-.22-1.15-.56-2.68.91-3.16,1.76-.59,1.88,1,2,2.16A3.16,3.16,0,0,0,217.64,188.34Z"/><path class="cls-74" d="M234.53,183.1c-1.23-.78-1.18-2-1-3.17,2.33-2.9,1-5.07-1.4-7-.71-.57-1.28-1.29-.58-2.16s1.6-.45,2.37-.07C238.71,173.08,239,178.74,234.53,183.1Z"/><path class="cls-75" d="M231.5,179.84c-1.15,4.52-4,7.12-8.19,7.25-1.93.06-3.53-.41-3.26-2.9,3.59,0,6.92-.5,9.07-3.93C229.63,179.44,230.63,179.6,231.5,179.84Z"/><path class="cls-76" d="M257,125c-.3.94-1,1.81-1.87,1.2a36.31,36.31,0,0,0-9.55-5.25,1.22,1.22,0,0,1-.56-1.77,1.11,1.11,0,0,1,1.21-.77,18.79,18.79,0,0,1,10.35,5.66A3.43,3.43,0,0,1,257,125Z"/><path class="cls-77" d="M158.61,165.14c.27-2.18.42-4.09,1.5-5.76.6-.92,1.31-1.81,2.48-1.15.87.5.72,1.47.27,2.3a9.19,9.19,0,0,0-.73,8,1.3,1.3,0,0,1-1.08,1.92c-1,.12-1.57-.63-1.77-1.51C159,167.61,158.79,166.23,158.61,165.14Z"/><path class="cls-78" d="M226.87,172.48c.12.78,0,1.34-.54,1.52a21.62,21.62,0,0,0-6.59,3.81c-.27.22-1,.06-1.41-.11-.59-.22-.54-.85-.4-1.32.7-2.35,5.66-5.26,8-4.67C226.37,171.83,226.88,172.06,226.87,172.48Z"/><path class="cls-79" d="M249.63,202.65c-.08,7.11-4,11.46-11.43,11.47-4.85,0-9.7-1.26-13.53-4.7-3.18-2.85-3.48-6-1-8.64s5.24-2.52,8.32.12c.52.46.91,1.06,1.42,1.54s1.28,1.27,2.25,1,.94-1.34,1-2.18c.05-2.08-.13-4.16.71-6.18,1-2.4,2.31-4.43,5.12-4.58s4.34,1.87,5.6,4C248.87,195.88,249.66,200.32,249.63,202.65Z"/><path class="cls-21" d="M190.25,164.4a1,1,0,0,1-.74-.28c-.59-.59-1.55-.35-2.14-1-2.21-.41-4.32-1.27-6.64-1.13-4.29.25-7.11,2.47-8.17,6.68-1.31,5.21.12,9.9,3.09,14.27-4.17.67-5,.4-5.59-2.9a37.13,37.13,0,0,1,.52-16.51,11.73,11.73,0,0,1,4.12-5.88c3.12-2.52,6.25-2.76,9.6-.56a32.15,32.15,0,0,1,7.66,7A1.28,1.28,0,0,1,190.25,164.4Z"/><path class="cls-80" d="M181,164.92c3,0,4.07.73,3.84,2.91-.15,1.46-.19,3.29-2.31,3.41-1.46.09-4.39-2.92-4.41-4.55C178.12,164.52,180,165.26,181,164.92Z"/><path class="cls-81" d="M197.93,173.74c-.28.92-.65,1.18-1.23.2-.36-.77-.25-1.7-.8-2.4l-2.3-5.09.17-.22a6.05,6.05,0,0,1,3.09,3.11,9.24,9.24,0,0,1,.79,1.1,1,1,0,0,1,.32.87A2.14,2.14,0,0,1,197.93,173.74Z"/><path class="cls-82" d="M190.25,164.4l1.71-.29c.52,0,.76.25.79.75a1,1,0,0,1-.08,1.2A4.33,4.33,0,0,1,190.25,164.4Z"/><path class="cls-83" d="M197.93,173.74c0-.81,0-1.62,0-2.43A1.69,1.69,0,0,1,197.93,173.74Z"/><path class="cls-83" d="M195.9,171.54a2.24,2.24,0,0,1,.8,2.39A2.8,2.8,0,0,1,195.9,171.54Z"/><path class="cls-82" d="M187.37,163.17a2,2,0,0,1,2.14,1A2.37,2.37,0,0,1,187.37,163.17Z"/><path class="cls-84" d="M192.67,166.06c0-.4.05-.8.08-1.2a1.54,1.54,0,0,1,1,1.37l-.17.22Z"/><path class="cls-83" d="M197.65,170.44l-.79-1.1Z"/><path class="cls-85" d="M237.94,154.39c-6.54.31-7.65-.41-8.4-6-.85-6.31,1-12.09,4.16-17.45a6.39,6.39,0,0,1,7.19-3.08,19.81,19.81,0,0,1,11.68,6.4c3.57,4.12,3.67,6.16.31,11.53-1.43-2.69-2.51-5.36-4.44-7.5-3.9-4.34-8.5-5.77-11.93-3.61-3.76,2.36-5,8.1-3,13.2C234.48,150.35,236.54,152.05,237.94,154.39Z"/><path class="cls-86" d="M243.7,139.15c.06,1.76-1.87,4-3.56,3.88-1.9-.15-3.39-1.19-3.58-3.18-.2-2.18,1.39-3,3.27-3.29C241.93,136.29,243.64,137.51,243.7,139.15Z"/><path class="cls-87" d="M243.61,107.23a32.43,32.43,0,0,1-9.94,1.53c-.69,0-1.39,0-2.07-.05-2.07-.22-3.76-1.08-3.94-3.35-.14-1.69,2.34-3.09,4.81-2.8a17.91,17.91,0,0,1,3,.81A36.92,36.92,0,0,1,243.61,107.23Z"/><path class="cls-88" d="M155.83,147.44a16.29,16.29,0,0,1,5.68-10.79c.52,5-2,7.91-4.38,10.86A.77.77,0,0,1,155.83,147.44Z"/><path class="cls-89" d="M155.83,147.44l1.3.07c-.33.7-.77,1.65-1.57,1.34S155.31,147.85,155.83,147.44Z"/></svg>
