<svg id="Layer_1" data-name="Layer 1" xmlns="http://www.w3.org/2000/svg" viewBox="0 0 256.14 634.61"><defs><style>.cls-1{fill:#a5deed;}.cls-2{fill:#575656;}.cls-3{fill:#aeadad;}.cls-4{fill:#c4c4c4;}.cls-5{fill:#9f775c;}.cls-6{fill:#2d7195;}.cls-7{fill:#f7e8dc;}.cls-8{fill:#7ab5e3;}.cls-9{fill:#bb4a51;}.cls-10{fill:#c0ac91;}.cls-11{fill:#856b57;}.cls-12{fill:#529dce;}.cls-13{fill:#e2d3c7;}.cls-14{fill:#6d625c;}.cls-15{fill:#2c7094;}.cls-16{fill:#fefefe;}.cls-17{fill:#923842;}.cls-18{fill:#f6e7db;}.cls-19{fill:#1d6473;}.cls-20{fill:#fcfcfc;}.cls-21{fill:#529ccd;}.cls-22{fill:#846b57;}.cls-23{fill:#fdfdfd;}.cls-24{fill:#2e7093;}.cls-25{fill:#f5e6db;}.cls-26{fill:#923942;}.cls-27{fill:#e1d2c6;}.cls-28{fill:#fbfbfb;}.cls-29{fill:#1f6474;}.cls-30{fill:#dfd0c4;}.cls-31{fill:#903b44;}.cls-32{fill:#9d775d;}.cls-33{fill:#923b44;}.cls-34{fill:#913943;}.cls-35{fill:#913b45;}.cls-36{fill:#826a58;}.cls-37{fill:#f3f3f3;}.cls-38{fill:#daccc1;}.cls-39{fill:#f1f1f1;}.cls-40{fill:#386f8e;}.cls-41{fill:#226472;}.cls-42{fill:#76675b;}.cls-43{fill:#bdb4ac;}.cls-44{fill:#aca5a0;}.cls-45{fill:#575757;}.cls-46{fill:#e2d2c6;}.cls-47{fill:#5d5c5c;}.cls-48{fill:#5c5a5a;}.cls-49{fill:#605e5e;}.cls-50{fill:#61605f;}.cls-51{fill:#636160;}.cls-52{fill:#dfd0c5;}.cls-53{fill:#656362;}.cls-54{fill:#e1d2c7;}.cls-55{fill:#666462;}.cls-56{fill:#696665;}.cls-57{fill:#f2f2f2;}.cls-58{fill:#e3e3e2;}.cls-59{fill:#c6c6c6;}.cls-60{fill:#7e6959;}</style></defs><path class="cls-1" d="M153.83,22.2l-1.31.05c.84.16,1.64.34,2.36.52,1.4,0,2.79-.06,4.17-.07C157.35,22.52,155.6,22.35,153.83,22.2Z"/><path class="cls-1" d="M224.88,558c-7.94-3-16-2.5-24.12-.81-1.47-1.35-2-3.24-2.83-4.94-9-18.86-17-38.11-24.35-57.62-1.91-5.05-3.92-10.05-5.71-15.13a3.92,3.92,0,0,1-.31-1.65,19,19,0,0,1-.39-11.93c.65-6.53,2.77-13.08.93-19.58-1.23-4.32-.11-7.45,2.71-10.42,7.67-8.08,14.87-16.59,22.41-24.79,4.94-5.35,9.9-10.72,12.84-17.63,3.92-9.23,2-18.12-.87-27-7.05-22.15-16.81-43.14-27.43-63.76-4.7-9.12-7.75-18.67-6.88-29.11.39-4.75,1.05-9.8,5.32-12.55,5.28-3.4,10.05-8.33,17.28-7.57a6.27,6.27,0,0,0,4.38-1.52c3-2.45,7.49-3.29,9.67-5.62,4.67-5,10.55-9.12,13.89-15.17,1.57-2.83,2.67-6,4.61-8.66.59-.64,1.16-1.3,1.79-1.91C258.17,191.08,265,147,244.15,110.19a279.78,279.78,0,0,0-42.24-57,187.92,187.92,0,0,1-22-26.53c-1.18-1.77-2.41-3.48-3.72-5.13q-1.74,0-3.48.21-1.52.15-3,.39a12.35,12.35,0,0,1-4.2-.07,10.28,10.28,0,0,0-2.53-.14c-.28,0-1,0-2.38,0h0c-6.92-.51-14.1-.86-21.52-1-.95,0-1.91,0-2.87,0-.14,2.68-.15,5.37-.11,8.08a93.3,93.3,0,0,1-.15,10.45c-.83,8-3.44,15.12-10.76,19.8-6.6,4.23-13,8.85-19.43,13.27C96.2,79,86.85,85.68,78.6,93.77c-9.72,9.53-17.54,20.29-21.4,33.56a10.47,10.47,0,0,1-3.46,5,167.85,167.85,0,0,0-19.56,20.34c-8.22,10-11.1,15.42-13.95,26.71-.66,2.62-1.83,6.25.71,7.71,3,1.71,4.8-1.8,6.47-3.89a100.09,100.09,0,0,1,15.92-15.82c.87-.69,1.61-1.94,3.39-1.27a48.69,48.69,0,0,0,.23,9.18c.16,1,.08,2.25,1.24,2.68,1.47.54,2.17-.72,2.93-1.63,2-2.39,3.79-5,6.33-6.9l.09,2.53c-.58,4.61.07,9.22.47,13.95-1.1-.17-1.78-.26-2.46-.38-3.77-.66-7.54-1.45-11.39-1-6.8.74-9.64,5.75-6.8,11.94a38.39,38.39,0,0,0,6.89,9.77,96.7,96.7,0,0,0,14.59,12.6c2,1.43,3.17,2.82,2.86,5.5-.82,6.87,1.31,13.06,5.08,18.72A140.2,140.2,0,0,0,87.28,268a43.09,43.09,0,0,0,21,11c6.4,1.34,12.8.94,19.23.51,1.07.06,2.14.12,3.21.16a1.63,1.63,0,0,1-.24.92,1.09,1.09,0,0,0-.75,1.19c-.8,2.79-3.27,3.29-5.56,4.06-10.91,3.71-20,10.18-26.19,19.81-11.29,17.56-22,35.49-32.89,53.32-3.56,5.83-6.68,12.05-7,18.91-.25,4.79-2,8.65-4.27,12.56-.87,1.51-1.69,3.06-2.49,4.59-1.94,3.74-3.69,7.54-3.2,11.91.2,1.73-.75,3-1.47,4.35-5.57,10.69-5.42,21.35.15,32a111.56,111.56,0,0,0,7.65,11.83c2.67,3.84,5.76,7.43,7.44,11.89a3.25,3.25,0,0,0,0,.33A36.41,36.41,0,0,1,68,480.05a6.68,6.68,0,0,1,.81,1.76c6.12,19.91,6.24,39.71-1,59.4-1.7,4.63-2.07,4.88-6.8,3.2a52.26,52.26,0,0,0-21.55-3c-7.45.56-13.3,3.68-16.76,10.65a39.4,39.4,0,0,0-4.11,16.58,4.57,4.57,0,0,0-.42,1.62,8.88,8.88,0,0,1-6.17,6,9,9,0,0,0-3.46,2.27c-6.08,6.21-10.12,13-8,22.37,1.75,7.69,7,12.58,12.7,16.57a50.29,50.29,0,0,0,29.06,8.67c8.85,0,17.68.18,26.57-.77,8.62-.92,17.41-.22,26.13-.2a12.44,12.44,0,0,1,2.58.29c6.95,1.49,13.87,3.08,20.83,4.49,13.44,2.72,27,4.92,40.74,4.65,4.18-.08,8.37-.11,12.55,0a83.37,83.37,0,0,0,24.69-3.14c9.41-2.63,17.83-7.2,24.37-14.41a72.12,72.12,0,0,0,15.35-27,36.27,36.27,0,0,0,1.19-16C236.27,566.55,232.26,560.8,224.88,558Zm-71-535.8c1.76.15,3.51.32,5.21.5l-4.17.07c-.72-.18-1.52-.36-2.36-.51C153,22.24,153.42,22.2,153.84,22.19Z"/><path class="cls-1" d="M159.05,22.7c-1.38,0-2.77,0-4.17.07-.72-.18-1.52-.36-2.36-.52l1.31-.05C155.6,22.35,157.35,22.52,159.05,22.7Z"/><path class="cls-1" d="M153.83,22.2l-1.31.05c.84.16,1.64.34,2.36.52,1.4,0,2.79-.06,4.17-.07C157.35,22.52,155.6,22.35,153.83,22.2Z"/><path class="cls-1" d="M136.59,182.57l.63.7Z"/><path class="cls-2" d="M227.82,220.58c-.63.61-1.2,1.27-1.79,1.91-1.94,2.69-3,5.83-4.61,8.66-3.34,6-9.22,10.16-13.89,15.17-2.18,2.33-6.69,3.17-9.67,5.62a6.27,6.27,0,0,1-4.38,1.52c-7.23-.76-12,4.17-17.28,7.57-4.27,2.75-4.93,7.8-5.32,12.55-.87,10.44,2.18,20,6.88,29.11,10.62,20.62,20.38,41.61,27.43,63.76,2.84,8.92,4.79,17.81.87,27-2.94,6.91-7.9,12.28-12.84,17.63-7.54,8.2-14.74,16.71-22.41,24.79-2.82,3-3.94,6.1-2.71,10.42,1.84,6.5-.28,13.05-.93,19.58a19,19,0,0,0,.39,11.93,3.92,3.92,0,0,0,.31,1.65c1.79,5.08,3.8,10.08,5.71,15.13,7.38,19.51,15.4,38.76,24.35,57.62.81,1.7,1.36,3.59,2.83,4.94a95.76,95.76,0,0,1,13.86,38.53c.68,4.87-2.42,8.43-7.81,9.48a10.17,10.17,0,0,0-7.2,4.56,12.33,12.33,0,0,1-3.81,3.55c-21.58,14-58.18,16.52-80.16-.39-4.21-3.23-7.9-6.85-9.62-12-.48-.35,1-1-.15-1.19-.28.38-.57.73-.88,1.1a10.77,10.77,0,0,1-1.12,1.12c-8.17,6-17.67,7.43-27.28,6.69a173.55,173.55,0,0,1-43.32-8.65c-13.93-4.79-17.88-11.61-15.22-26.2.22-1.17,0-2.36.14-3.52a4.57,4.57,0,0,1,.42-1.62A39.4,39.4,0,0,1,22.72,552c3.46-7,9.31-10.09,16.76-10.65a52.26,52.26,0,0,1,21.55,3c4.73,1.68,5.1,1.43,6.8-3.2,7.19-19.69,7.07-39.49,1-59.4a6.68,6.68,0,0,0-.81-1.76,36.41,36.41,0,0,0-6.13-12.67,3.25,3.25,0,0,1,0-.33c-1.68-4.46-4.77-8.05-7.44-11.89a111.56,111.56,0,0,1-7.65-11.83c-5.57-10.64-5.72-21.3-.15-32,.72-1.37,1.67-2.62,1.47-4.35-.49-4.37,1.26-8.17,3.2-11.91.8-1.53,1.62-3.08,2.49-4.59,2.24-3.91,4-7.77,4.27-12.56.36-6.86,3.48-13.08,7-18.91,10.87-17.83,21.6-35.76,32.89-53.32,6.19-9.63,15.28-16.1,26.19-19.81,2.29-.77,4.76-1.27,5.56-4.06a2.38,2.38,0,0,0,.75-1.19,1.63,1.63,0,0,0,.24-.92c-1-1.07-2.12-.46-3.21-.16-6.43.43-12.83.83-19.23-.51a43.09,43.09,0,0,1-21-11,140.2,140.2,0,0,1-20.5-24.93c-3.77-5.66-5.9-11.85-5.08-18.72.31-2.68-.9-4.07-2.86-5.5a96.7,96.7,0,0,1-14.59-12.6,38.39,38.39,0,0,1-6.89-9.77c-2.84-6.19,0-11.2,6.8-11.94,3.85-.42,7.62.37,11.39,1,.68.12,1.36.21,2.46.38-.4-4.73-1-9.34-.47-13.95.42-.86.81-1.72-.09-2.53-2.54,1.89-4.31,4.51-6.33,6.9-.76.91-1.46,2.17-2.93,1.63-1.16-.43-1.08-1.65-1.24-2.68a48.69,48.69,0,0,1-.23-9.18c-1.78-.67-2.52.58-3.39,1.27a100.09,100.09,0,0,0-15.92,15.82c-1.67,2.09-3.47,5.6-6.47,3.89-2.54-1.46-1.37-5.09-.71-7.71,2.85-11.29,5.73-16.67,14-26.71a167.85,167.85,0,0,1,19.56-20.34,10.47,10.47,0,0,0,3.46-5c3.86-13.27,11.68-24,21.4-33.56,8.25-8.09,17.6-14.8,27.11-21.3,6.48-4.42,12.83-9,19.43-13.27,7.32-4.68,9.93-11.76,10.76-19.8A93.3,93.3,0,0,0,136.05,29c0-2.71,0-5.4.11-8.08a68.22,68.22,0,0,1,.84-8c1.29-2.66,1.9-5.61,3.63-8.08,3.3-4.69,7.44-5.91,12.76-3.62a32.51,32.51,0,0,1,8.27,5.43,100.08,100.08,0,0,1,14.53,14.94c1.31,1.65,2.54,3.36,3.72,5.13a187.92,187.92,0,0,0,22,26.53,279.78,279.78,0,0,1,42.24,57C265,147,258.17,191.08,227.82,220.58Z"/><path class="cls-3" d="M130.68,279.72c-1.07,0-2.14-.1-3.21-.16a3.09,3.09,0,0,1,3.06-.81C131.06,278.87,131.2,279.3,130.68,279.72Z"/><path class="cls-4" d="M58.46,169.91a2.78,2.78,0,0,1-.92,2.11l-.09-2.53C58.21,168.64,58.43,169.26,58.46,169.91Z"/><path class="cls-3" d="M130.44,280.64a1.08,1.08,0,0,1-.75,1.19A1.09,1.09,0,0,1,130.44,280.64Z"/><path class="cls-5" d="M236.15,590.05a72.12,72.12,0,0,1-15.35,27c-6.54,7.21-15,11.78-24.37,14.41a83.37,83.37,0,0,1-24.69,3.14c-4.18-.11-8.37-.08-12.55,0-13.79.27-27.3-1.93-40.74-4.65-7-1.41-13.88-3-20.83-4.49a12.44,12.44,0,0,0-2.58-.29c-8.72,0-17.51-.72-26.13.2-8.89.95-17.72.78-26.57.77a50.29,50.29,0,0,1-29.06-8.67c-5.75-4-10.95-8.88-12.7-16.57-2.14-9.42,1.9-16.16,8-22.37A9,9,0,0,1,12,576.24a8.88,8.88,0,0,0,6.17-6,12.35,12.35,0,0,0,.42-1.62c0,4.35.09,8.71.12,13.08.05,6.94,3,11.94,9.52,14.77,8.83,3.82,18.12,6,27.53,7.73a186.41,186.41,0,0,0,19,2.94c10.58.76,20.85-.57,29.77-7.13l.3-.29a4.77,4.77,0,0,0,.75-.74h0a.68.68,0,0,1,1,.06,21,21,0,0,0,7.58,11,56,56,0,0,0,34,13c6.93.25,13.88.48,20.82-.9a79.79,79.79,0,0,0,26.14-10,11,11,0,0,0,4-4c1.45-2.76,3.18-4.45,6.46-3.94a1.82,1.82,0,0,0,.52,0c5.13-.82,8.06-4.48,7.15-9.56a96.14,96.14,0,0,0-5.08-18.55,150.71,150.71,0,0,0-6.57-15.37,7.84,7.84,0,0,1-.9-3.5c8.11-1.69,16.18-2.24,24.12.81,7.38,2.81,11.39,8.56,12.46,16A36.27,36.27,0,0,1,236.15,590.05Z"/><path class="cls-6" d="M164.18,455.6c.55,3-.74,5.84-1.07,8.76-.94,8.5,2,16.1,4.87,23.78,8.92,23.8,19.13,47.05,29.45,70.27,4,9.06,8.43,18,11.08,27.58.9,3.27,2.35,6.49,1.53,10.08a6.16,6.16,0,0,1-3.8-1.94c-17.55-14.87-37.75-24.77-59.57-31.48-4.31-1.32-6.49-3.33-7.86-7.68-4.53-14.44-9.22-28.85-15.52-42.66-5-11-11.12-21.3-19.72-29.91A42.28,42.28,0,0,0,86.28,472c-1-.31-2.1-.94-2.47.65-.24,1.06.6,1.48,1.49,1.77a7.09,7.09,0,0,1,3.57,2c10.22,9,16.1,20.88,21.83,32.85a60.34,60.34,0,0,1,5.3,18.44c-.31,11.49,1.75,22.89,1.13,34.4-.21,3.88-.9,7.49-3.16,10.79-1.33,1.94-2.64,1.93-4.35.79-1.3-.86-2.67-1.64-3.9-2.6a289.3,289.3,0,0,0-33.36-22.26c-3.73-2.16-3.75-2.24-2.17-6.43a87.4,87.4,0,0,0,6-34.13c-.6-16.78-4.84-32.6-14.14-46.8-3.24-4.94-6.55-9.84-10-14.63-5.62-7.79-6.95-16.53-6-25.8a8.28,8.28,0,0,1,2-5.23c6.77,8.9,16,13.42,26.81,15.36a54.72,54.72,0,0,0,31.17-3c8.36-3.44,16.18-8.05,24.62-11.29,2.39-.92,4.77-2.25,7.49-1.13-.71,7.6,1.63,14.45,5.15,21,.66.52.4,1.52,1.08,2h0c.58.59.39,1.57,1.07,2.1v0c1.69,2.64,3.66,5.1,5.25,7.8C153.72,453.87,157.73,457.08,164.18,455.6Z"/><path class="cls-7" d="M197.8,234.82c-.66,3.2-2.73,5.6-4.73,8a39.74,39.74,0,0,1-9,7.92c-14.5,9.4-29.62,17.66-46,23.22a55.81,55.81,0,0,1-25.19,3,41.54,41.54,0,0,1-24.08-11.46,126.58,126.58,0,0,1-20.53-25.63c-3.48-5.66-5.13-11.75-3.63-18.47.67-3,1-6.11,1.5-9.69,4.89,3.53,10.15,4.45,15.57,4.85,8.64.64,10.48-1.44,8.2-9.57a32.1,32.1,0,0,0-10.43-16.53c-6-4.93-10.1-5.13-16.78-.82-2.41-5.26-2.56-10.7-2.11-16.24.14-1.75,1.08-2.37,2.74-2.38a31.23,31.23,0,0,0,8.27-1.07,18.81,18.81,0,0,0,2.5-.69c2.14-.94,4.17-2.12,4.21-4.8s-2-3.42-4-4.15c-.49-2.44,1.41-3.42,2.94-4.43a433.38,433.38,0,0,1,53.39-29.69c4.53-2.13,8-.65,11.39,2.37,8.54,7.68,13.28,17.78,17.92,27.94.58,1.27,1,2.6,1.61,3.86,2.49,5.25,3.16,5.63,8.62,3.55,2.75-1.05,3.94.17,4.7,2.43,1.1,3.31,1.63,6.78,2.71,10.09.72,2.17,1.75,3.32,4.16,1.53,5-3.68,6.1-3.18,7.6,3.13.27,1.13,1,2.3.12,3.5.16,1.4.67,2.57,2.28,1.57,1-.62,1.66-1.78,2.56-2.59,10.3-9.29,22-13.91,36-10.55a16.61,16.61,0,0,1,7,3.34c2.76,2.35,4.13,5.26,2.59,8.82-7,16-15.87,30.3-32.79,37.62a30.55,30.55,0,0,1-8.5,2.5c-4.38.51-8.39-.11-11-4.22-1.15-1.78-2.27-2.09-3.38,0,.82,5.73,4.34,9,9.58,10.93C195.25,232.6,197.78,232,197.8,234.82Z"/><path class="cls-8" d="M188.28,144.71c-1.28-2.25-2.47-4.56-3.88-6.73-2.87-4.41-6.63-7.52-12.12-8.1a6.52,6.52,0,0,1-6.06-4.92c-1.94-6.7-6.9-8.61-13.26-8.43-4.66.13-9.4.76-13.75-1.83a5.73,5.73,0,0,0-2.56-.25c-15.09-.66-30.19-1.77-45.22.89a9,9,0,0,1-1.56,0,14.74,14.74,0,0,1-9.63-4.11c-4.42-4.18-4.93-7.28-2-12.71,6.54-7.6,14.69-13.29,22.76-19.06,8.64-6.18,17.47-12.09,26.11-18.27,5.25-3.75,10.24-7.84,14-13.21.9-1.29,1.78-2.59,2.59-3.92.65-1.06,1.37-2.53.13-3.28-1.53-.92-1.83,1-2.53,1.83-.87,1-1.27,2.43-2.18,3-.84,0-1.08-.2-1-.65,1.46-8.46.7-17,1-25.53A26.07,26.07,0,0,1,142,7.89c2.82-5.28,6.37-6.53,11.55-3.62,6.29,3.53,11.39,8.59,16.17,13.91A112,112,0,0,1,179.55,31a134.05,134.05,0,0,0,17.21,21c17.55,17.43,31.56,37.55,44.4,58.55a29.29,29.29,0,0,1,3.78,8c3.48,19.29-14.36,37.48-33.79,34.4C203,151.64,195.14,149.57,188.28,144.71Z"/><path class="cls-9" d="M184,324.8A314.52,314.52,0,0,1,203,374.34c2.65,9.32.32,17.62-5.32,25-4.53,5.92-9.53,11.48-14.6,17-8.36,9.06-16.5,18.32-24.68,27.54-2.6,2.92-3.28,2.89-6-.17a55.47,55.47,0,0,1-8-11.54c-5.4-10.61-4.47-17.89,3-26.27,4.23-4.73,9.6-8,14.68-11.62,4.09-2.94,8.27-5.76,11.67-9.55,1.64-1.81,3.28-3.69,3.93-6.05.39-1.38.13-3.06-2.1-1.66-4.53.85-7.07-1.92-9.38-5.13h0a6.5,6.5,0,0,0-1-1.09l-12.11-16.06c-.42-.55-.75-1.16-1.18-1.7a1.36,1.36,0,0,0-1.8-.48,1.3,1.3,0,0,0-.36,1.84c1.28,2,2.67,4,4,6,3.28,8.31.2,16.22-2,24-2.52,8.76-6.83,16.75-13.73,23.05-7.86,1.61-14.41,6-21,10.2a54.85,54.85,0,0,1-30.56,9.23c-12.07-.14-23.26-3.77-31.89-13.18-3.78-4.12-4.58-8.5-2.48-13.43,3.48-8.18,8-15.84,12.53-23.46A316.6,316.6,0,0,1,83.51,347.9a42.69,42.69,0,0,0,2.51-4c.47-.78.79-1.67-.26-2.22s-1.65.06-2.26.75c-2.1,1.09-3.36,3.81-6.32,3.23.88-3.82,3.65-6.58,5.56-9.81,3.58-6.07,7.38-12,11.05-18a5.82,5.82,0,0,1,2.37-2.63c3.06,2.53,5,5.47,3.32,9.62-6.85,5.87-9.2,13.48-8.52,22.23.6,7.6-.9,15.1-1,22.66,3.82,2.06,6.46-.58,9.3-2.36,1.66-1,2.62-3.35,5.15-2.81,1.18,5.18,3,10.23,3.45,15.57a2.76,2.76,0,0,0,2,2.22c2.77.47,4.13-1.66,5.53-3.29,9.49-11,13-23.65,9.81-37.95-.22-1-.55-2-.78-3-1.17-5.09-.35-6.45,5-6.33,6.73.15,13-1.34,19.5-3C160.35,325.84,172,323.25,184,324.8Z"/><path class="cls-10" d="M82.78,592.72c-14.76,0-27.6-.81-40.12-4.24a55.53,55.53,0,0,1-18.43-8.35c-2.35-1.7-3.37-3.79-3.09-6.1.63-5.17.41-10.4,1.76-15.52,3.38-12.86,14.69-15.73,23.75-14.64,16.31,2,29.85,10.07,43,19.06,6,4.13,11.82,8.62,17.86,12.75,2.16,1.47,2.87,2.73,1.26,5A20.5,20.5,0,0,0,106,588c-.57,2.43-1.74,3.26-4.21,3.65A103.84,103.84,0,0,1,82.78,592.72Z"/><path class="cls-10" d="M158,608.49c-16.94.11-31.74-3.06-45.59-10.33-4.74-2.49-4.82-2.68-3.85-8.19,1.9-10.69,11.44-23.19,23.09-25a35.88,35.88,0,0,1,16.92,1.07,176.91,176.91,0,0,1,47.44,23.72,13.94,13.94,0,0,1,2,1.63c2.66,2.74,2.19,5.71-1.22,7.52a85.76,85.76,0,0,1-24.1,8.25A61.93,61.93,0,0,1,158,608.49Z"/><path class="cls-11" d="M34.42,157.25A143.15,143.15,0,0,1,58.11,132.6c10.48-8.77,22.68-12.64,35.57-14.92,11.85-2.09,23.93-1.2,35.92-1.19a2.52,2.52,0,0,1,2.29,1c.34,1-.44,1.2-1,1.46-17.82,7.93-35.16,16.75-51.29,27.8a159.11,159.11,0,0,0-29.21,25.83c-2.28-4.32-1.3-9.16,2.37-11.84,1.4-1,2.94-1.86,4.36-2.85.72-.5,1.41-1.19.68-2.13a1.5,1.5,0,0,0-1.92-.2,56.56,56.56,0,0,0-9.62,6.2c-7.66,5.73-15.09,11.73-20.76,19.59a2.33,2.33,0,0,1-2.23,1.29c-1.18-3.4.7-6.13,2.46-8.53A77.18,77.18,0,0,1,45.41,154.9c3.63-2.39,7.29-4.72,11-7,1.32-.83,2.64-1.61,2.88-3.44-4.74.59-10.26,4-22.73,13.89-.33.37-.71.68-1.05,1h0c-.34.35-.69.69-1,1h0c-.33.35-.68.7-1,1h0c-.94.24-1.36,0-1.05-1,0-.33.05-.67.07-1,.33-.35.67-.7,1-1h0C33.75,158,34.07,157.59,34.42,157.25Z"/><path class="cls-12" d="M188.28,144.71c2.05-.24,3.68.85,5.41,1.65,6.35,3,13.05,5.15,20,5.47a28,28,0,0,0,20.15-7c8.15-7,11.77-15.7,11.12-26.31,7.32,15.12,9.58,30.94,7.47,47.61A88,88,0,0,1,236.73,206a85.58,85.58,0,0,1-12.79,14.42c-.91.83-1.9,2.53-3.37.89-1.29-1.44-.82-3,.66-4.05,5.69-4,9.47-9.67,13.07-15.42,2.4-3.83,4.51-7.84,6.61-11.84a17.34,17.34,0,0,0,2-7c.32-4.51-1.6-7.75-5.33-10a19.81,19.81,0,0,0-9.82-3.21c-6.24-.12-12.57-.85-18.58,1.57-2.43,1-3-.28-3.49-2.25-.75-2.84-.65-5.84-2-8.59-2.31-4.72-5.13-8.6-10.73-9.75C189.91,150.14,188.29,147.93,188.28,144.71Z"/><path class="cls-11" d="M181.41,164.23a81,81,0,0,0-8.75-19.41c-.37-.58-.65-1.23-1-1.85-.47-.94-1-2.11-2.16-1.93-1.36.2-1.09,1.56-1.12,2.56,0,1.22-.06,2.44,0,3.66a25,25,0,0,1-1.78,10.9c-6.93-14.44-13.69-28.46-26-38.95,5.52.74,10.78.17,16,.41a6.22,6.22,0,0,1,5.79,3.79c.57,1.27,1.31,2.46,1.83,3.75a7.37,7.37,0,0,0,6.13,5c7.82,1.11,12,6.32,14.74,13.17,1.54,3.93,3.1,7.16,8.11,8.43,6.78,1.72,11.5,12.14,9.58,18.9a3.55,3.55,0,0,1-1.47,2.07,14.86,14.86,0,0,1-1.77,1.1c-2.14,1-3.79,4.19-5.95,3.47-2.37-.79-.79-4.07-1.34-6.19-1.57-6-3.15-12.09-5.25-18a6.82,6.82,0,0,0-.4-1c-.49-.9-.9-2.06-2.2-1.86s-1.34,1.37-1.4,2.42c-.12,2.08-.16,4.17-.42,6.23A16.37,16.37,0,0,1,181.41,164.23Z"/><path class="cls-13" d="M189.4,184.58a47.84,47.84,0,0,0-3.79-9.2,33.79,33.79,0,0,1-3.57,4.18c-2.44,2.08-4.42,1.53-5.41-1.62-1.19-3.79-2-7.69-3-11.55-.22-.86-.38-1.69-1.26-2.16-1.45-.16-1.95,1.24-3,1.81-3.49,2-5.79,1.41-7.63-2.27-3.1-6.21-5.9-12.57-9-18.79a56.8,56.8,0,0,0-11.48-15.34c-3.47-3.4-7-4.31-11.57-1.79-6.39,3.52-13.15,6.37-19.54,9.9-10.92,6-21.83,12.11-32.19,19.1-1.46,1-3,1.8-3.78,3.45l-4.08.21c-1.21.45-2.37.8-2.28-1.2C78,150.13,89.56,143,101.45,136.46c10-5.55,20.46-10.4,30.8-15.4,2.65-1.28,4.55-1.26,6.95.78,7.44,6.33,12.86,14.15,17.46,22.59,2.57,4.73,4.72,9.69,7.05,14.55.45.94.88,1.89,1.3,2.85.37.8.77,1.65,1.79,1.65s1.41-.83,1.72-1.68a33.73,33.73,0,0,0,2.1-8.05c.15-1.33-.16-2.81,1.4-4.52,3.76,6.69,6.62,13.29,6.93,20.87.06,1.59-1.09,4.16.93,4.59,2.51.52,2.45-2.45,3-4.06,1.08-3.06,1.78-6.26,2.88-10.33,2.69,7.7,4.48,14.69,4.73,22A2.64,2.64,0,0,1,189.4,184.58Z"/><path class="cls-14" d="M111.55,601.23c1.78.6,3.58,1.07,5.25,1.81,9.26,4.09,18.77,7,29,7.56,3.6.2,7.17,1,10.84.93a113.64,113.64,0,0,0,36.89-7.88c.65-.25,1.24-.66,1.9-.87,1.67-.54,2.57.38,2.2,2.14s-1.65,2.63-2.77,3.69c-5,4.66-11.25,6.87-17.54,8.77-8.47,2.56-17.19,4.27-26.12,3.53-14.51-1.22-28-5-38.29-16.24a14.16,14.16,0,0,1-1.59-2C111.18,602.43,111.4,602,111.55,601.23Z"/><path class="cls-14" d="M104.51,593.93c.62,4.65-3.43,5.65-6.22,6.83a42.77,42.77,0,0,1-16.15,3.58c-16.92.21-33-3.66-49-8.45a17.83,17.83,0,0,1-8.76-5.43c-1.76-2.07-3-4.28-2.14-7.6,3.61,1.64,7.17,3.13,10.61,4.85,7.27,3.64,15.21,4.6,23,6.06,6.39,1.19,12.81.87,19.23,1.06,3.45.11,6.81,1.08,10.34,1.06C91.88,595.86,98.18,594.73,104.51,593.93Z"/><path class="cls-15" d="M172.07,301.41c-3.18.27-5.93.58-8.68.73-11.19.62-20.73,6.67-31.28,9.39a61.55,61.55,0,0,0-7,2c-1.81.7-2.87.06-4.13-1.11-1.6-1.47-1.35-2.64.21-3.78,3.37-2.44,6.6-5.14,10.2-7.17a226.48,226.48,0,0,1,28.88-13.3,21.56,21.56,0,0,1,4.53-1.1c1.25-.19,2.61.08,3.07,1.42C169.33,292.73,170.64,297,172.07,301.41Z"/><path class="cls-16" d="M110.35,377.37c-2.23-10.21-5.48-18.89-6.34-28.12a23.93,23.93,0,0,1,3.39-15.47,5.13,5.13,0,0,1,8.52.06c6.74,10.64,8.25,21.57,1.67,32.92A89.1,89.1,0,0,1,110.35,377.37Z"/><path class="cls-17" d="M184,324.8a9.41,9.41,0,0,1-4.53,1,121.83,121.83,0,0,0-36.75,6.33,27.15,27.15,0,0,1-8.23,1c-3.11.07-6.24-.4-9.17.28-.8,1.29-.11,2.25.19,3.19,5,15.69,1.92,29.84-8.09,42.67-3,3.77-4,4.19-7.56,3.08a58,58,0,0,0,12.9-19.95c3.34-9.1,2.35-18.1-2.25-26.66-.5-.91-1.09-1.78-1.65-2.65a2.58,2.58,0,0,1,.13-3.35c.84-1,1.77-1.59,3.16-1,7.3,3,14.06.16,20.65-2.36a82.47,82.47,0,0,1,21.68-5c4.32-.42,8.63-.65,13-1C180.89,320.21,183.13,321.31,184,324.8Z"/><path class="cls-18" d="M166.2,279.72c.28,2,1,3.67-2.18,4.64-13.89,4.21-27.15,9.93-39.25,18.08-.57.39-1.2.7-1.85,1.07.63-4.3,6.08-15.49,11-22.71,5.89-1.9,11.53-4.49,17.63-5.79a29.05,29.05,0,0,1,10.23.05C164.79,275.47,165.86,277.11,166.2,279.72Z"/><path class="cls-19" d="M138.13,415.76c-11,2.93-20.62,9.06-31,13.48-15.73,6.7-31.22,5.44-46.54-1-5.68-2.38-10.52-6.11-12.57-12.42,1.38-3.17,1.4-3.19,3.47-1.26,2.67,2.48,5.05,5.24,8.19,7.24a49.64,49.64,0,0,0,25,7.7c13.3.62,24.87-3.9,36-10.5,5.35-3.2,10.42-7,16.76-8.13a2.21,2.21,0,0,1,2.23.4A6,6,0,0,1,138.13,415.76Z"/><path class="cls-19" d="M116,527.75c-1.31-1.09-1.46-2.76-1.82-4.2-4-15.72-11.92-29.34-21.78-42-1.27-1.62-2.36-3.39-3.53-5.1,5.25,1.33,9.31,4.81,12.83,8.45A87.81,87.81,0,0,1,117,506.41a11,11,0,0,1,.86,7.52A78.43,78.43,0,0,0,116,527.75Z"/><path class="cls-20" d="M176.8,311.08c-18.77-1.13-35.61,5.47-52.9,10-1.05-2.52-.91-4.06,2-4.75a159.62,159.62,0,0,0,26.1-8.89c6.38-2.72,13.24-2.74,20-2.71C175.84,304.73,175.5,308.26,176.8,311.08Z"/><path class="cls-21" d="M78.22,98.52c-1.57,7.91.4,11.53,8,15.06,1.22.57,2.79.47,3.66,1.76-7.89,2-15.74,4-23,7.91-1.9,1-3.54,2.63-6.53,3.26C64.24,115.34,69.9,106.1,78.22,98.52Z"/><path class="cls-22" d="M191.41,249c4-4,6.9-7.58,8.76-11.94a16,16,0,0,1,.89-2.43c1.47-2.29-.43-6.17,1.9-7.24,4.23-1.92,8.47-3.86,12.72-5.75a1.17,1.17,0,0,1,1.81,1.1c0,2.4,1,4.77.15,7.19-.59,1.7-1.21,3.3-3.5,3.06-2.86-.3-4,1.63-4.78,3.86a34.88,34.88,0,0,0-1.12,3.46c-.45,1.73-1.48,2.91-3.28,2.72-3.61-.37-5.77,1.54-7.78,4.17C195.79,249,195.6,248.89,191.41,249Z"/><path class="cls-23" d="M92.9,364.33c1.6-7.28.79-14.25,1-21.19a23.83,23.83,0,0,1,2.41-10.07,12.26,12.26,0,0,1,5.29-5.6c1.35-.71,2.48-1,3.68.43a2.53,2.53,0,0,1,.16,3.66,23.7,23.7,0,0,0-3.92,17.92c.75,4.92-1,8.42-4.14,11.7C96.33,362.3,95.46,363.66,92.9,364.33Z"/><path class="cls-24" d="M129.19,326.81c-1.86-.13-3.85.48-5.57-.66a2.18,2.18,0,0,1-.75-1.23c-.15-.64.43-.92.92-1,12.82-2.92,25.13-8,38.27-9.43,4.56-.5,9.26-1.15,13.92-.27a13.55,13.55,0,0,1,2,.3,1.73,1.73,0,0,1,1.39,1.9c-.12.93-1,1-1.6,1-3.5-.17-6.88.87-10.32,1a75.64,75.64,0,0,0-26.72,5.93C137.13,325.78,133.38,327.44,129.19,326.81Z"/><path class="cls-25" d="M53.16,192.94c-1.9,0-3.86-.35-5.52,1s-3.1,2.9-1.72,5.3c.75.51,1.45.63,2-.22l0,0c4.24-2,7.07.41,9.19,3.44,2.3,3.28,3.53,7.06,1.61,11.1-.25.51-.87.41-1.37.31a57.77,57.77,0,0,1-16.63-17.09c-3.45-5.54-1.58-9.1,4.85-9.28,3.29-.09,6.64-.25,9.75,1.27C55.7,190.72,56.12,192.7,53.16,192.94Z"/><path class="cls-26" d="M138.07,407.41c-.06-2.39,2-3.56,3.17-5.18,9-12.52,13-26.51,12.59-41.84,1.67,2.2,3.3,4.44,5,6.6a2.33,2.33,0,0,1,.22,3.23c-4.4,6.43-5.82,13.69-5.26,21.32.25,3.48-.71,5.84-3.78,7.78-2.29,1.46-4.13,3.72-6,5.81A6.22,6.22,0,0,1,138.07,407.41Z"/><path class="cls-27" d="M166.2,279.72c-1.1-.66-.75-2.81-2-2.79-3.44.06-6.54-2-10.16-1.05a85.4,85.4,0,0,0-14.24,4.43c-1.77.8-3.77,2-5.85.49.21-1.4.45-2.75,2.1-3.23,11-3.19,21.18-8.47,31.8-13.88.35,3.22-1.16,5.65-1.34,8.25S166.3,277.12,166.2,279.72Z"/><path class="cls-23" d="M120.39,319.89c-.16,5.18-3.77,9.21-8.1,9.05-3.49-.13-7-4.6-6.68-8.63.29-4.38,4.57-7.65,9.62-7.35C118.79,313.17,120.52,315.49,120.39,319.89Z"/><path class="cls-24" d="M125.72,288.19c-3.17,7.27-5.9,13.55-8.66,19.81-.52,1.17-1.33,2.1-2.77,1.86s-1.42-1.4-1.62-2.38c-.63-3-1.23-6.06-1.76-9.11a3,3,0,0,1,1.32-3.12C116.13,292.41,120.47,290.53,125.72,288.19Z"/><path class="cls-28" d="M70.7,210.68c-3.18-1.55-4.51-3.44-5-6.55s0-6.44-.84-9.65c-.57-2.19,1.34-4.26,3.8-4.81a8.34,8.34,0,0,1,6,.91c1.49.82,1.91,1.54.93,3.24C71.12,201.66,71.18,201.69,70.7,210.68Z"/><path class="cls-29" d="M164.18,455.6c-6.14,3-7.68,2.62-11.82-2.71-2.87-3.7-6-7.24-7-12,2.66,1.67,4.46,4.26,6.74,6.34,3.09,2.83,4.44,2.83,7.36-.09.48-.48.86-1.07,1.35-1.56,1.51-1.52,2.94-1.28,3.14.75C164.3,449.39,164.14,452.5,164.18,455.6Z"/><path class="cls-30" d="M57.35,213.86c2.81-6.5-1.22-13.68-8-14.28a5.63,5.63,0,0,1-1.42-.57c1.74-3.55,3.4-4.14,6.69-2,6.15,4,10.79,8.74,8.23,17a15.18,15.18,0,0,0-.32,2.56,3.34,3.34,0,0,1-.32.69A8.76,8.76,0,0,1,57.35,213.86Z"/><path class="cls-31" d="M77.18,345.7c2.11-1.07,3.78-3,6.32-3.23C76,352.8,69.54,363.82,62,374.17,64.72,363.42,70.83,354.49,77.18,345.7Z"/><path class="cls-32" d="M119.33,544.52c1.82,3.22.7,6.73.91,10.1.28,4.43.82,5.13,5.23,4.5,3.55-.5,7.06-1.33,10.59-2,1.21,1.16,1.27,2.73,1.73,4.93-6.44.07-12.71.68-18.46,6.19Z"/><path class="cls-27" d="M197.8,234.82c-.77-1.21-2-1-3.19-1.2-5.34-.88-8.73-4.31-11.15-8.85a2.64,2.64,0,0,1,.68-3.66,13.14,13.14,0,0,0,10.71,7c4.48.53,4.64.86,3.72,5.37A4.84,4.84,0,0,1,197.8,234.82Z"/><path class="cls-33" d="M104.42,364.58c-2.88,1.81-4.79,4.81-8.08,6.22-2.55,1.1-4.55,1.14-6.37-1.05,4.4-.33,6.6-3.91,9.4-6.52a36.36,36.36,0,0,1,3.52-3.56Z"/><path class="cls-34" d="M99.48,324.86c-.06-3.57-2.3-6.38-3.32-9.62,1.71-3.42,1.47-3.15,3.82-1.13,2.77,2.39,2.48,5.55,2.83,8.52C103.08,324.9,100.9,324.56,99.48,324.86Z"/><path class="cls-35" d="M166.26,371.86c3,1.88,5.85,4.16,9.38,5.13-1.44,2.48-2.8,5-5.88,7.19C170,379.29,166.46,376.15,166.26,371.86Z"/><path class="cls-36" d="M62.41,168.85c3-4.41,7.69-6.25,11.3-5.2.49.14,1.09.31,1,1a2.13,2.13,0,0,1-.57,1.31,6.41,6.41,0,0,1-4.2,1.75A23.66,23.66,0,0,0,62.41,168.85Z"/><path class="cls-37" d="M108.35,299.31c.54,3.55,1.08,6.88,1.52,10.22a1.5,1.5,0,0,1-.56,1.26c-.7.4-1.29,0-1.67-.67-.7-1.19-1.41-2.38-2.08-3.59C103.31,302.43,103.32,302.43,108.35,299.31Z"/><path class="cls-38" d="M53.16,192.94c1.5-1,1.2-2.92,2.16-4.18,5.19-.3,4.75,3.85,5.55,7,.2,1.14-.32,1.52-1.39,1.32Z"/><path class="cls-39" d="M78.1,198.55c.2-.93.34-1.77.58-2.58.09-.27.48-.67.68-.64,2.38.3,2.94,2.51,4.06,4.08a1.62,1.62,0,0,1-.51,2.61,3,3,0,0,1-4-1.14A8.9,8.9,0,0,1,78.1,198.55Z"/><path class="cls-40" d="M101.56,306.1c1.82,2,3.3,3.89,3.87,6.25.22.91-.35,1.9-1.37,1.47a8.22,8.22,0,0,1-3.78-4C99.52,308.39,99.94,307.25,101.56,306.1Z"/><path class="cls-41" d="M208.11,600.32c-1.92.71-3.75,2.38-5.33,1.22-1.93-1.41-.36-3.38.42-5.19A6.15,6.15,0,0,1,208.11,600.32Z"/><path class="cls-42" d="M32.3,160.37l1.05,1c-1,2-2.84,3.23-4.65,4.53C29.54,163.83,30.17,161.63,32.3,160.37Z"/><path class="cls-43" d="M67.88,159.31c.46,1,1.42,1,2.28,1.2a7.51,7.51,0,0,1-1.73.81c-.7.14-1.78.61-2-.41S67.12,159.61,67.88,159.31Z"/><path class="cls-44" d="M59.48,197.11l1.38-1.32c.75.79,1.31,1.91.38,2.6C60.57,198.89,59.86,197.88,59.48,197.11Z"/><path class="cls-29" d="M145.42,440.9a2,2,0,0,1-1.07-2.1A2.19,2.19,0,0,1,145.42,440.9Z"/><path class="cls-29" d="M144.36,438.81a2.06,2.06,0,0,1-1.08-2A2.11,2.11,0,0,1,144.36,438.81Z"/><path class="cls-30" d="M48,199c-.55,1.25-1.24,1.26-2,.22Z"/><path class="cls-35" d="M165.27,370.78l1,1.09Z"/><path class="cls-42" d="M34.42,157.25l-1,1.07Z"/><path class="cls-42" d="M33.37,161.42c.35-.34.69-.68,1-1C34.06,160.74,33.72,161.08,33.37,161.42Z"/><path class="cls-42" d="M34.42,160.38l1-1Z"/><path class="cls-14" d="M106.62,599c-.33,0-.67-.06-1-.06C106,598.2,106.33,598.25,106.62,599Z"/><path class="cls-42" d="M35.47,159.34l1.05-1Z"/><path class="cls-14" d="M105.6,599l-1,1Z"/><path class="cls-42" d="M33.39,158.32l-1,1Z"/><path class="cls-45" d="M114.08,207.08a61.83,61.83,0,0,1,1.81-12.53c2.92-10.14,12.49-14.79,22.17-10.57a21.85,21.85,0,0,1,13.16,16.43,9.52,9.52,0,0,1-3.38,9.85c-8.32,6.7-17.48,9.89-28.17,6.27C114,214.62,113.81,214.47,114.08,207.08Z"/><path class="cls-46" d="M232.27,184.47c1.51,1.83,1.73,3.49-1,4.17-2.41.61-4.92,2.06-7.32-.27a3.47,3.47,0,0,0-3.45-.52c-2.5.67-5,1.33-7.46,2.14-2.26.75-3.77,2-3.94,4.79-.23,4-2.81,6.93-5.86,9.93,2.05,1.25,3.31,2.79,2.71,5.12-2.47,2.35-5.35,3-7.88.58s-2.08-5.53-.23-8.12c2.63-3.68,5-6.87,6.08-11.9,1.17-5.57,8.13-7.26,13.93-8.29C223,181.2,227.54,183.27,232.27,184.47Z"/><path class="cls-47" d="M232.27,184.47c0,1,.58,2.26-.47,2.91s-1.4-.43-2-1.06c-4.45-4.57-9.89-3.39-15.16-2.25a20,20,0,0,0-7.4,3.79c-2,1.44-4.15,2.55-2.48,5.8.94,1.84-.39,3.7-1.81,5.11-1.23,1.23-2.6,2.33-3.8,3.58A5.12,5.12,0,0,0,198,208.6c1.31,2.48,3.55,2.41,5.9,1.53a9.13,9.13,0,0,1,2-.3c-.74,3.3-2.55,4.46-5.73,3.68-5.48-1.34-7.57-7.8-3.91-12.44,1.17-1.47,2.83-2.55,4.13-3.94s2.5-2.73.13-4.19c-1.49-.91-1.14-2.11-.21-3,6.85-6.73,14.63-11.13,24.69-9.32A13.29,13.29,0,0,1,232.27,184.47Z"/><path class="cls-48" d="M150.87,165.57c-6.44-.82-12.46-1.54-18.47-2.38A10.06,10.06,0,0,1,129,162a4.64,4.64,0,0,1-2.28-5.77c.9-2.25,2.85-2.5,4.78-2.09a122.69,122.69,0,0,1,17.58,4.66,7.69,7.69,0,0,1,3.55,2.95c.72,1,1.57,2.13.77,3.31C152.73,166,151.47,165.58,150.87,165.57Z"/><path class="cls-49" d="M103.08,254a38.55,38.55,0,0,1-14.76-3.16c-.85-.33-1.54-1.06-1.09-2a1.59,1.59,0,0,1,1.87-.55c2.68.72,5.36,1.43,8,2.23,6.08,1.85,11.66.59,17-2.58,1.79-1.06,3.58-2.13,5.38-3.17a5.92,5.92,0,0,1,4-.63c.71.13,1.38.48,1.47,1.26a1.23,1.23,0,0,1-1.19,1.4c-3.53.13-6.07,2.44-8.9,4C111,253,107,254.33,103.08,254Z"/><path class="cls-50" d="M92.89,242c-4.23.22-7.54-1.3-9.16-5.37s-.64-7.81,1.89-11.24a7.68,7.68,0,0,1,4.73-3c1.07-.23,2.2-.12,2.49,1.18.24,1.07-.6,1.52-1.51,1.69-4,.77-5.15,3.87-5.42,7.27-.38,4.89,3.36,7.19,8.15,5.23,1.1-.54,2-.42,2.44.84s-.35,1.93-1.32,2.46h0C94.5,241.59,93.57,241.47,92.89,242Z"/><path class="cls-51" d="M133,180.08c-1.26-.34-3.88,1.41-4.06-1.11-.15-2.15,2.54-1.79,4.16-1.86a23.12,23.12,0,0,1,20.37,9.48c.62.8,1.41,1.63,1.32,2.74s-.8,1.7-1.75,1.11a9.21,9.21,0,0,1-2.08-2.26C146.48,182.4,140.55,179.77,133,180.08Z"/><path class="cls-52" d="M95.18,241c1-1.56,1.91-3.09-1.12-3.3l0-2c1.06-2.24,2.61-1.72,4.3-.83,6.13,3.22,6.13,3.2,11-1.51a4.46,4.46,0,0,1,1.34-.77c1.68,4.06-.53,8.77-4.81,9.22C102.41,242.25,98.65,242.78,95.18,241Z"/><path class="cls-53" d="M110.78,232.65a10.66,10.66,0,0,1-2.28,4c-2.84,3.07-5.91,3.38-9.09.64-1.61-1.4-2.94-3.09-5.32-1.55-1.63-1.63-1.06-2.83.88-3.42s3.64.31,5.22,1.56c3.82,3,4,3.1,7.23-.83C108.63,231.62,109.49,231.51,110.78,232.65Z"/><path class="cls-54" d="M107.38,256.92a4.49,4.49,0,0,1,2,5.3c-.7,2.12-3,2.62-5.14,2.83-.51.05-1,0-1.55,0-4.76,0-5.06-.26-5.46-5.24C100.53,258.57,104.92,261.1,107.38,256.92Z"/><path class="cls-55" d="M72.62,178.89a3.12,3.12,0,0,1,.93.06c1.43.31,3.79-.1,3.65,1.94-.18,2.62-2.31,1-3.64.86-3.16-.42-5.74.78-8.13,2.67-.72.57-1.54.94-2.25.05s-.31-1.62.34-2.28C65.86,179.84,68.75,178.9,72.62,178.89Z"/><path class="cls-56" d="M107.38,256.92c.81,1.83.1,2.88-1.71,3.45a11.13,11.13,0,0,1-8.44-.53c-.21-1.91.79-2.49,2.49-2.18C102.35,258.16,104.86,257.5,107.38,256.92Z"/><path class="cls-52" d="M92.89,242a2.7,2.7,0,0,1,2.27-.91A2,2,0,0,1,92.89,242Z"/><path class="cls-20" d="M144.53,195.9l-2.28-2.29a2.26,2.26,0,0,1-1-.78c-1-.38-1.92-.82-2.91-1.12-6.93-2.14-12.44.55-14.93,7.41a36.4,36.4,0,0,0-2,10.7c-.07,1.2-.23,2.39-.35,3.65-2.84,0-4.4-.92-4.12-4,.34-3.8.52-7.6,1-11.41,1.73-13.11,15-16.32,23.77-8.47a22.26,22.26,0,0,1,1.71,1.93,2,2,0,0,0,1,1.25l0,0a7.83,7.83,0,0,0,.9,1.18l0,0C146.15,195.07,146,195.78,144.53,195.9Z"/><path class="cls-57" d="M135.36,193.9c2.56,0,4.88,1.67,4.74,3.5s-.25,3.67-2.66,3.73c-2.05.05-3.91-2.66-3.92-5.38C133.51,194.43,134,193.82,135.36,193.9Z"/><path class="cls-58" d="M144.53,195.9c.72-.45.74-1.2.8-1.93a6.7,6.7,0,0,1,2.24,4c.36,1,1,2.18-1,2.16C145.91,198.69,145.22,197.3,144.53,195.9Z"/><path class="cls-59" d="M146.59,200.09c.84-.49.83-1.36,1-2.16,1.1,2.95,1.1,2.95.73,6.85C147,203.2,147.06,201.54,146.59,200.09Z"/><path class="cls-58" d="M145.31,193.93a1.39,1.39,0,0,1-.9-1.18A1.18,1.18,0,0,1,145.31,193.93Z"/><path class="cls-58" d="M141.25,192.83a1.06,1.06,0,0,1,1,.78A1,1,0,0,1,141.25,192.83Z"/><path class="cls-58" d="M144.44,192.79a1.38,1.38,0,0,1-1-1.25A1.4,1.4,0,0,1,144.44,192.79Z"/><path class="cls-60" d="M147.6,162.41c-5.2-.7-10.4-1.36-15.58-2.15a4.9,4.9,0,0,1-2.14-1.33,1.67,1.67,0,0,1-.51-1.31c.17-.81.87-.92,1.62-.73L147.75,161Z"/></svg>
