<svg id="Layer_1" data-name="Layer 1" xmlns="http://www.w3.org/2000/svg" xmlns:xlink="http://www.w3.org/1999/xlink" width="1920" height="1080" viewBox="0 0 1920 1080"><defs><style>.cls-1{fill:#3fa9f5;opacity:0.6;}.cls-2{opacity:0.23;}.cls-3{opacity:0.1;}.cls-4{fill:#089655;}.cls-5{fill:#007a4d;}.cls-6{fill:#ccc;}.cls-7{fill:#ffb611;}.cls-8{fill:#603813;}.cls-10,.cls-11,.cls-12,.cls-13,.cls-9{stroke:#603813;}.cls-10,.cls-11,.cls-12,.cls-13,.cls-16,.cls-18,.cls-20,.cls-21,.cls-22,.cls-24,.cls-9{stroke-miterlimit:10;}.cls-9{stroke-width:12px;fill:url(#linear-gradient);}.cls-10,.cls-11,.cls-12,.cls-13{stroke-width:8px;}.cls-10{fill:url(#linear-gradient-2);}.cls-11{fill:url(#linear-gradient-3);}.cls-12{fill:url(#linear-gradient-4);}.cls-13{fill:url(#linear-gradient-5);}.cls-14{fill:url(#linear-gradient-6);}.cls-15{fill:#fcee21;}.cls-16,.cls-26{fill:#e6e6e6;}.cls-16,.cls-20,.cls-24{stroke:#000;}.cls-16,.cls-24{stroke-width:2px;}.cls-17{fill:#563104;}.cls-18,.cls-21,.cls-22,.cls-24{fill:none;}.cls-18,.cls-22{stroke:#ff1d25;}.cls-18,.cls-20,.cls-21,.cls-22{stroke-linecap:round;}.cls-18{stroke-width:13px;}.cls-19{fill:#de3832;}.cls-20,.cls-25{fill:#002395;}.cls-20{stroke-width:0.75px;}.cls-21{stroke:#de3832;}.cls-23{fill:#bdccd4;}.cls-27{fill:#1a1a1a;}.cls-28{fill:#c7b299;}.cls-29{fill:#4d4d4d;}.cls-30{fill:#f3f3f3;}</style><linearGradient id="linear-gradient" x1="0.5" y1="925" x2="452.5" y2="925" gradientUnits="userSpaceOnUse"><stop offset="0" stop-color="#fff" stop-opacity="0"/><stop offset="1" stop-opacity="0"/></linearGradient><linearGradient id="linear-gradient-2" x1="130.5" y1="885" x2="170.5" y2="885" xlink:href="#linear-gradient"/><linearGradient id="linear-gradient-3" x1="237.5" y1="958.15" x2="293.29" y2="958.15" xlink:href="#linear-gradient"/><linearGradient id="linear-gradient-4" x1="299.5" y1="999" x2="350.5" y2="999" xlink:href="#linear-gradient"/><linearGradient id="linear-gradient-5" x1="13.5" y1="842" x2="41.5" y2="842" xlink:href="#linear-gradient"/><linearGradient id="linear-gradient-6" x1="-0.5" y1="976.5" x2="360.5" y2="976.5" gradientUnits="userSpaceOnUse"><stop offset="1" stop-opacity="0.4"/><stop offset="1" stop-color="#fff" stop-opacity="0"/></linearGradient></defs><title>Artboard 1</title><path id="himmel" class="cls-1" d="M-.5-1h1920V520L-.5,560Z"/><g id="linijer_himmel" data-name="linijer himmel"><g class="cls-2"><image width="1992" height="244" transform="translate(-39 62)" xlink:href="Artboard%2011.png"/></g><g class="cls-2"><image width="1992" height="176" transform="translate(-39 245)" xlink:href="Artboard%2012.png"/></g><g class="cls-2"><image width="1992" height="180" transform="translate(-36 -93)" xlink:href="Artboard%2013.png"/></g><g class="cls-3"><image width="1992" height="180" transform="translate(-39 167)" xlink:href="Artboard%2014.png"/></g></g><path id="grund" class="cls-4" d="M1919.5,487c-156.24-42.52-287.74-71.76-375.5-90-49.35-10.26-101.09-20.3-170-23-69.69-2.73-97.56,4.37-193,13-232.84,21.06-241.93-1.41-353.5,29-74.32,20.26-89.6,33.35-161.5,42-64.25,7.73-92-1.06-176,3-50.53,2.44-84.93,7.78-160,20-99.38,16.18-210.93,34.83-333,56l3,546H1920C1917.67,884,1921.83,686,1919.5,487Z"/><path id="bjreg_hus" data-name="bjreg hus" class="cls-5" d="M0,530.5c99.15-15.19,175.17-20.2,229-32,61.3-13.44,85.59-27.65,135.5-35.5,38.35-6,109.7-10,191.5-7.5,61.45,1.86,156.78,12.46,270,58q2.5,286,5,572l-831-3H0C8,900.17-8,712.83,0,530.5Z"/><path id="bjerg_1" data-name="bjerg 1" class="cls-6" d="M1830.5,464c-92-65.67-184-137.33-276-203l-143,74c36,20,72,43,108,63C1623.17,419,1726.83,443,1830.5,464Z"/><path id="bjerg_2" data-name="bjerg 2" class="cls-6" d="M1522.5,398l-216-137-169,84c17.67,12.33,33.33,29.67,51,42C1299.17,392.33,1411.83,392.67,1522.5,398Z"/><path id="bjerg_3" data-name="bjerg 3" class="cls-6" d="M839.5,413l203-121c51.67,30.67,124.33,62.33,176,93-90,7.29-200.93,13.58-290.9,20.86Z"/><path id="træ_grund" data-name="træ grund" class="cls-7" d="M-5,681.5c90-51.94,165-71.21,218-79,32.66-4.8,50.64-4.33,116-14,26.91-4,45.17-7.21,150-27,117.65-22.21,125.8-24,152-28,59-9,103.43-12.81,141-16,62.49-5.3,169.59-14.09,303-11,160.39,3.71,280,22.76,407,43,124.66,19.86,176.36,24.39,243,46,83.23,27,152.5,63.21,195.5,88.5,1.33,133.67-1.83,264.83-.5,398.5H0Q-2.5,882-5,681.5Z"/><g id="træ"><path class="cls-8" d="M1552,555.5c-10.7-4.58,16.42-17.45,18-40,.87-12.49-4.36-15.11-4-29,.46-17.8,9.43-27.72,14-38,11.63-26.15,0-58.92-14-78-6.76-9.17-17.93-20-49-32-34.39-13.32-56.82-14.1-111-20-118.53-12.9-134.14-22.57-142-31-19.39-20.8-26.6-23.87-41-30a76.43,76.43,0,0,0-10.91-4c-9.94-2.28-15.57-.13-19.09-4-1.73-1.91-3.17-5.51-2-8,4.19-8.94,44.06-7.8,68,13,7.67,6.66,7.87,10.28,16,15,15.62,9.08,32.56,6,41,5,10.59-1.28,13,.05,77,14,11.12,2.42,19.11,4.11,23.51,5.09C1509,314.13,1555.23,324.4,1559,315.5c2.37-5.6-8.25-17.63-35-37-29-21-28-56-40-64-17.37-11.58-29.46-3.16-42-17-10.68-11.8-15.9-32.85-8-38,5.61-3.66,13-3.49,16,0s2.6,6.2,5,15c2.33,8.54,4.88,17.88,12,22,6.88,4,16.5,2.21,17,0,.34-1.5-3.59-2.86-8-6-11.56-8.24-20-24.16-16-30,2.83-4.14,12.6-4.22,17,0,3,2.91,1.63,6.06,4,14,.52,1.75,4.71,15.77,10,16,4.46.2,5.32-9.61,15-21,1.18-1.39,15.12-17.54,23-14,4.59,2.06,6.42,10.5,5,17-2.35,10.73-12.91,13.22-12,19,1.1,6.95,16.7,5.41,20,14,3.59,9.33-12.38,17.59-9,29,.6,2,6.07,7.35,17,18,5.35,5.21,6.11,5.79,8,8a67.92,67.92,0,0,1,11,18c4.62,10.54,43,40,59,51,9.4,6.46,31-17,44-33,13.87-17.07-10.85-40.57-18-49-17.37-20.46-29.82-16.31-54-38-17.94-16.09-37.12-41.73-31-51,3.71-5.61,17.41-6.3,22-1,1.73,2,1.22,3.76,2,8,1.45,7.93,6.67,20.45,16,23,3.93,1.07,10.18.81,14-3,7.64-7.63-2.1-21.9,5-29,4.33-4.33,13-4,18-1,7.23,4.33-.48,17,3,42a36.81,36.81,0,0,0,5,15,35.8,35.8,0,0,0,11,11c12.62,8.56,26.67,27.67,31,40,9.51,27.06-8,55-9,61-.84,5,41,4,50-2,4.39-2.93,9.19-4.86,14-12,13.23-19.65,29.34-20.71,30-30,.48-6.82-8.12-7.57-17-19-17.51-22.54-7.38-49.63-22-56-2.8-1.22-3.66-.44-8-1-27.15-3.51-51.39-41.62-45-50,4-5.2,21.59-1.43,31,8,4.2,4.21,3.51,6.3,10,16,6.76,10.11,13.38,20,19,19,4.8-.86,5-7.58,15-21,4.69-6.28,10.63-14.23,14-13,3.56,1.3,4,12.73,1,22-2.84,8.77-7.29,11.35-6,14,1.91,3.91,17.44,4.18,28-4,9.71-7.52,8.21-16.76,17-20,6.32-2.33,14.87-.43,17,4,3.14,6.53-7.83,18.25-16,24-3,2.14-18.54,12.5-36,9-5.91-1.19-10.76-3.7-12-2-1.56,2.15,4.29,8.78,7,12,22.71,26.95,17,42.07,30,47,15.36,5.83,25.79-14.34,58-17,3-.25,6.66-.39,10-3,11.32-8.85.7-31.92,8-36,6.35-3.55,24.15,8.41,24,20-.15,11.37-17.52,19.35-16,22s17.93-9,28-3c8.93,5.29,10.89,23.26,5,28-2.13,1.71-4.47,1-11,1-9.73-.05-9.3,1.38-20,2-13.37.78-14.53-1-22,1-7.28,2-10.92,4.94-13,8a26.32,26.32,0,0,0-2,4,59.66,59.66,0,0,1-9,13c-7.88,8.53-27.67-5.49-43,1-21.37,9.05-17.94,51.13-34,53-3.69.43-18.12-3.63-21-4a703.41,703.41,0,0,0-90-6c-5.42,0-7.22,11-9,18a50.31,50.31,0,0,0-1,18c1.75,20.55-3.66,20.62-4,51-.24,20.82,2.25,25.29-1,37a118.13,118.13,0,0,0-3,15c-1.48,10.79-.66,15.36,1,19,1.85,4.07,3.27,3.72,5,7,4.9,9.3-3.46,17.9-4,31-.65,15.73,14.85,27,8,27C1636,576.5,1580,567.5,1552,555.5Z"/><path class="cls-8" d="M1417,293.5c-3.78-5.32-9.91-16.51-16-25-22.11-30.81-24.23-33.11-28-36-16.49-12.67-34.53-13.71-34-19,.21-2.14,3.23-2.65,7-5,16.53-10.28,19.28-38.09,17-39-1.21-.48-5.13,6.17-7,10-4.31,8.81-2.62,12.47-7,19-3.45,5.14-8.56,8.95-10,8s1.83-4.84,1-10c-1.4-8.69-13.43-16.55-21-14-2.64.89-5.32,3.25-5,5,.37,2.05,4.58,1.67,8,4,6.06,4.13,8.74,16.17,4,22-5.14,6.32-18.37,4.54-26-1-9.73-7.06-9-19.25-16-20-3.68-.39-7.88,2.56-8,5-.1,1.95,2.43,3,6,6,5.69,4.82,9.77,11.1,9,12-1.39,1.63-17-16.35-31-13-8.73,2.09-15,11.57-14,13,.66.92,4.19-1.66,10-3,12.42-2.86,26.73,1.9,27,6,.23,3.62-10.31,9.2-21,10-20.73,1.55-33.36-15.52-49-10-3.46,1.22-3.91,2.44-4,3-.71,4.68,16.93,11.14,27,14,14.71,4.17,25.45,7.23,37,3s10.12-10.59,22-15c12.06-4.48,23.51-1.62,34,1,8.75,2.18,19.68,4.91,30,14,14,12.36,19.85,40.47,21,47"/><path class="cls-5" d="M1177,307.5a51.53,51.53,0,0,0,20-3c16-5.84,31.78-21,29-31-1.78-6.39-9.52-4.77-18-15-1.33-1.61-11.46-13.82-8-24,.87-2.56,3.4-7.37,28-16,15.83-5.56,22.38-6.24,34-10,18-5.84,29.67-13.08,35-16,39.74-21.77,142-33,142-33,70.28-7.72,131.52-6.48,254-4,31.43.64,73.54,1.8,123,18,58.6,19.19,75.64,40.06,80,46,20.73,28.2,20.76,61.36,29,61,7.4-.32,11.75-27.25,13-35,5.55-34.36,15.29-86.15-14-115-17.56-17.3-40-20.43-84-26-49.49-6.25-75.34-2.58-137-2-30.53.29-14.1-.71-123-3-102.61-2.16-128.58-1.52-144-1-59.73,2-89.59,3-118,11-24,6.76-10.34,6.07-119,60-29.45,14.62-55.48,27.09-60,50-1.71,8.66-.85,21.36,0,34,1.09,16.22,1.73,24.49,6,32C1147.3,289.54,1155.18,301.64,1177,307.5Z"/></g><path class="cls-9" d="M.5,767c55.18,8.82,161.9,33.23,269.74,110.4A615,615,0,0,1,452.5,1083"/><line class="cls-10" x1="130.5" y1="944" x2="170.5" y2="826"/><line class="cls-11" x1="237.5" y1="1019" x2="293.29" y2="897.29"/><line class="cls-12" x1="299.5" y1="1050" x2="350.5" y2="948"/><line class="cls-13" x1="13.5" y1="901" x2="41.5" y2="783"/><path class="cls-14" d="M360.5,1082c-27.09-33.83-88.17-74.32-142-113A614,614,0,0,0-.5,870Q0,976.5.5,1083C113.17,1083,247.83,1082,360.5,1082Z"/><ellipse class="cls-15" cx="883.5" cy="112" rx="199" ry="145"/><path id="hus" class="cls-16" d="M642.5,464q-1-53-2-106l-37-26-105,1-12-105-244,14,3,43-224,32,45,207,274-40,28-18,99-5,50-2,92-1Z"/><path id="spilgrund" class="cls-17" d="M516.5,1030l1370-10c-10.14-85.77,41.51-264.94-73-336-28-17.37-164.8-63.2-254-86-176.16-45-264.24-45.54-322-54-73.49-10.76-218.58-12.67-442,16-106.85,13.71-136,27-303,48-115.23,14.49-378.92,65.41-430,108C153.17,789.67,425.83,956.33,516.5,1030Z"/><g id="helikopter"><line class="cls-18" x1="106" y1="297.5" x2="232.5" y2="279"/><circle class="cls-6" cx="27.5" cy="260" r="21"/><path class="cls-19" d="M190,182.5c13.2,8.72,19.94,24.2,19,39-1.44,22.67-20.31,34.39-23,36-16.13,9.64-34.47,6.47-43,5-5.41-.94-4.62-1.42-9-2-16.7-2.22-22,5.61-41,9-19.21,3.43-26.12-2.39-35,5-5.69,4.73-5,8.92-11,12-8.15,4.19-22.53,3.16-27-6-3.92-8,1.31-19.21,8-23,3.06-1.73,5.42-1.35,6-3,1.71-4.87-17.35-12.62-16-18,.92-3.68,11.24-5.68,20-3,8.38,2.57,9.87,11.67,16,12,13.24.72,64.21-3,71-16,6.18-11.85-7.29-27.72,11-41,9.61-7,18.62-11.31,22-12C160.77,175.93,175.82,173.13,190,182.5Z"/><path class="cls-20" d="M206,236.5l-46-4-2.37-19q-1.32-10.5-2.63-21h46"/><path class="cls-21" d="M158.77,283.62a9,9,0,0,1-2.45-1.28,4.11,4.11,0,0,1-1.24-1.32,5.32,5.32,0,0,1-.48-1.93,7.91,7.91,0,0,1,1.17-6.66c1.76-3,3.61-6,6.43-8"/><path class="cls-22" d="M184.92,258.23c2.9,2.37,5.87,4.83,7.64,8.13,2.05,3.85,2.22,8.4,2.22,12.77"/><path class="cls-21" d="M153.56,264.12a36.08,36.08,0,0,0-5.76,4.79,22.39,22.39,0,0,0-2.62,2.8,23.38,23.38,0,0,0-2.8,5.64,12,12,0,0,0-.89,3.15,6.07,6.07,0,0,0,2.45,5.4"/><path class="cls-21" d="M179.52,260.76l2.08,2.39a17.3,17.3,0,0,1,3.33,4.83,15.14,15.14,0,0,1,.81,3.89,59.43,59.43,0,0,1,.3,8.85"/><path class="cls-19" d="M171,176.5c-15.23-10.36-34.86-12-39-7-3.78,4.61,4.73,16.41,6,19C146,183.5,157,174.5,171,176.5Z"/><path class="cls-23" d="M183,112.5l26,12q-40.27,21.27-81.32,38.57C149.09,145.79,171.09,125.7,183,112.5Z"/><path class="cls-23" d="M127.68,163.07c-6.37,5.15-12.69,10-18.68,14.43-21.09,15.46-29.3,18.15-47,27l-15-12Q87.71,179.92,127.68,163.07Z"/><path class="cls-23" d="M134.82,159.66c1,1.74-1.22,4.92-5,7.09s-7.62,2.51-8.63.77,1.23-4.92,5-7.09S133.82,157.91,134.82,159.66Z"/></g><g id="hus_streg" data-name="hus streg"><line class="cls-24" x1="603.5" y1="332" x2="608.5" y2="458"/><line class="cls-24" x1="498.89" y1="332.91" x2="508.02" y2="458.22"/><line class="cls-24" x1="358.61" y1="332.54" x2="368.13" y2="466.76"/><line class="cls-24" x1="421.5" y1="265" x2="429.56" y2="381.67"/><line class="cls-24" x1="450" y1="262.96" x2="458.37" y2="379.16"/><line class="cls-24" x1="405.5" y1="267" x2="414.13" y2="382.76"/><line class="cls-24" x1="323.5" y1="286" x2="341.56" y2="484.67"/><line class="cls-24" x1="90.5" y1="411" x2="113.76" y2="516.94"/><line class="cls-24" x1="297.5" y1="381" x2="320.76" y2="486.94"/><line class="cls-24" x1="298.09" y1="381.42" x2="90.5" y2="411"/><line class="cls-24" x1="303.09" y1="415.42" x2="95.5" y2="445"/><line class="cls-24" x1="310.94" y1="447.59" x2="103.35" y2="477.17"/><line class="cls-24" x1="323.35" y1="285.58" x2="358.5" y2="333"/><line class="cls-24" x1="245.5" y1="285" x2="323.5" y2="286"/><line class="cls-24" x1="415.5" y1="396" x2="420.16" y2="463.25"/><line class="cls-24" x1="459.5" y1="392" x2="465.03" y2="460.42"/><line class="cls-24" x1="431.5" y1="395" x2="436.16" y2="462.25"/><line class="cls-24" x1="354.5" y1="271" x2="449.41" y2="263.14"/><line class="cls-24" x1="354.5" y1="269" x2="358.64" y2="332.23"/><polygon class="cls-24" points="363.5 400 470.5 390 468.5 378 363.5 389 363.5 400"/></g><path class="cls-25" d="M201.5,193c2,1,2.66,3.31,4,6a33.26,33.26,0,0,1,3,7c.63,1.83.68,5,1,9s.73,7.24,0,11c-1.23,6.32-2.94,9.95-4,10-3.62.16-9.05-41.82-5-43a1.74,1.74,0,0,1,.6-.06A.78.78,0,0,1,201.5,193Z"/><g id="huler"><ellipse class="cls-26" cx="1703.95" cy="925" rx="126.55" ry="54"/><ellipse class="cls-27" cx="1704.06" cy="925" rx="112.48" ry="48" transform="translate(-75.73 155.73) rotate(-5.12)"/><ellipse class="cls-26" cx="1649.95" cy="750" rx="126.55" ry="54"/><ellipse class="cls-27" cx="1650.06" cy="750" rx="112.48" ry="48" transform="translate(-60.34 150.21) rotate(-5.12)"/><ellipse class="cls-26" cx="1269.95" cy="904" rx="126.55" ry="54"/><ellipse class="cls-27" cx="1270.06" cy="904" rx="112.48" ry="48" transform="translate(-75.59 116.92) rotate(-5.12)"/><ellipse class="cls-26" cx="1326.95" cy="697" rx="126.55" ry="54"/><ellipse class="cls-27" cx="1327.06" cy="697" rx="112.48" ry="48" transform="translate(-56.9 121.18) rotate(-5.12)"/><ellipse class="cls-26" cx="951.95" cy="850" rx="126.55" ry="54"/><ellipse class="cls-27" cx="952.06" cy="850" rx="112.48" ry="48" transform="translate(-72.04 88.34) rotate(-5.12)"/><ellipse class="cls-26" cx="1048.95" cy="630" rx="126.55" ry="54"/><ellipse class="cls-27" cx="1049.06" cy="630" rx="112.48" ry="48" transform="translate(-52.03 96.11) rotate(-5.12)"/><ellipse class="cls-26" cx="712.95" cy="706" rx="126.55" ry="54"/><ellipse class="cls-27" cx="713.06" cy="706" rx="112.48" ry="48" transform="translate(-60.15 66.44) rotate(-5.12)"/><ellipse class="cls-26" cx="637.95" cy="891" rx="126.55" ry="54"/><ellipse class="cls-26" cx="360.5" cy="782.05" rx="129" ry="55.05"/><ellipse class="cls-27" cx="360.61" cy="782.05" rx="114.67" ry="48.93" transform="translate(-68.34 35.29) rotate(-5.12)"/><ellipse class="cls-27" cx="638.06" cy="891" rx="112.48" ry="48" transform="translate(-76.95 60.48) rotate(-5.12)"/></g><path id="stig" class="cls-28" d="M464.5,462c-6.13,8.7-12.54,17.16-21,29-8.3,11.62-10.16,14.13-14,17-11,8.21-20.58,6.26-36,9-22.39,4-48.44,16.36-48,26,.16,3.39,3.54,5.72,31,18,28.94,12.94,34.82,14.66,44,20,9.76,5.67,22.91,15.24,36,32l-75,13a263.32,263.32,0,0,0-51-45c-19.93-13.38-29-15.33-33-16-14.28-2.39-20.55,2-52,11-17.07,4.86-32.38,7.9-63,14-32.21,6.41-132.88,15.19-139,12-16.86-8.8-13-42-4-55,8-11.57,65.93-21.51,67-29,68-10,141-19,209-29,8-1.67,18-2.33,26-4,9-5,18-13,27-18,16.48-2.05,33.83-1.76,52-3C436.07,462.94,450.09,462.3,464.5,462Z"/><g id="UI_linje" data-name="UI linje"><g id="UI_linije" data-name="UI linije"><rect class="cls-29" x="1383.5" y="43" width="501" height="31" rx="11.5"/></g></g><circle class="cls-30" cx="1395.5" cy="58.5" r="5"/><circle class="cls-30" cx="1874.5" cy="59" r="5"/></svg>
