<svg id="Layer_1" data-name="Layer 1" xmlns="http://www.w3.org/2000/svg" width="330" height="329" viewBox="0 0 330 329"><defs><style>.cls-1{fill:#de3832;}.cls-2{fill:none;stroke:#000;stroke-linecap:round;stroke-miterlimit:10;stroke-width:21px;}</style></defs><title>spilskærm</title><g id="_RS_knap" data-name=" RS knap"><circle class="cls-1" cx="165" cy="165" r="165"/><path class="cls-2" d="M167,276a111.76,111.76,0,0,1-38-7c-47.31-17.71-64.84-61.93-66-65-14.92-39.51-1.76-74,2-83,5.06-12,21.15-44.48,59-60,48.9-20,92.44,5.25,97,8,33.83,20.44,45,52.89,48,62a116.24,116.24,0,0,1,1,69,112.39,112.39,0,0,1-29,47"/><polygon points="245.31 193.2 244.55 243.56 294.9 244.29 273.21 265.34 222.87 264.6 223.62 214.26 245.31 193.2"/></g></svg>
